M48
; DRILL file {KiCad 9.0.6-9.0.6~ubuntu24.04.1} date 2026-01-01T13:47:06-0700
; FORMAT={-:-/ absolute / metric / decimal}
; #@! TF.CreationDate,2026-01-01T13:47:06-07:00
; #@! TF.GenerationSoftware,Kicad,Pcbnew,9.0.6-9.0.6~ubuntu24.04.1
; #@! TF.FileFunction,MixedPlating,1,2
FMAT,2
METRIC
; #@! TA.AperFunction,Plated,PTH,ViaDrill
T1C0.300
; #@! TA.AperFunction,Plated,PTH,ComponentDrill
T2C0.600
; #@! TA.AperFunction,Plated,PTH,ComponentDrill
T3C1.000
; #@! TA.AperFunction,Plated,PTH,ComponentDrill
T4C1.100
; #@! TA.AperFunction,Plated,PTH,ComponentDrill
T5C4.300
; #@! TA.AperFunction,NonPlated,NPTH,ComponentDrill
T6C0.650
; #@! TA.AperFunction,NonPlated,NPTH,ComponentDrill
T7C0.900
%
G90
G05
T1
X96.75Y-91.75
X96.75Y-93.5
X96.75Y-95.25
X96.75Y-97.0
X98.5Y-66.0
X101.5Y-70.0
X101.5Y-72.25
X101.5Y-74.0
X101.5Y-75.75
X101.5Y-110.25
X103.25Y-65.75
X105.25Y-85.5
X105.25Y-89.0
X110.5Y-87.5
X111.5Y-84.5
X112.25Y-93.25
X112.5Y-92.25
X112.5Y-94.75
X112.5Y-96.0
X112.75Y-102.0
X113.0Y-84.0
X113.0Y-104.0
X113.75Y-85.25
X114.25Y-99.0
X117.75Y-98.0
X118.25Y-102.5
X118.5Y-75.65
X121.5Y-104.25
X123.5Y-104.25
X129.0Y-104.25
X129.75Y-99.75
X131.0Y-99.75
X132.75Y-104.25
X135.25Y-82.0
X136.25Y-83.0
X137.25Y-104.25
X137.5Y-89.75
X137.5Y-95.0
X139.2Y-100.287
X141.5Y-86.0
X142.5Y-91.0
X143.5Y-68.25
X144.75Y-92.25
X145.25Y-81.5
X145.25Y-82.5
X145.25Y-89.0
X145.25Y-90.25
X147.75Y-76.5
X150.0Y-109.25
X151.25Y-96.25
X151.75Y-80.0
X151.75Y-91.75
X151.75Y-97.5
X152.0Y-103.5
T2
X94.555Y-114.28
X95.5Y-112.0
X95.5Y-116.561
X97.78Y-111.055
X97.78Y-117.505
X100.061Y-112.0
X100.061Y-116.561
X101.005Y-114.28
X145.745Y-67.53
X146.689Y-65.25
X146.689Y-69.811
X148.97Y-64.305
X148.97Y-70.755
X151.25Y-65.25
X151.25Y-69.811
X152.195Y-67.53
T3
X95.25Y-75.42
X95.25Y-77.96
X95.25Y-80.5
X95.25Y-83.04
X95.25Y-85.58
X105.65Y-116.25
X106.09Y-65.75
X108.19Y-116.25
X108.63Y-65.75
X110.73Y-116.25
X111.17Y-65.75
X113.27Y-116.25
X113.71Y-65.75
X115.81Y-116.25
X116.25Y-65.75
X118.35Y-116.25
X118.79Y-65.75
X120.89Y-116.25
X121.33Y-65.75
X123.43Y-116.25
X123.87Y-65.75
X125.97Y-116.25
X126.41Y-65.75
X128.51Y-116.25
X128.95Y-65.75
X131.05Y-116.25
X131.49Y-65.75
X133.59Y-116.25
X134.03Y-65.75
X136.13Y-116.25
X136.57Y-65.75
X138.67Y-116.25
X139.11Y-65.75
X141.21Y-116.25
X143.75Y-116.25
X146.29Y-116.25
X148.83Y-116.25
X151.37Y-116.25
T4
X97.5Y-102.0
X97.5Y-106.5
X104.0Y-102.0
X104.0Y-106.5
T5
X97.78Y-114.28
X148.97Y-67.53
T6
X148.07Y-82.93
X148.07Y-88.71
T7
X95.1Y-66.65
X95.1Y-69.65
T2
G00X147.02Y-81.5
M15
G01X148.12Y-81.5
M16
G05
G00X147.02Y-90.14
M15
G01X148.12Y-90.14
M16
G05
G00X151.35Y-81.5
M15
G01X152.15Y-81.5
M16
G05
G00X151.35Y-90.14
M15
G01X152.15Y-90.14
M16
G05
M30
