%TF.GenerationSoftware,KiCad,Pcbnew,9.0.6-9.0.6~ubuntu24.04.1*%
%TF.CreationDate,2026-01-01T13:47:20-07:00*%
%TF.ProjectId,ARviewer,41527669-6577-4657-922e-6b696361645f,rev?*%
%TF.SameCoordinates,Original*%
%TF.FileFunction,Paste,Top*%
%TF.FilePolarity,Positive*%
%FSLAX46Y46*%
G04 Gerber Fmt 4.6, Leading zero omitted, Abs format (unit mm)*
G04 Created by KiCad (PCBNEW 9.0.6-9.0.6~ubuntu24.04.1) date 2026-01-01 13:47:20*
%MOMM*%
%LPD*%
G01*
G04 APERTURE LIST*
G04 Aperture macros list*
%AMRoundRect*
0 Rectangle with rounded corners*
0 $1 Rounding radius*
0 $2 $3 $4 $5 $6 $7 $8 $9 X,Y pos of 4 corners*
0 Add a 4 corners polygon primitive as box body*
4,1,4,$2,$3,$4,$5,$6,$7,$8,$9,$2,$3,0*
0 Add four circle primitives for the rounded corners*
1,1,$1+$1,$2,$3*
1,1,$1+$1,$4,$5*
1,1,$1+$1,$6,$7*
1,1,$1+$1,$8,$9*
0 Add four rect primitives between the rounded corners*
20,1,$1+$1,$2,$3,$4,$5,0*
20,1,$1+$1,$4,$5,$6,$7,0*
20,1,$1+$1,$6,$7,$8,$9,0*
20,1,$1+$1,$8,$9,$2,$3,0*%
G04 Aperture macros list end*
%ADD10RoundRect,0.150000X0.425000X-0.150000X0.425000X0.150000X-0.425000X0.150000X-0.425000X-0.150000X0*%
%ADD11RoundRect,0.075000X0.500000X-0.075000X0.500000X0.075000X-0.500000X0.075000X-0.500000X-0.075000X0*%
%ADD12O,2.100000X1.000000*%
%ADD13O,1.800000X1.000000*%
%ADD14R,0.800000X1.000000*%
%ADD15R,1.500000X0.700000*%
%ADD16RoundRect,0.140000X0.170000X-0.140000X0.170000X0.140000X-0.170000X0.140000X-0.170000X-0.140000X0*%
%ADD17RoundRect,0.135000X-0.135000X-0.185000X0.135000X-0.185000X0.135000X0.185000X-0.135000X0.185000X0*%
%ADD18RoundRect,0.218750X-0.218750X-0.256250X0.218750X-0.256250X0.218750X0.256250X-0.218750X0.256250X0*%
%ADD19RoundRect,0.140000X-0.170000X0.140000X-0.170000X-0.140000X0.170000X-0.140000X0.170000X0.140000X0*%
%ADD20RoundRect,0.140000X-0.140000X-0.170000X0.140000X-0.170000X0.140000X0.170000X-0.140000X0.170000X0*%
%ADD21RoundRect,0.218750X-0.256250X0.218750X-0.256250X-0.218750X0.256250X-0.218750X0.256250X0.218750X0*%
%ADD22RoundRect,0.218750X0.256250X-0.218750X0.256250X0.218750X-0.256250X0.218750X-0.256250X-0.218750X0*%
%ADD23RoundRect,0.200000X0.275000X-0.200000X0.275000X0.200000X-0.275000X0.200000X-0.275000X-0.200000X0*%
%ADD24RoundRect,0.250000X-0.250000X-0.475000X0.250000X-0.475000X0.250000X0.475000X-0.250000X0.475000X0*%
%ADD25RoundRect,0.200000X0.200000X0.275000X-0.200000X0.275000X-0.200000X-0.275000X0.200000X-0.275000X0*%
%ADD26RoundRect,0.140000X0.140000X0.170000X-0.140000X0.170000X-0.140000X-0.170000X0.140000X-0.170000X0*%
%ADD27RoundRect,0.250000X0.450000X-0.262500X0.450000X0.262500X-0.450000X0.262500X-0.450000X-0.262500X0*%
%ADD28RoundRect,0.225000X0.225000X0.250000X-0.225000X0.250000X-0.225000X-0.250000X0.225000X-0.250000X0*%
%ADD29RoundRect,0.218750X0.218750X0.256250X-0.218750X0.256250X-0.218750X-0.256250X0.218750X-0.256250X0*%
%ADD30RoundRect,0.075000X-0.725000X-0.075000X0.725000X-0.075000X0.725000X0.075000X-0.725000X0.075000X0*%
%ADD31RoundRect,0.075000X-0.075000X-0.725000X0.075000X-0.725000X0.075000X0.725000X-0.075000X0.725000X0*%
%ADD32RoundRect,0.200000X-0.275000X0.200000X-0.275000X-0.200000X0.275000X-0.200000X0.275000X0.200000X0*%
%ADD33RoundRect,0.250000X0.262500X0.450000X-0.262500X0.450000X-0.262500X-0.450000X0.262500X-0.450000X0*%
%ADD34RoundRect,0.250000X-0.262500X-0.450000X0.262500X-0.450000X0.262500X0.450000X-0.262500X0.450000X0*%
%ADD35RoundRect,0.150000X0.512500X0.150000X-0.512500X0.150000X-0.512500X-0.150000X0.512500X-0.150000X0*%
%ADD36RoundRect,0.135000X-0.185000X0.135000X-0.185000X-0.135000X0.185000X-0.135000X0.185000X0.135000X0*%
%ADD37RoundRect,0.225000X-0.225000X-0.250000X0.225000X-0.250000X0.225000X0.250000X-0.225000X0.250000X0*%
%ADD38RoundRect,0.150000X0.150000X-0.512500X0.150000X0.512500X-0.150000X0.512500X-0.150000X-0.512500X0*%
%ADD39R,2.400000X1.500000*%
%ADD40RoundRect,0.250000X0.450000X0.350000X-0.450000X0.350000X-0.450000X-0.350000X0.450000X-0.350000X0*%
G04 APERTURE END LIST*
D10*
%TO.C,J2*%
X146995000Y-89020000D03*
X146995000Y-88220000D03*
D11*
X146995000Y-87070000D03*
X146995000Y-86070000D03*
X146995000Y-85570000D03*
X146995000Y-84570000D03*
D10*
X146995000Y-83420000D03*
X146995000Y-82620000D03*
X146995000Y-82620000D03*
X146995000Y-83420000D03*
D11*
X146995000Y-84070000D03*
X146995000Y-85070000D03*
X146995000Y-86570000D03*
X146995000Y-87570000D03*
D10*
X146995000Y-88220000D03*
X146995000Y-89020000D03*
D12*
X147570000Y-90140000D03*
D13*
X151750000Y-90140000D03*
D12*
X147570000Y-81500000D03*
D13*
X151750000Y-81500000D03*
%TD*%
D14*
%TO.C,SW2*%
X96210000Y-64500000D03*
X94000000Y-64500000D03*
X96210000Y-71800000D03*
X94000000Y-71800000D03*
D15*
X96860000Y-65900000D03*
X96860000Y-68900000D03*
X96860000Y-70400000D03*
%TD*%
D16*
%TO.C,C23*%
X137500000Y-90790000D03*
X137500000Y-91750000D03*
%TD*%
D17*
%TO.C,R3*%
X109510000Y-89000000D03*
X108490000Y-89000000D03*
%TD*%
D18*
%TO.C,D5*%
X103075000Y-93500000D03*
X101500000Y-93500000D03*
%TD*%
D19*
%TO.C,C8*%
X134250000Y-81960000D03*
X134250000Y-81000000D03*
%TD*%
D20*
%TO.C,C6*%
X118480000Y-78250000D03*
X117520000Y-78250000D03*
%TD*%
D19*
%TO.C,C4*%
X113750000Y-92210000D03*
X113750000Y-91250000D03*
%TD*%
D21*
%TO.C,FB2*%
X139250000Y-89962500D03*
X139250000Y-91537500D03*
%TD*%
D19*
%TO.C,C17*%
X118250000Y-101730000D03*
X118250000Y-100770000D03*
%TD*%
D22*
%TO.C,D1*%
X121500000Y-99575000D03*
X121500000Y-98000000D03*
%TD*%
D20*
%TO.C,C14*%
X112520000Y-99000000D03*
X113480000Y-99000000D03*
%TD*%
D19*
%TO.C,C20*%
X137700000Y-97552500D03*
X137700000Y-98512500D03*
%TD*%
D23*
%TO.C,R2*%
X116250000Y-101900000D03*
X116250000Y-100250000D03*
%TD*%
D16*
%TO.C,C3*%
X114500000Y-86710000D03*
X114500000Y-85750000D03*
%TD*%
D24*
%TO.C,C24*%
X149850000Y-99000000D03*
X151750000Y-99000000D03*
%TD*%
D25*
%TO.C,R8*%
X99612500Y-97000000D03*
X97962500Y-97000000D03*
%TD*%
D26*
%TO.C,C2*%
X114730000Y-83980000D03*
X113770000Y-83980000D03*
%TD*%
D27*
%TO.C,R13*%
X145750000Y-97825000D03*
X145750000Y-96000000D03*
%TD*%
D28*
%TO.C,C19*%
X137725000Y-93750000D03*
X139275000Y-93750000D03*
%TD*%
D29*
%TO.C,FB1*%
X114075000Y-97500000D03*
X112500000Y-97500000D03*
%TD*%
D25*
%TO.C,R12*%
X147575000Y-92250000D03*
X145925000Y-92250000D03*
%TD*%
D23*
%TO.C,R11*%
X147750000Y-79400000D03*
X147750000Y-77750000D03*
%TD*%
D25*
%TO.C,R5*%
X99575000Y-95250000D03*
X97925000Y-95250000D03*
%TD*%
%TO.C,R9*%
X99575000Y-93500000D03*
X97925000Y-93500000D03*
%TD*%
D30*
%TO.C,U1*%
X116650000Y-82040000D03*
X116650000Y-82540000D03*
X116650000Y-83040000D03*
X116650000Y-83540000D03*
X116650000Y-84040000D03*
X116650000Y-84540000D03*
X116650000Y-85040000D03*
X116650000Y-85540000D03*
X116650000Y-86040000D03*
X116650000Y-86540000D03*
X116650000Y-87040000D03*
X116650000Y-87540000D03*
X116650000Y-88040000D03*
X116650000Y-88540000D03*
X116650000Y-89040000D03*
X116650000Y-89540000D03*
X116650000Y-90040000D03*
X116650000Y-90540000D03*
X116650000Y-91040000D03*
X116650000Y-91540000D03*
X116650000Y-92040000D03*
X116650000Y-92540000D03*
X116650000Y-93040000D03*
X116650000Y-93540000D03*
X116650000Y-94040000D03*
D31*
X118325000Y-95715000D03*
X118825000Y-95715000D03*
X119325000Y-95715000D03*
X119825000Y-95715000D03*
X120325000Y-95715000D03*
X120825000Y-95715000D03*
X121325000Y-95715000D03*
X121825000Y-95715000D03*
X122325000Y-95715000D03*
X122825000Y-95715000D03*
X123325000Y-95715000D03*
X123825000Y-95715000D03*
X124325000Y-95715000D03*
X124825000Y-95715000D03*
X125325000Y-95715000D03*
X125825000Y-95715000D03*
X126325000Y-95715000D03*
X126825000Y-95715000D03*
X127325000Y-95715000D03*
X127825000Y-95715000D03*
X128325000Y-95715000D03*
X128825000Y-95715000D03*
X129325000Y-95715000D03*
X129825000Y-95715000D03*
X130325000Y-95715000D03*
D30*
X132000000Y-94040000D03*
X132000000Y-93540000D03*
X132000000Y-93040000D03*
X132000000Y-92540000D03*
X132000000Y-92040000D03*
X132000000Y-91540000D03*
X132000000Y-91040000D03*
X132000000Y-90540000D03*
X132000000Y-90040000D03*
X132000000Y-89540000D03*
X132000000Y-89040000D03*
X132000000Y-88540000D03*
X132000000Y-88040000D03*
X132000000Y-87540000D03*
X132000000Y-87040000D03*
X132000000Y-86540000D03*
X132000000Y-86040000D03*
X132000000Y-85540000D03*
X132000000Y-85040000D03*
X132000000Y-84540000D03*
X132000000Y-84040000D03*
X132000000Y-83540000D03*
X132000000Y-83040000D03*
X132000000Y-82540000D03*
X132000000Y-82040000D03*
D31*
X130325000Y-80365000D03*
X129825000Y-80365000D03*
X129325000Y-80365000D03*
X128825000Y-80365000D03*
X128325000Y-80365000D03*
X127825000Y-80365000D03*
X127325000Y-80365000D03*
X126825000Y-80365000D03*
X126325000Y-80365000D03*
X125825000Y-80365000D03*
X125325000Y-80365000D03*
X124825000Y-80365000D03*
X124325000Y-80365000D03*
X123825000Y-80365000D03*
X123325000Y-80365000D03*
X122825000Y-80365000D03*
X122325000Y-80365000D03*
X121825000Y-80365000D03*
X121325000Y-80365000D03*
X120825000Y-80365000D03*
X120325000Y-80365000D03*
X119825000Y-80365000D03*
X119325000Y-80365000D03*
X118825000Y-80365000D03*
X118325000Y-80365000D03*
%TD*%
D32*
%TO.C,R10*%
X132250000Y-76750000D03*
X132250000Y-78400000D03*
%TD*%
D24*
%TO.C,C25*%
X149800000Y-101750000D03*
X151700000Y-101750000D03*
%TD*%
D19*
%TO.C,C7*%
X129750000Y-97750000D03*
X129750000Y-98710000D03*
%TD*%
D18*
%TO.C,D4*%
X101537500Y-97000000D03*
X103112500Y-97000000D03*
%TD*%
D32*
%TO.C,R4*%
X121500000Y-101250000D03*
X121500000Y-102900000D03*
%TD*%
D26*
%TO.C,C15*%
X114730000Y-102000000D03*
X113770000Y-102000000D03*
%TD*%
%TO.C,C18*%
X107250000Y-89000000D03*
X106290000Y-89000000D03*
%TD*%
D25*
%TO.C,R6*%
X99537500Y-91750000D03*
X97887500Y-91750000D03*
%TD*%
D33*
%TO.C,R1*%
X116250000Y-104000000D03*
X114425000Y-104000000D03*
%TD*%
D26*
%TO.C,C11*%
X119500000Y-98000000D03*
X118540000Y-98000000D03*
%TD*%
D34*
%TO.C,R14*%
X148175000Y-96250000D03*
X150000000Y-96250000D03*
%TD*%
D16*
%TO.C,C16*%
X110750000Y-85480000D03*
X110750000Y-84520000D03*
%TD*%
D35*
%TO.C,U3*%
X140000000Y-86900000D03*
X140000000Y-85950000D03*
X140000000Y-85000000D03*
X137725000Y-85000000D03*
X137725000Y-85950000D03*
X137725000Y-86900000D03*
%TD*%
D26*
%TO.C,C5*%
X114250000Y-93250000D03*
X113290000Y-93250000D03*
%TD*%
D36*
%TO.C,R7*%
X121000000Y-77250000D03*
X121000000Y-78270000D03*
%TD*%
D37*
%TO.C,C1*%
X118750000Y-76750000D03*
X117200000Y-76750000D03*
%TD*%
D38*
%TO.C,U2*%
X139300000Y-99037500D03*
X140250000Y-99037500D03*
X141200000Y-99037500D03*
X141200000Y-96762500D03*
X140250000Y-96762500D03*
X139300000Y-96762500D03*
%TD*%
D20*
%TO.C,C9*%
X134290000Y-83000000D03*
X135250000Y-83000000D03*
%TD*%
D19*
%TO.C,C10*%
X131000000Y-97770000D03*
X131000000Y-98730000D03*
%TD*%
%TO.C,C22*%
X141500000Y-90020000D03*
X141500000Y-90980000D03*
%TD*%
D26*
%TO.C,C12*%
X114250000Y-94750000D03*
X113290000Y-94750000D03*
%TD*%
D39*
%TO.C,L1*%
X144250000Y-107250000D03*
X144250000Y-101750000D03*
%TD*%
D18*
%TO.C,D2*%
X101500000Y-95250000D03*
X103075000Y-95250000D03*
%TD*%
D40*
%TO.C,Y1*%
X109000000Y-85500000D03*
X106800000Y-85500000D03*
X106800000Y-87200000D03*
X109000000Y-87200000D03*
%TD*%
D26*
%TO.C,C13*%
X114250000Y-96000000D03*
X113290000Y-96000000D03*
%TD*%
D29*
%TO.C,D6*%
X151575000Y-105500000D03*
X150000000Y-105500000D03*
%TD*%
D18*
%TO.C,D3*%
X101462500Y-91750000D03*
X103037500Y-91750000D03*
%TD*%
D25*
%TO.C,R15*%
X151575000Y-107750000D03*
X149925000Y-107750000D03*
%TD*%
D16*
%TO.C,C21*%
X143250000Y-98210000D03*
X143250000Y-97250000D03*
%TD*%
M02*
