%TF.GenerationSoftware,KiCad,Pcbnew,9.0.6-9.0.6~ubuntu24.04.1*%
%TF.CreationDate,2026-01-01T13:47:20-07:00*%
%TF.ProjectId,ARviewer,41527669-6577-4657-922e-6b696361645f,rev?*%
%TF.SameCoordinates,Original*%
%TF.FileFunction,Copper,L2,Bot*%
%TF.FilePolarity,Positive*%
%FSLAX46Y46*%
G04 Gerber Fmt 4.6, Leading zero omitted, Abs format (unit mm)*
G04 Created by KiCad (PCBNEW 9.0.6-9.0.6~ubuntu24.04.1) date 2026-01-01 13:47:20*
%MOMM*%
%LPD*%
G01*
G04 APERTURE LIST*
%TA.AperFunction,HeatsinkPad*%
%ADD10O,2.100000X1.000000*%
%TD*%
%TA.AperFunction,HeatsinkPad*%
%ADD11O,1.800000X1.000000*%
%TD*%
%TA.AperFunction,ComponentPad*%
%ADD12C,0.900000*%
%TD*%
%TA.AperFunction,ComponentPad*%
%ADD13C,8.600000*%
%TD*%
%TA.AperFunction,ComponentPad*%
%ADD14R,1.700000X1.700000*%
%TD*%
%TA.AperFunction,ComponentPad*%
%ADD15C,1.700000*%
%TD*%
%TA.AperFunction,ComponentPad*%
%ADD16C,2.000000*%
%TD*%
%TA.AperFunction,ViaPad*%
%ADD17C,0.600000*%
%TD*%
%TA.AperFunction,Conductor*%
%ADD18C,0.500000*%
%TD*%
G04 APERTURE END LIST*
D10*
%TO.P,J2,S1,SHIELD*%
%TO.N,GND*%
X147570000Y-90140000D03*
D11*
X151750000Y-90140000D03*
D10*
X147570000Y-81500000D03*
D11*
X151750000Y-81500000D03*
%TD*%
D12*
%TO.P,H2,1,1*%
%TO.N,GND*%
X148969581Y-64305419D03*
X151250000Y-65250000D03*
X146689162Y-65250000D03*
X152194581Y-67530419D03*
D13*
X148969581Y-67530419D03*
D12*
X145744581Y-67530419D03*
X151250000Y-69810838D03*
X146689162Y-69810838D03*
X148969581Y-70755419D03*
%TD*%
D14*
%TO.P,J3,1,Pin_1*%
%TO.N,GND*%
X151370000Y-116250000D03*
D15*
%TO.P,J3,2,Pin_2*%
X148830000Y-116250000D03*
%TO.P,J3,3,Pin_3*%
%TO.N,FMC_D1*%
X146290000Y-116250000D03*
%TO.P,J3,4,Pin_4*%
%TO.N,FMC_D0*%
X143750000Y-116250000D03*
%TO.P,J3,5,Pin_5*%
%TO.N,FMC_A16*%
X141210000Y-116250000D03*
%TO.P,J3,6,Pin_6*%
%TO.N,FMC_D15*%
X138670000Y-116250000D03*
%TO.P,J3,7,Pin_7*%
%TO.N,FMC_D14*%
X136130000Y-116250000D03*
%TO.P,J3,8,Pin_8*%
%TO.N,FMC_D13*%
X133590000Y-116250000D03*
%TO.P,J3,9,Pin_9*%
%TO.N,FMC_D12*%
X131050000Y-116250000D03*
%TO.P,J3,10,Pin_10*%
%TO.N,FMC_D11*%
X128510000Y-116250000D03*
%TO.P,J3,11,Pin_11*%
%TO.N,FMC_D10*%
X125970000Y-116250000D03*
%TO.P,J3,12,Pin_12*%
%TO.N,FMC_D9*%
X123430000Y-116250000D03*
%TO.P,J3,13,Pin_13*%
%TO.N,FMC_D8*%
X120890000Y-116250000D03*
%TO.P,J3,14,Pin_14*%
%TO.N,FMC_D7*%
X118350000Y-116250000D03*
%TO.P,J3,15,Pin_15*%
%TO.N,FMC_D6*%
X115810000Y-116250000D03*
%TO.P,J3,16,Pin_16*%
%TO.N,FMC_D5*%
X113270000Y-116250000D03*
%TO.P,J3,17,Pin_17*%
%TO.N,FMC_D4*%
X110730000Y-116250000D03*
%TO.P,J3,18,Pin_18*%
%TO.N,+5V*%
X108190000Y-116250000D03*
%TO.P,J3,19,Pin_19*%
X105650000Y-116250000D03*
%TD*%
D14*
%TO.P,J4,1,Pin_1*%
%TO.N,NRST*%
X95250000Y-85580000D03*
D15*
%TO.P,J4,2,Pin_2*%
%TO.N,LSM6DSR_INT2*%
X95250000Y-83040000D03*
%TO.P,J4,3,Pin_3*%
%TO.N,LSM6DSR_INT1*%
X95250000Y-80500000D03*
%TO.P,J4,4,Pin_4*%
%TO.N,LIS3MDLTR_DRDY*%
X95250000Y-77960000D03*
%TO.P,J4,5,Pin_5*%
%TO.N,LIS3MDLTR_INT*%
X95250000Y-75420000D03*
%TD*%
D14*
%TO.P,J1,1,Pin_1*%
%TO.N,GND*%
X106090000Y-65750000D03*
D15*
%TO.P,J1,2,Pin_2*%
X108630000Y-65750000D03*
%TO.P,J1,3,Pin_3*%
%TO.N,I2C1_SDA*%
X111170000Y-65750000D03*
%TO.P,J1,4,Pin_4*%
%TO.N,I2C1_SCL*%
X113710000Y-65750000D03*
%TO.P,J1,5,Pin_5*%
%TO.N,SYS_JTCK_SWO*%
X116250000Y-65750000D03*
%TO.P,J1,6,Pin_6*%
%TO.N,FMC_NE1*%
X118790000Y-65750000D03*
%TO.P,J1,7,Pin_7*%
%TO.N,FMC_NWE*%
X121330000Y-65750000D03*
%TO.P,J1,8,Pin_8*%
%TO.N,FMC_RST*%
X123870000Y-65750000D03*
%TO.P,J1,9,Pin_9*%
%TO.N,FMC_D3*%
X126410000Y-65750000D03*
%TO.P,J1,10,Pin_10*%
%TO.N,FMC_D2*%
X128950000Y-65750000D03*
%TO.P,J1,11,Pin_11*%
%TO.N,SYS_JTCK_SWCLK*%
X131490000Y-65750000D03*
%TO.P,J1,12,Pin_12*%
%TO.N,Net-(J1-Pin_12)*%
X134030000Y-65750000D03*
%TO.P,J1,13,Pin_13*%
%TO.N,+3.3V*%
X136570000Y-65750000D03*
%TO.P,J1,14,Pin_14*%
X139110000Y-65750000D03*
%TD*%
D12*
%TO.P,H1,1,1*%
%TO.N,GND*%
X97780419Y-117505419D03*
X95500000Y-116560838D03*
X100060838Y-116560838D03*
X94555419Y-114280419D03*
D13*
X97780419Y-114280419D03*
D12*
X101005419Y-114280419D03*
X95500000Y-112000000D03*
X100060838Y-112000000D03*
X97780419Y-111055419D03*
%TD*%
D16*
%TO.P,SW1,1,1*%
%TO.N,Net-(C15-Pad1)*%
X104000000Y-106500000D03*
X97500000Y-106500000D03*
%TO.P,SW1,2,2*%
%TO.N,+3.3V*%
X104000000Y-102000000D03*
X97500000Y-102000000D03*
%TD*%
D17*
%TO.N,GND*%
X137500000Y-95000000D03*
%TO.N,+3.3V*%
X101500000Y-70000000D03*
X101500000Y-72250000D03*
X101500000Y-75750000D03*
X101500000Y-74000000D03*
%TO.N,GND*%
X118500000Y-75650000D03*
%TO.N,+3.3V*%
X129000000Y-104250000D03*
X123500000Y-104250000D03*
X137250000Y-104250000D03*
X132750000Y-104250000D03*
%TO.N,GND*%
X150000000Y-109250000D03*
X152000000Y-103500000D03*
X151750000Y-97500000D03*
X151250000Y-96250000D03*
X139200000Y-100287500D03*
X144750000Y-92250000D03*
X137500000Y-89750000D03*
X142500000Y-91000000D03*
X147750000Y-76500000D03*
X151750000Y-91750000D03*
X145250000Y-89000000D03*
X145250000Y-90250000D03*
X145250000Y-81500000D03*
X151750000Y-80000000D03*
X145250000Y-82500000D03*
X141500000Y-86000000D03*
X143500000Y-68250000D03*
X101500000Y-110250000D03*
X136250000Y-83000000D03*
X135250000Y-82000000D03*
X131000000Y-99750000D03*
X129750000Y-99750000D03*
X117750000Y-98000000D03*
X121500000Y-104250000D03*
X118250000Y-102500000D03*
X112750000Y-102000000D03*
X113000000Y-104000000D03*
X103250000Y-65750000D03*
X98500000Y-66000000D03*
X114250000Y-99000000D03*
X112500000Y-96000000D03*
X112500000Y-94750000D03*
X112500000Y-92250000D03*
X112250000Y-93250000D03*
X96750000Y-97000000D03*
X96750000Y-95250000D03*
X96750000Y-93500000D03*
X96750000Y-91750000D03*
X113750000Y-85250000D03*
X113000000Y-84000000D03*
X111500000Y-84500000D03*
X105250000Y-89000000D03*
X105250000Y-85500000D03*
X110500000Y-87500000D03*
%TD*%
D18*
%TO.N,+3.3V*%
X101500000Y-72250000D02*
X101500000Y-70000000D01*
X101500000Y-74000000D02*
X101500000Y-75750000D01*
X129000000Y-104250000D02*
X123500000Y-104250000D01*
X137250000Y-104250000D02*
X132750000Y-104250000D01*
%TD*%
%TA.AperFunction,Conductor*%
%TO.N,GND*%
G36*
X154242539Y-62470185D02*
G01*
X154288294Y-62522989D01*
X154299500Y-62574500D01*
X154299500Y-118925500D01*
X154279815Y-118992539D01*
X154227011Y-119038294D01*
X154175500Y-119049500D01*
X93324500Y-119049500D01*
X93257461Y-119029815D01*
X93211706Y-118977011D01*
X93200500Y-118925500D01*
X93200500Y-116159448D01*
X104499500Y-116159448D01*
X104499500Y-116340551D01*
X104527829Y-116519410D01*
X104583787Y-116691636D01*
X104583788Y-116691639D01*
X104666006Y-116852997D01*
X104772441Y-116999494D01*
X104772445Y-116999499D01*
X104900500Y-117127554D01*
X104900505Y-117127558D01*
X104928427Y-117147844D01*
X105047006Y-117233996D01*
X105152484Y-117287740D01*
X105208360Y-117316211D01*
X105208363Y-117316212D01*
X105287997Y-117342086D01*
X105380591Y-117372171D01*
X105463429Y-117385291D01*
X105559449Y-117400500D01*
X105559454Y-117400500D01*
X105740551Y-117400500D01*
X105827259Y-117386765D01*
X105919409Y-117372171D01*
X106091639Y-117316211D01*
X106252994Y-117233996D01*
X106399501Y-117127553D01*
X106527553Y-116999501D01*
X106633996Y-116852994D01*
X106716211Y-116691639D01*
X106772171Y-116519409D01*
X106786422Y-116429425D01*
X106797527Y-116359321D01*
X106827456Y-116296186D01*
X106886768Y-116259255D01*
X106956630Y-116260253D01*
X107014863Y-116298863D01*
X107042473Y-116359321D01*
X107067829Y-116519410D01*
X107123787Y-116691636D01*
X107123788Y-116691639D01*
X107206006Y-116852997D01*
X107312441Y-116999494D01*
X107312445Y-116999499D01*
X107440500Y-117127554D01*
X107440505Y-117127558D01*
X107468427Y-117147844D01*
X107587006Y-117233996D01*
X107692484Y-117287740D01*
X107748360Y-117316211D01*
X107748363Y-117316212D01*
X107827997Y-117342086D01*
X107920591Y-117372171D01*
X108003429Y-117385291D01*
X108099449Y-117400500D01*
X108099454Y-117400500D01*
X108280551Y-117400500D01*
X108367259Y-117386765D01*
X108459409Y-117372171D01*
X108631639Y-117316211D01*
X108792994Y-117233996D01*
X108939501Y-117127553D01*
X109067553Y-116999501D01*
X109173996Y-116852994D01*
X109256211Y-116691639D01*
X109312171Y-116519409D01*
X109326422Y-116429425D01*
X109337527Y-116359321D01*
X109367456Y-116296186D01*
X109426768Y-116259255D01*
X109496630Y-116260253D01*
X109554863Y-116298863D01*
X109582473Y-116359321D01*
X109607829Y-116519410D01*
X109663787Y-116691636D01*
X109663788Y-116691639D01*
X109746006Y-116852997D01*
X109852441Y-116999494D01*
X109852445Y-116999499D01*
X109980500Y-117127554D01*
X109980505Y-117127558D01*
X110008427Y-117147844D01*
X110127006Y-117233996D01*
X110232484Y-117287740D01*
X110288360Y-117316211D01*
X110288363Y-117316212D01*
X110367997Y-117342086D01*
X110460591Y-117372171D01*
X110543429Y-117385291D01*
X110639449Y-117400500D01*
X110639454Y-117400500D01*
X110820551Y-117400500D01*
X110907259Y-117386765D01*
X110999409Y-117372171D01*
X111171639Y-117316211D01*
X111332994Y-117233996D01*
X111479501Y-117127553D01*
X111607553Y-116999501D01*
X111713996Y-116852994D01*
X111796211Y-116691639D01*
X111852171Y-116519409D01*
X111866422Y-116429425D01*
X111877527Y-116359321D01*
X111907456Y-116296186D01*
X111966768Y-116259255D01*
X112036630Y-116260253D01*
X112094863Y-116298863D01*
X112122473Y-116359321D01*
X112147829Y-116519410D01*
X112203787Y-116691636D01*
X112203788Y-116691639D01*
X112286006Y-116852997D01*
X112392441Y-116999494D01*
X112392445Y-116999499D01*
X112520500Y-117127554D01*
X112520505Y-117127558D01*
X112548427Y-117147844D01*
X112667006Y-117233996D01*
X112772484Y-117287740D01*
X112828360Y-117316211D01*
X112828363Y-117316212D01*
X112907997Y-117342086D01*
X113000591Y-117372171D01*
X113083429Y-117385291D01*
X113179449Y-117400500D01*
X113179454Y-117400500D01*
X113360551Y-117400500D01*
X113447259Y-117386765D01*
X113539409Y-117372171D01*
X113711639Y-117316211D01*
X113872994Y-117233996D01*
X114019501Y-117127553D01*
X114147553Y-116999501D01*
X114253996Y-116852994D01*
X114336211Y-116691639D01*
X114392171Y-116519409D01*
X114406422Y-116429425D01*
X114417527Y-116359321D01*
X114447456Y-116296186D01*
X114506768Y-116259255D01*
X114576630Y-116260253D01*
X114634863Y-116298863D01*
X114662473Y-116359321D01*
X114687829Y-116519410D01*
X114743787Y-116691636D01*
X114743788Y-116691639D01*
X114826006Y-116852997D01*
X114932441Y-116999494D01*
X114932445Y-116999499D01*
X115060500Y-117127554D01*
X115060505Y-117127558D01*
X115088427Y-117147844D01*
X115207006Y-117233996D01*
X115312484Y-117287740D01*
X115368360Y-117316211D01*
X115368363Y-117316212D01*
X115447997Y-117342086D01*
X115540591Y-117372171D01*
X115623429Y-117385291D01*
X115719449Y-117400500D01*
X115719454Y-117400500D01*
X115900551Y-117400500D01*
X115987259Y-117386765D01*
X116079409Y-117372171D01*
X116251639Y-117316211D01*
X116412994Y-117233996D01*
X116559501Y-117127553D01*
X116687553Y-116999501D01*
X116793996Y-116852994D01*
X116876211Y-116691639D01*
X116932171Y-116519409D01*
X116946422Y-116429425D01*
X116957527Y-116359321D01*
X116987456Y-116296186D01*
X117046768Y-116259255D01*
X117116630Y-116260253D01*
X117174863Y-116298863D01*
X117202473Y-116359321D01*
X117227829Y-116519410D01*
X117283787Y-116691636D01*
X117283788Y-116691639D01*
X117366006Y-116852997D01*
X117472441Y-116999494D01*
X117472445Y-116999499D01*
X117600500Y-117127554D01*
X117600505Y-117127558D01*
X117628427Y-117147844D01*
X117747006Y-117233996D01*
X117852484Y-117287740D01*
X117908360Y-117316211D01*
X117908363Y-117316212D01*
X117987997Y-117342086D01*
X118080591Y-117372171D01*
X118163429Y-117385291D01*
X118259449Y-117400500D01*
X118259454Y-117400500D01*
X118440551Y-117400500D01*
X118527259Y-117386765D01*
X118619409Y-117372171D01*
X118791639Y-117316211D01*
X118952994Y-117233996D01*
X119099501Y-117127553D01*
X119227553Y-116999501D01*
X119333996Y-116852994D01*
X119416211Y-116691639D01*
X119472171Y-116519409D01*
X119486422Y-116429425D01*
X119497527Y-116359321D01*
X119527456Y-116296186D01*
X119586768Y-116259255D01*
X119656630Y-116260253D01*
X119714863Y-116298863D01*
X119742473Y-116359321D01*
X119767829Y-116519410D01*
X119823787Y-116691636D01*
X119823788Y-116691639D01*
X119906006Y-116852997D01*
X120012441Y-116999494D01*
X120012445Y-116999499D01*
X120140500Y-117127554D01*
X120140505Y-117127558D01*
X120168427Y-117147844D01*
X120287006Y-117233996D01*
X120392484Y-117287740D01*
X120448360Y-117316211D01*
X120448363Y-117316212D01*
X120527997Y-117342086D01*
X120620591Y-117372171D01*
X120703429Y-117385291D01*
X120799449Y-117400500D01*
X120799454Y-117400500D01*
X120980551Y-117400500D01*
X121067259Y-117386765D01*
X121159409Y-117372171D01*
X121331639Y-117316211D01*
X121492994Y-117233996D01*
X121639501Y-117127553D01*
X121767553Y-116999501D01*
X121873996Y-116852994D01*
X121956211Y-116691639D01*
X122012171Y-116519409D01*
X122026422Y-116429425D01*
X122037527Y-116359321D01*
X122067456Y-116296186D01*
X122126768Y-116259255D01*
X122196630Y-116260253D01*
X122254863Y-116298863D01*
X122282473Y-116359321D01*
X122307829Y-116519410D01*
X122363787Y-116691636D01*
X122363788Y-116691639D01*
X122446006Y-116852997D01*
X122552441Y-116999494D01*
X122552445Y-116999499D01*
X122680500Y-117127554D01*
X122680505Y-117127558D01*
X122708427Y-117147844D01*
X122827006Y-117233996D01*
X122932484Y-117287740D01*
X122988360Y-117316211D01*
X122988363Y-117316212D01*
X123067997Y-117342086D01*
X123160591Y-117372171D01*
X123243429Y-117385291D01*
X123339449Y-117400500D01*
X123339454Y-117400500D01*
X123520551Y-117400500D01*
X123607259Y-117386765D01*
X123699409Y-117372171D01*
X123871639Y-117316211D01*
X124032994Y-117233996D01*
X124179501Y-117127553D01*
X124307553Y-116999501D01*
X124413996Y-116852994D01*
X124496211Y-116691639D01*
X124552171Y-116519409D01*
X124566422Y-116429425D01*
X124577527Y-116359321D01*
X124607456Y-116296186D01*
X124666768Y-116259255D01*
X124736630Y-116260253D01*
X124794863Y-116298863D01*
X124822473Y-116359321D01*
X124847829Y-116519410D01*
X124903787Y-116691636D01*
X124903788Y-116691639D01*
X124986006Y-116852997D01*
X125092441Y-116999494D01*
X125092445Y-116999499D01*
X125220500Y-117127554D01*
X125220505Y-117127558D01*
X125248427Y-117147844D01*
X125367006Y-117233996D01*
X125472484Y-117287740D01*
X125528360Y-117316211D01*
X125528363Y-117316212D01*
X125607997Y-117342086D01*
X125700591Y-117372171D01*
X125783429Y-117385291D01*
X125879449Y-117400500D01*
X125879454Y-117400500D01*
X126060551Y-117400500D01*
X126147259Y-117386765D01*
X126239409Y-117372171D01*
X126411639Y-117316211D01*
X126572994Y-117233996D01*
X126719501Y-117127553D01*
X126847553Y-116999501D01*
X126953996Y-116852994D01*
X127036211Y-116691639D01*
X127092171Y-116519409D01*
X127106422Y-116429425D01*
X127117527Y-116359321D01*
X127147456Y-116296186D01*
X127206768Y-116259255D01*
X127276630Y-116260253D01*
X127334863Y-116298863D01*
X127362473Y-116359321D01*
X127387829Y-116519410D01*
X127443787Y-116691636D01*
X127443788Y-116691639D01*
X127526006Y-116852997D01*
X127632441Y-116999494D01*
X127632445Y-116999499D01*
X127760500Y-117127554D01*
X127760505Y-117127558D01*
X127788427Y-117147844D01*
X127907006Y-117233996D01*
X128012484Y-117287740D01*
X128068360Y-117316211D01*
X128068363Y-117316212D01*
X128147997Y-117342086D01*
X128240591Y-117372171D01*
X128323429Y-117385291D01*
X128419449Y-117400500D01*
X128419454Y-117400500D01*
X128600551Y-117400500D01*
X128687259Y-117386765D01*
X128779409Y-117372171D01*
X128951639Y-117316211D01*
X129112994Y-117233996D01*
X129259501Y-117127553D01*
X129387553Y-116999501D01*
X129493996Y-116852994D01*
X129576211Y-116691639D01*
X129632171Y-116519409D01*
X129646422Y-116429425D01*
X129657527Y-116359321D01*
X129687456Y-116296186D01*
X129746768Y-116259255D01*
X129816630Y-116260253D01*
X129874863Y-116298863D01*
X129902473Y-116359321D01*
X129927829Y-116519410D01*
X129983787Y-116691636D01*
X129983788Y-116691639D01*
X130066006Y-116852997D01*
X130172441Y-116999494D01*
X130172445Y-116999499D01*
X130300500Y-117127554D01*
X130300505Y-117127558D01*
X130328427Y-117147844D01*
X130447006Y-117233996D01*
X130552484Y-117287740D01*
X130608360Y-117316211D01*
X130608363Y-117316212D01*
X130687997Y-117342086D01*
X130780591Y-117372171D01*
X130863429Y-117385291D01*
X130959449Y-117400500D01*
X130959454Y-117400500D01*
X131140551Y-117400500D01*
X131227259Y-117386765D01*
X131319409Y-117372171D01*
X131491639Y-117316211D01*
X131652994Y-117233996D01*
X131799501Y-117127553D01*
X131927553Y-116999501D01*
X132033996Y-116852994D01*
X132116211Y-116691639D01*
X132172171Y-116519409D01*
X132186422Y-116429425D01*
X132197527Y-116359321D01*
X132227456Y-116296186D01*
X132286768Y-116259255D01*
X132356630Y-116260253D01*
X132414863Y-116298863D01*
X132442473Y-116359321D01*
X132467829Y-116519410D01*
X132523787Y-116691636D01*
X132523788Y-116691639D01*
X132606006Y-116852997D01*
X132712441Y-116999494D01*
X132712445Y-116999499D01*
X132840500Y-117127554D01*
X132840505Y-117127558D01*
X132868427Y-117147844D01*
X132987006Y-117233996D01*
X133092484Y-117287740D01*
X133148360Y-117316211D01*
X133148363Y-117316212D01*
X133227997Y-117342086D01*
X133320591Y-117372171D01*
X133403429Y-117385291D01*
X133499449Y-117400500D01*
X133499454Y-117400500D01*
X133680551Y-117400500D01*
X133767259Y-117386765D01*
X133859409Y-117372171D01*
X134031639Y-117316211D01*
X134192994Y-117233996D01*
X134339501Y-117127553D01*
X134467553Y-116999501D01*
X134573996Y-116852994D01*
X134656211Y-116691639D01*
X134712171Y-116519409D01*
X134726422Y-116429425D01*
X134737527Y-116359321D01*
X134767456Y-116296186D01*
X134826768Y-116259255D01*
X134896630Y-116260253D01*
X134954863Y-116298863D01*
X134982473Y-116359321D01*
X135007829Y-116519410D01*
X135063787Y-116691636D01*
X135063788Y-116691639D01*
X135146006Y-116852997D01*
X135252441Y-116999494D01*
X135252445Y-116999499D01*
X135380500Y-117127554D01*
X135380505Y-117127558D01*
X135408427Y-117147844D01*
X135527006Y-117233996D01*
X135632484Y-117287740D01*
X135688360Y-117316211D01*
X135688363Y-117316212D01*
X135767997Y-117342086D01*
X135860591Y-117372171D01*
X135943429Y-117385291D01*
X136039449Y-117400500D01*
X136039454Y-117400500D01*
X136220551Y-117400500D01*
X136307259Y-117386765D01*
X136399409Y-117372171D01*
X136571639Y-117316211D01*
X136732994Y-117233996D01*
X136879501Y-117127553D01*
X137007553Y-116999501D01*
X137113996Y-116852994D01*
X137196211Y-116691639D01*
X137252171Y-116519409D01*
X137266422Y-116429425D01*
X137277527Y-116359321D01*
X137307456Y-116296186D01*
X137366768Y-116259255D01*
X137436630Y-116260253D01*
X137494863Y-116298863D01*
X137522473Y-116359321D01*
X137547829Y-116519410D01*
X137603787Y-116691636D01*
X137603788Y-116691639D01*
X137686006Y-116852997D01*
X137792441Y-116999494D01*
X137792445Y-116999499D01*
X137920500Y-117127554D01*
X137920505Y-117127558D01*
X137948427Y-117147844D01*
X138067006Y-117233996D01*
X138172484Y-117287740D01*
X138228360Y-117316211D01*
X138228363Y-117316212D01*
X138307997Y-117342086D01*
X138400591Y-117372171D01*
X138483429Y-117385291D01*
X138579449Y-117400500D01*
X138579454Y-117400500D01*
X138760551Y-117400500D01*
X138847259Y-117386765D01*
X138939409Y-117372171D01*
X139111639Y-117316211D01*
X139272994Y-117233996D01*
X139419501Y-117127553D01*
X139547553Y-116999501D01*
X139653996Y-116852994D01*
X139736211Y-116691639D01*
X139792171Y-116519409D01*
X139806422Y-116429425D01*
X139817527Y-116359321D01*
X139847456Y-116296186D01*
X139906768Y-116259255D01*
X139976630Y-116260253D01*
X140034863Y-116298863D01*
X140062473Y-116359321D01*
X140087829Y-116519410D01*
X140143787Y-116691636D01*
X140143788Y-116691639D01*
X140226006Y-116852997D01*
X140332441Y-116999494D01*
X140332445Y-116999499D01*
X140460500Y-117127554D01*
X140460505Y-117127558D01*
X140488427Y-117147844D01*
X140607006Y-117233996D01*
X140712484Y-117287740D01*
X140768360Y-117316211D01*
X140768363Y-117316212D01*
X140847997Y-117342086D01*
X140940591Y-117372171D01*
X141023429Y-117385291D01*
X141119449Y-117400500D01*
X141119454Y-117400500D01*
X141300551Y-117400500D01*
X141387259Y-117386765D01*
X141479409Y-117372171D01*
X141651639Y-117316211D01*
X141812994Y-117233996D01*
X141959501Y-117127553D01*
X142087553Y-116999501D01*
X142193996Y-116852994D01*
X142276211Y-116691639D01*
X142332171Y-116519409D01*
X142346422Y-116429425D01*
X142357527Y-116359321D01*
X142387456Y-116296186D01*
X142446768Y-116259255D01*
X142516630Y-116260253D01*
X142574863Y-116298863D01*
X142602473Y-116359321D01*
X142627829Y-116519410D01*
X142683787Y-116691636D01*
X142683788Y-116691639D01*
X142766006Y-116852997D01*
X142872441Y-116999494D01*
X142872445Y-116999499D01*
X143000500Y-117127554D01*
X143000505Y-117127558D01*
X143028427Y-117147844D01*
X143147006Y-117233996D01*
X143252484Y-117287740D01*
X143308360Y-117316211D01*
X143308363Y-117316212D01*
X143387997Y-117342086D01*
X143480591Y-117372171D01*
X143563429Y-117385291D01*
X143659449Y-117400500D01*
X143659454Y-117400500D01*
X143840551Y-117400500D01*
X143927259Y-117386765D01*
X144019409Y-117372171D01*
X144191639Y-117316211D01*
X144352994Y-117233996D01*
X144499501Y-117127553D01*
X144627553Y-116999501D01*
X144733996Y-116852994D01*
X144816211Y-116691639D01*
X144872171Y-116519409D01*
X144886422Y-116429425D01*
X144897527Y-116359321D01*
X144927456Y-116296186D01*
X144986768Y-116259255D01*
X145056630Y-116260253D01*
X145114863Y-116298863D01*
X145142473Y-116359321D01*
X145167829Y-116519410D01*
X145223787Y-116691636D01*
X145223788Y-116691639D01*
X145306006Y-116852997D01*
X145412441Y-116999494D01*
X145412445Y-116999499D01*
X145540500Y-117127554D01*
X145540505Y-117127558D01*
X145568427Y-117147844D01*
X145687006Y-117233996D01*
X145792484Y-117287740D01*
X145848360Y-117316211D01*
X145848363Y-117316212D01*
X145927997Y-117342086D01*
X146020591Y-117372171D01*
X146103429Y-117385291D01*
X146199449Y-117400500D01*
X146199454Y-117400500D01*
X146380551Y-117400500D01*
X146467259Y-117386765D01*
X146559409Y-117372171D01*
X146731639Y-117316211D01*
X146892994Y-117233996D01*
X147011573Y-117147844D01*
X147039495Y-117127558D01*
X147039497Y-117127555D01*
X147039501Y-117127553D01*
X147167553Y-116999501D01*
X147273996Y-116852994D01*
X147341090Y-116721314D01*
X147389065Y-116670519D01*
X147456886Y-116653724D01*
X147523021Y-116676262D01*
X147566472Y-116730977D01*
X147569506Y-116739292D01*
X147578904Y-116768217D01*
X147675375Y-116957550D01*
X147714728Y-117011716D01*
X148347037Y-116379408D01*
X148364075Y-116442993D01*
X148429901Y-116557007D01*
X148522993Y-116650099D01*
X148637007Y-116715925D01*
X148700590Y-116732962D01*
X148068282Y-117365269D01*
X148068282Y-117365270D01*
X148122449Y-117404624D01*
X148311782Y-117501095D01*
X148513870Y-117566757D01*
X148723754Y-117600000D01*
X148936246Y-117600000D01*
X149146127Y-117566757D01*
X149146130Y-117566757D01*
X149348217Y-117501095D01*
X149537554Y-117404622D01*
X149591716Y-117365270D01*
X149591717Y-117365270D01*
X148959408Y-116732962D01*
X149022993Y-116715925D01*
X149137007Y-116650099D01*
X149230099Y-116557007D01*
X149295925Y-116442993D01*
X149312962Y-116379409D01*
X149982356Y-117048803D01*
X150015841Y-117110126D01*
X150014926Y-117124831D01*
X150017497Y-117124555D01*
X150026401Y-117207373D01*
X150026403Y-117207380D01*
X150076645Y-117342086D01*
X150076649Y-117342093D01*
X150162809Y-117457187D01*
X150162812Y-117457190D01*
X150277906Y-117543350D01*
X150277913Y-117543354D01*
X150412620Y-117593596D01*
X150412627Y-117593598D01*
X150472155Y-117599999D01*
X150472172Y-117600000D01*
X151120000Y-117600000D01*
X151120000Y-116683012D01*
X151177007Y-116715925D01*
X151304174Y-116750000D01*
X151435826Y-116750000D01*
X151562993Y-116715925D01*
X151620000Y-116683012D01*
X151620000Y-117600000D01*
X152267828Y-117600000D01*
X152267844Y-117599999D01*
X152327372Y-117593598D01*
X152327379Y-117593596D01*
X152462086Y-117543354D01*
X152462093Y-117543350D01*
X152577187Y-117457190D01*
X152577190Y-117457187D01*
X152663350Y-117342093D01*
X152663354Y-117342086D01*
X152713596Y-117207379D01*
X152713598Y-117207372D01*
X152719999Y-117147844D01*
X152720000Y-117147827D01*
X152720000Y-116500000D01*
X151803012Y-116500000D01*
X151835925Y-116442993D01*
X151870000Y-116315826D01*
X151870000Y-116184174D01*
X151835925Y-116057007D01*
X151803012Y-116000000D01*
X152720000Y-116000000D01*
X152720000Y-115352172D01*
X152719999Y-115352155D01*
X152713598Y-115292627D01*
X152713596Y-115292620D01*
X152663354Y-115157913D01*
X152663350Y-115157906D01*
X152577190Y-115042812D01*
X152577187Y-115042809D01*
X152462093Y-114956649D01*
X152462086Y-114956645D01*
X152327379Y-114906403D01*
X152327372Y-114906401D01*
X152267844Y-114900000D01*
X151620000Y-114900000D01*
X151620000Y-115816988D01*
X151562993Y-115784075D01*
X151435826Y-115750000D01*
X151304174Y-115750000D01*
X151177007Y-115784075D01*
X151120000Y-115816988D01*
X151120000Y-114900000D01*
X150472155Y-114900000D01*
X150412627Y-114906401D01*
X150412620Y-114906403D01*
X150277913Y-114956645D01*
X150277906Y-114956649D01*
X150162812Y-115042809D01*
X150162809Y-115042812D01*
X150076649Y-115157906D01*
X150076645Y-115157913D01*
X150026403Y-115292619D01*
X150026401Y-115292626D01*
X150017497Y-115375444D01*
X150014434Y-115375114D01*
X150015336Y-115392094D01*
X149982356Y-115451195D01*
X149312962Y-116120590D01*
X149295925Y-116057007D01*
X149230099Y-115942993D01*
X149137007Y-115849901D01*
X149022993Y-115784075D01*
X148959409Y-115767037D01*
X149591716Y-115134728D01*
X149537550Y-115095375D01*
X149348217Y-114998904D01*
X149146129Y-114933242D01*
X148936246Y-114900000D01*
X148723754Y-114900000D01*
X148513872Y-114933242D01*
X148513869Y-114933242D01*
X148311782Y-114998904D01*
X148122439Y-115095380D01*
X148068282Y-115134727D01*
X148068282Y-115134728D01*
X148700591Y-115767037D01*
X148637007Y-115784075D01*
X148522993Y-115849901D01*
X148429901Y-115942993D01*
X148364075Y-116057007D01*
X148347037Y-116120591D01*
X147714728Y-115488282D01*
X147714727Y-115488282D01*
X147675380Y-115542439D01*
X147578905Y-115731781D01*
X147569506Y-115760708D01*
X147530068Y-115818383D01*
X147465709Y-115845581D01*
X147396862Y-115833666D01*
X147345387Y-115786421D01*
X147341090Y-115778684D01*
X147317191Y-115731781D01*
X147273996Y-115647006D01*
X147198024Y-115542439D01*
X147167558Y-115500505D01*
X147167554Y-115500500D01*
X147039499Y-115372445D01*
X147039494Y-115372441D01*
X146915432Y-115282305D01*
X146892996Y-115266005D01*
X146731639Y-115183788D01*
X146731636Y-115183787D01*
X146559410Y-115127829D01*
X146380551Y-115099500D01*
X146380546Y-115099500D01*
X146199454Y-115099500D01*
X146199449Y-115099500D01*
X146020589Y-115127829D01*
X145848363Y-115183787D01*
X145848360Y-115183788D01*
X145687002Y-115266006D01*
X145540505Y-115372441D01*
X145540500Y-115372445D01*
X145412445Y-115500500D01*
X145412441Y-115500505D01*
X145306006Y-115647002D01*
X145223788Y-115808360D01*
X145223787Y-115808363D01*
X145167829Y-115980589D01*
X145142473Y-116140678D01*
X145112544Y-116203813D01*
X145053232Y-116240744D01*
X144983369Y-116239746D01*
X144925137Y-116201136D01*
X144897527Y-116140678D01*
X144875245Y-116000000D01*
X144872171Y-115980591D01*
X144829708Y-115849901D01*
X144816212Y-115808363D01*
X144816211Y-115808360D01*
X144777191Y-115731781D01*
X144733996Y-115647006D01*
X144658024Y-115542439D01*
X144627558Y-115500505D01*
X144627554Y-115500500D01*
X144499499Y-115372445D01*
X144499494Y-115372441D01*
X144352997Y-115266006D01*
X144352996Y-115266005D01*
X144352994Y-115266004D01*
X144301300Y-115239664D01*
X144191639Y-115183788D01*
X144191636Y-115183787D01*
X144019410Y-115127829D01*
X143840551Y-115099500D01*
X143840546Y-115099500D01*
X143659454Y-115099500D01*
X143659449Y-115099500D01*
X143480589Y-115127829D01*
X143308363Y-115183787D01*
X143308360Y-115183788D01*
X143147002Y-115266006D01*
X143000505Y-115372441D01*
X143000500Y-115372445D01*
X142872445Y-115500500D01*
X142872441Y-115500505D01*
X142766006Y-115647002D01*
X142683788Y-115808360D01*
X142683787Y-115808363D01*
X142627829Y-115980589D01*
X142602473Y-116140678D01*
X142572544Y-116203813D01*
X142513232Y-116240744D01*
X142443369Y-116239746D01*
X142385137Y-116201136D01*
X142357527Y-116140678D01*
X142335245Y-116000000D01*
X142332171Y-115980591D01*
X142289708Y-115849901D01*
X142276212Y-115808363D01*
X142276211Y-115808360D01*
X142237191Y-115731781D01*
X142193996Y-115647006D01*
X142118024Y-115542439D01*
X142087558Y-115500505D01*
X142087554Y-115500500D01*
X141959499Y-115372445D01*
X141959494Y-115372441D01*
X141812997Y-115266006D01*
X141812996Y-115266005D01*
X141812994Y-115266004D01*
X141761300Y-115239664D01*
X141651639Y-115183788D01*
X141651636Y-115183787D01*
X141479410Y-115127829D01*
X141300551Y-115099500D01*
X141300546Y-115099500D01*
X141119454Y-115099500D01*
X141119449Y-115099500D01*
X140940589Y-115127829D01*
X140768363Y-115183787D01*
X140768360Y-115183788D01*
X140607002Y-115266006D01*
X140460505Y-115372441D01*
X140460500Y-115372445D01*
X140332445Y-115500500D01*
X140332441Y-115500505D01*
X140226006Y-115647002D01*
X140143788Y-115808360D01*
X140143787Y-115808363D01*
X140087829Y-115980589D01*
X140062473Y-116140678D01*
X140032544Y-116203813D01*
X139973232Y-116240744D01*
X139903369Y-116239746D01*
X139845137Y-116201136D01*
X139817527Y-116140678D01*
X139795245Y-116000000D01*
X139792171Y-115980591D01*
X139749708Y-115849901D01*
X139736212Y-115808363D01*
X139736211Y-115808360D01*
X139697191Y-115731781D01*
X139653996Y-115647006D01*
X139578024Y-115542439D01*
X139547558Y-115500505D01*
X139547554Y-115500500D01*
X139419499Y-115372445D01*
X139419494Y-115372441D01*
X139272997Y-115266006D01*
X139272996Y-115266005D01*
X139272994Y-115266004D01*
X139221300Y-115239664D01*
X139111639Y-115183788D01*
X139111636Y-115183787D01*
X138939410Y-115127829D01*
X138760551Y-115099500D01*
X138760546Y-115099500D01*
X138579454Y-115099500D01*
X138579449Y-115099500D01*
X138400589Y-115127829D01*
X138228363Y-115183787D01*
X138228360Y-115183788D01*
X138067002Y-115266006D01*
X137920505Y-115372441D01*
X137920500Y-115372445D01*
X137792445Y-115500500D01*
X137792441Y-115500505D01*
X137686006Y-115647002D01*
X137603788Y-115808360D01*
X137603787Y-115808363D01*
X137547829Y-115980589D01*
X137522473Y-116140678D01*
X137492544Y-116203813D01*
X137433232Y-116240744D01*
X137363369Y-116239746D01*
X137305137Y-116201136D01*
X137277527Y-116140678D01*
X137255245Y-116000000D01*
X137252171Y-115980591D01*
X137209708Y-115849901D01*
X137196212Y-115808363D01*
X137196211Y-115808360D01*
X137157191Y-115731781D01*
X137113996Y-115647006D01*
X137038024Y-115542439D01*
X137007558Y-115500505D01*
X137007554Y-115500500D01*
X136879499Y-115372445D01*
X136879494Y-115372441D01*
X136732997Y-115266006D01*
X136732996Y-115266005D01*
X136732994Y-115266004D01*
X136681300Y-115239664D01*
X136571639Y-115183788D01*
X136571636Y-115183787D01*
X136399410Y-115127829D01*
X136220551Y-115099500D01*
X136220546Y-115099500D01*
X136039454Y-115099500D01*
X136039449Y-115099500D01*
X135860589Y-115127829D01*
X135688363Y-115183787D01*
X135688360Y-115183788D01*
X135527002Y-115266006D01*
X135380505Y-115372441D01*
X135380500Y-115372445D01*
X135252445Y-115500500D01*
X135252441Y-115500505D01*
X135146006Y-115647002D01*
X135063788Y-115808360D01*
X135063787Y-115808363D01*
X135007829Y-115980589D01*
X134982473Y-116140678D01*
X134952544Y-116203813D01*
X134893232Y-116240744D01*
X134823369Y-116239746D01*
X134765137Y-116201136D01*
X134737527Y-116140678D01*
X134715245Y-116000000D01*
X134712171Y-115980591D01*
X134669708Y-115849901D01*
X134656212Y-115808363D01*
X134656211Y-115808360D01*
X134617191Y-115731781D01*
X134573996Y-115647006D01*
X134498024Y-115542439D01*
X134467558Y-115500505D01*
X134467554Y-115500500D01*
X134339499Y-115372445D01*
X134339494Y-115372441D01*
X134192997Y-115266006D01*
X134192996Y-115266005D01*
X134192994Y-115266004D01*
X134141300Y-115239664D01*
X134031639Y-115183788D01*
X134031636Y-115183787D01*
X133859410Y-115127829D01*
X133680551Y-115099500D01*
X133680546Y-115099500D01*
X133499454Y-115099500D01*
X133499449Y-115099500D01*
X133320589Y-115127829D01*
X133148363Y-115183787D01*
X133148360Y-115183788D01*
X132987002Y-115266006D01*
X132840505Y-115372441D01*
X132840500Y-115372445D01*
X132712445Y-115500500D01*
X132712441Y-115500505D01*
X132606006Y-115647002D01*
X132523788Y-115808360D01*
X132523787Y-115808363D01*
X132467829Y-115980589D01*
X132442473Y-116140678D01*
X132412544Y-116203813D01*
X132353232Y-116240744D01*
X132283369Y-116239746D01*
X132225137Y-116201136D01*
X132197527Y-116140678D01*
X132175245Y-116000000D01*
X132172171Y-115980591D01*
X132129708Y-115849901D01*
X132116212Y-115808363D01*
X132116211Y-115808360D01*
X132077191Y-115731781D01*
X132033996Y-115647006D01*
X131958024Y-115542439D01*
X131927558Y-115500505D01*
X131927554Y-115500500D01*
X131799499Y-115372445D01*
X131799494Y-115372441D01*
X131652997Y-115266006D01*
X131652996Y-115266005D01*
X131652994Y-115266004D01*
X131601300Y-115239664D01*
X131491639Y-115183788D01*
X131491636Y-115183787D01*
X131319410Y-115127829D01*
X131140551Y-115099500D01*
X131140546Y-115099500D01*
X130959454Y-115099500D01*
X130959449Y-115099500D01*
X130780589Y-115127829D01*
X130608363Y-115183787D01*
X130608360Y-115183788D01*
X130447002Y-115266006D01*
X130300505Y-115372441D01*
X130300500Y-115372445D01*
X130172445Y-115500500D01*
X130172441Y-115500505D01*
X130066006Y-115647002D01*
X129983788Y-115808360D01*
X129983787Y-115808363D01*
X129927829Y-115980589D01*
X129902473Y-116140678D01*
X129872544Y-116203813D01*
X129813232Y-116240744D01*
X129743369Y-116239746D01*
X129685137Y-116201136D01*
X129657527Y-116140678D01*
X129635245Y-116000000D01*
X129632171Y-115980591D01*
X129589708Y-115849901D01*
X129576212Y-115808363D01*
X129576211Y-115808360D01*
X129537191Y-115731781D01*
X129493996Y-115647006D01*
X129418024Y-115542439D01*
X129387558Y-115500505D01*
X129387554Y-115500500D01*
X129259499Y-115372445D01*
X129259494Y-115372441D01*
X129112997Y-115266006D01*
X129112996Y-115266005D01*
X129112994Y-115266004D01*
X129061300Y-115239664D01*
X128951639Y-115183788D01*
X128951636Y-115183787D01*
X128779410Y-115127829D01*
X128600551Y-115099500D01*
X128600546Y-115099500D01*
X128419454Y-115099500D01*
X128419449Y-115099500D01*
X128240589Y-115127829D01*
X128068363Y-115183787D01*
X128068360Y-115183788D01*
X127907002Y-115266006D01*
X127760505Y-115372441D01*
X127760500Y-115372445D01*
X127632445Y-115500500D01*
X127632441Y-115500505D01*
X127526006Y-115647002D01*
X127443788Y-115808360D01*
X127443787Y-115808363D01*
X127387829Y-115980589D01*
X127362473Y-116140678D01*
X127332544Y-116203813D01*
X127273232Y-116240744D01*
X127203369Y-116239746D01*
X127145137Y-116201136D01*
X127117527Y-116140678D01*
X127095245Y-116000000D01*
X127092171Y-115980591D01*
X127049708Y-115849901D01*
X127036212Y-115808363D01*
X127036211Y-115808360D01*
X126997191Y-115731781D01*
X126953996Y-115647006D01*
X126878024Y-115542439D01*
X126847558Y-115500505D01*
X126847554Y-115500500D01*
X126719499Y-115372445D01*
X126719494Y-115372441D01*
X126572997Y-115266006D01*
X126572996Y-115266005D01*
X126572994Y-115266004D01*
X126521300Y-115239664D01*
X126411639Y-115183788D01*
X126411636Y-115183787D01*
X126239410Y-115127829D01*
X126060551Y-115099500D01*
X126060546Y-115099500D01*
X125879454Y-115099500D01*
X125879449Y-115099500D01*
X125700589Y-115127829D01*
X125528363Y-115183787D01*
X125528360Y-115183788D01*
X125367002Y-115266006D01*
X125220505Y-115372441D01*
X125220500Y-115372445D01*
X125092445Y-115500500D01*
X125092441Y-115500505D01*
X124986006Y-115647002D01*
X124903788Y-115808360D01*
X124903787Y-115808363D01*
X124847829Y-115980589D01*
X124822473Y-116140678D01*
X124792544Y-116203813D01*
X124733232Y-116240744D01*
X124663369Y-116239746D01*
X124605137Y-116201136D01*
X124577527Y-116140678D01*
X124555245Y-116000000D01*
X124552171Y-115980591D01*
X124509708Y-115849901D01*
X124496212Y-115808363D01*
X124496211Y-115808360D01*
X124457191Y-115731781D01*
X124413996Y-115647006D01*
X124338024Y-115542439D01*
X124307558Y-115500505D01*
X124307554Y-115500500D01*
X124179499Y-115372445D01*
X124179494Y-115372441D01*
X124032997Y-115266006D01*
X124032996Y-115266005D01*
X124032994Y-115266004D01*
X123981300Y-115239664D01*
X123871639Y-115183788D01*
X123871636Y-115183787D01*
X123699410Y-115127829D01*
X123520551Y-115099500D01*
X123520546Y-115099500D01*
X123339454Y-115099500D01*
X123339449Y-115099500D01*
X123160589Y-115127829D01*
X122988363Y-115183787D01*
X122988360Y-115183788D01*
X122827002Y-115266006D01*
X122680505Y-115372441D01*
X122680500Y-115372445D01*
X122552445Y-115500500D01*
X122552441Y-115500505D01*
X122446006Y-115647002D01*
X122363788Y-115808360D01*
X122363787Y-115808363D01*
X122307829Y-115980589D01*
X122282473Y-116140678D01*
X122252544Y-116203813D01*
X122193232Y-116240744D01*
X122123369Y-116239746D01*
X122065137Y-116201136D01*
X122037527Y-116140678D01*
X122015245Y-116000000D01*
X122012171Y-115980591D01*
X121969708Y-115849901D01*
X121956212Y-115808363D01*
X121956211Y-115808360D01*
X121917191Y-115731781D01*
X121873996Y-115647006D01*
X121798024Y-115542439D01*
X121767558Y-115500505D01*
X121767554Y-115500500D01*
X121639499Y-115372445D01*
X121639494Y-115372441D01*
X121492997Y-115266006D01*
X121492996Y-115266005D01*
X121492994Y-115266004D01*
X121441300Y-115239664D01*
X121331639Y-115183788D01*
X121331636Y-115183787D01*
X121159410Y-115127829D01*
X120980551Y-115099500D01*
X120980546Y-115099500D01*
X120799454Y-115099500D01*
X120799449Y-115099500D01*
X120620589Y-115127829D01*
X120448363Y-115183787D01*
X120448360Y-115183788D01*
X120287002Y-115266006D01*
X120140505Y-115372441D01*
X120140500Y-115372445D01*
X120012445Y-115500500D01*
X120012441Y-115500505D01*
X119906006Y-115647002D01*
X119823788Y-115808360D01*
X119823787Y-115808363D01*
X119767829Y-115980589D01*
X119742473Y-116140678D01*
X119712544Y-116203813D01*
X119653232Y-116240744D01*
X119583369Y-116239746D01*
X119525137Y-116201136D01*
X119497527Y-116140678D01*
X119475245Y-116000000D01*
X119472171Y-115980591D01*
X119429708Y-115849901D01*
X119416212Y-115808363D01*
X119416211Y-115808360D01*
X119377191Y-115731781D01*
X119333996Y-115647006D01*
X119258024Y-115542439D01*
X119227558Y-115500505D01*
X119227554Y-115500500D01*
X119099499Y-115372445D01*
X119099494Y-115372441D01*
X118952997Y-115266006D01*
X118952996Y-115266005D01*
X118952994Y-115266004D01*
X118901300Y-115239664D01*
X118791639Y-115183788D01*
X118791636Y-115183787D01*
X118619410Y-115127829D01*
X118440551Y-115099500D01*
X118440546Y-115099500D01*
X118259454Y-115099500D01*
X118259449Y-115099500D01*
X118080589Y-115127829D01*
X117908363Y-115183787D01*
X117908360Y-115183788D01*
X117747002Y-115266006D01*
X117600505Y-115372441D01*
X117600500Y-115372445D01*
X117472445Y-115500500D01*
X117472441Y-115500505D01*
X117366006Y-115647002D01*
X117283788Y-115808360D01*
X117283787Y-115808363D01*
X117227829Y-115980589D01*
X117202473Y-116140678D01*
X117172544Y-116203813D01*
X117113232Y-116240744D01*
X117043369Y-116239746D01*
X116985137Y-116201136D01*
X116957527Y-116140678D01*
X116935245Y-116000000D01*
X116932171Y-115980591D01*
X116889708Y-115849901D01*
X116876212Y-115808363D01*
X116876211Y-115808360D01*
X116837191Y-115731781D01*
X116793996Y-115647006D01*
X116718024Y-115542439D01*
X116687558Y-115500505D01*
X116687554Y-115500500D01*
X116559499Y-115372445D01*
X116559494Y-115372441D01*
X116412997Y-115266006D01*
X116412996Y-115266005D01*
X116412994Y-115266004D01*
X116361300Y-115239664D01*
X116251639Y-115183788D01*
X116251636Y-115183787D01*
X116079410Y-115127829D01*
X115900551Y-115099500D01*
X115900546Y-115099500D01*
X115719454Y-115099500D01*
X115719449Y-115099500D01*
X115540589Y-115127829D01*
X115368363Y-115183787D01*
X115368360Y-115183788D01*
X115207002Y-115266006D01*
X115060505Y-115372441D01*
X115060500Y-115372445D01*
X114932445Y-115500500D01*
X114932441Y-115500505D01*
X114826006Y-115647002D01*
X114743788Y-115808360D01*
X114743787Y-115808363D01*
X114687829Y-115980589D01*
X114662473Y-116140678D01*
X114632544Y-116203813D01*
X114573232Y-116240744D01*
X114503369Y-116239746D01*
X114445137Y-116201136D01*
X114417527Y-116140678D01*
X114395245Y-116000000D01*
X114392171Y-115980591D01*
X114349708Y-115849901D01*
X114336212Y-115808363D01*
X114336211Y-115808360D01*
X114297191Y-115731781D01*
X114253996Y-115647006D01*
X114178024Y-115542439D01*
X114147558Y-115500505D01*
X114147554Y-115500500D01*
X114019499Y-115372445D01*
X114019494Y-115372441D01*
X113872997Y-115266006D01*
X113872996Y-115266005D01*
X113872994Y-115266004D01*
X113821300Y-115239664D01*
X113711639Y-115183788D01*
X113711636Y-115183787D01*
X113539410Y-115127829D01*
X113360551Y-115099500D01*
X113360546Y-115099500D01*
X113179454Y-115099500D01*
X113179449Y-115099500D01*
X113000589Y-115127829D01*
X112828363Y-115183787D01*
X112828360Y-115183788D01*
X112667002Y-115266006D01*
X112520505Y-115372441D01*
X112520500Y-115372445D01*
X112392445Y-115500500D01*
X112392441Y-115500505D01*
X112286006Y-115647002D01*
X112203788Y-115808360D01*
X112203787Y-115808363D01*
X112147829Y-115980589D01*
X112122473Y-116140678D01*
X112092544Y-116203813D01*
X112033232Y-116240744D01*
X111963369Y-116239746D01*
X111905137Y-116201136D01*
X111877527Y-116140678D01*
X111855245Y-116000000D01*
X111852171Y-115980591D01*
X111809708Y-115849901D01*
X111796212Y-115808363D01*
X111796211Y-115808360D01*
X111757191Y-115731781D01*
X111713996Y-115647006D01*
X111638024Y-115542439D01*
X111607558Y-115500505D01*
X111607554Y-115500500D01*
X111479499Y-115372445D01*
X111479494Y-115372441D01*
X111332997Y-115266006D01*
X111332996Y-115266005D01*
X111332994Y-115266004D01*
X111281300Y-115239664D01*
X111171639Y-115183788D01*
X111171636Y-115183787D01*
X110999410Y-115127829D01*
X110820551Y-115099500D01*
X110820546Y-115099500D01*
X110639454Y-115099500D01*
X110639449Y-115099500D01*
X110460589Y-115127829D01*
X110288363Y-115183787D01*
X110288360Y-115183788D01*
X110127002Y-115266006D01*
X109980505Y-115372441D01*
X109980500Y-115372445D01*
X109852445Y-115500500D01*
X109852441Y-115500505D01*
X109746006Y-115647002D01*
X109663788Y-115808360D01*
X109663787Y-115808363D01*
X109607829Y-115980589D01*
X109582473Y-116140678D01*
X109552544Y-116203813D01*
X109493232Y-116240744D01*
X109423369Y-116239746D01*
X109365137Y-116201136D01*
X109337527Y-116140678D01*
X109315245Y-116000000D01*
X109312171Y-115980591D01*
X109269708Y-115849901D01*
X109256212Y-115808363D01*
X109256211Y-115808360D01*
X109217191Y-115731781D01*
X109173996Y-115647006D01*
X109098024Y-115542439D01*
X109067558Y-115500505D01*
X109067554Y-115500500D01*
X108939499Y-115372445D01*
X108939494Y-115372441D01*
X108792997Y-115266006D01*
X108792996Y-115266005D01*
X108792994Y-115266004D01*
X108741300Y-115239664D01*
X108631639Y-115183788D01*
X108631636Y-115183787D01*
X108459410Y-115127829D01*
X108280551Y-115099500D01*
X108280546Y-115099500D01*
X108099454Y-115099500D01*
X108099449Y-115099500D01*
X107920589Y-115127829D01*
X107748363Y-115183787D01*
X107748360Y-115183788D01*
X107587002Y-115266006D01*
X107440505Y-115372441D01*
X107440500Y-115372445D01*
X107312445Y-115500500D01*
X107312441Y-115500505D01*
X107206006Y-115647002D01*
X107123788Y-115808360D01*
X107123787Y-115808363D01*
X107067829Y-115980589D01*
X107042473Y-116140678D01*
X107012544Y-116203813D01*
X106953232Y-116240744D01*
X106883369Y-116239746D01*
X106825137Y-116201136D01*
X106797527Y-116140678D01*
X106775245Y-116000000D01*
X106772171Y-115980591D01*
X106729708Y-115849901D01*
X106716212Y-115808363D01*
X106716211Y-115808360D01*
X106677191Y-115731781D01*
X106633996Y-115647006D01*
X106558024Y-115542439D01*
X106527558Y-115500505D01*
X106527554Y-115500500D01*
X106399499Y-115372445D01*
X106399494Y-115372441D01*
X106252997Y-115266006D01*
X106252996Y-115266005D01*
X106252994Y-115266004D01*
X106201300Y-115239664D01*
X106091639Y-115183788D01*
X106091636Y-115183787D01*
X105919410Y-115127829D01*
X105740551Y-115099500D01*
X105740546Y-115099500D01*
X105559454Y-115099500D01*
X105559449Y-115099500D01*
X105380589Y-115127829D01*
X105208363Y-115183787D01*
X105208360Y-115183788D01*
X105047002Y-115266006D01*
X104900505Y-115372441D01*
X104900500Y-115372445D01*
X104772445Y-115500500D01*
X104772441Y-115500505D01*
X104666006Y-115647002D01*
X104583788Y-115808360D01*
X104583787Y-115808363D01*
X104527829Y-115980589D01*
X104499500Y-116159448D01*
X93200500Y-116159448D01*
X93200500Y-106397648D01*
X96199500Y-106397648D01*
X96199500Y-106602351D01*
X96231522Y-106804534D01*
X96294781Y-106999223D01*
X96387715Y-107181613D01*
X96508028Y-107347213D01*
X96652786Y-107491971D01*
X96807749Y-107604556D01*
X96818390Y-107612287D01*
X96934607Y-107671503D01*
X97000776Y-107705218D01*
X97000778Y-107705218D01*
X97000781Y-107705220D01*
X97105137Y-107739127D01*
X97195465Y-107768477D01*
X97296557Y-107784488D01*
X97397648Y-107800500D01*
X97397649Y-107800500D01*
X97602351Y-107800500D01*
X97602352Y-107800500D01*
X97804534Y-107768477D01*
X97999219Y-107705220D01*
X98181610Y-107612287D01*
X98274590Y-107544732D01*
X98347213Y-107491971D01*
X98347215Y-107491968D01*
X98347219Y-107491966D01*
X98491966Y-107347219D01*
X98491968Y-107347215D01*
X98491971Y-107347213D01*
X98544732Y-107274590D01*
X98612287Y-107181610D01*
X98705220Y-106999219D01*
X98768477Y-106804534D01*
X98800500Y-106602352D01*
X98800500Y-106397648D01*
X102699500Y-106397648D01*
X102699500Y-106602351D01*
X102731522Y-106804534D01*
X102794781Y-106999223D01*
X102887715Y-107181613D01*
X103008028Y-107347213D01*
X103152786Y-107491971D01*
X103307749Y-107604556D01*
X103318390Y-107612287D01*
X103434607Y-107671503D01*
X103500776Y-107705218D01*
X103500778Y-107705218D01*
X103500781Y-107705220D01*
X103605137Y-107739127D01*
X103695465Y-107768477D01*
X103796557Y-107784488D01*
X103897648Y-107800500D01*
X103897649Y-107800500D01*
X104102351Y-107800500D01*
X104102352Y-107800500D01*
X104304534Y-107768477D01*
X104499219Y-107705220D01*
X104681610Y-107612287D01*
X104774590Y-107544732D01*
X104847213Y-107491971D01*
X104847215Y-107491968D01*
X104847219Y-107491966D01*
X104991966Y-107347219D01*
X104991968Y-107347215D01*
X104991971Y-107347213D01*
X105044732Y-107274590D01*
X105112287Y-107181610D01*
X105205220Y-106999219D01*
X105268477Y-106804534D01*
X105300500Y-106602352D01*
X105300500Y-106397648D01*
X105268477Y-106195466D01*
X105205220Y-106000781D01*
X105205218Y-106000778D01*
X105205218Y-106000776D01*
X105171503Y-105934607D01*
X105112287Y-105818390D01*
X105104556Y-105807749D01*
X104991971Y-105652786D01*
X104847213Y-105508028D01*
X104681613Y-105387715D01*
X104681612Y-105387714D01*
X104681610Y-105387713D01*
X104624653Y-105358691D01*
X104499223Y-105294781D01*
X104304534Y-105231522D01*
X104129995Y-105203878D01*
X104102352Y-105199500D01*
X103897648Y-105199500D01*
X103873329Y-105203351D01*
X103695465Y-105231522D01*
X103500776Y-105294781D01*
X103318386Y-105387715D01*
X103152786Y-105508028D01*
X103008028Y-105652786D01*
X102887715Y-105818386D01*
X102794781Y-106000776D01*
X102731522Y-106195465D01*
X102699500Y-106397648D01*
X98800500Y-106397648D01*
X98768477Y-106195466D01*
X98705220Y-106000781D01*
X98705218Y-106000778D01*
X98705218Y-106000776D01*
X98671503Y-105934607D01*
X98612287Y-105818390D01*
X98604556Y-105807749D01*
X98491971Y-105652786D01*
X98347213Y-105508028D01*
X98181613Y-105387715D01*
X98181612Y-105387714D01*
X98181610Y-105387713D01*
X98124653Y-105358691D01*
X97999223Y-105294781D01*
X97804534Y-105231522D01*
X97629995Y-105203878D01*
X97602352Y-105199500D01*
X97397648Y-105199500D01*
X97373329Y-105203351D01*
X97195465Y-105231522D01*
X97000776Y-105294781D01*
X96818386Y-105387715D01*
X96652786Y-105508028D01*
X96508028Y-105652786D01*
X96387715Y-105818386D01*
X96294781Y-106000776D01*
X96231522Y-106195465D01*
X96199500Y-106397648D01*
X93200500Y-106397648D01*
X93200500Y-104170943D01*
X122899500Y-104170943D01*
X122899500Y-104329056D01*
X122940423Y-104481783D01*
X122940426Y-104481790D01*
X123019475Y-104618709D01*
X123019479Y-104618714D01*
X123019480Y-104618716D01*
X123131284Y-104730520D01*
X123131286Y-104730521D01*
X123131290Y-104730524D01*
X123252494Y-104800500D01*
X123268216Y-104809577D01*
X123420943Y-104850500D01*
X123420945Y-104850500D01*
X123579055Y-104850500D01*
X123579057Y-104850500D01*
X123731784Y-104809577D01*
X123731785Y-104809576D01*
X123739635Y-104807473D01*
X123739820Y-104808165D01*
X123778363Y-104800500D01*
X128721637Y-104800500D01*
X128760179Y-104808165D01*
X128760365Y-104807473D01*
X128768214Y-104809576D01*
X128768216Y-104809577D01*
X128920943Y-104850500D01*
X128920945Y-104850500D01*
X129079055Y-104850500D01*
X129079057Y-104850500D01*
X129231784Y-104809577D01*
X129368716Y-104730520D01*
X129480520Y-104618716D01*
X129559577Y-104481784D01*
X129600500Y-104329057D01*
X129600500Y-104170943D01*
X132149500Y-104170943D01*
X132149500Y-104329056D01*
X132190423Y-104481783D01*
X132190426Y-104481790D01*
X132269475Y-104618709D01*
X132269479Y-104618714D01*
X132269480Y-104618716D01*
X132381284Y-104730520D01*
X132381286Y-104730521D01*
X132381290Y-104730524D01*
X132502494Y-104800500D01*
X132518216Y-104809577D01*
X132670943Y-104850500D01*
X132670945Y-104850500D01*
X132829055Y-104850500D01*
X132829057Y-104850500D01*
X132981784Y-104809577D01*
X132981785Y-104809576D01*
X132989635Y-104807473D01*
X132989820Y-104808165D01*
X133028363Y-104800500D01*
X136971637Y-104800500D01*
X137010179Y-104808165D01*
X137010365Y-104807473D01*
X137018214Y-104809576D01*
X137018216Y-104809577D01*
X137170943Y-104850500D01*
X137170945Y-104850500D01*
X137329055Y-104850500D01*
X137329057Y-104850500D01*
X137481784Y-104809577D01*
X137618716Y-104730520D01*
X137730520Y-104618716D01*
X137809577Y-104481784D01*
X137850500Y-104329057D01*
X137850500Y-104170943D01*
X137809577Y-104018216D01*
X137809573Y-104018209D01*
X137730524Y-103881290D01*
X137730518Y-103881282D01*
X137618717Y-103769481D01*
X137618709Y-103769475D01*
X137481790Y-103690426D01*
X137481786Y-103690424D01*
X137481784Y-103690423D01*
X137329057Y-103649500D01*
X137170943Y-103649500D01*
X137018216Y-103690423D01*
X137018214Y-103690423D01*
X137010365Y-103692527D01*
X137010179Y-103691834D01*
X136971637Y-103699500D01*
X133028363Y-103699500D01*
X132989820Y-103691834D01*
X132989635Y-103692527D01*
X132981785Y-103690423D01*
X132981784Y-103690423D01*
X132829057Y-103649500D01*
X132670943Y-103649500D01*
X132518216Y-103690423D01*
X132518209Y-103690426D01*
X132381290Y-103769475D01*
X132381282Y-103769481D01*
X132269481Y-103881282D01*
X132269475Y-103881290D01*
X132190426Y-104018209D01*
X132190423Y-104018216D01*
X132149500Y-104170943D01*
X129600500Y-104170943D01*
X129559577Y-104018216D01*
X129559573Y-104018209D01*
X129480524Y-103881290D01*
X129480518Y-103881282D01*
X129368717Y-103769481D01*
X129368709Y-103769475D01*
X129231790Y-103690426D01*
X129231786Y-103690424D01*
X129231784Y-103690423D01*
X129079057Y-103649500D01*
X128920943Y-103649500D01*
X128768216Y-103690423D01*
X128768214Y-103690423D01*
X128760365Y-103692527D01*
X128760179Y-103691834D01*
X128721637Y-103699500D01*
X123778363Y-103699500D01*
X123739820Y-103691834D01*
X123739635Y-103692527D01*
X123731785Y-103690423D01*
X123731784Y-103690423D01*
X123579057Y-103649500D01*
X123420943Y-103649500D01*
X123268216Y-103690423D01*
X123268209Y-103690426D01*
X123131290Y-103769475D01*
X123131282Y-103769481D01*
X123019481Y-103881282D01*
X123019475Y-103881290D01*
X122940426Y-104018209D01*
X122940423Y-104018216D01*
X122899500Y-104170943D01*
X93200500Y-104170943D01*
X93200500Y-101897648D01*
X96199500Y-101897648D01*
X96199500Y-102102351D01*
X96231522Y-102304534D01*
X96294781Y-102499223D01*
X96387715Y-102681613D01*
X96508028Y-102847213D01*
X96652786Y-102991971D01*
X96807749Y-103104556D01*
X96818390Y-103112287D01*
X96934607Y-103171503D01*
X97000776Y-103205218D01*
X97000778Y-103205218D01*
X97000781Y-103205220D01*
X97105137Y-103239127D01*
X97195465Y-103268477D01*
X97296557Y-103284488D01*
X97397648Y-103300500D01*
X97397649Y-103300500D01*
X97602351Y-103300500D01*
X97602352Y-103300500D01*
X97804534Y-103268477D01*
X97999219Y-103205220D01*
X98181610Y-103112287D01*
X98274590Y-103044732D01*
X98347213Y-102991971D01*
X98347215Y-102991968D01*
X98347219Y-102991966D01*
X98491966Y-102847219D01*
X98491968Y-102847215D01*
X98491971Y-102847213D01*
X98544732Y-102774590D01*
X98612287Y-102681610D01*
X98705220Y-102499219D01*
X98768477Y-102304534D01*
X98800500Y-102102352D01*
X98800500Y-101897648D01*
X102699500Y-101897648D01*
X102699500Y-102102351D01*
X102731522Y-102304534D01*
X102794781Y-102499223D01*
X102887715Y-102681613D01*
X103008028Y-102847213D01*
X103152786Y-102991971D01*
X103307749Y-103104556D01*
X103318390Y-103112287D01*
X103434607Y-103171503D01*
X103500776Y-103205218D01*
X103500778Y-103205218D01*
X103500781Y-103205220D01*
X103605137Y-103239127D01*
X103695465Y-103268477D01*
X103796557Y-103284488D01*
X103897648Y-103300500D01*
X103897649Y-103300500D01*
X104102351Y-103300500D01*
X104102352Y-103300500D01*
X104304534Y-103268477D01*
X104499219Y-103205220D01*
X104681610Y-103112287D01*
X104774590Y-103044732D01*
X104847213Y-102991971D01*
X104847215Y-102991968D01*
X104847219Y-102991966D01*
X104991966Y-102847219D01*
X104991968Y-102847215D01*
X104991971Y-102847213D01*
X105044732Y-102774590D01*
X105112287Y-102681610D01*
X105205220Y-102499219D01*
X105268477Y-102304534D01*
X105300500Y-102102352D01*
X105300500Y-101897648D01*
X105268477Y-101695466D01*
X105205220Y-101500781D01*
X105205218Y-101500778D01*
X105205218Y-101500776D01*
X105171503Y-101434607D01*
X105112287Y-101318390D01*
X105104556Y-101307749D01*
X104991971Y-101152786D01*
X104847213Y-101008028D01*
X104681613Y-100887715D01*
X104681612Y-100887714D01*
X104681610Y-100887713D01*
X104624653Y-100858691D01*
X104499223Y-100794781D01*
X104304534Y-100731522D01*
X104129995Y-100703878D01*
X104102352Y-100699500D01*
X103897648Y-100699500D01*
X103873329Y-100703351D01*
X103695465Y-100731522D01*
X103500776Y-100794781D01*
X103318386Y-100887715D01*
X103152786Y-101008028D01*
X103008028Y-101152786D01*
X102887715Y-101318386D01*
X102794781Y-101500776D01*
X102731522Y-101695465D01*
X102699500Y-101897648D01*
X98800500Y-101897648D01*
X98768477Y-101695466D01*
X98705220Y-101500781D01*
X98705218Y-101500778D01*
X98705218Y-101500776D01*
X98671503Y-101434607D01*
X98612287Y-101318390D01*
X98604556Y-101307749D01*
X98491971Y-101152786D01*
X98347213Y-101008028D01*
X98181613Y-100887715D01*
X98181612Y-100887714D01*
X98181610Y-100887713D01*
X98124653Y-100858691D01*
X97999223Y-100794781D01*
X97804534Y-100731522D01*
X97629995Y-100703878D01*
X97602352Y-100699500D01*
X97397648Y-100699500D01*
X97373329Y-100703351D01*
X97195465Y-100731522D01*
X97000776Y-100794781D01*
X96818386Y-100887715D01*
X96652786Y-101008028D01*
X96508028Y-101152786D01*
X96387715Y-101318386D01*
X96294781Y-101500776D01*
X96231522Y-101695465D01*
X96199500Y-101897648D01*
X93200500Y-101897648D01*
X93200500Y-89890000D01*
X146050138Y-89890000D01*
X146853012Y-89890000D01*
X146835795Y-89899940D01*
X146779940Y-89955795D01*
X146740444Y-90024204D01*
X146720000Y-90100504D01*
X146720000Y-90179496D01*
X146740444Y-90255796D01*
X146779940Y-90324205D01*
X146835795Y-90380060D01*
X146853012Y-90390000D01*
X146050138Y-90390000D01*
X146058430Y-90431690D01*
X146058430Y-90431692D01*
X146133807Y-90613671D01*
X146133814Y-90613684D01*
X146243248Y-90777462D01*
X146243251Y-90777466D01*
X146382533Y-90916748D01*
X146382537Y-90916751D01*
X146546315Y-91026185D01*
X146546328Y-91026192D01*
X146728306Y-91101569D01*
X146728318Y-91101572D01*
X146921504Y-91139999D01*
X146921508Y-91140000D01*
X147320000Y-91140000D01*
X147320000Y-90440000D01*
X147820000Y-90440000D01*
X147820000Y-91140000D01*
X148218492Y-91140000D01*
X148218495Y-91139999D01*
X148411681Y-91101572D01*
X148411693Y-91101569D01*
X148593671Y-91026192D01*
X148593684Y-91026185D01*
X148757462Y-90916751D01*
X148757466Y-90916748D01*
X148896748Y-90777466D01*
X148896751Y-90777462D01*
X149006185Y-90613684D01*
X149006192Y-90613671D01*
X149081569Y-90431692D01*
X149081569Y-90431690D01*
X149089862Y-90390000D01*
X148286988Y-90390000D01*
X148304205Y-90380060D01*
X148360060Y-90324205D01*
X148399556Y-90255796D01*
X148420000Y-90179496D01*
X148420000Y-90100504D01*
X148399556Y-90024204D01*
X148360060Y-89955795D01*
X148304205Y-89899940D01*
X148286988Y-89890000D01*
X149089862Y-89890000D01*
X150380138Y-89890000D01*
X151183012Y-89890000D01*
X151165795Y-89899940D01*
X151109940Y-89955795D01*
X151070444Y-90024204D01*
X151050000Y-90100504D01*
X151050000Y-90179496D01*
X151070444Y-90255796D01*
X151109940Y-90324205D01*
X151165795Y-90380060D01*
X151183012Y-90390000D01*
X150380138Y-90390000D01*
X150388430Y-90431690D01*
X150388430Y-90431692D01*
X150463807Y-90613671D01*
X150463814Y-90613684D01*
X150573248Y-90777462D01*
X150573251Y-90777466D01*
X150712533Y-90916748D01*
X150712537Y-90916751D01*
X150876315Y-91026185D01*
X150876328Y-91026192D01*
X151058306Y-91101569D01*
X151058318Y-91101572D01*
X151251504Y-91139999D01*
X151251508Y-91140000D01*
X151500000Y-91140000D01*
X151500000Y-90440000D01*
X152000000Y-90440000D01*
X152000000Y-91140000D01*
X152248492Y-91140000D01*
X152248495Y-91139999D01*
X152441681Y-91101572D01*
X152441693Y-91101569D01*
X152623671Y-91026192D01*
X152623684Y-91026185D01*
X152787462Y-90916751D01*
X152787466Y-90916748D01*
X152926748Y-90777466D01*
X152926751Y-90777462D01*
X153036185Y-90613684D01*
X153036192Y-90613671D01*
X153111569Y-90431692D01*
X153111569Y-90431690D01*
X153119862Y-90390000D01*
X152316988Y-90390000D01*
X152334205Y-90380060D01*
X152390060Y-90324205D01*
X152429556Y-90255796D01*
X152450000Y-90179496D01*
X152450000Y-90100504D01*
X152429556Y-90024204D01*
X152390060Y-89955795D01*
X152334205Y-89899940D01*
X152316988Y-89890000D01*
X153119862Y-89890000D01*
X153111569Y-89848309D01*
X153111569Y-89848307D01*
X153036192Y-89666328D01*
X153036185Y-89666315D01*
X152926751Y-89502537D01*
X152926748Y-89502533D01*
X152787466Y-89363251D01*
X152787462Y-89363248D01*
X152623684Y-89253814D01*
X152623671Y-89253807D01*
X152441693Y-89178430D01*
X152441681Y-89178427D01*
X152248495Y-89140000D01*
X152000000Y-89140000D01*
X152000000Y-89840000D01*
X151500000Y-89840000D01*
X151500000Y-89140000D01*
X151251504Y-89140000D01*
X151058318Y-89178427D01*
X151058306Y-89178430D01*
X150876328Y-89253807D01*
X150876315Y-89253814D01*
X150712537Y-89363248D01*
X150712533Y-89363251D01*
X150573251Y-89502533D01*
X150573248Y-89502537D01*
X150463814Y-89666315D01*
X150463807Y-89666328D01*
X150388430Y-89848307D01*
X150388430Y-89848309D01*
X150380138Y-89890000D01*
X149089862Y-89890000D01*
X149081569Y-89848309D01*
X149081569Y-89848307D01*
X149006192Y-89666328D01*
X149006185Y-89666315D01*
X148896751Y-89502537D01*
X148896748Y-89502533D01*
X148757466Y-89363251D01*
X148757462Y-89363248D01*
X148593684Y-89253814D01*
X148593672Y-89253807D01*
X148535802Y-89229838D01*
X148481398Y-89185998D01*
X148459333Y-89119704D01*
X148476612Y-89052004D01*
X148486233Y-89039627D01*
X148485559Y-89039110D01*
X148490500Y-89032669D01*
X148490505Y-89032665D01*
X148559688Y-88912836D01*
X148595500Y-88779183D01*
X148595500Y-88640817D01*
X148559688Y-88507164D01*
X148490505Y-88387335D01*
X148392665Y-88289495D01*
X148392664Y-88289494D01*
X148392661Y-88289492D01*
X148272838Y-88220313D01*
X148272837Y-88220312D01*
X148272836Y-88220312D01*
X148139183Y-88184500D01*
X148000817Y-88184500D01*
X147867164Y-88220312D01*
X147867161Y-88220313D01*
X147747338Y-88289492D01*
X147747333Y-88289496D01*
X147649496Y-88387333D01*
X147649492Y-88387338D01*
X147580313Y-88507161D01*
X147580312Y-88507164D01*
X147544500Y-88640817D01*
X147544500Y-88779182D01*
X147580312Y-88912835D01*
X147580313Y-88912838D01*
X147649492Y-89032661D01*
X147649494Y-89032664D01*
X147649495Y-89032665D01*
X147747335Y-89130505D01*
X147747336Y-89130506D01*
X147747338Y-89130507D01*
X147757996Y-89136660D01*
X147806214Y-89187225D01*
X147820000Y-89244049D01*
X147820000Y-89840000D01*
X147320000Y-89840000D01*
X147320000Y-89140000D01*
X146921504Y-89140000D01*
X146728318Y-89178427D01*
X146728306Y-89178430D01*
X146546328Y-89253807D01*
X146546315Y-89253814D01*
X146382537Y-89363248D01*
X146382533Y-89363251D01*
X146243251Y-89502533D01*
X146243248Y-89502537D01*
X146133814Y-89666315D01*
X146133807Y-89666328D01*
X146058430Y-89848307D01*
X146058430Y-89848309D01*
X146050138Y-89890000D01*
X93200500Y-89890000D01*
X93200500Y-75329448D01*
X94099500Y-75329448D01*
X94099500Y-75510551D01*
X94127829Y-75689410D01*
X94183787Y-75861636D01*
X94183788Y-75861639D01*
X94266006Y-76022997D01*
X94372441Y-76169494D01*
X94372445Y-76169499D01*
X94500500Y-76297554D01*
X94500505Y-76297558D01*
X94628287Y-76390396D01*
X94647006Y-76403996D01*
X94752484Y-76457740D01*
X94808360Y-76486211D01*
X94808363Y-76486212D01*
X94894476Y-76514191D01*
X94980591Y-76542171D01*
X95053639Y-76553740D01*
X95140678Y-76567527D01*
X95203813Y-76597456D01*
X95240744Y-76656768D01*
X95239746Y-76726631D01*
X95201136Y-76784863D01*
X95140678Y-76812473D01*
X94980589Y-76837829D01*
X94808363Y-76893787D01*
X94808360Y-76893788D01*
X94647002Y-76976006D01*
X94500505Y-77082441D01*
X94500500Y-77082445D01*
X94372445Y-77210500D01*
X94372441Y-77210505D01*
X94266006Y-77357002D01*
X94183788Y-77518360D01*
X94183787Y-77518363D01*
X94127829Y-77690589D01*
X94099500Y-77869448D01*
X94099500Y-78050551D01*
X94127829Y-78229410D01*
X94183787Y-78401636D01*
X94183788Y-78401639D01*
X94266006Y-78562997D01*
X94372441Y-78709494D01*
X94372445Y-78709499D01*
X94500500Y-78837554D01*
X94500505Y-78837558D01*
X94628287Y-78930396D01*
X94647006Y-78943996D01*
X94752484Y-78997740D01*
X94808360Y-79026211D01*
X94808363Y-79026212D01*
X94894476Y-79054191D01*
X94980591Y-79082171D01*
X95053639Y-79093740D01*
X95140678Y-79107527D01*
X95203813Y-79137456D01*
X95240744Y-79196768D01*
X95239746Y-79266631D01*
X95201136Y-79324863D01*
X95140678Y-79352473D01*
X94980589Y-79377829D01*
X94808363Y-79433787D01*
X94808360Y-79433788D01*
X94647002Y-79516006D01*
X94500505Y-79622441D01*
X94500500Y-79622445D01*
X94372445Y-79750500D01*
X94372441Y-79750505D01*
X94266006Y-79897002D01*
X94183788Y-80058360D01*
X94183787Y-80058363D01*
X94127829Y-80230589D01*
X94099500Y-80409448D01*
X94099500Y-80590551D01*
X94127829Y-80769410D01*
X94183787Y-80941636D01*
X94183788Y-80941639D01*
X94266006Y-81102997D01*
X94372441Y-81249494D01*
X94372445Y-81249499D01*
X94500500Y-81377554D01*
X94500505Y-81377558D01*
X94509653Y-81384204D01*
X94647006Y-81483996D01*
X94752484Y-81537740D01*
X94808360Y-81566211D01*
X94808363Y-81566212D01*
X94894476Y-81594191D01*
X94980591Y-81622171D01*
X95053639Y-81633740D01*
X95140678Y-81647527D01*
X95203813Y-81677456D01*
X95240744Y-81736768D01*
X95239746Y-81806631D01*
X95201136Y-81864863D01*
X95140678Y-81892473D01*
X94980589Y-81917829D01*
X94808363Y-81973787D01*
X94808360Y-81973788D01*
X94647002Y-82056006D01*
X94500505Y-82162441D01*
X94500500Y-82162445D01*
X94372445Y-82290500D01*
X94372441Y-82290505D01*
X94266006Y-82437002D01*
X94183788Y-82598360D01*
X94183787Y-82598363D01*
X94127829Y-82770589D01*
X94099500Y-82949448D01*
X94099500Y-83130551D01*
X94127829Y-83309410D01*
X94183787Y-83481636D01*
X94183788Y-83481639D01*
X94266006Y-83642997D01*
X94372441Y-83789494D01*
X94372445Y-83789499D01*
X94500500Y-83917554D01*
X94500505Y-83917558D01*
X94628287Y-84010396D01*
X94647006Y-84023996D01*
X94752484Y-84077740D01*
X94808360Y-84106211D01*
X94808363Y-84106212D01*
X94894476Y-84134191D01*
X94980591Y-84162171D01*
X95084716Y-84178662D01*
X95112270Y-84183027D01*
X95175405Y-84212956D01*
X95212336Y-84272268D01*
X95211338Y-84342130D01*
X95172728Y-84400363D01*
X95108765Y-84428477D01*
X95092872Y-84429500D01*
X94355143Y-84429500D01*
X94355117Y-84429502D01*
X94330012Y-84432413D01*
X94330008Y-84432415D01*
X94227235Y-84477793D01*
X94147794Y-84557234D01*
X94102415Y-84660006D01*
X94102415Y-84660008D01*
X94099500Y-84685131D01*
X94099500Y-86474856D01*
X94099502Y-86474882D01*
X94102413Y-86499987D01*
X94102415Y-86499991D01*
X94147793Y-86602764D01*
X94147794Y-86602765D01*
X94227235Y-86682206D01*
X94330009Y-86727585D01*
X94355135Y-86730500D01*
X96144864Y-86730499D01*
X96144879Y-86730497D01*
X96144882Y-86730497D01*
X96169987Y-86727586D01*
X96169988Y-86727585D01*
X96169991Y-86727585D01*
X96272765Y-86682206D01*
X96352206Y-86602765D01*
X96397585Y-86499991D01*
X96400500Y-86474865D01*
X96400499Y-84685136D01*
X96400497Y-84685117D01*
X96397586Y-84660012D01*
X96397585Y-84660010D01*
X96397585Y-84660009D01*
X96352206Y-84557235D01*
X96272765Y-84477794D01*
X96272763Y-84477793D01*
X96169992Y-84432415D01*
X96144868Y-84429500D01*
X95407128Y-84429500D01*
X95340089Y-84409815D01*
X95294334Y-84357011D01*
X95284390Y-84287853D01*
X95313415Y-84224297D01*
X95372193Y-84186523D01*
X95387730Y-84183027D01*
X95411014Y-84179338D01*
X95519409Y-84162171D01*
X95691639Y-84106211D01*
X95852994Y-84023996D01*
X95999501Y-83917553D01*
X96127553Y-83789501D01*
X96233996Y-83642994D01*
X96316211Y-83481639D01*
X96372171Y-83309409D01*
X96386765Y-83217259D01*
X96400500Y-83130551D01*
X96400500Y-82949448D01*
X96388247Y-82872088D01*
X96381296Y-82828205D01*
X96372171Y-82770591D01*
X96316211Y-82598361D01*
X96316211Y-82598360D01*
X96270931Y-82509495D01*
X96233996Y-82437006D01*
X96197073Y-82386185D01*
X96127558Y-82290505D01*
X96127554Y-82290500D01*
X95999499Y-82162445D01*
X95999494Y-82162441D01*
X95852997Y-82056006D01*
X95852996Y-82056005D01*
X95852994Y-82056004D01*
X95801300Y-82029664D01*
X95691639Y-81973788D01*
X95691636Y-81973787D01*
X95519410Y-81917829D01*
X95359321Y-81892473D01*
X95296186Y-81862544D01*
X95259255Y-81803232D01*
X95260253Y-81733370D01*
X95298863Y-81675137D01*
X95359321Y-81647527D01*
X95448237Y-81633443D01*
X95519409Y-81622171D01*
X95591530Y-81598738D01*
X95591531Y-81598738D01*
X95691636Y-81566212D01*
X95691639Y-81566211D01*
X95852994Y-81483996D01*
X95999501Y-81377553D01*
X96127054Y-81250000D01*
X146050138Y-81250000D01*
X146853012Y-81250000D01*
X146835795Y-81259940D01*
X146779940Y-81315795D01*
X146740444Y-81384204D01*
X146720000Y-81460504D01*
X146720000Y-81539496D01*
X146740444Y-81615796D01*
X146779940Y-81684205D01*
X146835795Y-81740060D01*
X146853012Y-81750000D01*
X146050138Y-81750000D01*
X146058430Y-81791690D01*
X146058430Y-81791692D01*
X146133807Y-81973671D01*
X146133814Y-81973684D01*
X146243248Y-82137462D01*
X146243251Y-82137466D01*
X146382533Y-82276748D01*
X146382537Y-82276751D01*
X146546315Y-82386185D01*
X146546328Y-82386192D01*
X146728306Y-82461569D01*
X146728318Y-82461572D01*
X146921504Y-82499999D01*
X146921508Y-82500000D01*
X147320000Y-82500000D01*
X147320000Y-81800000D01*
X147820000Y-81800000D01*
X147820000Y-82395950D01*
X147800315Y-82462989D01*
X147758001Y-82503337D01*
X147747335Y-82509494D01*
X147649496Y-82607333D01*
X147649492Y-82607338D01*
X147580313Y-82727161D01*
X147580312Y-82727164D01*
X147544500Y-82860817D01*
X147544500Y-82999183D01*
X147579699Y-83130546D01*
X147580312Y-83132835D01*
X147580313Y-83132838D01*
X147649492Y-83252661D01*
X147649494Y-83252664D01*
X147649495Y-83252665D01*
X147747335Y-83350505D01*
X147867164Y-83419688D01*
X148000817Y-83455500D01*
X148000819Y-83455500D01*
X148139181Y-83455500D01*
X148139183Y-83455500D01*
X148272836Y-83419688D01*
X148392665Y-83350505D01*
X148490505Y-83252665D01*
X148559688Y-83132836D01*
X148595500Y-82999183D01*
X148595500Y-82860817D01*
X148559688Y-82727164D01*
X148490505Y-82607335D01*
X148490503Y-82607333D01*
X148485559Y-82600890D01*
X148488185Y-82598874D01*
X148462088Y-82551080D01*
X148467072Y-82481388D01*
X148508944Y-82425455D01*
X148535804Y-82410160D01*
X148593674Y-82386190D01*
X148593684Y-82386185D01*
X148757462Y-82276751D01*
X148757466Y-82276748D01*
X148896748Y-82137466D01*
X148896751Y-82137462D01*
X149006185Y-81973684D01*
X149006192Y-81973671D01*
X149081569Y-81791692D01*
X149081569Y-81791690D01*
X149089862Y-81750000D01*
X148286988Y-81750000D01*
X148304205Y-81740060D01*
X148360060Y-81684205D01*
X148399556Y-81615796D01*
X148420000Y-81539496D01*
X148420000Y-81460504D01*
X148399556Y-81384204D01*
X148360060Y-81315795D01*
X148304205Y-81259940D01*
X148286988Y-81250000D01*
X149089862Y-81250000D01*
X150380138Y-81250000D01*
X151183012Y-81250000D01*
X151165795Y-81259940D01*
X151109940Y-81315795D01*
X151070444Y-81384204D01*
X151050000Y-81460504D01*
X151050000Y-81539496D01*
X151070444Y-81615796D01*
X151109940Y-81684205D01*
X151165795Y-81740060D01*
X151183012Y-81750000D01*
X150380138Y-81750000D01*
X150388430Y-81791690D01*
X150388430Y-81791692D01*
X150463807Y-81973671D01*
X150463814Y-81973684D01*
X150573248Y-82137462D01*
X150573251Y-82137466D01*
X150712533Y-82276748D01*
X150712537Y-82276751D01*
X150876315Y-82386185D01*
X150876328Y-82386192D01*
X151058306Y-82461569D01*
X151058318Y-82461572D01*
X151251504Y-82499999D01*
X151251508Y-82500000D01*
X151500000Y-82500000D01*
X151500000Y-81800000D01*
X152000000Y-81800000D01*
X152000000Y-82500000D01*
X152248492Y-82500000D01*
X152248495Y-82499999D01*
X152441681Y-82461572D01*
X152441693Y-82461569D01*
X152623671Y-82386192D01*
X152623684Y-82386185D01*
X152787462Y-82276751D01*
X152787466Y-82276748D01*
X152926748Y-82137466D01*
X152926751Y-82137462D01*
X153036185Y-81973684D01*
X153036192Y-81973671D01*
X153111569Y-81791692D01*
X153111569Y-81791690D01*
X153119862Y-81750000D01*
X152316988Y-81750000D01*
X152334205Y-81740060D01*
X152390060Y-81684205D01*
X152429556Y-81615796D01*
X152450000Y-81539496D01*
X152450000Y-81460504D01*
X152429556Y-81384204D01*
X152390060Y-81315795D01*
X152334205Y-81259940D01*
X152316988Y-81250000D01*
X153119862Y-81250000D01*
X153111569Y-81208309D01*
X153111569Y-81208307D01*
X153036192Y-81026328D01*
X153036185Y-81026315D01*
X152926751Y-80862537D01*
X152926748Y-80862533D01*
X152787466Y-80723251D01*
X152787462Y-80723248D01*
X152623684Y-80613814D01*
X152623671Y-80613807D01*
X152441693Y-80538430D01*
X152441681Y-80538427D01*
X152248495Y-80500000D01*
X152000000Y-80500000D01*
X152000000Y-81200000D01*
X151500000Y-81200000D01*
X151500000Y-80500000D01*
X151251504Y-80500000D01*
X151058318Y-80538427D01*
X151058306Y-80538430D01*
X150876328Y-80613807D01*
X150876315Y-80613814D01*
X150712537Y-80723248D01*
X150712533Y-80723251D01*
X150573251Y-80862533D01*
X150573248Y-80862537D01*
X150463814Y-81026315D01*
X150463807Y-81026328D01*
X150388430Y-81208307D01*
X150388430Y-81208309D01*
X150380138Y-81250000D01*
X149089862Y-81250000D01*
X149081569Y-81208309D01*
X149081569Y-81208307D01*
X149006192Y-81026328D01*
X149006185Y-81026315D01*
X148896751Y-80862537D01*
X148896748Y-80862533D01*
X148757466Y-80723251D01*
X148757462Y-80723248D01*
X148593684Y-80613814D01*
X148593671Y-80613807D01*
X148411693Y-80538430D01*
X148411681Y-80538427D01*
X148218495Y-80500000D01*
X147820000Y-80500000D01*
X147820000Y-81200000D01*
X147320000Y-81200000D01*
X147320000Y-80500000D01*
X146921504Y-80500000D01*
X146728318Y-80538427D01*
X146728306Y-80538430D01*
X146546328Y-80613807D01*
X146546315Y-80613814D01*
X146382537Y-80723248D01*
X146382533Y-80723251D01*
X146243251Y-80862533D01*
X146243248Y-80862537D01*
X146133814Y-81026315D01*
X146133807Y-81026328D01*
X146058430Y-81208307D01*
X146058430Y-81208309D01*
X146050138Y-81250000D01*
X96127054Y-81250000D01*
X96127553Y-81249501D01*
X96129734Y-81246499D01*
X96155929Y-81210446D01*
X96199429Y-81150571D01*
X96233996Y-81102994D01*
X96316211Y-80941639D01*
X96372171Y-80769409D01*
X96396816Y-80613807D01*
X96400500Y-80590551D01*
X96400500Y-80409448D01*
X96384019Y-80305397D01*
X96372171Y-80230591D01*
X96316211Y-80058361D01*
X96316211Y-80058360D01*
X96287740Y-80002484D01*
X96233996Y-79897006D01*
X96220396Y-79878287D01*
X96127558Y-79750505D01*
X96127554Y-79750500D01*
X95999499Y-79622445D01*
X95999494Y-79622441D01*
X95852997Y-79516006D01*
X95852996Y-79516005D01*
X95852994Y-79516004D01*
X95801300Y-79489664D01*
X95691639Y-79433788D01*
X95691636Y-79433787D01*
X95519410Y-79377829D01*
X95359321Y-79352473D01*
X95296186Y-79322544D01*
X95259255Y-79263232D01*
X95260253Y-79193370D01*
X95298863Y-79135137D01*
X95359321Y-79107527D01*
X95429425Y-79096422D01*
X95519409Y-79082171D01*
X95691639Y-79026211D01*
X95852994Y-78943996D01*
X95999501Y-78837553D01*
X96127553Y-78709501D01*
X96233996Y-78562994D01*
X96316211Y-78401639D01*
X96372171Y-78229409D01*
X96386765Y-78137259D01*
X96400500Y-78050551D01*
X96400500Y-77869448D01*
X96384019Y-77765397D01*
X96372171Y-77690591D01*
X96316211Y-77518361D01*
X96316211Y-77518360D01*
X96287740Y-77462484D01*
X96233996Y-77357006D01*
X96220396Y-77338287D01*
X96127558Y-77210505D01*
X96127554Y-77210500D01*
X95999499Y-77082445D01*
X95999494Y-77082441D01*
X95852997Y-76976006D01*
X95852996Y-76976005D01*
X95852994Y-76976004D01*
X95801300Y-76949664D01*
X95691639Y-76893788D01*
X95691636Y-76893787D01*
X95519410Y-76837829D01*
X95359321Y-76812473D01*
X95296186Y-76782544D01*
X95259255Y-76723232D01*
X95260253Y-76653370D01*
X95298863Y-76595137D01*
X95359321Y-76567527D01*
X95429425Y-76556422D01*
X95519409Y-76542171D01*
X95691639Y-76486211D01*
X95852994Y-76403996D01*
X95999501Y-76297553D01*
X96127553Y-76169501D01*
X96233996Y-76022994D01*
X96316211Y-75861639D01*
X96372171Y-75689409D01*
X96386765Y-75597259D01*
X96400500Y-75510551D01*
X96400500Y-75329448D01*
X96384019Y-75225397D01*
X96372171Y-75150591D01*
X96316211Y-74978361D01*
X96316211Y-74978360D01*
X96287740Y-74922484D01*
X96233996Y-74817006D01*
X96220396Y-74798287D01*
X96127558Y-74670505D01*
X96127554Y-74670500D01*
X95999499Y-74542445D01*
X95999494Y-74542441D01*
X95852997Y-74436006D01*
X95852996Y-74436005D01*
X95852994Y-74436004D01*
X95801300Y-74409664D01*
X95691639Y-74353788D01*
X95691636Y-74353787D01*
X95519410Y-74297829D01*
X95340551Y-74269500D01*
X95340546Y-74269500D01*
X95159454Y-74269500D01*
X95159449Y-74269500D01*
X94980589Y-74297829D01*
X94808363Y-74353787D01*
X94808360Y-74353788D01*
X94647002Y-74436006D01*
X94500505Y-74542441D01*
X94500500Y-74542445D01*
X94372445Y-74670500D01*
X94372441Y-74670505D01*
X94266006Y-74817002D01*
X94183788Y-74978360D01*
X94183787Y-74978363D01*
X94127829Y-75150589D01*
X94099500Y-75329448D01*
X93200500Y-75329448D01*
X93200500Y-73920943D01*
X100899500Y-73920943D01*
X100899500Y-74079056D01*
X100942527Y-74239636D01*
X100941832Y-74239822D01*
X100949500Y-74278362D01*
X100949500Y-75471637D01*
X100941834Y-75510179D01*
X100942527Y-75510365D01*
X100940423Y-75518214D01*
X100940423Y-75518216D01*
X100899500Y-75670943D01*
X100899500Y-75829057D01*
X100908231Y-75861639D01*
X100940423Y-75981783D01*
X100940426Y-75981790D01*
X101019475Y-76118709D01*
X101019479Y-76118714D01*
X101019480Y-76118716D01*
X101131284Y-76230520D01*
X101131286Y-76230521D01*
X101131290Y-76230524D01*
X101247391Y-76297554D01*
X101268216Y-76309577D01*
X101420943Y-76350500D01*
X101420945Y-76350500D01*
X101579055Y-76350500D01*
X101579057Y-76350500D01*
X101731784Y-76309577D01*
X101868716Y-76230520D01*
X101980520Y-76118716D01*
X102059577Y-75981784D01*
X102100500Y-75829057D01*
X102100500Y-75670943D01*
X102059577Y-75518216D01*
X102059576Y-75518214D01*
X102057473Y-75510365D01*
X102058165Y-75510179D01*
X102050500Y-75471637D01*
X102050500Y-74278362D01*
X102058167Y-74239822D01*
X102057473Y-74239636D01*
X102059577Y-74231784D01*
X102100500Y-74079057D01*
X102100500Y-73920943D01*
X102059577Y-73768216D01*
X102059573Y-73768209D01*
X101980524Y-73631290D01*
X101980518Y-73631282D01*
X101868717Y-73519481D01*
X101868709Y-73519475D01*
X101731790Y-73440426D01*
X101731786Y-73440424D01*
X101731784Y-73440423D01*
X101579057Y-73399500D01*
X101420943Y-73399500D01*
X101268216Y-73440423D01*
X101268209Y-73440426D01*
X101131290Y-73519475D01*
X101131282Y-73519481D01*
X101019481Y-73631282D01*
X101019475Y-73631290D01*
X100940426Y-73768209D01*
X100940423Y-73768216D01*
X100899500Y-73920943D01*
X93200500Y-73920943D01*
X93200500Y-69714071D01*
X94449499Y-69714071D01*
X94474497Y-69839738D01*
X94474499Y-69839744D01*
X94523533Y-69958124D01*
X94523538Y-69958133D01*
X94594723Y-70064668D01*
X94594726Y-70064672D01*
X94685327Y-70155273D01*
X94685331Y-70155276D01*
X94791866Y-70226461D01*
X94791872Y-70226464D01*
X94791873Y-70226465D01*
X94910256Y-70275501D01*
X94910260Y-70275501D01*
X94910261Y-70275502D01*
X95035928Y-70300500D01*
X95035931Y-70300500D01*
X95164071Y-70300500D01*
X95275361Y-70278362D01*
X95289744Y-70275501D01*
X95408127Y-70226465D01*
X95514669Y-70155276D01*
X95605276Y-70064669D01*
X95676465Y-69958127D01*
X95691867Y-69920943D01*
X100899500Y-69920943D01*
X100899500Y-70079056D01*
X100942527Y-70239636D01*
X100941832Y-70239822D01*
X100949500Y-70278362D01*
X100949500Y-71971637D01*
X100941834Y-72010179D01*
X100942527Y-72010365D01*
X100899500Y-72170943D01*
X100899500Y-72329056D01*
X100940423Y-72481783D01*
X100940426Y-72481790D01*
X101019475Y-72618709D01*
X101019479Y-72618714D01*
X101019480Y-72618716D01*
X101131284Y-72730520D01*
X101131286Y-72730521D01*
X101131290Y-72730524D01*
X101268209Y-72809573D01*
X101268216Y-72809577D01*
X101420943Y-72850500D01*
X101420945Y-72850500D01*
X101579055Y-72850500D01*
X101579057Y-72850500D01*
X101731784Y-72809577D01*
X101868716Y-72730520D01*
X101980520Y-72618716D01*
X102059577Y-72481784D01*
X102100500Y-72329057D01*
X102100500Y-72170943D01*
X102059577Y-72018216D01*
X102059576Y-72018214D01*
X102057473Y-72010365D01*
X102058165Y-72010179D01*
X102050500Y-71971637D01*
X102050500Y-70278362D01*
X102058167Y-70239822D01*
X102057473Y-70239636D01*
X102080077Y-70155276D01*
X102100500Y-70079057D01*
X102100500Y-69920943D01*
X102059577Y-69768216D01*
X102028316Y-69714069D01*
X101980524Y-69631290D01*
X101980518Y-69631282D01*
X101868717Y-69519481D01*
X101868709Y-69519475D01*
X101731790Y-69440426D01*
X101731786Y-69440424D01*
X101731784Y-69440423D01*
X101579057Y-69399500D01*
X101420943Y-69399500D01*
X101268216Y-69440423D01*
X101268209Y-69440426D01*
X101131290Y-69519475D01*
X101131282Y-69519481D01*
X101019481Y-69631282D01*
X101019475Y-69631290D01*
X100940426Y-69768209D01*
X100940423Y-69768216D01*
X100899500Y-69920943D01*
X95691867Y-69920943D01*
X95725501Y-69839744D01*
X95750500Y-69714069D01*
X95750500Y-69585931D01*
X95750500Y-69585928D01*
X95725502Y-69460261D01*
X95725501Y-69460260D01*
X95725501Y-69460256D01*
X95676465Y-69341873D01*
X95676464Y-69341872D01*
X95676461Y-69341866D01*
X95605276Y-69235331D01*
X95605273Y-69235327D01*
X95514672Y-69144726D01*
X95514668Y-69144723D01*
X95408133Y-69073538D01*
X95408124Y-69073533D01*
X95289744Y-69024499D01*
X95289738Y-69024497D01*
X95164071Y-68999500D01*
X95164069Y-68999500D01*
X95035931Y-68999500D01*
X95035929Y-68999500D01*
X94910261Y-69024497D01*
X94910255Y-69024499D01*
X94791875Y-69073533D01*
X94791866Y-69073538D01*
X94685331Y-69144723D01*
X94685327Y-69144726D01*
X94594726Y-69235327D01*
X94594723Y-69235331D01*
X94523538Y-69341866D01*
X94523533Y-69341875D01*
X94474499Y-69460255D01*
X94474497Y-69460261D01*
X94449500Y-69585928D01*
X94449500Y-69585931D01*
X94449500Y-69714069D01*
X94449500Y-69714071D01*
X94449499Y-69714071D01*
X93200500Y-69714071D01*
X93200500Y-66714071D01*
X94449499Y-66714071D01*
X94474497Y-66839738D01*
X94474499Y-66839744D01*
X94523533Y-66958124D01*
X94523538Y-66958133D01*
X94594723Y-67064668D01*
X94594726Y-67064672D01*
X94685327Y-67155273D01*
X94685331Y-67155276D01*
X94791866Y-67226461D01*
X94791872Y-67226464D01*
X94791873Y-67226465D01*
X94910256Y-67275501D01*
X94910260Y-67275501D01*
X94910261Y-67275502D01*
X95035928Y-67300500D01*
X95035931Y-67300500D01*
X95164071Y-67300500D01*
X95248615Y-67283682D01*
X95289744Y-67275501D01*
X95408127Y-67226465D01*
X95514669Y-67155276D01*
X95605276Y-67064669D01*
X95676465Y-66958127D01*
X95725501Y-66839744D01*
X95750500Y-66714069D01*
X95750500Y-66585931D01*
X95750500Y-66585928D01*
X95725502Y-66460261D01*
X95725501Y-66460260D01*
X95725501Y-66460256D01*
X95681072Y-66352995D01*
X95676466Y-66341875D01*
X95676461Y-66341866D01*
X95605276Y-66235331D01*
X95605273Y-66235327D01*
X95514672Y-66144726D01*
X95514668Y-66144723D01*
X95408133Y-66073538D01*
X95408124Y-66073533D01*
X95383174Y-66063199D01*
X95289744Y-66024499D01*
X95289738Y-66024497D01*
X95164071Y-65999500D01*
X95164069Y-65999500D01*
X95035931Y-65999500D01*
X95035929Y-65999500D01*
X94910261Y-66024497D01*
X94910255Y-66024499D01*
X94791875Y-66073533D01*
X94791866Y-66073538D01*
X94685331Y-66144723D01*
X94685327Y-66144726D01*
X94594726Y-66235327D01*
X94594723Y-66235331D01*
X94523538Y-66341866D01*
X94523533Y-66341875D01*
X94474499Y-66460255D01*
X94474497Y-66460261D01*
X94449500Y-66585928D01*
X94449500Y-66585931D01*
X94449500Y-66714069D01*
X94449500Y-66714071D01*
X94449499Y-66714071D01*
X93200500Y-66714071D01*
X93200500Y-64852155D01*
X104740000Y-64852155D01*
X104740000Y-65500000D01*
X105656988Y-65500000D01*
X105624075Y-65557007D01*
X105590000Y-65684174D01*
X105590000Y-65815826D01*
X105624075Y-65942993D01*
X105656988Y-66000000D01*
X104740000Y-66000000D01*
X104740000Y-66647844D01*
X104746401Y-66707372D01*
X104746403Y-66707379D01*
X104796645Y-66842086D01*
X104796649Y-66842093D01*
X104882809Y-66957187D01*
X104882812Y-66957190D01*
X104997906Y-67043350D01*
X104997913Y-67043354D01*
X105132620Y-67093596D01*
X105132627Y-67093598D01*
X105192155Y-67099999D01*
X105192172Y-67100000D01*
X105840000Y-67100000D01*
X105840000Y-66183012D01*
X105897007Y-66215925D01*
X106024174Y-66250000D01*
X106155826Y-66250000D01*
X106282993Y-66215925D01*
X106340000Y-66183012D01*
X106340000Y-67100000D01*
X106987828Y-67100000D01*
X106987844Y-67099999D01*
X107047372Y-67093598D01*
X107047379Y-67093596D01*
X107182086Y-67043354D01*
X107182093Y-67043350D01*
X107297187Y-66957190D01*
X107297190Y-66957187D01*
X107383350Y-66842093D01*
X107383354Y-66842086D01*
X107405529Y-66782632D01*
X107444319Y-66609390D01*
X107444682Y-66608734D01*
X107444642Y-66607984D01*
X107477642Y-66548802D01*
X108147037Y-65879408D01*
X108164075Y-65942993D01*
X108229901Y-66057007D01*
X108322993Y-66150099D01*
X108437007Y-66215925D01*
X108500590Y-66232962D01*
X107868282Y-66865269D01*
X107868282Y-66865270D01*
X107922449Y-66904624D01*
X108111782Y-67001095D01*
X108313870Y-67066757D01*
X108523754Y-67100000D01*
X108736246Y-67100000D01*
X108946127Y-67066757D01*
X108946130Y-67066757D01*
X109148217Y-67001095D01*
X109337554Y-66904622D01*
X109391716Y-66865270D01*
X109391717Y-66865270D01*
X108759408Y-66232962D01*
X108822993Y-66215925D01*
X108937007Y-66150099D01*
X109030099Y-66057007D01*
X109095925Y-65942993D01*
X109112962Y-65879408D01*
X109745270Y-66511717D01*
X109745270Y-66511716D01*
X109784622Y-66457554D01*
X109881095Y-66268217D01*
X109890492Y-66239295D01*
X109929928Y-66181618D01*
X109994286Y-66154419D01*
X110063133Y-66166331D01*
X110114610Y-66213574D01*
X110118908Y-66221314D01*
X110186004Y-66352995D01*
X110292441Y-66499494D01*
X110292445Y-66499499D01*
X110420500Y-66627554D01*
X110420505Y-66627558D01*
X110448427Y-66647844D01*
X110567006Y-66733996D01*
X110662459Y-66782632D01*
X110728360Y-66816211D01*
X110728363Y-66816212D01*
X110800771Y-66839738D01*
X110900591Y-66872171D01*
X110983429Y-66885291D01*
X111079449Y-66900500D01*
X111079454Y-66900500D01*
X111260551Y-66900500D01*
X111347259Y-66886765D01*
X111439409Y-66872171D01*
X111611639Y-66816211D01*
X111772994Y-66733996D01*
X111919501Y-66627553D01*
X112047553Y-66499501D01*
X112153996Y-66352994D01*
X112236211Y-66191639D01*
X112292171Y-66019409D01*
X112306422Y-65929425D01*
X112317527Y-65859321D01*
X112347456Y-65796186D01*
X112406768Y-65759255D01*
X112476630Y-65760253D01*
X112534863Y-65798863D01*
X112562473Y-65859321D01*
X112587829Y-66019410D01*
X112643787Y-66191636D01*
X112643788Y-66191639D01*
X112726006Y-66352997D01*
X112832441Y-66499494D01*
X112832445Y-66499499D01*
X112960500Y-66627554D01*
X112960505Y-66627558D01*
X112988427Y-66647844D01*
X113107006Y-66733996D01*
X113202459Y-66782632D01*
X113268360Y-66816211D01*
X113268363Y-66816212D01*
X113340771Y-66839738D01*
X113440591Y-66872171D01*
X113523429Y-66885291D01*
X113619449Y-66900500D01*
X113619454Y-66900500D01*
X113800551Y-66900500D01*
X113887259Y-66886765D01*
X113979409Y-66872171D01*
X114151639Y-66816211D01*
X114312994Y-66733996D01*
X114459501Y-66627553D01*
X114587553Y-66499501D01*
X114693996Y-66352994D01*
X114776211Y-66191639D01*
X114832171Y-66019409D01*
X114846422Y-65929425D01*
X114857527Y-65859321D01*
X114887456Y-65796186D01*
X114946768Y-65759255D01*
X115016630Y-65760253D01*
X115074863Y-65798863D01*
X115102473Y-65859321D01*
X115127829Y-66019410D01*
X115183787Y-66191636D01*
X115183788Y-66191639D01*
X115266006Y-66352997D01*
X115372441Y-66499494D01*
X115372445Y-66499499D01*
X115500500Y-66627554D01*
X115500505Y-66627558D01*
X115528427Y-66647844D01*
X115647006Y-66733996D01*
X115742459Y-66782632D01*
X115808360Y-66816211D01*
X115808363Y-66816212D01*
X115880771Y-66839738D01*
X115980591Y-66872171D01*
X116063429Y-66885291D01*
X116159449Y-66900500D01*
X116159454Y-66900500D01*
X116340551Y-66900500D01*
X116427259Y-66886765D01*
X116519409Y-66872171D01*
X116691639Y-66816211D01*
X116852994Y-66733996D01*
X116999501Y-66627553D01*
X117127553Y-66499501D01*
X117233996Y-66352994D01*
X117316211Y-66191639D01*
X117372171Y-66019409D01*
X117386422Y-65929425D01*
X117397527Y-65859321D01*
X117427456Y-65796186D01*
X117486768Y-65759255D01*
X117556630Y-65760253D01*
X117614863Y-65798863D01*
X117642473Y-65859321D01*
X117667829Y-66019410D01*
X117723787Y-66191636D01*
X117723788Y-66191639D01*
X117806006Y-66352997D01*
X117912441Y-66499494D01*
X117912445Y-66499499D01*
X118040500Y-66627554D01*
X118040505Y-66627558D01*
X118068427Y-66647844D01*
X118187006Y-66733996D01*
X118282459Y-66782632D01*
X118348360Y-66816211D01*
X118348363Y-66816212D01*
X118420771Y-66839738D01*
X118520591Y-66872171D01*
X118603429Y-66885291D01*
X118699449Y-66900500D01*
X118699454Y-66900500D01*
X118880551Y-66900500D01*
X118967259Y-66886765D01*
X119059409Y-66872171D01*
X119231639Y-66816211D01*
X119392994Y-66733996D01*
X119539501Y-66627553D01*
X119667553Y-66499501D01*
X119773996Y-66352994D01*
X119856211Y-66191639D01*
X119912171Y-66019409D01*
X119926422Y-65929425D01*
X119937527Y-65859321D01*
X119967456Y-65796186D01*
X120026768Y-65759255D01*
X120096630Y-65760253D01*
X120154863Y-65798863D01*
X120182473Y-65859321D01*
X120207829Y-66019410D01*
X120263787Y-66191636D01*
X120263788Y-66191639D01*
X120346006Y-66352997D01*
X120452441Y-66499494D01*
X120452445Y-66499499D01*
X120580500Y-66627554D01*
X120580505Y-66627558D01*
X120608427Y-66647844D01*
X120727006Y-66733996D01*
X120822459Y-66782632D01*
X120888360Y-66816211D01*
X120888363Y-66816212D01*
X120960771Y-66839738D01*
X121060591Y-66872171D01*
X121143429Y-66885291D01*
X121239449Y-66900500D01*
X121239454Y-66900500D01*
X121420551Y-66900500D01*
X121507259Y-66886765D01*
X121599409Y-66872171D01*
X121771639Y-66816211D01*
X121932994Y-66733996D01*
X122079501Y-66627553D01*
X122207553Y-66499501D01*
X122313996Y-66352994D01*
X122396211Y-66191639D01*
X122452171Y-66019409D01*
X122466422Y-65929425D01*
X122477527Y-65859321D01*
X122507456Y-65796186D01*
X122566768Y-65759255D01*
X122636630Y-65760253D01*
X122694863Y-65798863D01*
X122722473Y-65859321D01*
X122747829Y-66019410D01*
X122803787Y-66191636D01*
X122803788Y-66191639D01*
X122886006Y-66352997D01*
X122992441Y-66499494D01*
X122992445Y-66499499D01*
X123120500Y-66627554D01*
X123120505Y-66627558D01*
X123148427Y-66647844D01*
X123267006Y-66733996D01*
X123362459Y-66782632D01*
X123428360Y-66816211D01*
X123428363Y-66816212D01*
X123500771Y-66839738D01*
X123600591Y-66872171D01*
X123683429Y-66885291D01*
X123779449Y-66900500D01*
X123779454Y-66900500D01*
X123960551Y-66900500D01*
X124047259Y-66886765D01*
X124139409Y-66872171D01*
X124311639Y-66816211D01*
X124472994Y-66733996D01*
X124619501Y-66627553D01*
X124747553Y-66499501D01*
X124853996Y-66352994D01*
X124936211Y-66191639D01*
X124992171Y-66019409D01*
X125006422Y-65929425D01*
X125017527Y-65859321D01*
X125047456Y-65796186D01*
X125106768Y-65759255D01*
X125176630Y-65760253D01*
X125234863Y-65798863D01*
X125262473Y-65859321D01*
X125287829Y-66019410D01*
X125343787Y-66191636D01*
X125343788Y-66191639D01*
X125426006Y-66352997D01*
X125532441Y-66499494D01*
X125532445Y-66499499D01*
X125660500Y-66627554D01*
X125660505Y-66627558D01*
X125688427Y-66647844D01*
X125807006Y-66733996D01*
X125902459Y-66782632D01*
X125968360Y-66816211D01*
X125968363Y-66816212D01*
X126040771Y-66839738D01*
X126140591Y-66872171D01*
X126223429Y-66885291D01*
X126319449Y-66900500D01*
X126319454Y-66900500D01*
X126500551Y-66900500D01*
X126587259Y-66886765D01*
X126679409Y-66872171D01*
X126851639Y-66816211D01*
X127012994Y-66733996D01*
X127159501Y-66627553D01*
X127287553Y-66499501D01*
X127393996Y-66352994D01*
X127476211Y-66191639D01*
X127532171Y-66019409D01*
X127546422Y-65929425D01*
X127557527Y-65859321D01*
X127587456Y-65796186D01*
X127646768Y-65759255D01*
X127716630Y-65760253D01*
X127774863Y-65798863D01*
X127802473Y-65859321D01*
X127827829Y-66019410D01*
X127883787Y-66191636D01*
X127883788Y-66191639D01*
X127966006Y-66352997D01*
X128072441Y-66499494D01*
X128072445Y-66499499D01*
X128200500Y-66627554D01*
X128200505Y-66627558D01*
X128228427Y-66647844D01*
X128347006Y-66733996D01*
X128442459Y-66782632D01*
X128508360Y-66816211D01*
X128508363Y-66816212D01*
X128580771Y-66839738D01*
X128680591Y-66872171D01*
X128763429Y-66885291D01*
X128859449Y-66900500D01*
X128859454Y-66900500D01*
X129040551Y-66900500D01*
X129127259Y-66886765D01*
X129219409Y-66872171D01*
X129391639Y-66816211D01*
X129552994Y-66733996D01*
X129699501Y-66627553D01*
X129827553Y-66499501D01*
X129933996Y-66352994D01*
X130016211Y-66191639D01*
X130072171Y-66019409D01*
X130086422Y-65929425D01*
X130097527Y-65859321D01*
X130127456Y-65796186D01*
X130186768Y-65759255D01*
X130256630Y-65760253D01*
X130314863Y-65798863D01*
X130342473Y-65859321D01*
X130367829Y-66019410D01*
X130423787Y-66191636D01*
X130423788Y-66191639D01*
X130506006Y-66352997D01*
X130612441Y-66499494D01*
X130612445Y-66499499D01*
X130740500Y-66627554D01*
X130740505Y-66627558D01*
X130768427Y-66647844D01*
X130887006Y-66733996D01*
X130982459Y-66782632D01*
X131048360Y-66816211D01*
X131048363Y-66816212D01*
X131120771Y-66839738D01*
X131220591Y-66872171D01*
X131303429Y-66885291D01*
X131399449Y-66900500D01*
X131399454Y-66900500D01*
X131580551Y-66900500D01*
X131667259Y-66886765D01*
X131759409Y-66872171D01*
X131931639Y-66816211D01*
X132092994Y-66733996D01*
X132239501Y-66627553D01*
X132367553Y-66499501D01*
X132473996Y-66352994D01*
X132556211Y-66191639D01*
X132612171Y-66019409D01*
X132626422Y-65929425D01*
X132637527Y-65859321D01*
X132667456Y-65796186D01*
X132726768Y-65759255D01*
X132796630Y-65760253D01*
X132854863Y-65798863D01*
X132882473Y-65859321D01*
X132907829Y-66019410D01*
X132963787Y-66191636D01*
X132963788Y-66191639D01*
X133046006Y-66352997D01*
X133152441Y-66499494D01*
X133152445Y-66499499D01*
X133280500Y-66627554D01*
X133280505Y-66627558D01*
X133308427Y-66647844D01*
X133427006Y-66733996D01*
X133522459Y-66782632D01*
X133588360Y-66816211D01*
X133588363Y-66816212D01*
X133660771Y-66839738D01*
X133760591Y-66872171D01*
X133843429Y-66885291D01*
X133939449Y-66900500D01*
X133939454Y-66900500D01*
X134120551Y-66900500D01*
X134207259Y-66886765D01*
X134299409Y-66872171D01*
X134471639Y-66816211D01*
X134632994Y-66733996D01*
X134779501Y-66627553D01*
X134907553Y-66499501D01*
X135013996Y-66352994D01*
X135096211Y-66191639D01*
X135152171Y-66019409D01*
X135166422Y-65929425D01*
X135177527Y-65859321D01*
X135207456Y-65796186D01*
X135266768Y-65759255D01*
X135336630Y-65760253D01*
X135394863Y-65798863D01*
X135422473Y-65859321D01*
X135447829Y-66019410D01*
X135503787Y-66191636D01*
X135503788Y-66191639D01*
X135586006Y-66352997D01*
X135692441Y-66499494D01*
X135692445Y-66499499D01*
X135820500Y-66627554D01*
X135820505Y-66627558D01*
X135848427Y-66647844D01*
X135967006Y-66733996D01*
X136062459Y-66782632D01*
X136128360Y-66816211D01*
X136128363Y-66816212D01*
X136200771Y-66839738D01*
X136300591Y-66872171D01*
X136383429Y-66885291D01*
X136479449Y-66900500D01*
X136479454Y-66900500D01*
X136660551Y-66900500D01*
X136747259Y-66886765D01*
X136839409Y-66872171D01*
X137011639Y-66816211D01*
X137172994Y-66733996D01*
X137319501Y-66627553D01*
X137447553Y-66499501D01*
X137553996Y-66352994D01*
X137636211Y-66191639D01*
X137692171Y-66019409D01*
X137706422Y-65929425D01*
X137717527Y-65859321D01*
X137747456Y-65796186D01*
X137806768Y-65759255D01*
X137876630Y-65760253D01*
X137934863Y-65798863D01*
X137962473Y-65859321D01*
X137987829Y-66019410D01*
X138043787Y-66191636D01*
X138043788Y-66191639D01*
X138126006Y-66352997D01*
X138232441Y-66499494D01*
X138232445Y-66499499D01*
X138360500Y-66627554D01*
X138360505Y-66627558D01*
X138388427Y-66647844D01*
X138507006Y-66733996D01*
X138602459Y-66782632D01*
X138668360Y-66816211D01*
X138668363Y-66816212D01*
X138740771Y-66839738D01*
X138840591Y-66872171D01*
X138923429Y-66885291D01*
X139019449Y-66900500D01*
X139019454Y-66900500D01*
X139200551Y-66900500D01*
X139287259Y-66886765D01*
X139379409Y-66872171D01*
X139551639Y-66816211D01*
X139712994Y-66733996D01*
X139859501Y-66627553D01*
X139987553Y-66499501D01*
X140093996Y-66352994D01*
X140176211Y-66191639D01*
X140232171Y-66019409D01*
X140246765Y-65927259D01*
X140260500Y-65840551D01*
X140260500Y-65659448D01*
X140235245Y-65500000D01*
X140232171Y-65480591D01*
X140176211Y-65308361D01*
X140176211Y-65308360D01*
X140137191Y-65231780D01*
X140093996Y-65147006D01*
X140080396Y-65128287D01*
X139987558Y-65000505D01*
X139987554Y-65000500D01*
X139859499Y-64872445D01*
X139859494Y-64872441D01*
X139712997Y-64766006D01*
X139712996Y-64766005D01*
X139712994Y-64766004D01*
X139661300Y-64739664D01*
X139551639Y-64683788D01*
X139551636Y-64683787D01*
X139379410Y-64627829D01*
X139200551Y-64599500D01*
X139200546Y-64599500D01*
X139019454Y-64599500D01*
X139019449Y-64599500D01*
X138840589Y-64627829D01*
X138668363Y-64683787D01*
X138668360Y-64683788D01*
X138507002Y-64766006D01*
X138360505Y-64872441D01*
X138360500Y-64872445D01*
X138232445Y-65000500D01*
X138232441Y-65000505D01*
X138126006Y-65147002D01*
X138043788Y-65308360D01*
X138043787Y-65308363D01*
X137987829Y-65480589D01*
X137962473Y-65640678D01*
X137932544Y-65703813D01*
X137873232Y-65740744D01*
X137803369Y-65739746D01*
X137745137Y-65701136D01*
X137717527Y-65640678D01*
X137695245Y-65500000D01*
X137692171Y-65480591D01*
X137636211Y-65308361D01*
X137636211Y-65308360D01*
X137597191Y-65231780D01*
X137553996Y-65147006D01*
X137540396Y-65128287D01*
X137447558Y-65000505D01*
X137447554Y-65000500D01*
X137319499Y-64872445D01*
X137319494Y-64872441D01*
X137172997Y-64766006D01*
X137172996Y-64766005D01*
X137172994Y-64766004D01*
X137121300Y-64739664D01*
X137011639Y-64683788D01*
X137011636Y-64683787D01*
X136839410Y-64627829D01*
X136660551Y-64599500D01*
X136660546Y-64599500D01*
X136479454Y-64599500D01*
X136479449Y-64599500D01*
X136300589Y-64627829D01*
X136128363Y-64683787D01*
X136128360Y-64683788D01*
X135967002Y-64766006D01*
X135820505Y-64872441D01*
X135820500Y-64872445D01*
X135692445Y-65000500D01*
X135692441Y-65000505D01*
X135586006Y-65147002D01*
X135503788Y-65308360D01*
X135503787Y-65308363D01*
X135447829Y-65480589D01*
X135422473Y-65640678D01*
X135392544Y-65703813D01*
X135333232Y-65740744D01*
X135263369Y-65739746D01*
X135205137Y-65701136D01*
X135177527Y-65640678D01*
X135155245Y-65500000D01*
X135152171Y-65480591D01*
X135096211Y-65308361D01*
X135096211Y-65308360D01*
X135057191Y-65231780D01*
X135013996Y-65147006D01*
X135000396Y-65128287D01*
X134907558Y-65000505D01*
X134907554Y-65000500D01*
X134779499Y-64872445D01*
X134779494Y-64872441D01*
X134632997Y-64766006D01*
X134632996Y-64766005D01*
X134632994Y-64766004D01*
X134581300Y-64739664D01*
X134471639Y-64683788D01*
X134471636Y-64683787D01*
X134299410Y-64627829D01*
X134120551Y-64599500D01*
X134120546Y-64599500D01*
X133939454Y-64599500D01*
X133939449Y-64599500D01*
X133760589Y-64627829D01*
X133588363Y-64683787D01*
X133588360Y-64683788D01*
X133427002Y-64766006D01*
X133280505Y-64872441D01*
X133280500Y-64872445D01*
X133152445Y-65000500D01*
X133152441Y-65000505D01*
X133046006Y-65147002D01*
X132963788Y-65308360D01*
X132963787Y-65308363D01*
X132907829Y-65480589D01*
X132882473Y-65640678D01*
X132852544Y-65703813D01*
X132793232Y-65740744D01*
X132723369Y-65739746D01*
X132665137Y-65701136D01*
X132637527Y-65640678D01*
X132615245Y-65500000D01*
X132612171Y-65480591D01*
X132556211Y-65308361D01*
X132556211Y-65308360D01*
X132517191Y-65231780D01*
X132473996Y-65147006D01*
X132460396Y-65128287D01*
X132367558Y-65000505D01*
X132367554Y-65000500D01*
X132239499Y-64872445D01*
X132239494Y-64872441D01*
X132092997Y-64766006D01*
X132092996Y-64766005D01*
X132092994Y-64766004D01*
X132041300Y-64739664D01*
X131931639Y-64683788D01*
X131931636Y-64683787D01*
X131759410Y-64627829D01*
X131580551Y-64599500D01*
X131580546Y-64599500D01*
X131399454Y-64599500D01*
X131399449Y-64599500D01*
X131220589Y-64627829D01*
X131048363Y-64683787D01*
X131048360Y-64683788D01*
X130887002Y-64766006D01*
X130740505Y-64872441D01*
X130740500Y-64872445D01*
X130612445Y-65000500D01*
X130612441Y-65000505D01*
X130506006Y-65147002D01*
X130423788Y-65308360D01*
X130423787Y-65308363D01*
X130367829Y-65480589D01*
X130342473Y-65640678D01*
X130312544Y-65703813D01*
X130253232Y-65740744D01*
X130183369Y-65739746D01*
X130125137Y-65701136D01*
X130097527Y-65640678D01*
X130075245Y-65500000D01*
X130072171Y-65480591D01*
X130016211Y-65308361D01*
X130016211Y-65308360D01*
X129977191Y-65231780D01*
X129933996Y-65147006D01*
X129920396Y-65128287D01*
X129827558Y-65000505D01*
X129827554Y-65000500D01*
X129699499Y-64872445D01*
X129699494Y-64872441D01*
X129552997Y-64766006D01*
X129552996Y-64766005D01*
X129552994Y-64766004D01*
X129501300Y-64739664D01*
X129391639Y-64683788D01*
X129391636Y-64683787D01*
X129219410Y-64627829D01*
X129040551Y-64599500D01*
X129040546Y-64599500D01*
X128859454Y-64599500D01*
X128859449Y-64599500D01*
X128680589Y-64627829D01*
X128508363Y-64683787D01*
X128508360Y-64683788D01*
X128347002Y-64766006D01*
X128200505Y-64872441D01*
X128200500Y-64872445D01*
X128072445Y-65000500D01*
X128072441Y-65000505D01*
X127966006Y-65147002D01*
X127883788Y-65308360D01*
X127883787Y-65308363D01*
X127827829Y-65480589D01*
X127802473Y-65640678D01*
X127772544Y-65703813D01*
X127713232Y-65740744D01*
X127643369Y-65739746D01*
X127585137Y-65701136D01*
X127557527Y-65640678D01*
X127535245Y-65500000D01*
X127532171Y-65480591D01*
X127476211Y-65308361D01*
X127476211Y-65308360D01*
X127437191Y-65231780D01*
X127393996Y-65147006D01*
X127380396Y-65128287D01*
X127287558Y-65000505D01*
X127287554Y-65000500D01*
X127159499Y-64872445D01*
X127159494Y-64872441D01*
X127012997Y-64766006D01*
X127012996Y-64766005D01*
X127012994Y-64766004D01*
X126961300Y-64739664D01*
X126851639Y-64683788D01*
X126851636Y-64683787D01*
X126679410Y-64627829D01*
X126500551Y-64599500D01*
X126500546Y-64599500D01*
X126319454Y-64599500D01*
X126319449Y-64599500D01*
X126140589Y-64627829D01*
X125968363Y-64683787D01*
X125968360Y-64683788D01*
X125807002Y-64766006D01*
X125660505Y-64872441D01*
X125660500Y-64872445D01*
X125532445Y-65000500D01*
X125532441Y-65000505D01*
X125426006Y-65147002D01*
X125343788Y-65308360D01*
X125343787Y-65308363D01*
X125287829Y-65480589D01*
X125262473Y-65640678D01*
X125232544Y-65703813D01*
X125173232Y-65740744D01*
X125103369Y-65739746D01*
X125045137Y-65701136D01*
X125017527Y-65640678D01*
X124995245Y-65500000D01*
X124992171Y-65480591D01*
X124936211Y-65308361D01*
X124936211Y-65308360D01*
X124897191Y-65231780D01*
X124853996Y-65147006D01*
X124840396Y-65128287D01*
X124747558Y-65000505D01*
X124747554Y-65000500D01*
X124619499Y-64872445D01*
X124619494Y-64872441D01*
X124472997Y-64766006D01*
X124472996Y-64766005D01*
X124472994Y-64766004D01*
X124421300Y-64739664D01*
X124311639Y-64683788D01*
X124311636Y-64683787D01*
X124139410Y-64627829D01*
X123960551Y-64599500D01*
X123960546Y-64599500D01*
X123779454Y-64599500D01*
X123779449Y-64599500D01*
X123600589Y-64627829D01*
X123428363Y-64683787D01*
X123428360Y-64683788D01*
X123267002Y-64766006D01*
X123120505Y-64872441D01*
X123120500Y-64872445D01*
X122992445Y-65000500D01*
X122992441Y-65000505D01*
X122886006Y-65147002D01*
X122803788Y-65308360D01*
X122803787Y-65308363D01*
X122747829Y-65480589D01*
X122722473Y-65640678D01*
X122692544Y-65703813D01*
X122633232Y-65740744D01*
X122563369Y-65739746D01*
X122505137Y-65701136D01*
X122477527Y-65640678D01*
X122455245Y-65500000D01*
X122452171Y-65480591D01*
X122396211Y-65308361D01*
X122396211Y-65308360D01*
X122357191Y-65231780D01*
X122313996Y-65147006D01*
X122300396Y-65128287D01*
X122207558Y-65000505D01*
X122207554Y-65000500D01*
X122079499Y-64872445D01*
X122079494Y-64872441D01*
X121932997Y-64766006D01*
X121932996Y-64766005D01*
X121932994Y-64766004D01*
X121881300Y-64739664D01*
X121771639Y-64683788D01*
X121771636Y-64683787D01*
X121599410Y-64627829D01*
X121420551Y-64599500D01*
X121420546Y-64599500D01*
X121239454Y-64599500D01*
X121239449Y-64599500D01*
X121060589Y-64627829D01*
X120888363Y-64683787D01*
X120888360Y-64683788D01*
X120727002Y-64766006D01*
X120580505Y-64872441D01*
X120580500Y-64872445D01*
X120452445Y-65000500D01*
X120452441Y-65000505D01*
X120346006Y-65147002D01*
X120263788Y-65308360D01*
X120263787Y-65308363D01*
X120207829Y-65480589D01*
X120182473Y-65640678D01*
X120152544Y-65703813D01*
X120093232Y-65740744D01*
X120023369Y-65739746D01*
X119965137Y-65701136D01*
X119937527Y-65640678D01*
X119915245Y-65500000D01*
X119912171Y-65480591D01*
X119856211Y-65308361D01*
X119856211Y-65308360D01*
X119817191Y-65231780D01*
X119773996Y-65147006D01*
X119760396Y-65128287D01*
X119667558Y-65000505D01*
X119667554Y-65000500D01*
X119539499Y-64872445D01*
X119539494Y-64872441D01*
X119392997Y-64766006D01*
X119392996Y-64766005D01*
X119392994Y-64766004D01*
X119341300Y-64739664D01*
X119231639Y-64683788D01*
X119231636Y-64683787D01*
X119059410Y-64627829D01*
X118880551Y-64599500D01*
X118880546Y-64599500D01*
X118699454Y-64599500D01*
X118699449Y-64599500D01*
X118520589Y-64627829D01*
X118348363Y-64683787D01*
X118348360Y-64683788D01*
X118187002Y-64766006D01*
X118040505Y-64872441D01*
X118040500Y-64872445D01*
X117912445Y-65000500D01*
X117912441Y-65000505D01*
X117806006Y-65147002D01*
X117723788Y-65308360D01*
X117723787Y-65308363D01*
X117667829Y-65480589D01*
X117642473Y-65640678D01*
X117612544Y-65703813D01*
X117553232Y-65740744D01*
X117483369Y-65739746D01*
X117425137Y-65701136D01*
X117397527Y-65640678D01*
X117375245Y-65500000D01*
X117372171Y-65480591D01*
X117316211Y-65308361D01*
X117316211Y-65308360D01*
X117277191Y-65231780D01*
X117233996Y-65147006D01*
X117220396Y-65128287D01*
X117127558Y-65000505D01*
X117127554Y-65000500D01*
X116999499Y-64872445D01*
X116999494Y-64872441D01*
X116852997Y-64766006D01*
X116852996Y-64766005D01*
X116852994Y-64766004D01*
X116801300Y-64739664D01*
X116691639Y-64683788D01*
X116691636Y-64683787D01*
X116519410Y-64627829D01*
X116340551Y-64599500D01*
X116340546Y-64599500D01*
X116159454Y-64599500D01*
X116159449Y-64599500D01*
X115980589Y-64627829D01*
X115808363Y-64683787D01*
X115808360Y-64683788D01*
X115647002Y-64766006D01*
X115500505Y-64872441D01*
X115500500Y-64872445D01*
X115372445Y-65000500D01*
X115372441Y-65000505D01*
X115266006Y-65147002D01*
X115183788Y-65308360D01*
X115183787Y-65308363D01*
X115127829Y-65480589D01*
X115102473Y-65640678D01*
X115072544Y-65703813D01*
X115013232Y-65740744D01*
X114943369Y-65739746D01*
X114885137Y-65701136D01*
X114857527Y-65640678D01*
X114835245Y-65500000D01*
X114832171Y-65480591D01*
X114776211Y-65308361D01*
X114776211Y-65308360D01*
X114737191Y-65231780D01*
X114693996Y-65147006D01*
X114680396Y-65128287D01*
X114587558Y-65000505D01*
X114587554Y-65000500D01*
X114459499Y-64872445D01*
X114459494Y-64872441D01*
X114312997Y-64766006D01*
X114312996Y-64766005D01*
X114312994Y-64766004D01*
X114261300Y-64739664D01*
X114151639Y-64683788D01*
X114151636Y-64683787D01*
X113979410Y-64627829D01*
X113800551Y-64599500D01*
X113800546Y-64599500D01*
X113619454Y-64599500D01*
X113619449Y-64599500D01*
X113440589Y-64627829D01*
X113268363Y-64683787D01*
X113268360Y-64683788D01*
X113107002Y-64766006D01*
X112960505Y-64872441D01*
X112960500Y-64872445D01*
X112832445Y-65000500D01*
X112832441Y-65000505D01*
X112726006Y-65147002D01*
X112643788Y-65308360D01*
X112643787Y-65308363D01*
X112587829Y-65480589D01*
X112562473Y-65640678D01*
X112532544Y-65703813D01*
X112473232Y-65740744D01*
X112403369Y-65739746D01*
X112345137Y-65701136D01*
X112317527Y-65640678D01*
X112295245Y-65500000D01*
X112292171Y-65480591D01*
X112236211Y-65308361D01*
X112236211Y-65308360D01*
X112197191Y-65231780D01*
X112153996Y-65147006D01*
X112140396Y-65128287D01*
X112047558Y-65000505D01*
X112047554Y-65000500D01*
X111919499Y-64872445D01*
X111919494Y-64872441D01*
X111772997Y-64766006D01*
X111772996Y-64766005D01*
X111772994Y-64766004D01*
X111721300Y-64739664D01*
X111611639Y-64683788D01*
X111611636Y-64683787D01*
X111439410Y-64627829D01*
X111260551Y-64599500D01*
X111260546Y-64599500D01*
X111079454Y-64599500D01*
X111079449Y-64599500D01*
X110900589Y-64627829D01*
X110728363Y-64683787D01*
X110728360Y-64683788D01*
X110567002Y-64766006D01*
X110420505Y-64872441D01*
X110420500Y-64872445D01*
X110292445Y-65000500D01*
X110292441Y-65000505D01*
X110186004Y-65147004D01*
X110118908Y-65278685D01*
X110070933Y-65329480D01*
X110003112Y-65346275D01*
X109936977Y-65323737D01*
X109893527Y-65269021D01*
X109890492Y-65260705D01*
X109881094Y-65231780D01*
X109784624Y-65042449D01*
X109745270Y-64988282D01*
X109745269Y-64988282D01*
X109112962Y-65620590D01*
X109095925Y-65557007D01*
X109030099Y-65442993D01*
X108937007Y-65349901D01*
X108822993Y-65284075D01*
X108759409Y-65267037D01*
X109391716Y-64634728D01*
X109337550Y-64595375D01*
X109148217Y-64498904D01*
X108946129Y-64433242D01*
X108736246Y-64400000D01*
X108523754Y-64400000D01*
X108313872Y-64433242D01*
X108313869Y-64433242D01*
X108111782Y-64498904D01*
X107922439Y-64595380D01*
X107868282Y-64634727D01*
X107868282Y-64634728D01*
X108500591Y-65267037D01*
X108437007Y-65284075D01*
X108322993Y-65349901D01*
X108229901Y-65442993D01*
X108164075Y-65557007D01*
X108147037Y-65620591D01*
X107477642Y-64951196D01*
X107444319Y-64890609D01*
X107405527Y-64717364D01*
X107383354Y-64657913D01*
X107383350Y-64657906D01*
X107297190Y-64542812D01*
X107297187Y-64542809D01*
X107182093Y-64456649D01*
X107182086Y-64456645D01*
X107047379Y-64406403D01*
X107047372Y-64406401D01*
X106987844Y-64400000D01*
X106340000Y-64400000D01*
X106340000Y-65316988D01*
X106282993Y-65284075D01*
X106155826Y-65250000D01*
X106024174Y-65250000D01*
X105897007Y-65284075D01*
X105840000Y-65316988D01*
X105840000Y-64400000D01*
X105192155Y-64400000D01*
X105132627Y-64406401D01*
X105132620Y-64406403D01*
X104997913Y-64456645D01*
X104997906Y-64456649D01*
X104882812Y-64542809D01*
X104882809Y-64542812D01*
X104796649Y-64657906D01*
X104796645Y-64657913D01*
X104746403Y-64792620D01*
X104746401Y-64792627D01*
X104740000Y-64852155D01*
X93200500Y-64852155D01*
X93200500Y-62574500D01*
X93220185Y-62507461D01*
X93272989Y-62461706D01*
X93324500Y-62450500D01*
X154175500Y-62450500D01*
X154242539Y-62470185D01*
G37*
%TD.AperFunction*%
%TD*%
M02*
