%TF.GenerationSoftware,KiCad,Pcbnew,9.0.6-9.0.6~ubuntu24.04.1*%
%TF.CreationDate,2026-01-01T13:47:20-07:00*%
%TF.ProjectId,ARviewer,41527669-6577-4657-922e-6b696361645f,rev?*%
%TF.SameCoordinates,Original*%
%TF.FileFunction,Legend,Bot*%
%TF.FilePolarity,Positive*%
%FSLAX46Y46*%
G04 Gerber Fmt 4.6, Leading zero omitted, Abs format (unit mm)*
G04 Created by KiCad (PCBNEW 9.0.6-9.0.6~ubuntu24.04.1) date 2026-01-01 13:47:20*
%MOMM*%
%LPD*%
G01*
G04 APERTURE LIST*
%ADD10C,0.100000*%
G04 APERTURE END LIST*
D10*
X146946115Y-110122419D02*
X146946115Y-109122419D01*
X146517544Y-110122419D02*
X146517544Y-109598609D01*
X146517544Y-109598609D02*
X146565163Y-109503371D01*
X146565163Y-109503371D02*
X146660401Y-109455752D01*
X146660401Y-109455752D02*
X146803258Y-109455752D01*
X146803258Y-109455752D02*
X146898496Y-109503371D01*
X146898496Y-109503371D02*
X146946115Y-109550990D01*
X146184210Y-109455752D02*
X145803258Y-109455752D01*
X146041353Y-109122419D02*
X146041353Y-109979561D01*
X146041353Y-109979561D02*
X145993734Y-110074800D01*
X145993734Y-110074800D02*
X145898496Y-110122419D01*
X145898496Y-110122419D02*
X145803258Y-110122419D01*
X145612781Y-109455752D02*
X145231829Y-109455752D01*
X145469924Y-109122419D02*
X145469924Y-109979561D01*
X145469924Y-109979561D02*
X145422305Y-110074800D01*
X145422305Y-110074800D02*
X145327067Y-110122419D01*
X145327067Y-110122419D02*
X145231829Y-110122419D01*
X144898495Y-109455752D02*
X144898495Y-110455752D01*
X144898495Y-109503371D02*
X144803257Y-109455752D01*
X144803257Y-109455752D02*
X144612781Y-109455752D01*
X144612781Y-109455752D02*
X144517543Y-109503371D01*
X144517543Y-109503371D02*
X144469924Y-109550990D01*
X144469924Y-109550990D02*
X144422305Y-109646228D01*
X144422305Y-109646228D02*
X144422305Y-109931942D01*
X144422305Y-109931942D02*
X144469924Y-110027180D01*
X144469924Y-110027180D02*
X144517543Y-110074800D01*
X144517543Y-110074800D02*
X144612781Y-110122419D01*
X144612781Y-110122419D02*
X144803257Y-110122419D01*
X144803257Y-110122419D02*
X144898495Y-110074800D01*
X144041352Y-110074800D02*
X143946114Y-110122419D01*
X143946114Y-110122419D02*
X143755638Y-110122419D01*
X143755638Y-110122419D02*
X143660400Y-110074800D01*
X143660400Y-110074800D02*
X143612781Y-109979561D01*
X143612781Y-109979561D02*
X143612781Y-109931942D01*
X143612781Y-109931942D02*
X143660400Y-109836704D01*
X143660400Y-109836704D02*
X143755638Y-109789085D01*
X143755638Y-109789085D02*
X143898495Y-109789085D01*
X143898495Y-109789085D02*
X143993733Y-109741466D01*
X143993733Y-109741466D02*
X144041352Y-109646228D01*
X144041352Y-109646228D02*
X144041352Y-109598609D01*
X144041352Y-109598609D02*
X143993733Y-109503371D01*
X143993733Y-109503371D02*
X143898495Y-109455752D01*
X143898495Y-109455752D02*
X143755638Y-109455752D01*
X143755638Y-109455752D02*
X143660400Y-109503371D01*
X143184209Y-110027180D02*
X143136590Y-110074800D01*
X143136590Y-110074800D02*
X143184209Y-110122419D01*
X143184209Y-110122419D02*
X143231828Y-110074800D01*
X143231828Y-110074800D02*
X143184209Y-110027180D01*
X143184209Y-110027180D02*
X143184209Y-110122419D01*
X143184209Y-109503371D02*
X143136590Y-109550990D01*
X143136590Y-109550990D02*
X143184209Y-109598609D01*
X143184209Y-109598609D02*
X143231828Y-109550990D01*
X143231828Y-109550990D02*
X143184209Y-109503371D01*
X143184209Y-109503371D02*
X143184209Y-109598609D01*
X141993734Y-109074800D02*
X142850876Y-110360514D01*
X140946115Y-109074800D02*
X141803257Y-110360514D01*
X140184210Y-109455752D02*
X140184210Y-110265276D01*
X140184210Y-110265276D02*
X140231829Y-110360514D01*
X140231829Y-110360514D02*
X140279448Y-110408133D01*
X140279448Y-110408133D02*
X140374686Y-110455752D01*
X140374686Y-110455752D02*
X140517543Y-110455752D01*
X140517543Y-110455752D02*
X140612781Y-110408133D01*
X140184210Y-110074800D02*
X140279448Y-110122419D01*
X140279448Y-110122419D02*
X140469924Y-110122419D01*
X140469924Y-110122419D02*
X140565162Y-110074800D01*
X140565162Y-110074800D02*
X140612781Y-110027180D01*
X140612781Y-110027180D02*
X140660400Y-109931942D01*
X140660400Y-109931942D02*
X140660400Y-109646228D01*
X140660400Y-109646228D02*
X140612781Y-109550990D01*
X140612781Y-109550990D02*
X140565162Y-109503371D01*
X140565162Y-109503371D02*
X140469924Y-109455752D01*
X140469924Y-109455752D02*
X140279448Y-109455752D01*
X140279448Y-109455752D02*
X140184210Y-109503371D01*
X139708019Y-110122419D02*
X139708019Y-109455752D01*
X139708019Y-109122419D02*
X139755638Y-109170038D01*
X139755638Y-109170038D02*
X139708019Y-109217657D01*
X139708019Y-109217657D02*
X139660400Y-109170038D01*
X139660400Y-109170038D02*
X139708019Y-109122419D01*
X139708019Y-109122419D02*
X139708019Y-109217657D01*
X139374686Y-109455752D02*
X138993734Y-109455752D01*
X139231829Y-109122419D02*
X139231829Y-109979561D01*
X139231829Y-109979561D02*
X139184210Y-110074800D01*
X139184210Y-110074800D02*
X139088972Y-110122419D01*
X139088972Y-110122419D02*
X138993734Y-110122419D01*
X138660400Y-110122419D02*
X138660400Y-109122419D01*
X138231829Y-110122419D02*
X138231829Y-109598609D01*
X138231829Y-109598609D02*
X138279448Y-109503371D01*
X138279448Y-109503371D02*
X138374686Y-109455752D01*
X138374686Y-109455752D02*
X138517543Y-109455752D01*
X138517543Y-109455752D02*
X138612781Y-109503371D01*
X138612781Y-109503371D02*
X138660400Y-109550990D01*
X137327067Y-109455752D02*
X137327067Y-110122419D01*
X137755638Y-109455752D02*
X137755638Y-109979561D01*
X137755638Y-109979561D02*
X137708019Y-110074800D01*
X137708019Y-110074800D02*
X137612781Y-110122419D01*
X137612781Y-110122419D02*
X137469924Y-110122419D01*
X137469924Y-110122419D02*
X137374686Y-110074800D01*
X137374686Y-110074800D02*
X137327067Y-110027180D01*
X136850876Y-110122419D02*
X136850876Y-109122419D01*
X136850876Y-109503371D02*
X136755638Y-109455752D01*
X136755638Y-109455752D02*
X136565162Y-109455752D01*
X136565162Y-109455752D02*
X136469924Y-109503371D01*
X136469924Y-109503371D02*
X136422305Y-109550990D01*
X136422305Y-109550990D02*
X136374686Y-109646228D01*
X136374686Y-109646228D02*
X136374686Y-109931942D01*
X136374686Y-109931942D02*
X136422305Y-110027180D01*
X136422305Y-110027180D02*
X136469924Y-110074800D01*
X136469924Y-110074800D02*
X136565162Y-110122419D01*
X136565162Y-110122419D02*
X136755638Y-110122419D01*
X136755638Y-110122419D02*
X136850876Y-110074800D01*
X135946114Y-110027180D02*
X135898495Y-110074800D01*
X135898495Y-110074800D02*
X135946114Y-110122419D01*
X135946114Y-110122419D02*
X135993733Y-110074800D01*
X135993733Y-110074800D02*
X135946114Y-110027180D01*
X135946114Y-110027180D02*
X135946114Y-110122419D01*
X135041353Y-110074800D02*
X135136591Y-110122419D01*
X135136591Y-110122419D02*
X135327067Y-110122419D01*
X135327067Y-110122419D02*
X135422305Y-110074800D01*
X135422305Y-110074800D02*
X135469924Y-110027180D01*
X135469924Y-110027180D02*
X135517543Y-109931942D01*
X135517543Y-109931942D02*
X135517543Y-109646228D01*
X135517543Y-109646228D02*
X135469924Y-109550990D01*
X135469924Y-109550990D02*
X135422305Y-109503371D01*
X135422305Y-109503371D02*
X135327067Y-109455752D01*
X135327067Y-109455752D02*
X135136591Y-109455752D01*
X135136591Y-109455752D02*
X135041353Y-109503371D01*
X134469924Y-110122419D02*
X134565162Y-110074800D01*
X134565162Y-110074800D02*
X134612781Y-110027180D01*
X134612781Y-110027180D02*
X134660400Y-109931942D01*
X134660400Y-109931942D02*
X134660400Y-109646228D01*
X134660400Y-109646228D02*
X134612781Y-109550990D01*
X134612781Y-109550990D02*
X134565162Y-109503371D01*
X134565162Y-109503371D02*
X134469924Y-109455752D01*
X134469924Y-109455752D02*
X134327067Y-109455752D01*
X134327067Y-109455752D02*
X134231829Y-109503371D01*
X134231829Y-109503371D02*
X134184210Y-109550990D01*
X134184210Y-109550990D02*
X134136591Y-109646228D01*
X134136591Y-109646228D02*
X134136591Y-109931942D01*
X134136591Y-109931942D02*
X134184210Y-110027180D01*
X134184210Y-110027180D02*
X134231829Y-110074800D01*
X134231829Y-110074800D02*
X134327067Y-110122419D01*
X134327067Y-110122419D02*
X134469924Y-110122419D01*
X133708019Y-110122419D02*
X133708019Y-109455752D01*
X133708019Y-109550990D02*
X133660400Y-109503371D01*
X133660400Y-109503371D02*
X133565162Y-109455752D01*
X133565162Y-109455752D02*
X133422305Y-109455752D01*
X133422305Y-109455752D02*
X133327067Y-109503371D01*
X133327067Y-109503371D02*
X133279448Y-109598609D01*
X133279448Y-109598609D02*
X133279448Y-110122419D01*
X133279448Y-109598609D02*
X133231829Y-109503371D01*
X133231829Y-109503371D02*
X133136591Y-109455752D01*
X133136591Y-109455752D02*
X132993734Y-109455752D01*
X132993734Y-109455752D02*
X132898495Y-109503371D01*
X132898495Y-109503371D02*
X132850876Y-109598609D01*
X132850876Y-109598609D02*
X132850876Y-110122419D01*
X131660401Y-109074800D02*
X132517543Y-110360514D01*
X131327067Y-110122419D02*
X131327067Y-109455752D01*
X131327067Y-109550990D02*
X131279448Y-109503371D01*
X131279448Y-109503371D02*
X131184210Y-109455752D01*
X131184210Y-109455752D02*
X131041353Y-109455752D01*
X131041353Y-109455752D02*
X130946115Y-109503371D01*
X130946115Y-109503371D02*
X130898496Y-109598609D01*
X130898496Y-109598609D02*
X130898496Y-110122419D01*
X130898496Y-109598609D02*
X130850877Y-109503371D01*
X130850877Y-109503371D02*
X130755639Y-109455752D01*
X130755639Y-109455752D02*
X130612782Y-109455752D01*
X130612782Y-109455752D02*
X130517543Y-109503371D01*
X130517543Y-109503371D02*
X130469924Y-109598609D01*
X130469924Y-109598609D02*
X130469924Y-110122419D01*
X129565163Y-110074800D02*
X129660401Y-110122419D01*
X129660401Y-110122419D02*
X129850877Y-110122419D01*
X129850877Y-110122419D02*
X129946115Y-110074800D01*
X129946115Y-110074800D02*
X129993734Y-110027180D01*
X129993734Y-110027180D02*
X130041353Y-109931942D01*
X130041353Y-109931942D02*
X130041353Y-109646228D01*
X130041353Y-109646228D02*
X129993734Y-109550990D01*
X129993734Y-109550990D02*
X129946115Y-109503371D01*
X129946115Y-109503371D02*
X129850877Y-109455752D01*
X129850877Y-109455752D02*
X129660401Y-109455752D01*
X129660401Y-109455752D02*
X129565163Y-109503371D01*
X129136591Y-110122419D02*
X129136591Y-109122419D01*
X129136591Y-109503371D02*
X129041353Y-109455752D01*
X129041353Y-109455752D02*
X128850877Y-109455752D01*
X128850877Y-109455752D02*
X128755639Y-109503371D01*
X128755639Y-109503371D02*
X128708020Y-109550990D01*
X128708020Y-109550990D02*
X128660401Y-109646228D01*
X128660401Y-109646228D02*
X128660401Y-109931942D01*
X128660401Y-109931942D02*
X128708020Y-110027180D01*
X128708020Y-110027180D02*
X128755639Y-110074800D01*
X128755639Y-110074800D02*
X128850877Y-110122419D01*
X128850877Y-110122419D02*
X129041353Y-110122419D01*
X129041353Y-110122419D02*
X129136591Y-110074800D01*
X127850877Y-110074800D02*
X127946115Y-110122419D01*
X127946115Y-110122419D02*
X128136591Y-110122419D01*
X128136591Y-110122419D02*
X128231829Y-110074800D01*
X128231829Y-110074800D02*
X128279448Y-109979561D01*
X128279448Y-109979561D02*
X128279448Y-109598609D01*
X128279448Y-109598609D02*
X128231829Y-109503371D01*
X128231829Y-109503371D02*
X128136591Y-109455752D01*
X128136591Y-109455752D02*
X127946115Y-109455752D01*
X127946115Y-109455752D02*
X127850877Y-109503371D01*
X127850877Y-109503371D02*
X127803258Y-109598609D01*
X127803258Y-109598609D02*
X127803258Y-109693847D01*
X127803258Y-109693847D02*
X128279448Y-109789085D01*
X126946115Y-110122419D02*
X126946115Y-109598609D01*
X126946115Y-109598609D02*
X126993734Y-109503371D01*
X126993734Y-109503371D02*
X127088972Y-109455752D01*
X127088972Y-109455752D02*
X127279448Y-109455752D01*
X127279448Y-109455752D02*
X127374686Y-109503371D01*
X126946115Y-110074800D02*
X127041353Y-110122419D01*
X127041353Y-110122419D02*
X127279448Y-110122419D01*
X127279448Y-110122419D02*
X127374686Y-110074800D01*
X127374686Y-110074800D02*
X127422305Y-109979561D01*
X127422305Y-109979561D02*
X127422305Y-109884323D01*
X127422305Y-109884323D02*
X127374686Y-109789085D01*
X127374686Y-109789085D02*
X127279448Y-109741466D01*
X127279448Y-109741466D02*
X127041353Y-109741466D01*
X127041353Y-109741466D02*
X126946115Y-109693847D01*
X126469924Y-110122419D02*
X126469924Y-109455752D01*
X126469924Y-109646228D02*
X126422305Y-109550990D01*
X126422305Y-109550990D02*
X126374686Y-109503371D01*
X126374686Y-109503371D02*
X126279448Y-109455752D01*
X126279448Y-109455752D02*
X126184210Y-109455752D01*
X125993733Y-109455752D02*
X125612781Y-109455752D01*
X125850876Y-110122419D02*
X125850876Y-109265276D01*
X125850876Y-109265276D02*
X125803257Y-109170038D01*
X125803257Y-109170038D02*
X125708019Y-109122419D01*
X125708019Y-109122419D02*
X125612781Y-109122419D01*
X125279447Y-110122419D02*
X125279447Y-109455752D01*
X125279447Y-109122419D02*
X125327066Y-109170038D01*
X125327066Y-109170038D02*
X125279447Y-109217657D01*
X125279447Y-109217657D02*
X125231828Y-109170038D01*
X125231828Y-109170038D02*
X125279447Y-109122419D01*
X125279447Y-109122419D02*
X125279447Y-109217657D01*
X124850876Y-110074800D02*
X124755638Y-110122419D01*
X124755638Y-110122419D02*
X124565162Y-110122419D01*
X124565162Y-110122419D02*
X124469924Y-110074800D01*
X124469924Y-110074800D02*
X124422305Y-109979561D01*
X124422305Y-109979561D02*
X124422305Y-109931942D01*
X124422305Y-109931942D02*
X124469924Y-109836704D01*
X124469924Y-109836704D02*
X124565162Y-109789085D01*
X124565162Y-109789085D02*
X124708019Y-109789085D01*
X124708019Y-109789085D02*
X124803257Y-109741466D01*
X124803257Y-109741466D02*
X124850876Y-109646228D01*
X124850876Y-109646228D02*
X124850876Y-109598609D01*
X124850876Y-109598609D02*
X124803257Y-109503371D01*
X124803257Y-109503371D02*
X124708019Y-109455752D01*
X124708019Y-109455752D02*
X124565162Y-109455752D01*
X124565162Y-109455752D02*
X124469924Y-109503371D01*
X123993733Y-110122419D02*
X123993733Y-109122419D01*
X123565162Y-110122419D02*
X123565162Y-109598609D01*
X123565162Y-109598609D02*
X123612781Y-109503371D01*
X123612781Y-109503371D02*
X123708019Y-109455752D01*
X123708019Y-109455752D02*
X123850876Y-109455752D01*
X123850876Y-109455752D02*
X123946114Y-109503371D01*
X123946114Y-109503371D02*
X123993733Y-109550990D01*
X122374686Y-109074800D02*
X123231828Y-110360514D01*
X122041352Y-110122419D02*
X122041352Y-109122419D01*
X122041352Y-109122419D02*
X121708019Y-109836704D01*
X121708019Y-109836704D02*
X121374686Y-109122419D01*
X121374686Y-109122419D02*
X121374686Y-110122419D01*
X120898495Y-110122419D02*
X120898495Y-109455752D01*
X120898495Y-109122419D02*
X120946114Y-109170038D01*
X120946114Y-109170038D02*
X120898495Y-109217657D01*
X120898495Y-109217657D02*
X120850876Y-109170038D01*
X120850876Y-109170038D02*
X120898495Y-109122419D01*
X120898495Y-109122419D02*
X120898495Y-109217657D01*
X120422305Y-109455752D02*
X120422305Y-110122419D01*
X120422305Y-109550990D02*
X120374686Y-109503371D01*
X120374686Y-109503371D02*
X120279448Y-109455752D01*
X120279448Y-109455752D02*
X120136591Y-109455752D01*
X120136591Y-109455752D02*
X120041353Y-109503371D01*
X120041353Y-109503371D02*
X119993734Y-109598609D01*
X119993734Y-109598609D02*
X119993734Y-110122419D01*
X119517543Y-110122419D02*
X119517543Y-109455752D01*
X119517543Y-109122419D02*
X119565162Y-109170038D01*
X119565162Y-109170038D02*
X119517543Y-109217657D01*
X119517543Y-109217657D02*
X119469924Y-109170038D01*
X119469924Y-109170038D02*
X119517543Y-109122419D01*
X119517543Y-109122419D02*
X119517543Y-109217657D01*
X119041353Y-109741466D02*
X118279449Y-109741466D01*
X117898496Y-109122419D02*
X117279449Y-109122419D01*
X117279449Y-109122419D02*
X117612782Y-109503371D01*
X117612782Y-109503371D02*
X117469925Y-109503371D01*
X117469925Y-109503371D02*
X117374687Y-109550990D01*
X117374687Y-109550990D02*
X117327068Y-109598609D01*
X117327068Y-109598609D02*
X117279449Y-109693847D01*
X117279449Y-109693847D02*
X117279449Y-109931942D01*
X117279449Y-109931942D02*
X117327068Y-110027180D01*
X117327068Y-110027180D02*
X117374687Y-110074800D01*
X117374687Y-110074800D02*
X117469925Y-110122419D01*
X117469925Y-110122419D02*
X117755639Y-110122419D01*
X117755639Y-110122419D02*
X117850877Y-110074800D01*
X117850877Y-110074800D02*
X117898496Y-110027180D01*
X116850877Y-110122419D02*
X116850877Y-109122419D01*
X116850877Y-109122419D02*
X116612782Y-109122419D01*
X116612782Y-109122419D02*
X116469925Y-109170038D01*
X116469925Y-109170038D02*
X116374687Y-109265276D01*
X116374687Y-109265276D02*
X116327068Y-109360514D01*
X116327068Y-109360514D02*
X116279449Y-109550990D01*
X116279449Y-109550990D02*
X116279449Y-109693847D01*
X116279449Y-109693847D02*
X116327068Y-109884323D01*
X116327068Y-109884323D02*
X116374687Y-109979561D01*
X116374687Y-109979561D02*
X116469925Y-110074800D01*
X116469925Y-110074800D02*
X116612782Y-110122419D01*
X116612782Y-110122419D02*
X116850877Y-110122419D01*
X115850877Y-109741466D02*
X115088973Y-109741466D01*
X114708020Y-109122419D02*
X114469925Y-110122419D01*
X114469925Y-110122419D02*
X114279449Y-109408133D01*
X114279449Y-109408133D02*
X114088973Y-110122419D01*
X114088973Y-110122419D02*
X113850878Y-109122419D01*
X113469925Y-110122419D02*
X113469925Y-109455752D01*
X113469925Y-109122419D02*
X113517544Y-109170038D01*
X113517544Y-109170038D02*
X113469925Y-109217657D01*
X113469925Y-109217657D02*
X113422306Y-109170038D01*
X113422306Y-109170038D02*
X113469925Y-109122419D01*
X113469925Y-109122419D02*
X113469925Y-109217657D01*
X112993735Y-109455752D02*
X112993735Y-110122419D01*
X112993735Y-109550990D02*
X112946116Y-109503371D01*
X112946116Y-109503371D02*
X112850878Y-109455752D01*
X112850878Y-109455752D02*
X112708021Y-109455752D01*
X112708021Y-109455752D02*
X112612783Y-109503371D01*
X112612783Y-109503371D02*
X112565164Y-109598609D01*
X112565164Y-109598609D02*
X112565164Y-110122419D01*
X111660402Y-110122419D02*
X111660402Y-109122419D01*
X111660402Y-110074800D02*
X111755640Y-110122419D01*
X111755640Y-110122419D02*
X111946116Y-110122419D01*
X111946116Y-110122419D02*
X112041354Y-110074800D01*
X112041354Y-110074800D02*
X112088973Y-110027180D01*
X112088973Y-110027180D02*
X112136592Y-109931942D01*
X112136592Y-109931942D02*
X112136592Y-109646228D01*
X112136592Y-109646228D02*
X112088973Y-109550990D01*
X112088973Y-109550990D02*
X112041354Y-109503371D01*
X112041354Y-109503371D02*
X111946116Y-109455752D01*
X111946116Y-109455752D02*
X111755640Y-109455752D01*
X111755640Y-109455752D02*
X111660402Y-109503371D01*
X111041354Y-110122419D02*
X111136592Y-110074800D01*
X111136592Y-110074800D02*
X111184211Y-110027180D01*
X111184211Y-110027180D02*
X111231830Y-109931942D01*
X111231830Y-109931942D02*
X111231830Y-109646228D01*
X111231830Y-109646228D02*
X111184211Y-109550990D01*
X111184211Y-109550990D02*
X111136592Y-109503371D01*
X111136592Y-109503371D02*
X111041354Y-109455752D01*
X111041354Y-109455752D02*
X110898497Y-109455752D01*
X110898497Y-109455752D02*
X110803259Y-109503371D01*
X110803259Y-109503371D02*
X110755640Y-109550990D01*
X110755640Y-109550990D02*
X110708021Y-109646228D01*
X110708021Y-109646228D02*
X110708021Y-109931942D01*
X110708021Y-109931942D02*
X110755640Y-110027180D01*
X110755640Y-110027180D02*
X110803259Y-110074800D01*
X110803259Y-110074800D02*
X110898497Y-110122419D01*
X110898497Y-110122419D02*
X111041354Y-110122419D01*
X110374687Y-109455752D02*
X110184211Y-110122419D01*
X110184211Y-110122419D02*
X109993735Y-109646228D01*
X109993735Y-109646228D02*
X109803259Y-110122419D01*
X109803259Y-110122419D02*
X109612783Y-109455752D01*
X109231830Y-109741466D02*
X108469926Y-109741466D01*
X108136592Y-109122419D02*
X107803259Y-110122419D01*
X107803259Y-110122419D02*
X107469926Y-109122419D01*
X107136592Y-110122419D02*
X107136592Y-109455752D01*
X107136592Y-109122419D02*
X107184211Y-109170038D01*
X107184211Y-109170038D02*
X107136592Y-109217657D01*
X107136592Y-109217657D02*
X107088973Y-109170038D01*
X107088973Y-109170038D02*
X107136592Y-109122419D01*
X107136592Y-109122419D02*
X107136592Y-109217657D01*
X106279450Y-110074800D02*
X106374688Y-110122419D01*
X106374688Y-110122419D02*
X106565164Y-110122419D01*
X106565164Y-110122419D02*
X106660402Y-110074800D01*
X106660402Y-110074800D02*
X106708021Y-109979561D01*
X106708021Y-109979561D02*
X106708021Y-109598609D01*
X106708021Y-109598609D02*
X106660402Y-109503371D01*
X106660402Y-109503371D02*
X106565164Y-109455752D01*
X106565164Y-109455752D02*
X106374688Y-109455752D01*
X106374688Y-109455752D02*
X106279450Y-109503371D01*
X106279450Y-109503371D02*
X106231831Y-109598609D01*
X106231831Y-109598609D02*
X106231831Y-109693847D01*
X106231831Y-109693847D02*
X106708021Y-109789085D01*
X105898497Y-109455752D02*
X105708021Y-110122419D01*
X105708021Y-110122419D02*
X105517545Y-109646228D01*
X105517545Y-109646228D02*
X105327069Y-110122419D01*
X105327069Y-110122419D02*
X105136593Y-109455752D01*
X104374688Y-110074800D02*
X104469926Y-110122419D01*
X104469926Y-110122419D02*
X104660402Y-110122419D01*
X104660402Y-110122419D02*
X104755640Y-110074800D01*
X104755640Y-110074800D02*
X104803259Y-109979561D01*
X104803259Y-109979561D02*
X104803259Y-109598609D01*
X104803259Y-109598609D02*
X104755640Y-109503371D01*
X104755640Y-109503371D02*
X104660402Y-109455752D01*
X104660402Y-109455752D02*
X104469926Y-109455752D01*
X104469926Y-109455752D02*
X104374688Y-109503371D01*
X104374688Y-109503371D02*
X104327069Y-109598609D01*
X104327069Y-109598609D02*
X104327069Y-109693847D01*
X104327069Y-109693847D02*
X104803259Y-109789085D01*
X103898497Y-110122419D02*
X103898497Y-109455752D01*
X103898497Y-109646228D02*
X103850878Y-109550990D01*
X103850878Y-109550990D02*
X103803259Y-109503371D01*
X103803259Y-109503371D02*
X103708021Y-109455752D01*
X103708021Y-109455752D02*
X103612783Y-109455752D01*
X150920038Y-112327693D02*
X150872419Y-112232455D01*
X150872419Y-112232455D02*
X150872419Y-112089598D01*
X150872419Y-112089598D02*
X150920038Y-111946741D01*
X150920038Y-111946741D02*
X151015276Y-111851503D01*
X151015276Y-111851503D02*
X151110514Y-111803884D01*
X151110514Y-111803884D02*
X151300990Y-111756265D01*
X151300990Y-111756265D02*
X151443847Y-111756265D01*
X151443847Y-111756265D02*
X151634323Y-111803884D01*
X151634323Y-111803884D02*
X151729561Y-111851503D01*
X151729561Y-111851503D02*
X151824800Y-111946741D01*
X151824800Y-111946741D02*
X151872419Y-112089598D01*
X151872419Y-112089598D02*
X151872419Y-112184836D01*
X151872419Y-112184836D02*
X151824800Y-112327693D01*
X151824800Y-112327693D02*
X151777180Y-112375312D01*
X151777180Y-112375312D02*
X151443847Y-112375312D01*
X151443847Y-112375312D02*
X151443847Y-112184836D01*
X151872419Y-112803884D02*
X150872419Y-112803884D01*
X150872419Y-112803884D02*
X151872419Y-113375312D01*
X151872419Y-113375312D02*
X150872419Y-113375312D01*
X151872419Y-113851503D02*
X150872419Y-113851503D01*
X150872419Y-113851503D02*
X150872419Y-114089598D01*
X150872419Y-114089598D02*
X150920038Y-114232455D01*
X150920038Y-114232455D02*
X151015276Y-114327693D01*
X151015276Y-114327693D02*
X151110514Y-114375312D01*
X151110514Y-114375312D02*
X151300990Y-114422931D01*
X151300990Y-114422931D02*
X151443847Y-114422931D01*
X151443847Y-114422931D02*
X151634323Y-114375312D01*
X151634323Y-114375312D02*
X151729561Y-114327693D01*
X151729561Y-114327693D02*
X151824800Y-114232455D01*
X151824800Y-114232455D02*
X151872419Y-114089598D01*
X151872419Y-114089598D02*
X151872419Y-113851503D01*
X148420038Y-112327693D02*
X148372419Y-112232455D01*
X148372419Y-112232455D02*
X148372419Y-112089598D01*
X148372419Y-112089598D02*
X148420038Y-111946741D01*
X148420038Y-111946741D02*
X148515276Y-111851503D01*
X148515276Y-111851503D02*
X148610514Y-111803884D01*
X148610514Y-111803884D02*
X148800990Y-111756265D01*
X148800990Y-111756265D02*
X148943847Y-111756265D01*
X148943847Y-111756265D02*
X149134323Y-111803884D01*
X149134323Y-111803884D02*
X149229561Y-111851503D01*
X149229561Y-111851503D02*
X149324800Y-111946741D01*
X149324800Y-111946741D02*
X149372419Y-112089598D01*
X149372419Y-112089598D02*
X149372419Y-112184836D01*
X149372419Y-112184836D02*
X149324800Y-112327693D01*
X149324800Y-112327693D02*
X149277180Y-112375312D01*
X149277180Y-112375312D02*
X148943847Y-112375312D01*
X148943847Y-112375312D02*
X148943847Y-112184836D01*
X149372419Y-112803884D02*
X148372419Y-112803884D01*
X148372419Y-112803884D02*
X149372419Y-113375312D01*
X149372419Y-113375312D02*
X148372419Y-113375312D01*
X149372419Y-113851503D02*
X148372419Y-113851503D01*
X148372419Y-113851503D02*
X148372419Y-114089598D01*
X148372419Y-114089598D02*
X148420038Y-114232455D01*
X148420038Y-114232455D02*
X148515276Y-114327693D01*
X148515276Y-114327693D02*
X148610514Y-114375312D01*
X148610514Y-114375312D02*
X148800990Y-114422931D01*
X148800990Y-114422931D02*
X148943847Y-114422931D01*
X148943847Y-114422931D02*
X149134323Y-114375312D01*
X149134323Y-114375312D02*
X149229561Y-114327693D01*
X149229561Y-114327693D02*
X149324800Y-114232455D01*
X149324800Y-114232455D02*
X149372419Y-114089598D01*
X149372419Y-114089598D02*
X149372419Y-113851503D01*
X146622419Y-112803884D02*
X145622419Y-112803884D01*
X145622419Y-112803884D02*
X145622419Y-113041979D01*
X145622419Y-113041979D02*
X145670038Y-113184836D01*
X145670038Y-113184836D02*
X145765276Y-113280074D01*
X145765276Y-113280074D02*
X145860514Y-113327693D01*
X145860514Y-113327693D02*
X146050990Y-113375312D01*
X146050990Y-113375312D02*
X146193847Y-113375312D01*
X146193847Y-113375312D02*
X146384323Y-113327693D01*
X146384323Y-113327693D02*
X146479561Y-113280074D01*
X146479561Y-113280074D02*
X146574800Y-113184836D01*
X146574800Y-113184836D02*
X146622419Y-113041979D01*
X146622419Y-113041979D02*
X146622419Y-112803884D01*
X146622419Y-114327693D02*
X146622419Y-113756265D01*
X146622419Y-114041979D02*
X145622419Y-114041979D01*
X145622419Y-114041979D02*
X145765276Y-113946741D01*
X145765276Y-113946741D02*
X145860514Y-113851503D01*
X145860514Y-113851503D02*
X145908133Y-113756265D01*
X144372419Y-112803884D02*
X143372419Y-112803884D01*
X143372419Y-112803884D02*
X143372419Y-113041979D01*
X143372419Y-113041979D02*
X143420038Y-113184836D01*
X143420038Y-113184836D02*
X143515276Y-113280074D01*
X143515276Y-113280074D02*
X143610514Y-113327693D01*
X143610514Y-113327693D02*
X143800990Y-113375312D01*
X143800990Y-113375312D02*
X143943847Y-113375312D01*
X143943847Y-113375312D02*
X144134323Y-113327693D01*
X144134323Y-113327693D02*
X144229561Y-113280074D01*
X144229561Y-113280074D02*
X144324800Y-113184836D01*
X144324800Y-113184836D02*
X144372419Y-113041979D01*
X144372419Y-113041979D02*
X144372419Y-112803884D01*
X143372419Y-113994360D02*
X143372419Y-114089598D01*
X143372419Y-114089598D02*
X143420038Y-114184836D01*
X143420038Y-114184836D02*
X143467657Y-114232455D01*
X143467657Y-114232455D02*
X143562895Y-114280074D01*
X143562895Y-114280074D02*
X143753371Y-114327693D01*
X143753371Y-114327693D02*
X143991466Y-114327693D01*
X143991466Y-114327693D02*
X144181942Y-114280074D01*
X144181942Y-114280074D02*
X144277180Y-114232455D01*
X144277180Y-114232455D02*
X144324800Y-114184836D01*
X144324800Y-114184836D02*
X144372419Y-114089598D01*
X144372419Y-114089598D02*
X144372419Y-113994360D01*
X144372419Y-113994360D02*
X144324800Y-113899122D01*
X144324800Y-113899122D02*
X144277180Y-113851503D01*
X144277180Y-113851503D02*
X144181942Y-113803884D01*
X144181942Y-113803884D02*
X143991466Y-113756265D01*
X143991466Y-113756265D02*
X143753371Y-113756265D01*
X143753371Y-113756265D02*
X143562895Y-113803884D01*
X143562895Y-113803884D02*
X143467657Y-113851503D01*
X143467657Y-113851503D02*
X143420038Y-113899122D01*
X143420038Y-113899122D02*
X143372419Y-113994360D01*
X141336704Y-112006265D02*
X141336704Y-112482455D01*
X141622419Y-111911027D02*
X140622419Y-112244360D01*
X140622419Y-112244360D02*
X141622419Y-112577693D01*
X141622419Y-113434836D02*
X141622419Y-112863408D01*
X141622419Y-113149122D02*
X140622419Y-113149122D01*
X140622419Y-113149122D02*
X140765276Y-113053884D01*
X140765276Y-113053884D02*
X140860514Y-112958646D01*
X140860514Y-112958646D02*
X140908133Y-112863408D01*
X140622419Y-114291979D02*
X140622419Y-114101503D01*
X140622419Y-114101503D02*
X140670038Y-114006265D01*
X140670038Y-114006265D02*
X140717657Y-113958646D01*
X140717657Y-113958646D02*
X140860514Y-113863408D01*
X140860514Y-113863408D02*
X141050990Y-113815789D01*
X141050990Y-113815789D02*
X141431942Y-113815789D01*
X141431942Y-113815789D02*
X141527180Y-113863408D01*
X141527180Y-113863408D02*
X141574800Y-113911027D01*
X141574800Y-113911027D02*
X141622419Y-114006265D01*
X141622419Y-114006265D02*
X141622419Y-114196741D01*
X141622419Y-114196741D02*
X141574800Y-114291979D01*
X141574800Y-114291979D02*
X141527180Y-114339598D01*
X141527180Y-114339598D02*
X141431942Y-114387217D01*
X141431942Y-114387217D02*
X141193847Y-114387217D01*
X141193847Y-114387217D02*
X141098609Y-114339598D01*
X141098609Y-114339598D02*
X141050990Y-114291979D01*
X141050990Y-114291979D02*
X141003371Y-114196741D01*
X141003371Y-114196741D02*
X141003371Y-114006265D01*
X141003371Y-114006265D02*
X141050990Y-113911027D01*
X141050990Y-113911027D02*
X141098609Y-113863408D01*
X141098609Y-113863408D02*
X141193847Y-113815789D01*
X139122419Y-111803884D02*
X138122419Y-111803884D01*
X138122419Y-111803884D02*
X138122419Y-112041979D01*
X138122419Y-112041979D02*
X138170038Y-112184836D01*
X138170038Y-112184836D02*
X138265276Y-112280074D01*
X138265276Y-112280074D02*
X138360514Y-112327693D01*
X138360514Y-112327693D02*
X138550990Y-112375312D01*
X138550990Y-112375312D02*
X138693847Y-112375312D01*
X138693847Y-112375312D02*
X138884323Y-112327693D01*
X138884323Y-112327693D02*
X138979561Y-112280074D01*
X138979561Y-112280074D02*
X139074800Y-112184836D01*
X139074800Y-112184836D02*
X139122419Y-112041979D01*
X139122419Y-112041979D02*
X139122419Y-111803884D01*
X139122419Y-113327693D02*
X139122419Y-112756265D01*
X139122419Y-113041979D02*
X138122419Y-113041979D01*
X138122419Y-113041979D02*
X138265276Y-112946741D01*
X138265276Y-112946741D02*
X138360514Y-112851503D01*
X138360514Y-112851503D02*
X138408133Y-112756265D01*
X138122419Y-114232455D02*
X138122419Y-113756265D01*
X138122419Y-113756265D02*
X138598609Y-113708646D01*
X138598609Y-113708646D02*
X138550990Y-113756265D01*
X138550990Y-113756265D02*
X138503371Y-113851503D01*
X138503371Y-113851503D02*
X138503371Y-114089598D01*
X138503371Y-114089598D02*
X138550990Y-114184836D01*
X138550990Y-114184836D02*
X138598609Y-114232455D01*
X138598609Y-114232455D02*
X138693847Y-114280074D01*
X138693847Y-114280074D02*
X138931942Y-114280074D01*
X138931942Y-114280074D02*
X139027180Y-114232455D01*
X139027180Y-114232455D02*
X139074800Y-114184836D01*
X139074800Y-114184836D02*
X139122419Y-114089598D01*
X139122419Y-114089598D02*
X139122419Y-113851503D01*
X139122419Y-113851503D02*
X139074800Y-113756265D01*
X139074800Y-113756265D02*
X139027180Y-113708646D01*
X136622419Y-111803884D02*
X135622419Y-111803884D01*
X135622419Y-111803884D02*
X135622419Y-112041979D01*
X135622419Y-112041979D02*
X135670038Y-112184836D01*
X135670038Y-112184836D02*
X135765276Y-112280074D01*
X135765276Y-112280074D02*
X135860514Y-112327693D01*
X135860514Y-112327693D02*
X136050990Y-112375312D01*
X136050990Y-112375312D02*
X136193847Y-112375312D01*
X136193847Y-112375312D02*
X136384323Y-112327693D01*
X136384323Y-112327693D02*
X136479561Y-112280074D01*
X136479561Y-112280074D02*
X136574800Y-112184836D01*
X136574800Y-112184836D02*
X136622419Y-112041979D01*
X136622419Y-112041979D02*
X136622419Y-111803884D01*
X136622419Y-113327693D02*
X136622419Y-112756265D01*
X136622419Y-113041979D02*
X135622419Y-113041979D01*
X135622419Y-113041979D02*
X135765276Y-112946741D01*
X135765276Y-112946741D02*
X135860514Y-112851503D01*
X135860514Y-112851503D02*
X135908133Y-112756265D01*
X135955752Y-114184836D02*
X136622419Y-114184836D01*
X135574800Y-113946741D02*
X136289085Y-113708646D01*
X136289085Y-113708646D02*
X136289085Y-114327693D01*
X134372419Y-111803884D02*
X133372419Y-111803884D01*
X133372419Y-111803884D02*
X133372419Y-112041979D01*
X133372419Y-112041979D02*
X133420038Y-112184836D01*
X133420038Y-112184836D02*
X133515276Y-112280074D01*
X133515276Y-112280074D02*
X133610514Y-112327693D01*
X133610514Y-112327693D02*
X133800990Y-112375312D01*
X133800990Y-112375312D02*
X133943847Y-112375312D01*
X133943847Y-112375312D02*
X134134323Y-112327693D01*
X134134323Y-112327693D02*
X134229561Y-112280074D01*
X134229561Y-112280074D02*
X134324800Y-112184836D01*
X134324800Y-112184836D02*
X134372419Y-112041979D01*
X134372419Y-112041979D02*
X134372419Y-111803884D01*
X134372419Y-113327693D02*
X134372419Y-112756265D01*
X134372419Y-113041979D02*
X133372419Y-113041979D01*
X133372419Y-113041979D02*
X133515276Y-112946741D01*
X133515276Y-112946741D02*
X133610514Y-112851503D01*
X133610514Y-112851503D02*
X133658133Y-112756265D01*
X133372419Y-113661027D02*
X133372419Y-114280074D01*
X133372419Y-114280074D02*
X133753371Y-113946741D01*
X133753371Y-113946741D02*
X133753371Y-114089598D01*
X133753371Y-114089598D02*
X133800990Y-114184836D01*
X133800990Y-114184836D02*
X133848609Y-114232455D01*
X133848609Y-114232455D02*
X133943847Y-114280074D01*
X133943847Y-114280074D02*
X134181942Y-114280074D01*
X134181942Y-114280074D02*
X134277180Y-114232455D01*
X134277180Y-114232455D02*
X134324800Y-114184836D01*
X134324800Y-114184836D02*
X134372419Y-114089598D01*
X134372419Y-114089598D02*
X134372419Y-113803884D01*
X134372419Y-113803884D02*
X134324800Y-113708646D01*
X134324800Y-113708646D02*
X134277180Y-113661027D01*
X131622419Y-111803884D02*
X130622419Y-111803884D01*
X130622419Y-111803884D02*
X130622419Y-112041979D01*
X130622419Y-112041979D02*
X130670038Y-112184836D01*
X130670038Y-112184836D02*
X130765276Y-112280074D01*
X130765276Y-112280074D02*
X130860514Y-112327693D01*
X130860514Y-112327693D02*
X131050990Y-112375312D01*
X131050990Y-112375312D02*
X131193847Y-112375312D01*
X131193847Y-112375312D02*
X131384323Y-112327693D01*
X131384323Y-112327693D02*
X131479561Y-112280074D01*
X131479561Y-112280074D02*
X131574800Y-112184836D01*
X131574800Y-112184836D02*
X131622419Y-112041979D01*
X131622419Y-112041979D02*
X131622419Y-111803884D01*
X131622419Y-113327693D02*
X131622419Y-112756265D01*
X131622419Y-113041979D02*
X130622419Y-113041979D01*
X130622419Y-113041979D02*
X130765276Y-112946741D01*
X130765276Y-112946741D02*
X130860514Y-112851503D01*
X130860514Y-112851503D02*
X130908133Y-112756265D01*
X130717657Y-113708646D02*
X130670038Y-113756265D01*
X130670038Y-113756265D02*
X130622419Y-113851503D01*
X130622419Y-113851503D02*
X130622419Y-114089598D01*
X130622419Y-114089598D02*
X130670038Y-114184836D01*
X130670038Y-114184836D02*
X130717657Y-114232455D01*
X130717657Y-114232455D02*
X130812895Y-114280074D01*
X130812895Y-114280074D02*
X130908133Y-114280074D01*
X130908133Y-114280074D02*
X131050990Y-114232455D01*
X131050990Y-114232455D02*
X131622419Y-113661027D01*
X131622419Y-113661027D02*
X131622419Y-114280074D01*
X128872419Y-111803884D02*
X127872419Y-111803884D01*
X127872419Y-111803884D02*
X127872419Y-112041979D01*
X127872419Y-112041979D02*
X127920038Y-112184836D01*
X127920038Y-112184836D02*
X128015276Y-112280074D01*
X128015276Y-112280074D02*
X128110514Y-112327693D01*
X128110514Y-112327693D02*
X128300990Y-112375312D01*
X128300990Y-112375312D02*
X128443847Y-112375312D01*
X128443847Y-112375312D02*
X128634323Y-112327693D01*
X128634323Y-112327693D02*
X128729561Y-112280074D01*
X128729561Y-112280074D02*
X128824800Y-112184836D01*
X128824800Y-112184836D02*
X128872419Y-112041979D01*
X128872419Y-112041979D02*
X128872419Y-111803884D01*
X128872419Y-113327693D02*
X128872419Y-112756265D01*
X128872419Y-113041979D02*
X127872419Y-113041979D01*
X127872419Y-113041979D02*
X128015276Y-112946741D01*
X128015276Y-112946741D02*
X128110514Y-112851503D01*
X128110514Y-112851503D02*
X128158133Y-112756265D01*
X128872419Y-114280074D02*
X128872419Y-113708646D01*
X128872419Y-113994360D02*
X127872419Y-113994360D01*
X127872419Y-113994360D02*
X128015276Y-113899122D01*
X128015276Y-113899122D02*
X128110514Y-113803884D01*
X128110514Y-113803884D02*
X128158133Y-113708646D01*
X126372419Y-111803884D02*
X125372419Y-111803884D01*
X125372419Y-111803884D02*
X125372419Y-112041979D01*
X125372419Y-112041979D02*
X125420038Y-112184836D01*
X125420038Y-112184836D02*
X125515276Y-112280074D01*
X125515276Y-112280074D02*
X125610514Y-112327693D01*
X125610514Y-112327693D02*
X125800990Y-112375312D01*
X125800990Y-112375312D02*
X125943847Y-112375312D01*
X125943847Y-112375312D02*
X126134323Y-112327693D01*
X126134323Y-112327693D02*
X126229561Y-112280074D01*
X126229561Y-112280074D02*
X126324800Y-112184836D01*
X126324800Y-112184836D02*
X126372419Y-112041979D01*
X126372419Y-112041979D02*
X126372419Y-111803884D01*
X126372419Y-113327693D02*
X126372419Y-112756265D01*
X126372419Y-113041979D02*
X125372419Y-113041979D01*
X125372419Y-113041979D02*
X125515276Y-112946741D01*
X125515276Y-112946741D02*
X125610514Y-112851503D01*
X125610514Y-112851503D02*
X125658133Y-112756265D01*
X125372419Y-113946741D02*
X125372419Y-114041979D01*
X125372419Y-114041979D02*
X125420038Y-114137217D01*
X125420038Y-114137217D02*
X125467657Y-114184836D01*
X125467657Y-114184836D02*
X125562895Y-114232455D01*
X125562895Y-114232455D02*
X125753371Y-114280074D01*
X125753371Y-114280074D02*
X125991466Y-114280074D01*
X125991466Y-114280074D02*
X126181942Y-114232455D01*
X126181942Y-114232455D02*
X126277180Y-114184836D01*
X126277180Y-114184836D02*
X126324800Y-114137217D01*
X126324800Y-114137217D02*
X126372419Y-114041979D01*
X126372419Y-114041979D02*
X126372419Y-113946741D01*
X126372419Y-113946741D02*
X126324800Y-113851503D01*
X126324800Y-113851503D02*
X126277180Y-113803884D01*
X126277180Y-113803884D02*
X126181942Y-113756265D01*
X126181942Y-113756265D02*
X125991466Y-113708646D01*
X125991466Y-113708646D02*
X125753371Y-113708646D01*
X125753371Y-113708646D02*
X125562895Y-113756265D01*
X125562895Y-113756265D02*
X125467657Y-113803884D01*
X125467657Y-113803884D02*
X125420038Y-113851503D01*
X125420038Y-113851503D02*
X125372419Y-113946741D01*
X123872419Y-112553884D02*
X122872419Y-112553884D01*
X122872419Y-112553884D02*
X122872419Y-112791979D01*
X122872419Y-112791979D02*
X122920038Y-112934836D01*
X122920038Y-112934836D02*
X123015276Y-113030074D01*
X123015276Y-113030074D02*
X123110514Y-113077693D01*
X123110514Y-113077693D02*
X123300990Y-113125312D01*
X123300990Y-113125312D02*
X123443847Y-113125312D01*
X123443847Y-113125312D02*
X123634323Y-113077693D01*
X123634323Y-113077693D02*
X123729561Y-113030074D01*
X123729561Y-113030074D02*
X123824800Y-112934836D01*
X123824800Y-112934836D02*
X123872419Y-112791979D01*
X123872419Y-112791979D02*
X123872419Y-112553884D01*
X123872419Y-113601503D02*
X123872419Y-113791979D01*
X123872419Y-113791979D02*
X123824800Y-113887217D01*
X123824800Y-113887217D02*
X123777180Y-113934836D01*
X123777180Y-113934836D02*
X123634323Y-114030074D01*
X123634323Y-114030074D02*
X123443847Y-114077693D01*
X123443847Y-114077693D02*
X123062895Y-114077693D01*
X123062895Y-114077693D02*
X122967657Y-114030074D01*
X122967657Y-114030074D02*
X122920038Y-113982455D01*
X122920038Y-113982455D02*
X122872419Y-113887217D01*
X122872419Y-113887217D02*
X122872419Y-113696741D01*
X122872419Y-113696741D02*
X122920038Y-113601503D01*
X122920038Y-113601503D02*
X122967657Y-113553884D01*
X122967657Y-113553884D02*
X123062895Y-113506265D01*
X123062895Y-113506265D02*
X123300990Y-113506265D01*
X123300990Y-113506265D02*
X123396228Y-113553884D01*
X123396228Y-113553884D02*
X123443847Y-113601503D01*
X123443847Y-113601503D02*
X123491466Y-113696741D01*
X123491466Y-113696741D02*
X123491466Y-113887217D01*
X123491466Y-113887217D02*
X123443847Y-113982455D01*
X123443847Y-113982455D02*
X123396228Y-114030074D01*
X123396228Y-114030074D02*
X123300990Y-114077693D01*
X121372419Y-112553884D02*
X120372419Y-112553884D01*
X120372419Y-112553884D02*
X120372419Y-112791979D01*
X120372419Y-112791979D02*
X120420038Y-112934836D01*
X120420038Y-112934836D02*
X120515276Y-113030074D01*
X120515276Y-113030074D02*
X120610514Y-113077693D01*
X120610514Y-113077693D02*
X120800990Y-113125312D01*
X120800990Y-113125312D02*
X120943847Y-113125312D01*
X120943847Y-113125312D02*
X121134323Y-113077693D01*
X121134323Y-113077693D02*
X121229561Y-113030074D01*
X121229561Y-113030074D02*
X121324800Y-112934836D01*
X121324800Y-112934836D02*
X121372419Y-112791979D01*
X121372419Y-112791979D02*
X121372419Y-112553884D01*
X120800990Y-113696741D02*
X120753371Y-113601503D01*
X120753371Y-113601503D02*
X120705752Y-113553884D01*
X120705752Y-113553884D02*
X120610514Y-113506265D01*
X120610514Y-113506265D02*
X120562895Y-113506265D01*
X120562895Y-113506265D02*
X120467657Y-113553884D01*
X120467657Y-113553884D02*
X120420038Y-113601503D01*
X120420038Y-113601503D02*
X120372419Y-113696741D01*
X120372419Y-113696741D02*
X120372419Y-113887217D01*
X120372419Y-113887217D02*
X120420038Y-113982455D01*
X120420038Y-113982455D02*
X120467657Y-114030074D01*
X120467657Y-114030074D02*
X120562895Y-114077693D01*
X120562895Y-114077693D02*
X120610514Y-114077693D01*
X120610514Y-114077693D02*
X120705752Y-114030074D01*
X120705752Y-114030074D02*
X120753371Y-113982455D01*
X120753371Y-113982455D02*
X120800990Y-113887217D01*
X120800990Y-113887217D02*
X120800990Y-113696741D01*
X120800990Y-113696741D02*
X120848609Y-113601503D01*
X120848609Y-113601503D02*
X120896228Y-113553884D01*
X120896228Y-113553884D02*
X120991466Y-113506265D01*
X120991466Y-113506265D02*
X121181942Y-113506265D01*
X121181942Y-113506265D02*
X121277180Y-113553884D01*
X121277180Y-113553884D02*
X121324800Y-113601503D01*
X121324800Y-113601503D02*
X121372419Y-113696741D01*
X121372419Y-113696741D02*
X121372419Y-113887217D01*
X121372419Y-113887217D02*
X121324800Y-113982455D01*
X121324800Y-113982455D02*
X121277180Y-114030074D01*
X121277180Y-114030074D02*
X121181942Y-114077693D01*
X121181942Y-114077693D02*
X120991466Y-114077693D01*
X120991466Y-114077693D02*
X120896228Y-114030074D01*
X120896228Y-114030074D02*
X120848609Y-113982455D01*
X120848609Y-113982455D02*
X120800990Y-113887217D01*
X118872419Y-112553884D02*
X117872419Y-112553884D01*
X117872419Y-112553884D02*
X117872419Y-112791979D01*
X117872419Y-112791979D02*
X117920038Y-112934836D01*
X117920038Y-112934836D02*
X118015276Y-113030074D01*
X118015276Y-113030074D02*
X118110514Y-113077693D01*
X118110514Y-113077693D02*
X118300990Y-113125312D01*
X118300990Y-113125312D02*
X118443847Y-113125312D01*
X118443847Y-113125312D02*
X118634323Y-113077693D01*
X118634323Y-113077693D02*
X118729561Y-113030074D01*
X118729561Y-113030074D02*
X118824800Y-112934836D01*
X118824800Y-112934836D02*
X118872419Y-112791979D01*
X118872419Y-112791979D02*
X118872419Y-112553884D01*
X117872419Y-113458646D02*
X117872419Y-114125312D01*
X117872419Y-114125312D02*
X118872419Y-113696741D01*
X116372419Y-112553884D02*
X115372419Y-112553884D01*
X115372419Y-112553884D02*
X115372419Y-112791979D01*
X115372419Y-112791979D02*
X115420038Y-112934836D01*
X115420038Y-112934836D02*
X115515276Y-113030074D01*
X115515276Y-113030074D02*
X115610514Y-113077693D01*
X115610514Y-113077693D02*
X115800990Y-113125312D01*
X115800990Y-113125312D02*
X115943847Y-113125312D01*
X115943847Y-113125312D02*
X116134323Y-113077693D01*
X116134323Y-113077693D02*
X116229561Y-113030074D01*
X116229561Y-113030074D02*
X116324800Y-112934836D01*
X116324800Y-112934836D02*
X116372419Y-112791979D01*
X116372419Y-112791979D02*
X116372419Y-112553884D01*
X115372419Y-113982455D02*
X115372419Y-113791979D01*
X115372419Y-113791979D02*
X115420038Y-113696741D01*
X115420038Y-113696741D02*
X115467657Y-113649122D01*
X115467657Y-113649122D02*
X115610514Y-113553884D01*
X115610514Y-113553884D02*
X115800990Y-113506265D01*
X115800990Y-113506265D02*
X116181942Y-113506265D01*
X116181942Y-113506265D02*
X116277180Y-113553884D01*
X116277180Y-113553884D02*
X116324800Y-113601503D01*
X116324800Y-113601503D02*
X116372419Y-113696741D01*
X116372419Y-113696741D02*
X116372419Y-113887217D01*
X116372419Y-113887217D02*
X116324800Y-113982455D01*
X116324800Y-113982455D02*
X116277180Y-114030074D01*
X116277180Y-114030074D02*
X116181942Y-114077693D01*
X116181942Y-114077693D02*
X115943847Y-114077693D01*
X115943847Y-114077693D02*
X115848609Y-114030074D01*
X115848609Y-114030074D02*
X115800990Y-113982455D01*
X115800990Y-113982455D02*
X115753371Y-113887217D01*
X115753371Y-113887217D02*
X115753371Y-113696741D01*
X115753371Y-113696741D02*
X115800990Y-113601503D01*
X115800990Y-113601503D02*
X115848609Y-113553884D01*
X115848609Y-113553884D02*
X115943847Y-113506265D01*
X113872419Y-112553884D02*
X112872419Y-112553884D01*
X112872419Y-112553884D02*
X112872419Y-112791979D01*
X112872419Y-112791979D02*
X112920038Y-112934836D01*
X112920038Y-112934836D02*
X113015276Y-113030074D01*
X113015276Y-113030074D02*
X113110514Y-113077693D01*
X113110514Y-113077693D02*
X113300990Y-113125312D01*
X113300990Y-113125312D02*
X113443847Y-113125312D01*
X113443847Y-113125312D02*
X113634323Y-113077693D01*
X113634323Y-113077693D02*
X113729561Y-113030074D01*
X113729561Y-113030074D02*
X113824800Y-112934836D01*
X113824800Y-112934836D02*
X113872419Y-112791979D01*
X113872419Y-112791979D02*
X113872419Y-112553884D01*
X112872419Y-114030074D02*
X112872419Y-113553884D01*
X112872419Y-113553884D02*
X113348609Y-113506265D01*
X113348609Y-113506265D02*
X113300990Y-113553884D01*
X113300990Y-113553884D02*
X113253371Y-113649122D01*
X113253371Y-113649122D02*
X113253371Y-113887217D01*
X113253371Y-113887217D02*
X113300990Y-113982455D01*
X113300990Y-113982455D02*
X113348609Y-114030074D01*
X113348609Y-114030074D02*
X113443847Y-114077693D01*
X113443847Y-114077693D02*
X113681942Y-114077693D01*
X113681942Y-114077693D02*
X113777180Y-114030074D01*
X113777180Y-114030074D02*
X113824800Y-113982455D01*
X113824800Y-113982455D02*
X113872419Y-113887217D01*
X113872419Y-113887217D02*
X113872419Y-113649122D01*
X113872419Y-113649122D02*
X113824800Y-113553884D01*
X113824800Y-113553884D02*
X113777180Y-113506265D01*
X111372419Y-112553884D02*
X110372419Y-112553884D01*
X110372419Y-112553884D02*
X110372419Y-112791979D01*
X110372419Y-112791979D02*
X110420038Y-112934836D01*
X110420038Y-112934836D02*
X110515276Y-113030074D01*
X110515276Y-113030074D02*
X110610514Y-113077693D01*
X110610514Y-113077693D02*
X110800990Y-113125312D01*
X110800990Y-113125312D02*
X110943847Y-113125312D01*
X110943847Y-113125312D02*
X111134323Y-113077693D01*
X111134323Y-113077693D02*
X111229561Y-113030074D01*
X111229561Y-113030074D02*
X111324800Y-112934836D01*
X111324800Y-112934836D02*
X111372419Y-112791979D01*
X111372419Y-112791979D02*
X111372419Y-112553884D01*
X110705752Y-113982455D02*
X111372419Y-113982455D01*
X110324800Y-113744360D02*
X111039085Y-113506265D01*
X111039085Y-113506265D02*
X111039085Y-114125312D01*
X107622419Y-113030074D02*
X107622419Y-112553884D01*
X107622419Y-112553884D02*
X108098609Y-112506265D01*
X108098609Y-112506265D02*
X108050990Y-112553884D01*
X108050990Y-112553884D02*
X108003371Y-112649122D01*
X108003371Y-112649122D02*
X108003371Y-112887217D01*
X108003371Y-112887217D02*
X108050990Y-112982455D01*
X108050990Y-112982455D02*
X108098609Y-113030074D01*
X108098609Y-113030074D02*
X108193847Y-113077693D01*
X108193847Y-113077693D02*
X108431942Y-113077693D01*
X108431942Y-113077693D02*
X108527180Y-113030074D01*
X108527180Y-113030074D02*
X108574800Y-112982455D01*
X108574800Y-112982455D02*
X108622419Y-112887217D01*
X108622419Y-112887217D02*
X108622419Y-112649122D01*
X108622419Y-112649122D02*
X108574800Y-112553884D01*
X108574800Y-112553884D02*
X108527180Y-112506265D01*
X107622419Y-113363408D02*
X108622419Y-113696741D01*
X108622419Y-113696741D02*
X107622419Y-114030074D01*
X104872419Y-113030074D02*
X104872419Y-112553884D01*
X104872419Y-112553884D02*
X105348609Y-112506265D01*
X105348609Y-112506265D02*
X105300990Y-112553884D01*
X105300990Y-112553884D02*
X105253371Y-112649122D01*
X105253371Y-112649122D02*
X105253371Y-112887217D01*
X105253371Y-112887217D02*
X105300990Y-112982455D01*
X105300990Y-112982455D02*
X105348609Y-113030074D01*
X105348609Y-113030074D02*
X105443847Y-113077693D01*
X105443847Y-113077693D02*
X105681942Y-113077693D01*
X105681942Y-113077693D02*
X105777180Y-113030074D01*
X105777180Y-113030074D02*
X105824800Y-112982455D01*
X105824800Y-112982455D02*
X105872419Y-112887217D01*
X105872419Y-112887217D02*
X105872419Y-112649122D01*
X105872419Y-112649122D02*
X105824800Y-112553884D01*
X105824800Y-112553884D02*
X105777180Y-112506265D01*
X104872419Y-113363408D02*
X105872419Y-113696741D01*
X105872419Y-113696741D02*
X104872419Y-114030074D01*
X138872419Y-68458646D02*
X138872419Y-69077693D01*
X138872419Y-69077693D02*
X139253371Y-68744360D01*
X139253371Y-68744360D02*
X139253371Y-68887217D01*
X139253371Y-68887217D02*
X139300990Y-68982455D01*
X139300990Y-68982455D02*
X139348609Y-69030074D01*
X139348609Y-69030074D02*
X139443847Y-69077693D01*
X139443847Y-69077693D02*
X139681942Y-69077693D01*
X139681942Y-69077693D02*
X139777180Y-69030074D01*
X139777180Y-69030074D02*
X139824800Y-68982455D01*
X139824800Y-68982455D02*
X139872419Y-68887217D01*
X139872419Y-68887217D02*
X139872419Y-68601503D01*
X139872419Y-68601503D02*
X139824800Y-68506265D01*
X139824800Y-68506265D02*
X139777180Y-68458646D01*
X139777180Y-69506265D02*
X139824800Y-69553884D01*
X139824800Y-69553884D02*
X139872419Y-69506265D01*
X139872419Y-69506265D02*
X139824800Y-69458646D01*
X139824800Y-69458646D02*
X139777180Y-69506265D01*
X139777180Y-69506265D02*
X139872419Y-69506265D01*
X138872419Y-69887217D02*
X138872419Y-70506264D01*
X138872419Y-70506264D02*
X139253371Y-70172931D01*
X139253371Y-70172931D02*
X139253371Y-70315788D01*
X139253371Y-70315788D02*
X139300990Y-70411026D01*
X139300990Y-70411026D02*
X139348609Y-70458645D01*
X139348609Y-70458645D02*
X139443847Y-70506264D01*
X139443847Y-70506264D02*
X139681942Y-70506264D01*
X139681942Y-70506264D02*
X139777180Y-70458645D01*
X139777180Y-70458645D02*
X139824800Y-70411026D01*
X139824800Y-70411026D02*
X139872419Y-70315788D01*
X139872419Y-70315788D02*
X139872419Y-70030074D01*
X139872419Y-70030074D02*
X139824800Y-69934836D01*
X139824800Y-69934836D02*
X139777180Y-69887217D01*
X138872419Y-70791979D02*
X139872419Y-71125312D01*
X139872419Y-71125312D02*
X138872419Y-71458645D01*
X135872419Y-68208646D02*
X135872419Y-68827693D01*
X135872419Y-68827693D02*
X136253371Y-68494360D01*
X136253371Y-68494360D02*
X136253371Y-68637217D01*
X136253371Y-68637217D02*
X136300990Y-68732455D01*
X136300990Y-68732455D02*
X136348609Y-68780074D01*
X136348609Y-68780074D02*
X136443847Y-68827693D01*
X136443847Y-68827693D02*
X136681942Y-68827693D01*
X136681942Y-68827693D02*
X136777180Y-68780074D01*
X136777180Y-68780074D02*
X136824800Y-68732455D01*
X136824800Y-68732455D02*
X136872419Y-68637217D01*
X136872419Y-68637217D02*
X136872419Y-68351503D01*
X136872419Y-68351503D02*
X136824800Y-68256265D01*
X136824800Y-68256265D02*
X136777180Y-68208646D01*
X136777180Y-69256265D02*
X136824800Y-69303884D01*
X136824800Y-69303884D02*
X136872419Y-69256265D01*
X136872419Y-69256265D02*
X136824800Y-69208646D01*
X136824800Y-69208646D02*
X136777180Y-69256265D01*
X136777180Y-69256265D02*
X136872419Y-69256265D01*
X135872419Y-69637217D02*
X135872419Y-70256264D01*
X135872419Y-70256264D02*
X136253371Y-69922931D01*
X136253371Y-69922931D02*
X136253371Y-70065788D01*
X136253371Y-70065788D02*
X136300990Y-70161026D01*
X136300990Y-70161026D02*
X136348609Y-70208645D01*
X136348609Y-70208645D02*
X136443847Y-70256264D01*
X136443847Y-70256264D02*
X136681942Y-70256264D01*
X136681942Y-70256264D02*
X136777180Y-70208645D01*
X136777180Y-70208645D02*
X136824800Y-70161026D01*
X136824800Y-70161026D02*
X136872419Y-70065788D01*
X136872419Y-70065788D02*
X136872419Y-69780074D01*
X136872419Y-69780074D02*
X136824800Y-69684836D01*
X136824800Y-69684836D02*
X136777180Y-69637217D01*
X135872419Y-70541979D02*
X136872419Y-70875312D01*
X136872419Y-70875312D02*
X135872419Y-71208645D01*
X134574800Y-68256265D02*
X134622419Y-68399122D01*
X134622419Y-68399122D02*
X134622419Y-68637217D01*
X134622419Y-68637217D02*
X134574800Y-68732455D01*
X134574800Y-68732455D02*
X134527180Y-68780074D01*
X134527180Y-68780074D02*
X134431942Y-68827693D01*
X134431942Y-68827693D02*
X134336704Y-68827693D01*
X134336704Y-68827693D02*
X134241466Y-68780074D01*
X134241466Y-68780074D02*
X134193847Y-68732455D01*
X134193847Y-68732455D02*
X134146228Y-68637217D01*
X134146228Y-68637217D02*
X134098609Y-68446741D01*
X134098609Y-68446741D02*
X134050990Y-68351503D01*
X134050990Y-68351503D02*
X134003371Y-68303884D01*
X134003371Y-68303884D02*
X133908133Y-68256265D01*
X133908133Y-68256265D02*
X133812895Y-68256265D01*
X133812895Y-68256265D02*
X133717657Y-68303884D01*
X133717657Y-68303884D02*
X133670038Y-68351503D01*
X133670038Y-68351503D02*
X133622419Y-68446741D01*
X133622419Y-68446741D02*
X133622419Y-68684836D01*
X133622419Y-68684836D02*
X133670038Y-68827693D01*
X133622419Y-69161027D02*
X134622419Y-69399122D01*
X134622419Y-69399122D02*
X133908133Y-69589598D01*
X133908133Y-69589598D02*
X134622419Y-69780074D01*
X134622419Y-69780074D02*
X133622419Y-70018170D01*
X134622419Y-70399122D02*
X133622419Y-70399122D01*
X133622419Y-70399122D02*
X133622419Y-70637217D01*
X133622419Y-70637217D02*
X133670038Y-70780074D01*
X133670038Y-70780074D02*
X133765276Y-70875312D01*
X133765276Y-70875312D02*
X133860514Y-70922931D01*
X133860514Y-70922931D02*
X134050990Y-70970550D01*
X134050990Y-70970550D02*
X134193847Y-70970550D01*
X134193847Y-70970550D02*
X134384323Y-70922931D01*
X134384323Y-70922931D02*
X134479561Y-70875312D01*
X134479561Y-70875312D02*
X134574800Y-70780074D01*
X134574800Y-70780074D02*
X134622419Y-70637217D01*
X134622419Y-70637217D02*
X134622419Y-70399122D01*
X134622419Y-71399122D02*
X133622419Y-71399122D01*
X133622419Y-72065788D02*
X133622419Y-72256264D01*
X133622419Y-72256264D02*
X133670038Y-72351502D01*
X133670038Y-72351502D02*
X133765276Y-72446740D01*
X133765276Y-72446740D02*
X133955752Y-72494359D01*
X133955752Y-72494359D02*
X134289085Y-72494359D01*
X134289085Y-72494359D02*
X134479561Y-72446740D01*
X134479561Y-72446740D02*
X134574800Y-72351502D01*
X134574800Y-72351502D02*
X134622419Y-72256264D01*
X134622419Y-72256264D02*
X134622419Y-72065788D01*
X134622419Y-72065788D02*
X134574800Y-71970550D01*
X134574800Y-71970550D02*
X134479561Y-71875312D01*
X134479561Y-71875312D02*
X134289085Y-71827693D01*
X134289085Y-71827693D02*
X133955752Y-71827693D01*
X133955752Y-71827693D02*
X133765276Y-71875312D01*
X133765276Y-71875312D02*
X133670038Y-71970550D01*
X133670038Y-71970550D02*
X133622419Y-72065788D01*
X131824800Y-68256265D02*
X131872419Y-68399122D01*
X131872419Y-68399122D02*
X131872419Y-68637217D01*
X131872419Y-68637217D02*
X131824800Y-68732455D01*
X131824800Y-68732455D02*
X131777180Y-68780074D01*
X131777180Y-68780074D02*
X131681942Y-68827693D01*
X131681942Y-68827693D02*
X131586704Y-68827693D01*
X131586704Y-68827693D02*
X131491466Y-68780074D01*
X131491466Y-68780074D02*
X131443847Y-68732455D01*
X131443847Y-68732455D02*
X131396228Y-68637217D01*
X131396228Y-68637217D02*
X131348609Y-68446741D01*
X131348609Y-68446741D02*
X131300990Y-68351503D01*
X131300990Y-68351503D02*
X131253371Y-68303884D01*
X131253371Y-68303884D02*
X131158133Y-68256265D01*
X131158133Y-68256265D02*
X131062895Y-68256265D01*
X131062895Y-68256265D02*
X130967657Y-68303884D01*
X130967657Y-68303884D02*
X130920038Y-68351503D01*
X130920038Y-68351503D02*
X130872419Y-68446741D01*
X130872419Y-68446741D02*
X130872419Y-68684836D01*
X130872419Y-68684836D02*
X130920038Y-68827693D01*
X130872419Y-69161027D02*
X131872419Y-69399122D01*
X131872419Y-69399122D02*
X131158133Y-69589598D01*
X131158133Y-69589598D02*
X131872419Y-69780074D01*
X131872419Y-69780074D02*
X130872419Y-70018170D01*
X131777180Y-70970550D02*
X131824800Y-70922931D01*
X131824800Y-70922931D02*
X131872419Y-70780074D01*
X131872419Y-70780074D02*
X131872419Y-70684836D01*
X131872419Y-70684836D02*
X131824800Y-70541979D01*
X131824800Y-70541979D02*
X131729561Y-70446741D01*
X131729561Y-70446741D02*
X131634323Y-70399122D01*
X131634323Y-70399122D02*
X131443847Y-70351503D01*
X131443847Y-70351503D02*
X131300990Y-70351503D01*
X131300990Y-70351503D02*
X131110514Y-70399122D01*
X131110514Y-70399122D02*
X131015276Y-70446741D01*
X131015276Y-70446741D02*
X130920038Y-70541979D01*
X130920038Y-70541979D02*
X130872419Y-70684836D01*
X130872419Y-70684836D02*
X130872419Y-70780074D01*
X130872419Y-70780074D02*
X130920038Y-70922931D01*
X130920038Y-70922931D02*
X130967657Y-70970550D01*
X131872419Y-71875312D02*
X131872419Y-71399122D01*
X131872419Y-71399122D02*
X130872419Y-71399122D01*
X131872419Y-72208646D02*
X130872419Y-72208646D01*
X131872419Y-72780074D02*
X131300990Y-72351503D01*
X130872419Y-72780074D02*
X131443847Y-72208646D01*
X129372419Y-68303884D02*
X128372419Y-68303884D01*
X128372419Y-68303884D02*
X128372419Y-68541979D01*
X128372419Y-68541979D02*
X128420038Y-68684836D01*
X128420038Y-68684836D02*
X128515276Y-68780074D01*
X128515276Y-68780074D02*
X128610514Y-68827693D01*
X128610514Y-68827693D02*
X128800990Y-68875312D01*
X128800990Y-68875312D02*
X128943847Y-68875312D01*
X128943847Y-68875312D02*
X129134323Y-68827693D01*
X129134323Y-68827693D02*
X129229561Y-68780074D01*
X129229561Y-68780074D02*
X129324800Y-68684836D01*
X129324800Y-68684836D02*
X129372419Y-68541979D01*
X129372419Y-68541979D02*
X129372419Y-68303884D01*
X128467657Y-69256265D02*
X128420038Y-69303884D01*
X128420038Y-69303884D02*
X128372419Y-69399122D01*
X128372419Y-69399122D02*
X128372419Y-69637217D01*
X128372419Y-69637217D02*
X128420038Y-69732455D01*
X128420038Y-69732455D02*
X128467657Y-69780074D01*
X128467657Y-69780074D02*
X128562895Y-69827693D01*
X128562895Y-69827693D02*
X128658133Y-69827693D01*
X128658133Y-69827693D02*
X128800990Y-69780074D01*
X128800990Y-69780074D02*
X129372419Y-69208646D01*
X129372419Y-69208646D02*
X129372419Y-69827693D01*
X126872419Y-68303884D02*
X125872419Y-68303884D01*
X125872419Y-68303884D02*
X125872419Y-68541979D01*
X125872419Y-68541979D02*
X125920038Y-68684836D01*
X125920038Y-68684836D02*
X126015276Y-68780074D01*
X126015276Y-68780074D02*
X126110514Y-68827693D01*
X126110514Y-68827693D02*
X126300990Y-68875312D01*
X126300990Y-68875312D02*
X126443847Y-68875312D01*
X126443847Y-68875312D02*
X126634323Y-68827693D01*
X126634323Y-68827693D02*
X126729561Y-68780074D01*
X126729561Y-68780074D02*
X126824800Y-68684836D01*
X126824800Y-68684836D02*
X126872419Y-68541979D01*
X126872419Y-68541979D02*
X126872419Y-68303884D01*
X125872419Y-69208646D02*
X125872419Y-69827693D01*
X125872419Y-69827693D02*
X126253371Y-69494360D01*
X126253371Y-69494360D02*
X126253371Y-69637217D01*
X126253371Y-69637217D02*
X126300990Y-69732455D01*
X126300990Y-69732455D02*
X126348609Y-69780074D01*
X126348609Y-69780074D02*
X126443847Y-69827693D01*
X126443847Y-69827693D02*
X126681942Y-69827693D01*
X126681942Y-69827693D02*
X126777180Y-69780074D01*
X126777180Y-69780074D02*
X126824800Y-69732455D01*
X126824800Y-69732455D02*
X126872419Y-69637217D01*
X126872419Y-69637217D02*
X126872419Y-69351503D01*
X126872419Y-69351503D02*
X126824800Y-69256265D01*
X126824800Y-69256265D02*
X126777180Y-69208646D01*
X124372419Y-68875312D02*
X123896228Y-68541979D01*
X124372419Y-68303884D02*
X123372419Y-68303884D01*
X123372419Y-68303884D02*
X123372419Y-68684836D01*
X123372419Y-68684836D02*
X123420038Y-68780074D01*
X123420038Y-68780074D02*
X123467657Y-68827693D01*
X123467657Y-68827693D02*
X123562895Y-68875312D01*
X123562895Y-68875312D02*
X123705752Y-68875312D01*
X123705752Y-68875312D02*
X123800990Y-68827693D01*
X123800990Y-68827693D02*
X123848609Y-68780074D01*
X123848609Y-68780074D02*
X123896228Y-68684836D01*
X123896228Y-68684836D02*
X123896228Y-68303884D01*
X124324800Y-69256265D02*
X124372419Y-69399122D01*
X124372419Y-69399122D02*
X124372419Y-69637217D01*
X124372419Y-69637217D02*
X124324800Y-69732455D01*
X124324800Y-69732455D02*
X124277180Y-69780074D01*
X124277180Y-69780074D02*
X124181942Y-69827693D01*
X124181942Y-69827693D02*
X124086704Y-69827693D01*
X124086704Y-69827693D02*
X123991466Y-69780074D01*
X123991466Y-69780074D02*
X123943847Y-69732455D01*
X123943847Y-69732455D02*
X123896228Y-69637217D01*
X123896228Y-69637217D02*
X123848609Y-69446741D01*
X123848609Y-69446741D02*
X123800990Y-69351503D01*
X123800990Y-69351503D02*
X123753371Y-69303884D01*
X123753371Y-69303884D02*
X123658133Y-69256265D01*
X123658133Y-69256265D02*
X123562895Y-69256265D01*
X123562895Y-69256265D02*
X123467657Y-69303884D01*
X123467657Y-69303884D02*
X123420038Y-69351503D01*
X123420038Y-69351503D02*
X123372419Y-69446741D01*
X123372419Y-69446741D02*
X123372419Y-69684836D01*
X123372419Y-69684836D02*
X123420038Y-69827693D01*
X123372419Y-70113408D02*
X123372419Y-70684836D01*
X124372419Y-70399122D02*
X123372419Y-70399122D01*
X121872419Y-68303884D02*
X120872419Y-68303884D01*
X120872419Y-68303884D02*
X121872419Y-68875312D01*
X121872419Y-68875312D02*
X120872419Y-68875312D01*
X120872419Y-69256265D02*
X121872419Y-69494360D01*
X121872419Y-69494360D02*
X121158133Y-69684836D01*
X121158133Y-69684836D02*
X121872419Y-69875312D01*
X121872419Y-69875312D02*
X120872419Y-70113408D01*
X121348609Y-70494360D02*
X121348609Y-70827693D01*
X121872419Y-70970550D02*
X121872419Y-70494360D01*
X121872419Y-70494360D02*
X120872419Y-70494360D01*
X120872419Y-70494360D02*
X120872419Y-70970550D01*
X119372419Y-68303884D02*
X118372419Y-68303884D01*
X118372419Y-68303884D02*
X119372419Y-68875312D01*
X119372419Y-68875312D02*
X118372419Y-68875312D01*
X118848609Y-69351503D02*
X118848609Y-69684836D01*
X119372419Y-69827693D02*
X119372419Y-69351503D01*
X119372419Y-69351503D02*
X118372419Y-69351503D01*
X118372419Y-69351503D02*
X118372419Y-69827693D01*
X119372419Y-70780074D02*
X119372419Y-70208646D01*
X119372419Y-70494360D02*
X118372419Y-70494360D01*
X118372419Y-70494360D02*
X118515276Y-70399122D01*
X118515276Y-70399122D02*
X118610514Y-70303884D01*
X118610514Y-70303884D02*
X118658133Y-70208646D01*
X116574800Y-68006265D02*
X116622419Y-68149122D01*
X116622419Y-68149122D02*
X116622419Y-68387217D01*
X116622419Y-68387217D02*
X116574800Y-68482455D01*
X116574800Y-68482455D02*
X116527180Y-68530074D01*
X116527180Y-68530074D02*
X116431942Y-68577693D01*
X116431942Y-68577693D02*
X116336704Y-68577693D01*
X116336704Y-68577693D02*
X116241466Y-68530074D01*
X116241466Y-68530074D02*
X116193847Y-68482455D01*
X116193847Y-68482455D02*
X116146228Y-68387217D01*
X116146228Y-68387217D02*
X116098609Y-68196741D01*
X116098609Y-68196741D02*
X116050990Y-68101503D01*
X116050990Y-68101503D02*
X116003371Y-68053884D01*
X116003371Y-68053884D02*
X115908133Y-68006265D01*
X115908133Y-68006265D02*
X115812895Y-68006265D01*
X115812895Y-68006265D02*
X115717657Y-68053884D01*
X115717657Y-68053884D02*
X115670038Y-68101503D01*
X115670038Y-68101503D02*
X115622419Y-68196741D01*
X115622419Y-68196741D02*
X115622419Y-68434836D01*
X115622419Y-68434836D02*
X115670038Y-68577693D01*
X115622419Y-68911027D02*
X116622419Y-69149122D01*
X116622419Y-69149122D02*
X115908133Y-69339598D01*
X115908133Y-69339598D02*
X116622419Y-69530074D01*
X116622419Y-69530074D02*
X115622419Y-69768170D01*
X115622419Y-70339598D02*
X115622419Y-70530074D01*
X115622419Y-70530074D02*
X115670038Y-70625312D01*
X115670038Y-70625312D02*
X115765276Y-70720550D01*
X115765276Y-70720550D02*
X115955752Y-70768169D01*
X115955752Y-70768169D02*
X116289085Y-70768169D01*
X116289085Y-70768169D02*
X116479561Y-70720550D01*
X116479561Y-70720550D02*
X116574800Y-70625312D01*
X116574800Y-70625312D02*
X116622419Y-70530074D01*
X116622419Y-70530074D02*
X116622419Y-70339598D01*
X116622419Y-70339598D02*
X116574800Y-70244360D01*
X116574800Y-70244360D02*
X116479561Y-70149122D01*
X116479561Y-70149122D02*
X116289085Y-70101503D01*
X116289085Y-70101503D02*
X115955752Y-70101503D01*
X115955752Y-70101503D02*
X115765276Y-70149122D01*
X115765276Y-70149122D02*
X115670038Y-70244360D01*
X115670038Y-70244360D02*
X115622419Y-70339598D01*
X114122419Y-68053884D02*
X113122419Y-68053884D01*
X113217657Y-68482455D02*
X113170038Y-68530074D01*
X113170038Y-68530074D02*
X113122419Y-68625312D01*
X113122419Y-68625312D02*
X113122419Y-68863407D01*
X113122419Y-68863407D02*
X113170038Y-68958645D01*
X113170038Y-68958645D02*
X113217657Y-69006264D01*
X113217657Y-69006264D02*
X113312895Y-69053883D01*
X113312895Y-69053883D02*
X113408133Y-69053883D01*
X113408133Y-69053883D02*
X113550990Y-69006264D01*
X113550990Y-69006264D02*
X114122419Y-68434836D01*
X114122419Y-68434836D02*
X114122419Y-69053883D01*
X114027180Y-70053883D02*
X114074800Y-70006264D01*
X114074800Y-70006264D02*
X114122419Y-69863407D01*
X114122419Y-69863407D02*
X114122419Y-69768169D01*
X114122419Y-69768169D02*
X114074800Y-69625312D01*
X114074800Y-69625312D02*
X113979561Y-69530074D01*
X113979561Y-69530074D02*
X113884323Y-69482455D01*
X113884323Y-69482455D02*
X113693847Y-69434836D01*
X113693847Y-69434836D02*
X113550990Y-69434836D01*
X113550990Y-69434836D02*
X113360514Y-69482455D01*
X113360514Y-69482455D02*
X113265276Y-69530074D01*
X113265276Y-69530074D02*
X113170038Y-69625312D01*
X113170038Y-69625312D02*
X113122419Y-69768169D01*
X113122419Y-69768169D02*
X113122419Y-69863407D01*
X113122419Y-69863407D02*
X113170038Y-70006264D01*
X113170038Y-70006264D02*
X113217657Y-70053883D01*
X114122419Y-71006264D02*
X114122419Y-70434836D01*
X114122419Y-70720550D02*
X113122419Y-70720550D01*
X113122419Y-70720550D02*
X113265276Y-70625312D01*
X113265276Y-70625312D02*
X113360514Y-70530074D01*
X113360514Y-70530074D02*
X113408133Y-70434836D01*
X114217657Y-71196741D02*
X114217657Y-71958645D01*
X114074800Y-72149122D02*
X114122419Y-72291979D01*
X114122419Y-72291979D02*
X114122419Y-72530074D01*
X114122419Y-72530074D02*
X114074800Y-72625312D01*
X114074800Y-72625312D02*
X114027180Y-72672931D01*
X114027180Y-72672931D02*
X113931942Y-72720550D01*
X113931942Y-72720550D02*
X113836704Y-72720550D01*
X113836704Y-72720550D02*
X113741466Y-72672931D01*
X113741466Y-72672931D02*
X113693847Y-72625312D01*
X113693847Y-72625312D02*
X113646228Y-72530074D01*
X113646228Y-72530074D02*
X113598609Y-72339598D01*
X113598609Y-72339598D02*
X113550990Y-72244360D01*
X113550990Y-72244360D02*
X113503371Y-72196741D01*
X113503371Y-72196741D02*
X113408133Y-72149122D01*
X113408133Y-72149122D02*
X113312895Y-72149122D01*
X113312895Y-72149122D02*
X113217657Y-72196741D01*
X113217657Y-72196741D02*
X113170038Y-72244360D01*
X113170038Y-72244360D02*
X113122419Y-72339598D01*
X113122419Y-72339598D02*
X113122419Y-72577693D01*
X113122419Y-72577693D02*
X113170038Y-72720550D01*
X114027180Y-73720550D02*
X114074800Y-73672931D01*
X114074800Y-73672931D02*
X114122419Y-73530074D01*
X114122419Y-73530074D02*
X114122419Y-73434836D01*
X114122419Y-73434836D02*
X114074800Y-73291979D01*
X114074800Y-73291979D02*
X113979561Y-73196741D01*
X113979561Y-73196741D02*
X113884323Y-73149122D01*
X113884323Y-73149122D02*
X113693847Y-73101503D01*
X113693847Y-73101503D02*
X113550990Y-73101503D01*
X113550990Y-73101503D02*
X113360514Y-73149122D01*
X113360514Y-73149122D02*
X113265276Y-73196741D01*
X113265276Y-73196741D02*
X113170038Y-73291979D01*
X113170038Y-73291979D02*
X113122419Y-73434836D01*
X113122419Y-73434836D02*
X113122419Y-73530074D01*
X113122419Y-73530074D02*
X113170038Y-73672931D01*
X113170038Y-73672931D02*
X113217657Y-73720550D01*
X114122419Y-74625312D02*
X114122419Y-74149122D01*
X114122419Y-74149122D02*
X113122419Y-74149122D01*
X111622419Y-68053884D02*
X110622419Y-68053884D01*
X110717657Y-68482455D02*
X110670038Y-68530074D01*
X110670038Y-68530074D02*
X110622419Y-68625312D01*
X110622419Y-68625312D02*
X110622419Y-68863407D01*
X110622419Y-68863407D02*
X110670038Y-68958645D01*
X110670038Y-68958645D02*
X110717657Y-69006264D01*
X110717657Y-69006264D02*
X110812895Y-69053883D01*
X110812895Y-69053883D02*
X110908133Y-69053883D01*
X110908133Y-69053883D02*
X111050990Y-69006264D01*
X111050990Y-69006264D02*
X111622419Y-68434836D01*
X111622419Y-68434836D02*
X111622419Y-69053883D01*
X111527180Y-70053883D02*
X111574800Y-70006264D01*
X111574800Y-70006264D02*
X111622419Y-69863407D01*
X111622419Y-69863407D02*
X111622419Y-69768169D01*
X111622419Y-69768169D02*
X111574800Y-69625312D01*
X111574800Y-69625312D02*
X111479561Y-69530074D01*
X111479561Y-69530074D02*
X111384323Y-69482455D01*
X111384323Y-69482455D02*
X111193847Y-69434836D01*
X111193847Y-69434836D02*
X111050990Y-69434836D01*
X111050990Y-69434836D02*
X110860514Y-69482455D01*
X110860514Y-69482455D02*
X110765276Y-69530074D01*
X110765276Y-69530074D02*
X110670038Y-69625312D01*
X110670038Y-69625312D02*
X110622419Y-69768169D01*
X110622419Y-69768169D02*
X110622419Y-69863407D01*
X110622419Y-69863407D02*
X110670038Y-70006264D01*
X110670038Y-70006264D02*
X110717657Y-70053883D01*
X111622419Y-71006264D02*
X111622419Y-70434836D01*
X111622419Y-70720550D02*
X110622419Y-70720550D01*
X110622419Y-70720550D02*
X110765276Y-70625312D01*
X110765276Y-70625312D02*
X110860514Y-70530074D01*
X110860514Y-70530074D02*
X110908133Y-70434836D01*
X111717657Y-71196741D02*
X111717657Y-71958645D01*
X111574800Y-72149122D02*
X111622419Y-72291979D01*
X111622419Y-72291979D02*
X111622419Y-72530074D01*
X111622419Y-72530074D02*
X111574800Y-72625312D01*
X111574800Y-72625312D02*
X111527180Y-72672931D01*
X111527180Y-72672931D02*
X111431942Y-72720550D01*
X111431942Y-72720550D02*
X111336704Y-72720550D01*
X111336704Y-72720550D02*
X111241466Y-72672931D01*
X111241466Y-72672931D02*
X111193847Y-72625312D01*
X111193847Y-72625312D02*
X111146228Y-72530074D01*
X111146228Y-72530074D02*
X111098609Y-72339598D01*
X111098609Y-72339598D02*
X111050990Y-72244360D01*
X111050990Y-72244360D02*
X111003371Y-72196741D01*
X111003371Y-72196741D02*
X110908133Y-72149122D01*
X110908133Y-72149122D02*
X110812895Y-72149122D01*
X110812895Y-72149122D02*
X110717657Y-72196741D01*
X110717657Y-72196741D02*
X110670038Y-72244360D01*
X110670038Y-72244360D02*
X110622419Y-72339598D01*
X110622419Y-72339598D02*
X110622419Y-72577693D01*
X110622419Y-72577693D02*
X110670038Y-72720550D01*
X111622419Y-73149122D02*
X110622419Y-73149122D01*
X110622419Y-73149122D02*
X110622419Y-73387217D01*
X110622419Y-73387217D02*
X110670038Y-73530074D01*
X110670038Y-73530074D02*
X110765276Y-73625312D01*
X110765276Y-73625312D02*
X110860514Y-73672931D01*
X110860514Y-73672931D02*
X111050990Y-73720550D01*
X111050990Y-73720550D02*
X111193847Y-73720550D01*
X111193847Y-73720550D02*
X111384323Y-73672931D01*
X111384323Y-73672931D02*
X111479561Y-73625312D01*
X111479561Y-73625312D02*
X111574800Y-73530074D01*
X111574800Y-73530074D02*
X111622419Y-73387217D01*
X111622419Y-73387217D02*
X111622419Y-73149122D01*
X111336704Y-74101503D02*
X111336704Y-74577693D01*
X111622419Y-74006265D02*
X110622419Y-74339598D01*
X110622419Y-74339598D02*
X111622419Y-74672931D01*
X108170038Y-68577693D02*
X108122419Y-68482455D01*
X108122419Y-68482455D02*
X108122419Y-68339598D01*
X108122419Y-68339598D02*
X108170038Y-68196741D01*
X108170038Y-68196741D02*
X108265276Y-68101503D01*
X108265276Y-68101503D02*
X108360514Y-68053884D01*
X108360514Y-68053884D02*
X108550990Y-68006265D01*
X108550990Y-68006265D02*
X108693847Y-68006265D01*
X108693847Y-68006265D02*
X108884323Y-68053884D01*
X108884323Y-68053884D02*
X108979561Y-68101503D01*
X108979561Y-68101503D02*
X109074800Y-68196741D01*
X109074800Y-68196741D02*
X109122419Y-68339598D01*
X109122419Y-68339598D02*
X109122419Y-68434836D01*
X109122419Y-68434836D02*
X109074800Y-68577693D01*
X109074800Y-68577693D02*
X109027180Y-68625312D01*
X109027180Y-68625312D02*
X108693847Y-68625312D01*
X108693847Y-68625312D02*
X108693847Y-68434836D01*
X109122419Y-69053884D02*
X108122419Y-69053884D01*
X108122419Y-69053884D02*
X109122419Y-69625312D01*
X109122419Y-69625312D02*
X108122419Y-69625312D01*
X109122419Y-70101503D02*
X108122419Y-70101503D01*
X108122419Y-70101503D02*
X108122419Y-70339598D01*
X108122419Y-70339598D02*
X108170038Y-70482455D01*
X108170038Y-70482455D02*
X108265276Y-70577693D01*
X108265276Y-70577693D02*
X108360514Y-70625312D01*
X108360514Y-70625312D02*
X108550990Y-70672931D01*
X108550990Y-70672931D02*
X108693847Y-70672931D01*
X108693847Y-70672931D02*
X108884323Y-70625312D01*
X108884323Y-70625312D02*
X108979561Y-70577693D01*
X108979561Y-70577693D02*
X109074800Y-70482455D01*
X109074800Y-70482455D02*
X109122419Y-70339598D01*
X109122419Y-70339598D02*
X109122419Y-70101503D01*
X105670038Y-68577693D02*
X105622419Y-68482455D01*
X105622419Y-68482455D02*
X105622419Y-68339598D01*
X105622419Y-68339598D02*
X105670038Y-68196741D01*
X105670038Y-68196741D02*
X105765276Y-68101503D01*
X105765276Y-68101503D02*
X105860514Y-68053884D01*
X105860514Y-68053884D02*
X106050990Y-68006265D01*
X106050990Y-68006265D02*
X106193847Y-68006265D01*
X106193847Y-68006265D02*
X106384323Y-68053884D01*
X106384323Y-68053884D02*
X106479561Y-68101503D01*
X106479561Y-68101503D02*
X106574800Y-68196741D01*
X106574800Y-68196741D02*
X106622419Y-68339598D01*
X106622419Y-68339598D02*
X106622419Y-68434836D01*
X106622419Y-68434836D02*
X106574800Y-68577693D01*
X106574800Y-68577693D02*
X106527180Y-68625312D01*
X106527180Y-68625312D02*
X106193847Y-68625312D01*
X106193847Y-68625312D02*
X106193847Y-68434836D01*
X106622419Y-69053884D02*
X105622419Y-69053884D01*
X105622419Y-69053884D02*
X106622419Y-69625312D01*
X106622419Y-69625312D02*
X105622419Y-69625312D01*
X106622419Y-70101503D02*
X105622419Y-70101503D01*
X105622419Y-70101503D02*
X105622419Y-70339598D01*
X105622419Y-70339598D02*
X105670038Y-70482455D01*
X105670038Y-70482455D02*
X105765276Y-70577693D01*
X105765276Y-70577693D02*
X105860514Y-70625312D01*
X105860514Y-70625312D02*
X106050990Y-70672931D01*
X106050990Y-70672931D02*
X106193847Y-70672931D01*
X106193847Y-70672931D02*
X106384323Y-70625312D01*
X106384323Y-70625312D02*
X106479561Y-70577693D01*
X106479561Y-70577693D02*
X106574800Y-70482455D01*
X106574800Y-70482455D02*
X106622419Y-70339598D01*
X106622419Y-70339598D02*
X106622419Y-70101503D01*
X107469925Y-75872419D02*
X107946115Y-75872419D01*
X107946115Y-75872419D02*
X107946115Y-74872419D01*
X107136591Y-75872419D02*
X107136591Y-74872419D01*
X106708020Y-75824800D02*
X106565163Y-75872419D01*
X106565163Y-75872419D02*
X106327068Y-75872419D01*
X106327068Y-75872419D02*
X106231830Y-75824800D01*
X106231830Y-75824800D02*
X106184211Y-75777180D01*
X106184211Y-75777180D02*
X106136592Y-75681942D01*
X106136592Y-75681942D02*
X106136592Y-75586704D01*
X106136592Y-75586704D02*
X106184211Y-75491466D01*
X106184211Y-75491466D02*
X106231830Y-75443847D01*
X106231830Y-75443847D02*
X106327068Y-75396228D01*
X106327068Y-75396228D02*
X106517544Y-75348609D01*
X106517544Y-75348609D02*
X106612782Y-75300990D01*
X106612782Y-75300990D02*
X106660401Y-75253371D01*
X106660401Y-75253371D02*
X106708020Y-75158133D01*
X106708020Y-75158133D02*
X106708020Y-75062895D01*
X106708020Y-75062895D02*
X106660401Y-74967657D01*
X106660401Y-74967657D02*
X106612782Y-74920038D01*
X106612782Y-74920038D02*
X106517544Y-74872419D01*
X106517544Y-74872419D02*
X106279449Y-74872419D01*
X106279449Y-74872419D02*
X106136592Y-74920038D01*
X105803258Y-74872419D02*
X105184211Y-74872419D01*
X105184211Y-74872419D02*
X105517544Y-75253371D01*
X105517544Y-75253371D02*
X105374687Y-75253371D01*
X105374687Y-75253371D02*
X105279449Y-75300990D01*
X105279449Y-75300990D02*
X105231830Y-75348609D01*
X105231830Y-75348609D02*
X105184211Y-75443847D01*
X105184211Y-75443847D02*
X105184211Y-75681942D01*
X105184211Y-75681942D02*
X105231830Y-75777180D01*
X105231830Y-75777180D02*
X105279449Y-75824800D01*
X105279449Y-75824800D02*
X105374687Y-75872419D01*
X105374687Y-75872419D02*
X105660401Y-75872419D01*
X105660401Y-75872419D02*
X105755639Y-75824800D01*
X105755639Y-75824800D02*
X105803258Y-75777180D01*
X104755639Y-75872419D02*
X104755639Y-74872419D01*
X104755639Y-74872419D02*
X104422306Y-75586704D01*
X104422306Y-75586704D02*
X104088973Y-74872419D01*
X104088973Y-74872419D02*
X104088973Y-75872419D01*
X103612782Y-75872419D02*
X103612782Y-74872419D01*
X103612782Y-74872419D02*
X103374687Y-74872419D01*
X103374687Y-74872419D02*
X103231830Y-74920038D01*
X103231830Y-74920038D02*
X103136592Y-75015276D01*
X103136592Y-75015276D02*
X103088973Y-75110514D01*
X103088973Y-75110514D02*
X103041354Y-75300990D01*
X103041354Y-75300990D02*
X103041354Y-75443847D01*
X103041354Y-75443847D02*
X103088973Y-75634323D01*
X103088973Y-75634323D02*
X103136592Y-75729561D01*
X103136592Y-75729561D02*
X103231830Y-75824800D01*
X103231830Y-75824800D02*
X103374687Y-75872419D01*
X103374687Y-75872419D02*
X103612782Y-75872419D01*
X102136592Y-75872419D02*
X102612782Y-75872419D01*
X102612782Y-75872419D02*
X102612782Y-74872419D01*
X101946115Y-74872419D02*
X101374687Y-74872419D01*
X101660401Y-75872419D02*
X101660401Y-74872419D01*
X100469925Y-75872419D02*
X100803258Y-75396228D01*
X101041353Y-75872419D02*
X101041353Y-74872419D01*
X101041353Y-74872419D02*
X100660401Y-74872419D01*
X100660401Y-74872419D02*
X100565163Y-74920038D01*
X100565163Y-74920038D02*
X100517544Y-74967657D01*
X100517544Y-74967657D02*
X100469925Y-75062895D01*
X100469925Y-75062895D02*
X100469925Y-75205752D01*
X100469925Y-75205752D02*
X100517544Y-75300990D01*
X100517544Y-75300990D02*
X100565163Y-75348609D01*
X100565163Y-75348609D02*
X100660401Y-75396228D01*
X100660401Y-75396228D02*
X101041353Y-75396228D01*
X100279449Y-75967657D02*
X99517544Y-75967657D01*
X99279448Y-75872419D02*
X99279448Y-74872419D01*
X98803258Y-75872419D02*
X98803258Y-74872419D01*
X98803258Y-74872419D02*
X98231830Y-75872419D01*
X98231830Y-75872419D02*
X98231830Y-74872419D01*
X97898496Y-74872419D02*
X97327068Y-74872419D01*
X97612782Y-75872419D02*
X97612782Y-74872419D01*
X108969925Y-78622419D02*
X109446115Y-78622419D01*
X109446115Y-78622419D02*
X109446115Y-77622419D01*
X108636591Y-78622419D02*
X108636591Y-77622419D01*
X108208020Y-78574800D02*
X108065163Y-78622419D01*
X108065163Y-78622419D02*
X107827068Y-78622419D01*
X107827068Y-78622419D02*
X107731830Y-78574800D01*
X107731830Y-78574800D02*
X107684211Y-78527180D01*
X107684211Y-78527180D02*
X107636592Y-78431942D01*
X107636592Y-78431942D02*
X107636592Y-78336704D01*
X107636592Y-78336704D02*
X107684211Y-78241466D01*
X107684211Y-78241466D02*
X107731830Y-78193847D01*
X107731830Y-78193847D02*
X107827068Y-78146228D01*
X107827068Y-78146228D02*
X108017544Y-78098609D01*
X108017544Y-78098609D02*
X108112782Y-78050990D01*
X108112782Y-78050990D02*
X108160401Y-78003371D01*
X108160401Y-78003371D02*
X108208020Y-77908133D01*
X108208020Y-77908133D02*
X108208020Y-77812895D01*
X108208020Y-77812895D02*
X108160401Y-77717657D01*
X108160401Y-77717657D02*
X108112782Y-77670038D01*
X108112782Y-77670038D02*
X108017544Y-77622419D01*
X108017544Y-77622419D02*
X107779449Y-77622419D01*
X107779449Y-77622419D02*
X107636592Y-77670038D01*
X107303258Y-77622419D02*
X106684211Y-77622419D01*
X106684211Y-77622419D02*
X107017544Y-78003371D01*
X107017544Y-78003371D02*
X106874687Y-78003371D01*
X106874687Y-78003371D02*
X106779449Y-78050990D01*
X106779449Y-78050990D02*
X106731830Y-78098609D01*
X106731830Y-78098609D02*
X106684211Y-78193847D01*
X106684211Y-78193847D02*
X106684211Y-78431942D01*
X106684211Y-78431942D02*
X106731830Y-78527180D01*
X106731830Y-78527180D02*
X106779449Y-78574800D01*
X106779449Y-78574800D02*
X106874687Y-78622419D01*
X106874687Y-78622419D02*
X107160401Y-78622419D01*
X107160401Y-78622419D02*
X107255639Y-78574800D01*
X107255639Y-78574800D02*
X107303258Y-78527180D01*
X106255639Y-78622419D02*
X106255639Y-77622419D01*
X106255639Y-77622419D02*
X105922306Y-78336704D01*
X105922306Y-78336704D02*
X105588973Y-77622419D01*
X105588973Y-77622419D02*
X105588973Y-78622419D01*
X105112782Y-78622419D02*
X105112782Y-77622419D01*
X105112782Y-77622419D02*
X104874687Y-77622419D01*
X104874687Y-77622419D02*
X104731830Y-77670038D01*
X104731830Y-77670038D02*
X104636592Y-77765276D01*
X104636592Y-77765276D02*
X104588973Y-77860514D01*
X104588973Y-77860514D02*
X104541354Y-78050990D01*
X104541354Y-78050990D02*
X104541354Y-78193847D01*
X104541354Y-78193847D02*
X104588973Y-78384323D01*
X104588973Y-78384323D02*
X104636592Y-78479561D01*
X104636592Y-78479561D02*
X104731830Y-78574800D01*
X104731830Y-78574800D02*
X104874687Y-78622419D01*
X104874687Y-78622419D02*
X105112782Y-78622419D01*
X103636592Y-78622419D02*
X104112782Y-78622419D01*
X104112782Y-78622419D02*
X104112782Y-77622419D01*
X103446115Y-77622419D02*
X102874687Y-77622419D01*
X103160401Y-78622419D02*
X103160401Y-77622419D01*
X101969925Y-78622419D02*
X102303258Y-78146228D01*
X102541353Y-78622419D02*
X102541353Y-77622419D01*
X102541353Y-77622419D02*
X102160401Y-77622419D01*
X102160401Y-77622419D02*
X102065163Y-77670038D01*
X102065163Y-77670038D02*
X102017544Y-77717657D01*
X102017544Y-77717657D02*
X101969925Y-77812895D01*
X101969925Y-77812895D02*
X101969925Y-77955752D01*
X101969925Y-77955752D02*
X102017544Y-78050990D01*
X102017544Y-78050990D02*
X102065163Y-78098609D01*
X102065163Y-78098609D02*
X102160401Y-78146228D01*
X102160401Y-78146228D02*
X102541353Y-78146228D01*
X101779449Y-78717657D02*
X101017544Y-78717657D01*
X100779448Y-78622419D02*
X100779448Y-77622419D01*
X100779448Y-77622419D02*
X100541353Y-77622419D01*
X100541353Y-77622419D02*
X100398496Y-77670038D01*
X100398496Y-77670038D02*
X100303258Y-77765276D01*
X100303258Y-77765276D02*
X100255639Y-77860514D01*
X100255639Y-77860514D02*
X100208020Y-78050990D01*
X100208020Y-78050990D02*
X100208020Y-78193847D01*
X100208020Y-78193847D02*
X100255639Y-78384323D01*
X100255639Y-78384323D02*
X100303258Y-78479561D01*
X100303258Y-78479561D02*
X100398496Y-78574800D01*
X100398496Y-78574800D02*
X100541353Y-78622419D01*
X100541353Y-78622419D02*
X100779448Y-78622419D01*
X99208020Y-78622419D02*
X99541353Y-78146228D01*
X99779448Y-78622419D02*
X99779448Y-77622419D01*
X99779448Y-77622419D02*
X99398496Y-77622419D01*
X99398496Y-77622419D02*
X99303258Y-77670038D01*
X99303258Y-77670038D02*
X99255639Y-77717657D01*
X99255639Y-77717657D02*
X99208020Y-77812895D01*
X99208020Y-77812895D02*
X99208020Y-77955752D01*
X99208020Y-77955752D02*
X99255639Y-78050990D01*
X99255639Y-78050990D02*
X99303258Y-78098609D01*
X99303258Y-78098609D02*
X99398496Y-78146228D01*
X99398496Y-78146228D02*
X99779448Y-78146228D01*
X98779448Y-78622419D02*
X98779448Y-77622419D01*
X98779448Y-77622419D02*
X98541353Y-77622419D01*
X98541353Y-77622419D02*
X98398496Y-77670038D01*
X98398496Y-77670038D02*
X98303258Y-77765276D01*
X98303258Y-77765276D02*
X98255639Y-77860514D01*
X98255639Y-77860514D02*
X98208020Y-78050990D01*
X98208020Y-78050990D02*
X98208020Y-78193847D01*
X98208020Y-78193847D02*
X98255639Y-78384323D01*
X98255639Y-78384323D02*
X98303258Y-78479561D01*
X98303258Y-78479561D02*
X98398496Y-78574800D01*
X98398496Y-78574800D02*
X98541353Y-78622419D01*
X98541353Y-78622419D02*
X98779448Y-78622419D01*
X97588972Y-78146228D02*
X97588972Y-78622419D01*
X97922305Y-77622419D02*
X97588972Y-78146228D01*
X97588972Y-78146228D02*
X97255639Y-77622419D01*
X107219925Y-81122419D02*
X107696115Y-81122419D01*
X107696115Y-81122419D02*
X107696115Y-80122419D01*
X106934210Y-81074800D02*
X106791353Y-81122419D01*
X106791353Y-81122419D02*
X106553258Y-81122419D01*
X106553258Y-81122419D02*
X106458020Y-81074800D01*
X106458020Y-81074800D02*
X106410401Y-81027180D01*
X106410401Y-81027180D02*
X106362782Y-80931942D01*
X106362782Y-80931942D02*
X106362782Y-80836704D01*
X106362782Y-80836704D02*
X106410401Y-80741466D01*
X106410401Y-80741466D02*
X106458020Y-80693847D01*
X106458020Y-80693847D02*
X106553258Y-80646228D01*
X106553258Y-80646228D02*
X106743734Y-80598609D01*
X106743734Y-80598609D02*
X106838972Y-80550990D01*
X106838972Y-80550990D02*
X106886591Y-80503371D01*
X106886591Y-80503371D02*
X106934210Y-80408133D01*
X106934210Y-80408133D02*
X106934210Y-80312895D01*
X106934210Y-80312895D02*
X106886591Y-80217657D01*
X106886591Y-80217657D02*
X106838972Y-80170038D01*
X106838972Y-80170038D02*
X106743734Y-80122419D01*
X106743734Y-80122419D02*
X106505639Y-80122419D01*
X106505639Y-80122419D02*
X106362782Y-80170038D01*
X105934210Y-81122419D02*
X105934210Y-80122419D01*
X105934210Y-80122419D02*
X105600877Y-80836704D01*
X105600877Y-80836704D02*
X105267544Y-80122419D01*
X105267544Y-80122419D02*
X105267544Y-81122419D01*
X104362782Y-80122419D02*
X104553258Y-80122419D01*
X104553258Y-80122419D02*
X104648496Y-80170038D01*
X104648496Y-80170038D02*
X104696115Y-80217657D01*
X104696115Y-80217657D02*
X104791353Y-80360514D01*
X104791353Y-80360514D02*
X104838972Y-80550990D01*
X104838972Y-80550990D02*
X104838972Y-80931942D01*
X104838972Y-80931942D02*
X104791353Y-81027180D01*
X104791353Y-81027180D02*
X104743734Y-81074800D01*
X104743734Y-81074800D02*
X104648496Y-81122419D01*
X104648496Y-81122419D02*
X104458020Y-81122419D01*
X104458020Y-81122419D02*
X104362782Y-81074800D01*
X104362782Y-81074800D02*
X104315163Y-81027180D01*
X104315163Y-81027180D02*
X104267544Y-80931942D01*
X104267544Y-80931942D02*
X104267544Y-80693847D01*
X104267544Y-80693847D02*
X104315163Y-80598609D01*
X104315163Y-80598609D02*
X104362782Y-80550990D01*
X104362782Y-80550990D02*
X104458020Y-80503371D01*
X104458020Y-80503371D02*
X104648496Y-80503371D01*
X104648496Y-80503371D02*
X104743734Y-80550990D01*
X104743734Y-80550990D02*
X104791353Y-80598609D01*
X104791353Y-80598609D02*
X104838972Y-80693847D01*
X103838972Y-81122419D02*
X103838972Y-80122419D01*
X103838972Y-80122419D02*
X103600877Y-80122419D01*
X103600877Y-80122419D02*
X103458020Y-80170038D01*
X103458020Y-80170038D02*
X103362782Y-80265276D01*
X103362782Y-80265276D02*
X103315163Y-80360514D01*
X103315163Y-80360514D02*
X103267544Y-80550990D01*
X103267544Y-80550990D02*
X103267544Y-80693847D01*
X103267544Y-80693847D02*
X103315163Y-80884323D01*
X103315163Y-80884323D02*
X103362782Y-80979561D01*
X103362782Y-80979561D02*
X103458020Y-81074800D01*
X103458020Y-81074800D02*
X103600877Y-81122419D01*
X103600877Y-81122419D02*
X103838972Y-81122419D01*
X102886591Y-81074800D02*
X102743734Y-81122419D01*
X102743734Y-81122419D02*
X102505639Y-81122419D01*
X102505639Y-81122419D02*
X102410401Y-81074800D01*
X102410401Y-81074800D02*
X102362782Y-81027180D01*
X102362782Y-81027180D02*
X102315163Y-80931942D01*
X102315163Y-80931942D02*
X102315163Y-80836704D01*
X102315163Y-80836704D02*
X102362782Y-80741466D01*
X102362782Y-80741466D02*
X102410401Y-80693847D01*
X102410401Y-80693847D02*
X102505639Y-80646228D01*
X102505639Y-80646228D02*
X102696115Y-80598609D01*
X102696115Y-80598609D02*
X102791353Y-80550990D01*
X102791353Y-80550990D02*
X102838972Y-80503371D01*
X102838972Y-80503371D02*
X102886591Y-80408133D01*
X102886591Y-80408133D02*
X102886591Y-80312895D01*
X102886591Y-80312895D02*
X102838972Y-80217657D01*
X102838972Y-80217657D02*
X102791353Y-80170038D01*
X102791353Y-80170038D02*
X102696115Y-80122419D01*
X102696115Y-80122419D02*
X102458020Y-80122419D01*
X102458020Y-80122419D02*
X102315163Y-80170038D01*
X101315163Y-81122419D02*
X101648496Y-80646228D01*
X101886591Y-81122419D02*
X101886591Y-80122419D01*
X101886591Y-80122419D02*
X101505639Y-80122419D01*
X101505639Y-80122419D02*
X101410401Y-80170038D01*
X101410401Y-80170038D02*
X101362782Y-80217657D01*
X101362782Y-80217657D02*
X101315163Y-80312895D01*
X101315163Y-80312895D02*
X101315163Y-80455752D01*
X101315163Y-80455752D02*
X101362782Y-80550990D01*
X101362782Y-80550990D02*
X101410401Y-80598609D01*
X101410401Y-80598609D02*
X101505639Y-80646228D01*
X101505639Y-80646228D02*
X101886591Y-80646228D01*
X101124687Y-81217657D02*
X100362782Y-81217657D01*
X100124686Y-81122419D02*
X100124686Y-80122419D01*
X99648496Y-81122419D02*
X99648496Y-80122419D01*
X99648496Y-80122419D02*
X99077068Y-81122419D01*
X99077068Y-81122419D02*
X99077068Y-80122419D01*
X98743734Y-80122419D02*
X98172306Y-80122419D01*
X98458020Y-81122419D02*
X98458020Y-80122419D01*
X97315163Y-81122419D02*
X97886591Y-81122419D01*
X97600877Y-81122419D02*
X97600877Y-80122419D01*
X97600877Y-80122419D02*
X97696115Y-80265276D01*
X97696115Y-80265276D02*
X97791353Y-80360514D01*
X97791353Y-80360514D02*
X97886591Y-80408133D01*
X107219925Y-83622419D02*
X107696115Y-83622419D01*
X107696115Y-83622419D02*
X107696115Y-82622419D01*
X106934210Y-83574800D02*
X106791353Y-83622419D01*
X106791353Y-83622419D02*
X106553258Y-83622419D01*
X106553258Y-83622419D02*
X106458020Y-83574800D01*
X106458020Y-83574800D02*
X106410401Y-83527180D01*
X106410401Y-83527180D02*
X106362782Y-83431942D01*
X106362782Y-83431942D02*
X106362782Y-83336704D01*
X106362782Y-83336704D02*
X106410401Y-83241466D01*
X106410401Y-83241466D02*
X106458020Y-83193847D01*
X106458020Y-83193847D02*
X106553258Y-83146228D01*
X106553258Y-83146228D02*
X106743734Y-83098609D01*
X106743734Y-83098609D02*
X106838972Y-83050990D01*
X106838972Y-83050990D02*
X106886591Y-83003371D01*
X106886591Y-83003371D02*
X106934210Y-82908133D01*
X106934210Y-82908133D02*
X106934210Y-82812895D01*
X106934210Y-82812895D02*
X106886591Y-82717657D01*
X106886591Y-82717657D02*
X106838972Y-82670038D01*
X106838972Y-82670038D02*
X106743734Y-82622419D01*
X106743734Y-82622419D02*
X106505639Y-82622419D01*
X106505639Y-82622419D02*
X106362782Y-82670038D01*
X105934210Y-83622419D02*
X105934210Y-82622419D01*
X105934210Y-82622419D02*
X105600877Y-83336704D01*
X105600877Y-83336704D02*
X105267544Y-82622419D01*
X105267544Y-82622419D02*
X105267544Y-83622419D01*
X104362782Y-82622419D02*
X104553258Y-82622419D01*
X104553258Y-82622419D02*
X104648496Y-82670038D01*
X104648496Y-82670038D02*
X104696115Y-82717657D01*
X104696115Y-82717657D02*
X104791353Y-82860514D01*
X104791353Y-82860514D02*
X104838972Y-83050990D01*
X104838972Y-83050990D02*
X104838972Y-83431942D01*
X104838972Y-83431942D02*
X104791353Y-83527180D01*
X104791353Y-83527180D02*
X104743734Y-83574800D01*
X104743734Y-83574800D02*
X104648496Y-83622419D01*
X104648496Y-83622419D02*
X104458020Y-83622419D01*
X104458020Y-83622419D02*
X104362782Y-83574800D01*
X104362782Y-83574800D02*
X104315163Y-83527180D01*
X104315163Y-83527180D02*
X104267544Y-83431942D01*
X104267544Y-83431942D02*
X104267544Y-83193847D01*
X104267544Y-83193847D02*
X104315163Y-83098609D01*
X104315163Y-83098609D02*
X104362782Y-83050990D01*
X104362782Y-83050990D02*
X104458020Y-83003371D01*
X104458020Y-83003371D02*
X104648496Y-83003371D01*
X104648496Y-83003371D02*
X104743734Y-83050990D01*
X104743734Y-83050990D02*
X104791353Y-83098609D01*
X104791353Y-83098609D02*
X104838972Y-83193847D01*
X103838972Y-83622419D02*
X103838972Y-82622419D01*
X103838972Y-82622419D02*
X103600877Y-82622419D01*
X103600877Y-82622419D02*
X103458020Y-82670038D01*
X103458020Y-82670038D02*
X103362782Y-82765276D01*
X103362782Y-82765276D02*
X103315163Y-82860514D01*
X103315163Y-82860514D02*
X103267544Y-83050990D01*
X103267544Y-83050990D02*
X103267544Y-83193847D01*
X103267544Y-83193847D02*
X103315163Y-83384323D01*
X103315163Y-83384323D02*
X103362782Y-83479561D01*
X103362782Y-83479561D02*
X103458020Y-83574800D01*
X103458020Y-83574800D02*
X103600877Y-83622419D01*
X103600877Y-83622419D02*
X103838972Y-83622419D01*
X102886591Y-83574800D02*
X102743734Y-83622419D01*
X102743734Y-83622419D02*
X102505639Y-83622419D01*
X102505639Y-83622419D02*
X102410401Y-83574800D01*
X102410401Y-83574800D02*
X102362782Y-83527180D01*
X102362782Y-83527180D02*
X102315163Y-83431942D01*
X102315163Y-83431942D02*
X102315163Y-83336704D01*
X102315163Y-83336704D02*
X102362782Y-83241466D01*
X102362782Y-83241466D02*
X102410401Y-83193847D01*
X102410401Y-83193847D02*
X102505639Y-83146228D01*
X102505639Y-83146228D02*
X102696115Y-83098609D01*
X102696115Y-83098609D02*
X102791353Y-83050990D01*
X102791353Y-83050990D02*
X102838972Y-83003371D01*
X102838972Y-83003371D02*
X102886591Y-82908133D01*
X102886591Y-82908133D02*
X102886591Y-82812895D01*
X102886591Y-82812895D02*
X102838972Y-82717657D01*
X102838972Y-82717657D02*
X102791353Y-82670038D01*
X102791353Y-82670038D02*
X102696115Y-82622419D01*
X102696115Y-82622419D02*
X102458020Y-82622419D01*
X102458020Y-82622419D02*
X102315163Y-82670038D01*
X101315163Y-83622419D02*
X101648496Y-83146228D01*
X101886591Y-83622419D02*
X101886591Y-82622419D01*
X101886591Y-82622419D02*
X101505639Y-82622419D01*
X101505639Y-82622419D02*
X101410401Y-82670038D01*
X101410401Y-82670038D02*
X101362782Y-82717657D01*
X101362782Y-82717657D02*
X101315163Y-82812895D01*
X101315163Y-82812895D02*
X101315163Y-82955752D01*
X101315163Y-82955752D02*
X101362782Y-83050990D01*
X101362782Y-83050990D02*
X101410401Y-83098609D01*
X101410401Y-83098609D02*
X101505639Y-83146228D01*
X101505639Y-83146228D02*
X101886591Y-83146228D01*
X101124687Y-83717657D02*
X100362782Y-83717657D01*
X100124686Y-83622419D02*
X100124686Y-82622419D01*
X99648496Y-83622419D02*
X99648496Y-82622419D01*
X99648496Y-82622419D02*
X99077068Y-83622419D01*
X99077068Y-83622419D02*
X99077068Y-82622419D01*
X98743734Y-82622419D02*
X98172306Y-82622419D01*
X98458020Y-83622419D02*
X98458020Y-82622419D01*
X97886591Y-82717657D02*
X97838972Y-82670038D01*
X97838972Y-82670038D02*
X97743734Y-82622419D01*
X97743734Y-82622419D02*
X97505639Y-82622419D01*
X97505639Y-82622419D02*
X97410401Y-82670038D01*
X97410401Y-82670038D02*
X97362782Y-82717657D01*
X97362782Y-82717657D02*
X97315163Y-82812895D01*
X97315163Y-82812895D02*
X97315163Y-82908133D01*
X97315163Y-82908133D02*
X97362782Y-83050990D01*
X97362782Y-83050990D02*
X97934210Y-83622419D01*
X97934210Y-83622419D02*
X97315163Y-83622419D01*
X100946115Y-86372419D02*
X100946115Y-85372419D01*
X100946115Y-85372419D02*
X100374687Y-86372419D01*
X100374687Y-86372419D02*
X100374687Y-85372419D01*
X99327068Y-86372419D02*
X99660401Y-85896228D01*
X99898496Y-86372419D02*
X99898496Y-85372419D01*
X99898496Y-85372419D02*
X99517544Y-85372419D01*
X99517544Y-85372419D02*
X99422306Y-85420038D01*
X99422306Y-85420038D02*
X99374687Y-85467657D01*
X99374687Y-85467657D02*
X99327068Y-85562895D01*
X99327068Y-85562895D02*
X99327068Y-85705752D01*
X99327068Y-85705752D02*
X99374687Y-85800990D01*
X99374687Y-85800990D02*
X99422306Y-85848609D01*
X99422306Y-85848609D02*
X99517544Y-85896228D01*
X99517544Y-85896228D02*
X99898496Y-85896228D01*
X98946115Y-86324800D02*
X98803258Y-86372419D01*
X98803258Y-86372419D02*
X98565163Y-86372419D01*
X98565163Y-86372419D02*
X98469925Y-86324800D01*
X98469925Y-86324800D02*
X98422306Y-86277180D01*
X98422306Y-86277180D02*
X98374687Y-86181942D01*
X98374687Y-86181942D02*
X98374687Y-86086704D01*
X98374687Y-86086704D02*
X98422306Y-85991466D01*
X98422306Y-85991466D02*
X98469925Y-85943847D01*
X98469925Y-85943847D02*
X98565163Y-85896228D01*
X98565163Y-85896228D02*
X98755639Y-85848609D01*
X98755639Y-85848609D02*
X98850877Y-85800990D01*
X98850877Y-85800990D02*
X98898496Y-85753371D01*
X98898496Y-85753371D02*
X98946115Y-85658133D01*
X98946115Y-85658133D02*
X98946115Y-85562895D01*
X98946115Y-85562895D02*
X98898496Y-85467657D01*
X98898496Y-85467657D02*
X98850877Y-85420038D01*
X98850877Y-85420038D02*
X98755639Y-85372419D01*
X98755639Y-85372419D02*
X98517544Y-85372419D01*
X98517544Y-85372419D02*
X98374687Y-85420038D01*
X98088972Y-85372419D02*
X97517544Y-85372419D01*
X97803258Y-86372419D02*
X97803258Y-85372419D01*
X128172306Y-88622419D02*
X128743734Y-88622419D01*
X128458020Y-88622419D02*
X128458020Y-87622419D01*
X128458020Y-87622419D02*
X128553258Y-87765276D01*
X128553258Y-87765276D02*
X128648496Y-87860514D01*
X128648496Y-87860514D02*
X128743734Y-87908133D01*
X127791353Y-87717657D02*
X127743734Y-87670038D01*
X127743734Y-87670038D02*
X127648496Y-87622419D01*
X127648496Y-87622419D02*
X127410401Y-87622419D01*
X127410401Y-87622419D02*
X127315163Y-87670038D01*
X127315163Y-87670038D02*
X127267544Y-87717657D01*
X127267544Y-87717657D02*
X127219925Y-87812895D01*
X127219925Y-87812895D02*
X127219925Y-87908133D01*
X127219925Y-87908133D02*
X127267544Y-88050990D01*
X127267544Y-88050990D02*
X127838972Y-88622419D01*
X127838972Y-88622419D02*
X127219925Y-88622419D01*
X126077068Y-87574800D02*
X126934210Y-88860514D01*
X125838972Y-87622419D02*
X125219925Y-87622419D01*
X125219925Y-87622419D02*
X125553258Y-88003371D01*
X125553258Y-88003371D02*
X125410401Y-88003371D01*
X125410401Y-88003371D02*
X125315163Y-88050990D01*
X125315163Y-88050990D02*
X125267544Y-88098609D01*
X125267544Y-88098609D02*
X125219925Y-88193847D01*
X125219925Y-88193847D02*
X125219925Y-88431942D01*
X125219925Y-88431942D02*
X125267544Y-88527180D01*
X125267544Y-88527180D02*
X125315163Y-88574800D01*
X125315163Y-88574800D02*
X125410401Y-88622419D01*
X125410401Y-88622419D02*
X125696115Y-88622419D01*
X125696115Y-88622419D02*
X125791353Y-88574800D01*
X125791353Y-88574800D02*
X125838972Y-88527180D01*
X124600877Y-87622419D02*
X124505639Y-87622419D01*
X124505639Y-87622419D02*
X124410401Y-87670038D01*
X124410401Y-87670038D02*
X124362782Y-87717657D01*
X124362782Y-87717657D02*
X124315163Y-87812895D01*
X124315163Y-87812895D02*
X124267544Y-88003371D01*
X124267544Y-88003371D02*
X124267544Y-88241466D01*
X124267544Y-88241466D02*
X124315163Y-88431942D01*
X124315163Y-88431942D02*
X124362782Y-88527180D01*
X124362782Y-88527180D02*
X124410401Y-88574800D01*
X124410401Y-88574800D02*
X124505639Y-88622419D01*
X124505639Y-88622419D02*
X124600877Y-88622419D01*
X124600877Y-88622419D02*
X124696115Y-88574800D01*
X124696115Y-88574800D02*
X124743734Y-88527180D01*
X124743734Y-88527180D02*
X124791353Y-88431942D01*
X124791353Y-88431942D02*
X124838972Y-88241466D01*
X124838972Y-88241466D02*
X124838972Y-88003371D01*
X124838972Y-88003371D02*
X124791353Y-87812895D01*
X124791353Y-87812895D02*
X124743734Y-87717657D01*
X124743734Y-87717657D02*
X124696115Y-87670038D01*
X124696115Y-87670038D02*
X124600877Y-87622419D01*
X123124687Y-87574800D02*
X123981829Y-88860514D01*
X122838972Y-87717657D02*
X122791353Y-87670038D01*
X122791353Y-87670038D02*
X122696115Y-87622419D01*
X122696115Y-87622419D02*
X122458020Y-87622419D01*
X122458020Y-87622419D02*
X122362782Y-87670038D01*
X122362782Y-87670038D02*
X122315163Y-87717657D01*
X122315163Y-87717657D02*
X122267544Y-87812895D01*
X122267544Y-87812895D02*
X122267544Y-87908133D01*
X122267544Y-87908133D02*
X122315163Y-88050990D01*
X122315163Y-88050990D02*
X122886591Y-88622419D01*
X122886591Y-88622419D02*
X122267544Y-88622419D01*
X121648496Y-87622419D02*
X121553258Y-87622419D01*
X121553258Y-87622419D02*
X121458020Y-87670038D01*
X121458020Y-87670038D02*
X121410401Y-87717657D01*
X121410401Y-87717657D02*
X121362782Y-87812895D01*
X121362782Y-87812895D02*
X121315163Y-88003371D01*
X121315163Y-88003371D02*
X121315163Y-88241466D01*
X121315163Y-88241466D02*
X121362782Y-88431942D01*
X121362782Y-88431942D02*
X121410401Y-88527180D01*
X121410401Y-88527180D02*
X121458020Y-88574800D01*
X121458020Y-88574800D02*
X121553258Y-88622419D01*
X121553258Y-88622419D02*
X121648496Y-88622419D01*
X121648496Y-88622419D02*
X121743734Y-88574800D01*
X121743734Y-88574800D02*
X121791353Y-88527180D01*
X121791353Y-88527180D02*
X121838972Y-88431942D01*
X121838972Y-88431942D02*
X121886591Y-88241466D01*
X121886591Y-88241466D02*
X121886591Y-88003371D01*
X121886591Y-88003371D02*
X121838972Y-87812895D01*
X121838972Y-87812895D02*
X121791353Y-87717657D01*
X121791353Y-87717657D02*
X121743734Y-87670038D01*
X121743734Y-87670038D02*
X121648496Y-87622419D01*
X120934210Y-87717657D02*
X120886591Y-87670038D01*
X120886591Y-87670038D02*
X120791353Y-87622419D01*
X120791353Y-87622419D02*
X120553258Y-87622419D01*
X120553258Y-87622419D02*
X120458020Y-87670038D01*
X120458020Y-87670038D02*
X120410401Y-87717657D01*
X120410401Y-87717657D02*
X120362782Y-87812895D01*
X120362782Y-87812895D02*
X120362782Y-87908133D01*
X120362782Y-87908133D02*
X120410401Y-88050990D01*
X120410401Y-88050990D02*
X120981829Y-88622419D01*
X120981829Y-88622419D02*
X120362782Y-88622419D01*
X119458020Y-87622419D02*
X119934210Y-87622419D01*
X119934210Y-87622419D02*
X119981829Y-88098609D01*
X119981829Y-88098609D02*
X119934210Y-88050990D01*
X119934210Y-88050990D02*
X119838972Y-88003371D01*
X119838972Y-88003371D02*
X119600877Y-88003371D01*
X119600877Y-88003371D02*
X119505639Y-88050990D01*
X119505639Y-88050990D02*
X119458020Y-88098609D01*
X119458020Y-88098609D02*
X119410401Y-88193847D01*
X119410401Y-88193847D02*
X119410401Y-88431942D01*
X119410401Y-88431942D02*
X119458020Y-88527180D01*
X119458020Y-88527180D02*
X119505639Y-88574800D01*
X119505639Y-88574800D02*
X119600877Y-88622419D01*
X119600877Y-88622419D02*
X119838972Y-88622419D01*
X119838972Y-88622419D02*
X119934210Y-88574800D01*
X119934210Y-88574800D02*
X119981829Y-88527180D01*
M02*
