%TF.GenerationSoftware,KiCad,Pcbnew,9.0.6-9.0.6~ubuntu24.04.1*%
%TF.CreationDate,2026-01-01T13:47:20-07:00*%
%TF.ProjectId,ARviewer,41527669-6577-4657-922e-6b696361645f,rev?*%
%TF.SameCoordinates,Original*%
%TF.FileFunction,Legend,Top*%
%TF.FilePolarity,Positive*%
%FSLAX46Y46*%
G04 Gerber Fmt 4.6, Leading zero omitted, Abs format (unit mm)*
G04 Created by KiCad (PCBNEW 9.0.6-9.0.6~ubuntu24.04.1) date 2026-01-01 13:47:20*
%MOMM*%
%LPD*%
G01*
G04 APERTURE LIST*
%ADD10C,0.150000*%
%ADD11C,0.120000*%
G04 APERTURE END LIST*
D10*
X108464284Y-109474160D02*
X108940474Y-109474160D01*
X108369046Y-109759875D02*
X108702379Y-108759875D01*
X108702379Y-108759875D02*
X109035712Y-109759875D01*
X109940474Y-109759875D02*
X109607141Y-109283684D01*
X109369046Y-109759875D02*
X109369046Y-108759875D01*
X109369046Y-108759875D02*
X109749998Y-108759875D01*
X109749998Y-108759875D02*
X109845236Y-108807494D01*
X109845236Y-108807494D02*
X109892855Y-108855113D01*
X109892855Y-108855113D02*
X109940474Y-108950351D01*
X109940474Y-108950351D02*
X109940474Y-109093208D01*
X109940474Y-109093208D02*
X109892855Y-109188446D01*
X109892855Y-109188446D02*
X109845236Y-109236065D01*
X109845236Y-109236065D02*
X109749998Y-109283684D01*
X109749998Y-109283684D02*
X109369046Y-109283684D01*
X110988094Y-108759875D02*
X111321427Y-109759875D01*
X111321427Y-109759875D02*
X111654760Y-108759875D01*
X111988094Y-109759875D02*
X111988094Y-109093208D01*
X111988094Y-108759875D02*
X111940475Y-108807494D01*
X111940475Y-108807494D02*
X111988094Y-108855113D01*
X111988094Y-108855113D02*
X112035713Y-108807494D01*
X112035713Y-108807494D02*
X111988094Y-108759875D01*
X111988094Y-108759875D02*
X111988094Y-108855113D01*
X112845236Y-109712256D02*
X112749998Y-109759875D01*
X112749998Y-109759875D02*
X112559522Y-109759875D01*
X112559522Y-109759875D02*
X112464284Y-109712256D01*
X112464284Y-109712256D02*
X112416665Y-109617017D01*
X112416665Y-109617017D02*
X112416665Y-109236065D01*
X112416665Y-109236065D02*
X112464284Y-109140827D01*
X112464284Y-109140827D02*
X112559522Y-109093208D01*
X112559522Y-109093208D02*
X112749998Y-109093208D01*
X112749998Y-109093208D02*
X112845236Y-109140827D01*
X112845236Y-109140827D02*
X112892855Y-109236065D01*
X112892855Y-109236065D02*
X112892855Y-109331303D01*
X112892855Y-109331303D02*
X112416665Y-109426541D01*
X113226189Y-109093208D02*
X113416665Y-109759875D01*
X113416665Y-109759875D02*
X113607141Y-109283684D01*
X113607141Y-109283684D02*
X113797617Y-109759875D01*
X113797617Y-109759875D02*
X113988093Y-109093208D01*
X114749998Y-109712256D02*
X114654760Y-109759875D01*
X114654760Y-109759875D02*
X114464284Y-109759875D01*
X114464284Y-109759875D02*
X114369046Y-109712256D01*
X114369046Y-109712256D02*
X114321427Y-109617017D01*
X114321427Y-109617017D02*
X114321427Y-109236065D01*
X114321427Y-109236065D02*
X114369046Y-109140827D01*
X114369046Y-109140827D02*
X114464284Y-109093208D01*
X114464284Y-109093208D02*
X114654760Y-109093208D01*
X114654760Y-109093208D02*
X114749998Y-109140827D01*
X114749998Y-109140827D02*
X114797617Y-109236065D01*
X114797617Y-109236065D02*
X114797617Y-109331303D01*
X114797617Y-109331303D02*
X114321427Y-109426541D01*
X115226189Y-109759875D02*
X115226189Y-109093208D01*
X115226189Y-109283684D02*
X115273808Y-109188446D01*
X115273808Y-109188446D02*
X115321427Y-109140827D01*
X115321427Y-109140827D02*
X115416665Y-109093208D01*
X115416665Y-109093208D02*
X115511903Y-109093208D01*
X116607142Y-109759875D02*
X116607142Y-108759875D01*
X116607142Y-108759875D02*
X116845237Y-108759875D01*
X116845237Y-108759875D02*
X116988094Y-108807494D01*
X116988094Y-108807494D02*
X117083332Y-108902732D01*
X117083332Y-108902732D02*
X117130951Y-108997970D01*
X117130951Y-108997970D02*
X117178570Y-109188446D01*
X117178570Y-109188446D02*
X117178570Y-109331303D01*
X117178570Y-109331303D02*
X117130951Y-109521779D01*
X117130951Y-109521779D02*
X117083332Y-109617017D01*
X117083332Y-109617017D02*
X116988094Y-109712256D01*
X116988094Y-109712256D02*
X116845237Y-109759875D01*
X116845237Y-109759875D02*
X116607142Y-109759875D01*
X117988094Y-109712256D02*
X117892856Y-109759875D01*
X117892856Y-109759875D02*
X117702380Y-109759875D01*
X117702380Y-109759875D02*
X117607142Y-109712256D01*
X117607142Y-109712256D02*
X117559523Y-109617017D01*
X117559523Y-109617017D02*
X117559523Y-109236065D01*
X117559523Y-109236065D02*
X117607142Y-109140827D01*
X117607142Y-109140827D02*
X117702380Y-109093208D01*
X117702380Y-109093208D02*
X117892856Y-109093208D01*
X117892856Y-109093208D02*
X117988094Y-109140827D01*
X117988094Y-109140827D02*
X118035713Y-109236065D01*
X118035713Y-109236065D02*
X118035713Y-109331303D01*
X118035713Y-109331303D02*
X117559523Y-109426541D01*
X118369047Y-109093208D02*
X118607142Y-109759875D01*
X118607142Y-109759875D02*
X118845237Y-109093208D01*
X119607142Y-109712256D02*
X119511904Y-109759875D01*
X119511904Y-109759875D02*
X119321428Y-109759875D01*
X119321428Y-109759875D02*
X119226190Y-109712256D01*
X119226190Y-109712256D02*
X119178571Y-109617017D01*
X119178571Y-109617017D02*
X119178571Y-109236065D01*
X119178571Y-109236065D02*
X119226190Y-109140827D01*
X119226190Y-109140827D02*
X119321428Y-109093208D01*
X119321428Y-109093208D02*
X119511904Y-109093208D01*
X119511904Y-109093208D02*
X119607142Y-109140827D01*
X119607142Y-109140827D02*
X119654761Y-109236065D01*
X119654761Y-109236065D02*
X119654761Y-109331303D01*
X119654761Y-109331303D02*
X119178571Y-109426541D01*
X120226190Y-109759875D02*
X120130952Y-109712256D01*
X120130952Y-109712256D02*
X120083333Y-109617017D01*
X120083333Y-109617017D02*
X120083333Y-108759875D01*
X120750000Y-109759875D02*
X120654762Y-109712256D01*
X120654762Y-109712256D02*
X120607143Y-109664636D01*
X120607143Y-109664636D02*
X120559524Y-109569398D01*
X120559524Y-109569398D02*
X120559524Y-109283684D01*
X120559524Y-109283684D02*
X120607143Y-109188446D01*
X120607143Y-109188446D02*
X120654762Y-109140827D01*
X120654762Y-109140827D02*
X120750000Y-109093208D01*
X120750000Y-109093208D02*
X120892857Y-109093208D01*
X120892857Y-109093208D02*
X120988095Y-109140827D01*
X120988095Y-109140827D02*
X121035714Y-109188446D01*
X121035714Y-109188446D02*
X121083333Y-109283684D01*
X121083333Y-109283684D02*
X121083333Y-109569398D01*
X121083333Y-109569398D02*
X121035714Y-109664636D01*
X121035714Y-109664636D02*
X120988095Y-109712256D01*
X120988095Y-109712256D02*
X120892857Y-109759875D01*
X120892857Y-109759875D02*
X120750000Y-109759875D01*
X121511905Y-109093208D02*
X121511905Y-110093208D01*
X121511905Y-109140827D02*
X121607143Y-109093208D01*
X121607143Y-109093208D02*
X121797619Y-109093208D01*
X121797619Y-109093208D02*
X121892857Y-109140827D01*
X121892857Y-109140827D02*
X121940476Y-109188446D01*
X121940476Y-109188446D02*
X121988095Y-109283684D01*
X121988095Y-109283684D02*
X121988095Y-109569398D01*
X121988095Y-109569398D02*
X121940476Y-109664636D01*
X121940476Y-109664636D02*
X121892857Y-109712256D01*
X121892857Y-109712256D02*
X121797619Y-109759875D01*
X121797619Y-109759875D02*
X121607143Y-109759875D01*
X121607143Y-109759875D02*
X121511905Y-109712256D01*
X122416667Y-109759875D02*
X122416667Y-109093208D01*
X122416667Y-109188446D02*
X122464286Y-109140827D01*
X122464286Y-109140827D02*
X122559524Y-109093208D01*
X122559524Y-109093208D02*
X122702381Y-109093208D01*
X122702381Y-109093208D02*
X122797619Y-109140827D01*
X122797619Y-109140827D02*
X122845238Y-109236065D01*
X122845238Y-109236065D02*
X122845238Y-109759875D01*
X122845238Y-109236065D02*
X122892857Y-109140827D01*
X122892857Y-109140827D02*
X122988095Y-109093208D01*
X122988095Y-109093208D02*
X123130952Y-109093208D01*
X123130952Y-109093208D02*
X123226191Y-109140827D01*
X123226191Y-109140827D02*
X123273810Y-109236065D01*
X123273810Y-109236065D02*
X123273810Y-109759875D01*
X124130952Y-109712256D02*
X124035714Y-109759875D01*
X124035714Y-109759875D02*
X123845238Y-109759875D01*
X123845238Y-109759875D02*
X123750000Y-109712256D01*
X123750000Y-109712256D02*
X123702381Y-109617017D01*
X123702381Y-109617017D02*
X123702381Y-109236065D01*
X123702381Y-109236065D02*
X123750000Y-109140827D01*
X123750000Y-109140827D02*
X123845238Y-109093208D01*
X123845238Y-109093208D02*
X124035714Y-109093208D01*
X124035714Y-109093208D02*
X124130952Y-109140827D01*
X124130952Y-109140827D02*
X124178571Y-109236065D01*
X124178571Y-109236065D02*
X124178571Y-109331303D01*
X124178571Y-109331303D02*
X123702381Y-109426541D01*
X124607143Y-109093208D02*
X124607143Y-109759875D01*
X124607143Y-109188446D02*
X124654762Y-109140827D01*
X124654762Y-109140827D02*
X124750000Y-109093208D01*
X124750000Y-109093208D02*
X124892857Y-109093208D01*
X124892857Y-109093208D02*
X124988095Y-109140827D01*
X124988095Y-109140827D02*
X125035714Y-109236065D01*
X125035714Y-109236065D02*
X125035714Y-109759875D01*
X125369048Y-109093208D02*
X125750000Y-109093208D01*
X125511905Y-108759875D02*
X125511905Y-109617017D01*
X125511905Y-109617017D02*
X125559524Y-109712256D01*
X125559524Y-109712256D02*
X125654762Y-109759875D01*
X125654762Y-109759875D02*
X125750000Y-109759875D01*
X127178572Y-109236065D02*
X127321429Y-109283684D01*
X127321429Y-109283684D02*
X127369048Y-109331303D01*
X127369048Y-109331303D02*
X127416667Y-109426541D01*
X127416667Y-109426541D02*
X127416667Y-109569398D01*
X127416667Y-109569398D02*
X127369048Y-109664636D01*
X127369048Y-109664636D02*
X127321429Y-109712256D01*
X127321429Y-109712256D02*
X127226191Y-109759875D01*
X127226191Y-109759875D02*
X126845239Y-109759875D01*
X126845239Y-109759875D02*
X126845239Y-108759875D01*
X126845239Y-108759875D02*
X127178572Y-108759875D01*
X127178572Y-108759875D02*
X127273810Y-108807494D01*
X127273810Y-108807494D02*
X127321429Y-108855113D01*
X127321429Y-108855113D02*
X127369048Y-108950351D01*
X127369048Y-108950351D02*
X127369048Y-109045589D01*
X127369048Y-109045589D02*
X127321429Y-109140827D01*
X127321429Y-109140827D02*
X127273810Y-109188446D01*
X127273810Y-109188446D02*
X127178572Y-109236065D01*
X127178572Y-109236065D02*
X126845239Y-109236065D01*
X127988096Y-109759875D02*
X127892858Y-109712256D01*
X127892858Y-109712256D02*
X127845239Y-109664636D01*
X127845239Y-109664636D02*
X127797620Y-109569398D01*
X127797620Y-109569398D02*
X127797620Y-109283684D01*
X127797620Y-109283684D02*
X127845239Y-109188446D01*
X127845239Y-109188446D02*
X127892858Y-109140827D01*
X127892858Y-109140827D02*
X127988096Y-109093208D01*
X127988096Y-109093208D02*
X128130953Y-109093208D01*
X128130953Y-109093208D02*
X128226191Y-109140827D01*
X128226191Y-109140827D02*
X128273810Y-109188446D01*
X128273810Y-109188446D02*
X128321429Y-109283684D01*
X128321429Y-109283684D02*
X128321429Y-109569398D01*
X128321429Y-109569398D02*
X128273810Y-109664636D01*
X128273810Y-109664636D02*
X128226191Y-109712256D01*
X128226191Y-109712256D02*
X128130953Y-109759875D01*
X128130953Y-109759875D02*
X127988096Y-109759875D01*
X129178572Y-109759875D02*
X129178572Y-109236065D01*
X129178572Y-109236065D02*
X129130953Y-109140827D01*
X129130953Y-109140827D02*
X129035715Y-109093208D01*
X129035715Y-109093208D02*
X128845239Y-109093208D01*
X128845239Y-109093208D02*
X128750001Y-109140827D01*
X129178572Y-109712256D02*
X129083334Y-109759875D01*
X129083334Y-109759875D02*
X128845239Y-109759875D01*
X128845239Y-109759875D02*
X128750001Y-109712256D01*
X128750001Y-109712256D02*
X128702382Y-109617017D01*
X128702382Y-109617017D02*
X128702382Y-109521779D01*
X128702382Y-109521779D02*
X128750001Y-109426541D01*
X128750001Y-109426541D02*
X128845239Y-109378922D01*
X128845239Y-109378922D02*
X129083334Y-109378922D01*
X129083334Y-109378922D02*
X129178572Y-109331303D01*
X129654763Y-109759875D02*
X129654763Y-109093208D01*
X129654763Y-109283684D02*
X129702382Y-109188446D01*
X129702382Y-109188446D02*
X129750001Y-109140827D01*
X129750001Y-109140827D02*
X129845239Y-109093208D01*
X129845239Y-109093208D02*
X129940477Y-109093208D01*
X130702382Y-109759875D02*
X130702382Y-108759875D01*
X130702382Y-109712256D02*
X130607144Y-109759875D01*
X130607144Y-109759875D02*
X130416668Y-109759875D01*
X130416668Y-109759875D02*
X130321430Y-109712256D01*
X130321430Y-109712256D02*
X130273811Y-109664636D01*
X130273811Y-109664636D02*
X130226192Y-109569398D01*
X130226192Y-109569398D02*
X130226192Y-109283684D01*
X130226192Y-109283684D02*
X130273811Y-109188446D01*
X130273811Y-109188446D02*
X130321430Y-109140827D01*
X130321430Y-109140827D02*
X130416668Y-109093208D01*
X130416668Y-109093208D02*
X130607144Y-109093208D01*
X130607144Y-109093208D02*
X130702382Y-109140827D01*
X131797621Y-108759875D02*
X132130954Y-109759875D01*
X132130954Y-109759875D02*
X132464287Y-108759875D01*
X133178573Y-109712256D02*
X133083335Y-109759875D01*
X133083335Y-109759875D02*
X132892859Y-109759875D01*
X132892859Y-109759875D02*
X132797621Y-109712256D01*
X132797621Y-109712256D02*
X132750002Y-109617017D01*
X132750002Y-109617017D02*
X132750002Y-109236065D01*
X132750002Y-109236065D02*
X132797621Y-109140827D01*
X132797621Y-109140827D02*
X132892859Y-109093208D01*
X132892859Y-109093208D02*
X133083335Y-109093208D01*
X133083335Y-109093208D02*
X133178573Y-109140827D01*
X133178573Y-109140827D02*
X133226192Y-109236065D01*
X133226192Y-109236065D02*
X133226192Y-109331303D01*
X133226192Y-109331303D02*
X132750002Y-109426541D01*
X133654764Y-109759875D02*
X133654764Y-109093208D01*
X133654764Y-109283684D02*
X133702383Y-109188446D01*
X133702383Y-109188446D02*
X133750002Y-109140827D01*
X133750002Y-109140827D02*
X133845240Y-109093208D01*
X133845240Y-109093208D02*
X133940478Y-109093208D01*
X134273812Y-109664636D02*
X134321431Y-109712256D01*
X134321431Y-109712256D02*
X134273812Y-109759875D01*
X134273812Y-109759875D02*
X134226193Y-109712256D01*
X134226193Y-109712256D02*
X134273812Y-109664636D01*
X134273812Y-109664636D02*
X134273812Y-109759875D01*
X136035716Y-109759875D02*
X135464288Y-109759875D01*
X135750002Y-109759875D02*
X135750002Y-108759875D01*
X135750002Y-108759875D02*
X135654764Y-108902732D01*
X135654764Y-108902732D02*
X135559526Y-108997970D01*
X135559526Y-108997970D02*
X135464288Y-109045589D01*
X112607140Y-111274580D02*
X112559521Y-111322200D01*
X112559521Y-111322200D02*
X112416664Y-111369819D01*
X112416664Y-111369819D02*
X112321426Y-111369819D01*
X112321426Y-111369819D02*
X112178569Y-111322200D01*
X112178569Y-111322200D02*
X112083331Y-111226961D01*
X112083331Y-111226961D02*
X112035712Y-111131723D01*
X112035712Y-111131723D02*
X111988093Y-110941247D01*
X111988093Y-110941247D02*
X111988093Y-110798390D01*
X111988093Y-110798390D02*
X112035712Y-110607914D01*
X112035712Y-110607914D02*
X112083331Y-110512676D01*
X112083331Y-110512676D02*
X112178569Y-110417438D01*
X112178569Y-110417438D02*
X112321426Y-110369819D01*
X112321426Y-110369819D02*
X112416664Y-110369819D01*
X112416664Y-110369819D02*
X112559521Y-110417438D01*
X112559521Y-110417438D02*
X112607140Y-110465057D01*
X113035712Y-111369819D02*
X113035712Y-110703152D01*
X113035712Y-110893628D02*
X113083331Y-110798390D01*
X113083331Y-110798390D02*
X113130950Y-110750771D01*
X113130950Y-110750771D02*
X113226188Y-110703152D01*
X113226188Y-110703152D02*
X113321426Y-110703152D01*
X114035712Y-111322200D02*
X113940474Y-111369819D01*
X113940474Y-111369819D02*
X113749998Y-111369819D01*
X113749998Y-111369819D02*
X113654760Y-111322200D01*
X113654760Y-111322200D02*
X113607141Y-111226961D01*
X113607141Y-111226961D02*
X113607141Y-110846009D01*
X113607141Y-110846009D02*
X113654760Y-110750771D01*
X113654760Y-110750771D02*
X113749998Y-110703152D01*
X113749998Y-110703152D02*
X113940474Y-110703152D01*
X113940474Y-110703152D02*
X114035712Y-110750771D01*
X114035712Y-110750771D02*
X114083331Y-110846009D01*
X114083331Y-110846009D02*
X114083331Y-110941247D01*
X114083331Y-110941247D02*
X113607141Y-111036485D01*
X114940474Y-111369819D02*
X114940474Y-110846009D01*
X114940474Y-110846009D02*
X114892855Y-110750771D01*
X114892855Y-110750771D02*
X114797617Y-110703152D01*
X114797617Y-110703152D02*
X114607141Y-110703152D01*
X114607141Y-110703152D02*
X114511903Y-110750771D01*
X114940474Y-111322200D02*
X114845236Y-111369819D01*
X114845236Y-111369819D02*
X114607141Y-111369819D01*
X114607141Y-111369819D02*
X114511903Y-111322200D01*
X114511903Y-111322200D02*
X114464284Y-111226961D01*
X114464284Y-111226961D02*
X114464284Y-111131723D01*
X114464284Y-111131723D02*
X114511903Y-111036485D01*
X114511903Y-111036485D02*
X114607141Y-110988866D01*
X114607141Y-110988866D02*
X114845236Y-110988866D01*
X114845236Y-110988866D02*
X114940474Y-110941247D01*
X115273808Y-110703152D02*
X115654760Y-110703152D01*
X115416665Y-110369819D02*
X115416665Y-111226961D01*
X115416665Y-111226961D02*
X115464284Y-111322200D01*
X115464284Y-111322200D02*
X115559522Y-111369819D01*
X115559522Y-111369819D02*
X115654760Y-111369819D01*
X116369046Y-111322200D02*
X116273808Y-111369819D01*
X116273808Y-111369819D02*
X116083332Y-111369819D01*
X116083332Y-111369819D02*
X115988094Y-111322200D01*
X115988094Y-111322200D02*
X115940475Y-111226961D01*
X115940475Y-111226961D02*
X115940475Y-110846009D01*
X115940475Y-110846009D02*
X115988094Y-110750771D01*
X115988094Y-110750771D02*
X116083332Y-110703152D01*
X116083332Y-110703152D02*
X116273808Y-110703152D01*
X116273808Y-110703152D02*
X116369046Y-110750771D01*
X116369046Y-110750771D02*
X116416665Y-110846009D01*
X116416665Y-110846009D02*
X116416665Y-110941247D01*
X116416665Y-110941247D02*
X115940475Y-111036485D01*
X117273808Y-111369819D02*
X117273808Y-110369819D01*
X117273808Y-111322200D02*
X117178570Y-111369819D01*
X117178570Y-111369819D02*
X116988094Y-111369819D01*
X116988094Y-111369819D02*
X116892856Y-111322200D01*
X116892856Y-111322200D02*
X116845237Y-111274580D01*
X116845237Y-111274580D02*
X116797618Y-111179342D01*
X116797618Y-111179342D02*
X116797618Y-110893628D01*
X116797618Y-110893628D02*
X116845237Y-110798390D01*
X116845237Y-110798390D02*
X116892856Y-110750771D01*
X116892856Y-110750771D02*
X116988094Y-110703152D01*
X116988094Y-110703152D02*
X117178570Y-110703152D01*
X117178570Y-110703152D02*
X117273808Y-110750771D01*
X118845237Y-110846009D02*
X118988094Y-110893628D01*
X118988094Y-110893628D02*
X119035713Y-110941247D01*
X119035713Y-110941247D02*
X119083332Y-111036485D01*
X119083332Y-111036485D02*
X119083332Y-111179342D01*
X119083332Y-111179342D02*
X119035713Y-111274580D01*
X119035713Y-111274580D02*
X118988094Y-111322200D01*
X118988094Y-111322200D02*
X118892856Y-111369819D01*
X118892856Y-111369819D02*
X118511904Y-111369819D01*
X118511904Y-111369819D02*
X118511904Y-110369819D01*
X118511904Y-110369819D02*
X118845237Y-110369819D01*
X118845237Y-110369819D02*
X118940475Y-110417438D01*
X118940475Y-110417438D02*
X118988094Y-110465057D01*
X118988094Y-110465057D02*
X119035713Y-110560295D01*
X119035713Y-110560295D02*
X119035713Y-110655533D01*
X119035713Y-110655533D02*
X118988094Y-110750771D01*
X118988094Y-110750771D02*
X118940475Y-110798390D01*
X118940475Y-110798390D02*
X118845237Y-110846009D01*
X118845237Y-110846009D02*
X118511904Y-110846009D01*
X119416666Y-110703152D02*
X119654761Y-111369819D01*
X119892856Y-110703152D02*
X119654761Y-111369819D01*
X119654761Y-111369819D02*
X119559523Y-111607914D01*
X119559523Y-111607914D02*
X119511904Y-111655533D01*
X119511904Y-111655533D02*
X119416666Y-111703152D01*
X120273809Y-111274580D02*
X120321428Y-111322200D01*
X120321428Y-111322200D02*
X120273809Y-111369819D01*
X120273809Y-111369819D02*
X120226190Y-111322200D01*
X120226190Y-111322200D02*
X120273809Y-111274580D01*
X120273809Y-111274580D02*
X120273809Y-111369819D01*
X120273809Y-110750771D02*
X120321428Y-110798390D01*
X120321428Y-110798390D02*
X120273809Y-110846009D01*
X120273809Y-110846009D02*
X120226190Y-110798390D01*
X120226190Y-110798390D02*
X120273809Y-110750771D01*
X120273809Y-110750771D02*
X120273809Y-110846009D01*
X121797618Y-110369819D02*
X121797618Y-111084104D01*
X121797618Y-111084104D02*
X121749999Y-111226961D01*
X121749999Y-111226961D02*
X121654761Y-111322200D01*
X121654761Y-111322200D02*
X121511904Y-111369819D01*
X121511904Y-111369819D02*
X121416666Y-111369819D01*
X122702380Y-111369819D02*
X122702380Y-110846009D01*
X122702380Y-110846009D02*
X122654761Y-110750771D01*
X122654761Y-110750771D02*
X122559523Y-110703152D01*
X122559523Y-110703152D02*
X122369047Y-110703152D01*
X122369047Y-110703152D02*
X122273809Y-110750771D01*
X122702380Y-111322200D02*
X122607142Y-111369819D01*
X122607142Y-111369819D02*
X122369047Y-111369819D01*
X122369047Y-111369819D02*
X122273809Y-111322200D01*
X122273809Y-111322200D02*
X122226190Y-111226961D01*
X122226190Y-111226961D02*
X122226190Y-111131723D01*
X122226190Y-111131723D02*
X122273809Y-111036485D01*
X122273809Y-111036485D02*
X122369047Y-110988866D01*
X122369047Y-110988866D02*
X122607142Y-110988866D01*
X122607142Y-110988866D02*
X122702380Y-110941247D01*
X123607142Y-111322200D02*
X123511904Y-111369819D01*
X123511904Y-111369819D02*
X123321428Y-111369819D01*
X123321428Y-111369819D02*
X123226190Y-111322200D01*
X123226190Y-111322200D02*
X123178571Y-111274580D01*
X123178571Y-111274580D02*
X123130952Y-111179342D01*
X123130952Y-111179342D02*
X123130952Y-110893628D01*
X123130952Y-110893628D02*
X123178571Y-110798390D01*
X123178571Y-110798390D02*
X123226190Y-110750771D01*
X123226190Y-110750771D02*
X123321428Y-110703152D01*
X123321428Y-110703152D02*
X123511904Y-110703152D01*
X123511904Y-110703152D02*
X123607142Y-110750771D01*
X124035714Y-111369819D02*
X124035714Y-110369819D01*
X124130952Y-110988866D02*
X124416666Y-111369819D01*
X124416666Y-110703152D02*
X124035714Y-111084104D01*
X125607143Y-111369819D02*
X125607143Y-110369819D01*
X125607143Y-110369819D02*
X125940476Y-111084104D01*
X125940476Y-111084104D02*
X126273809Y-110369819D01*
X126273809Y-110369819D02*
X126273809Y-111369819D01*
X127178571Y-111322200D02*
X127083333Y-111369819D01*
X127083333Y-111369819D02*
X126892857Y-111369819D01*
X126892857Y-111369819D02*
X126797619Y-111322200D01*
X126797619Y-111322200D02*
X126750000Y-111274580D01*
X126750000Y-111274580D02*
X126702381Y-111179342D01*
X126702381Y-111179342D02*
X126702381Y-110893628D01*
X126702381Y-110893628D02*
X126750000Y-110798390D01*
X126750000Y-110798390D02*
X126797619Y-110750771D01*
X126797619Y-110750771D02*
X126892857Y-110703152D01*
X126892857Y-110703152D02*
X127083333Y-110703152D01*
X127083333Y-110703152D02*
X127178571Y-110750771D01*
X127940476Y-110846009D02*
X128083333Y-110893628D01*
X128083333Y-110893628D02*
X128130952Y-110941247D01*
X128130952Y-110941247D02*
X128178571Y-111036485D01*
X128178571Y-111036485D02*
X128178571Y-111179342D01*
X128178571Y-111179342D02*
X128130952Y-111274580D01*
X128130952Y-111274580D02*
X128083333Y-111322200D01*
X128083333Y-111322200D02*
X127988095Y-111369819D01*
X127988095Y-111369819D02*
X127607143Y-111369819D01*
X127607143Y-111369819D02*
X127607143Y-110369819D01*
X127607143Y-110369819D02*
X127940476Y-110369819D01*
X127940476Y-110369819D02*
X128035714Y-110417438D01*
X128035714Y-110417438D02*
X128083333Y-110465057D01*
X128083333Y-110465057D02*
X128130952Y-110560295D01*
X128130952Y-110560295D02*
X128130952Y-110655533D01*
X128130952Y-110655533D02*
X128083333Y-110750771D01*
X128083333Y-110750771D02*
X128035714Y-110798390D01*
X128035714Y-110798390D02*
X127940476Y-110846009D01*
X127940476Y-110846009D02*
X127607143Y-110846009D01*
X128607143Y-111369819D02*
X128607143Y-110703152D01*
X128607143Y-110893628D02*
X128654762Y-110798390D01*
X128654762Y-110798390D02*
X128702381Y-110750771D01*
X128702381Y-110750771D02*
X128797619Y-110703152D01*
X128797619Y-110703152D02*
X128892857Y-110703152D01*
X129607143Y-111322200D02*
X129511905Y-111369819D01*
X129511905Y-111369819D02*
X129321429Y-111369819D01*
X129321429Y-111369819D02*
X129226191Y-111322200D01*
X129226191Y-111322200D02*
X129178572Y-111226961D01*
X129178572Y-111226961D02*
X129178572Y-110846009D01*
X129178572Y-110846009D02*
X129226191Y-110750771D01*
X129226191Y-110750771D02*
X129321429Y-110703152D01*
X129321429Y-110703152D02*
X129511905Y-110703152D01*
X129511905Y-110703152D02*
X129607143Y-110750771D01*
X129607143Y-110750771D02*
X129654762Y-110846009D01*
X129654762Y-110846009D02*
X129654762Y-110941247D01*
X129654762Y-110941247D02*
X129178572Y-111036485D01*
X130511905Y-111369819D02*
X130511905Y-110846009D01*
X130511905Y-110846009D02*
X130464286Y-110750771D01*
X130464286Y-110750771D02*
X130369048Y-110703152D01*
X130369048Y-110703152D02*
X130178572Y-110703152D01*
X130178572Y-110703152D02*
X130083334Y-110750771D01*
X130511905Y-111322200D02*
X130416667Y-111369819D01*
X130416667Y-111369819D02*
X130178572Y-111369819D01*
X130178572Y-111369819D02*
X130083334Y-111322200D01*
X130083334Y-111322200D02*
X130035715Y-111226961D01*
X130035715Y-111226961D02*
X130035715Y-111131723D01*
X130035715Y-111131723D02*
X130083334Y-111036485D01*
X130083334Y-111036485D02*
X130178572Y-110988866D01*
X130178572Y-110988866D02*
X130416667Y-110988866D01*
X130416667Y-110988866D02*
X130511905Y-110941247D01*
X130988096Y-111369819D02*
X130988096Y-110703152D01*
X130988096Y-110893628D02*
X131035715Y-110798390D01*
X131035715Y-110798390D02*
X131083334Y-110750771D01*
X131083334Y-110750771D02*
X131178572Y-110703152D01*
X131178572Y-110703152D02*
X131273810Y-110703152D01*
X131464287Y-110703152D02*
X131845239Y-110703152D01*
X131607144Y-110369819D02*
X131607144Y-111226961D01*
X131607144Y-111226961D02*
X131654763Y-111322200D01*
X131654763Y-111322200D02*
X131750001Y-111369819D01*
X131750001Y-111369819D02*
X131845239Y-111369819D01*
X132083335Y-110703152D02*
X132321430Y-111369819D01*
X132559525Y-110703152D02*
X132321430Y-111369819D01*
X132321430Y-111369819D02*
X132226192Y-111607914D01*
X132226192Y-111607914D02*
X132178573Y-111655533D01*
X132178573Y-111655533D02*
X132083335Y-111703152D01*
X98670112Y-68096009D02*
X98812969Y-68143628D01*
X98812969Y-68143628D02*
X98860588Y-68191247D01*
X98860588Y-68191247D02*
X98908207Y-68286485D01*
X98908207Y-68286485D02*
X98908207Y-68429342D01*
X98908207Y-68429342D02*
X98860588Y-68524580D01*
X98860588Y-68524580D02*
X98812969Y-68572200D01*
X98812969Y-68572200D02*
X98717731Y-68619819D01*
X98717731Y-68619819D02*
X98336779Y-68619819D01*
X98336779Y-68619819D02*
X98336779Y-67619819D01*
X98336779Y-67619819D02*
X98670112Y-67619819D01*
X98670112Y-67619819D02*
X98765350Y-67667438D01*
X98765350Y-67667438D02*
X98812969Y-67715057D01*
X98812969Y-67715057D02*
X98860588Y-67810295D01*
X98860588Y-67810295D02*
X98860588Y-67905533D01*
X98860588Y-67905533D02*
X98812969Y-68000771D01*
X98812969Y-68000771D02*
X98765350Y-68048390D01*
X98765350Y-68048390D02*
X98670112Y-68096009D01*
X98670112Y-68096009D02*
X98336779Y-68096009D01*
X99527255Y-67619819D02*
X99717731Y-67619819D01*
X99717731Y-67619819D02*
X99812969Y-67667438D01*
X99812969Y-67667438D02*
X99908207Y-67762676D01*
X99908207Y-67762676D02*
X99955826Y-67953152D01*
X99955826Y-67953152D02*
X99955826Y-68286485D01*
X99955826Y-68286485D02*
X99908207Y-68476961D01*
X99908207Y-68476961D02*
X99812969Y-68572200D01*
X99812969Y-68572200D02*
X99717731Y-68619819D01*
X99717731Y-68619819D02*
X99527255Y-68619819D01*
X99527255Y-68619819D02*
X99432017Y-68572200D01*
X99432017Y-68572200D02*
X99336779Y-68476961D01*
X99336779Y-68476961D02*
X99289160Y-68286485D01*
X99289160Y-68286485D02*
X99289160Y-67953152D01*
X99289160Y-67953152D02*
X99336779Y-67762676D01*
X99336779Y-67762676D02*
X99432017Y-67667438D01*
X99432017Y-67667438D02*
X99527255Y-67619819D01*
X100574874Y-67619819D02*
X100765350Y-67619819D01*
X100765350Y-67619819D02*
X100860588Y-67667438D01*
X100860588Y-67667438D02*
X100955826Y-67762676D01*
X100955826Y-67762676D02*
X101003445Y-67953152D01*
X101003445Y-67953152D02*
X101003445Y-68286485D01*
X101003445Y-68286485D02*
X100955826Y-68476961D01*
X100955826Y-68476961D02*
X100860588Y-68572200D01*
X100860588Y-68572200D02*
X100765350Y-68619819D01*
X100765350Y-68619819D02*
X100574874Y-68619819D01*
X100574874Y-68619819D02*
X100479636Y-68572200D01*
X100479636Y-68572200D02*
X100384398Y-68476961D01*
X100384398Y-68476961D02*
X100336779Y-68286485D01*
X100336779Y-68286485D02*
X100336779Y-67953152D01*
X100336779Y-67953152D02*
X100384398Y-67762676D01*
X100384398Y-67762676D02*
X100479636Y-67667438D01*
X100479636Y-67667438D02*
X100574874Y-67619819D01*
X101289160Y-67619819D02*
X101860588Y-67619819D01*
X101574874Y-68619819D02*
X101574874Y-67619819D01*
X134857142Y-91609580D02*
X134809523Y-91657200D01*
X134809523Y-91657200D02*
X134666666Y-91704819D01*
X134666666Y-91704819D02*
X134571428Y-91704819D01*
X134571428Y-91704819D02*
X134428571Y-91657200D01*
X134428571Y-91657200D02*
X134333333Y-91561961D01*
X134333333Y-91561961D02*
X134285714Y-91466723D01*
X134285714Y-91466723D02*
X134238095Y-91276247D01*
X134238095Y-91276247D02*
X134238095Y-91133390D01*
X134238095Y-91133390D02*
X134285714Y-90942914D01*
X134285714Y-90942914D02*
X134333333Y-90847676D01*
X134333333Y-90847676D02*
X134428571Y-90752438D01*
X134428571Y-90752438D02*
X134571428Y-90704819D01*
X134571428Y-90704819D02*
X134666666Y-90704819D01*
X134666666Y-90704819D02*
X134809523Y-90752438D01*
X134809523Y-90752438D02*
X134857142Y-90800057D01*
X135238095Y-90800057D02*
X135285714Y-90752438D01*
X135285714Y-90752438D02*
X135380952Y-90704819D01*
X135380952Y-90704819D02*
X135619047Y-90704819D01*
X135619047Y-90704819D02*
X135714285Y-90752438D01*
X135714285Y-90752438D02*
X135761904Y-90800057D01*
X135761904Y-90800057D02*
X135809523Y-90895295D01*
X135809523Y-90895295D02*
X135809523Y-90990533D01*
X135809523Y-90990533D02*
X135761904Y-91133390D01*
X135761904Y-91133390D02*
X135190476Y-91704819D01*
X135190476Y-91704819D02*
X135809523Y-91704819D01*
X136142857Y-90704819D02*
X136761904Y-90704819D01*
X136761904Y-90704819D02*
X136428571Y-91085771D01*
X136428571Y-91085771D02*
X136571428Y-91085771D01*
X136571428Y-91085771D02*
X136666666Y-91133390D01*
X136666666Y-91133390D02*
X136714285Y-91181009D01*
X136714285Y-91181009D02*
X136761904Y-91276247D01*
X136761904Y-91276247D02*
X136761904Y-91514342D01*
X136761904Y-91514342D02*
X136714285Y-91609580D01*
X136714285Y-91609580D02*
X136666666Y-91657200D01*
X136666666Y-91657200D02*
X136571428Y-91704819D01*
X136571428Y-91704819D02*
X136285714Y-91704819D01*
X136285714Y-91704819D02*
X136190476Y-91657200D01*
X136190476Y-91657200D02*
X136142857Y-91609580D01*
X110833333Y-89454819D02*
X110500000Y-88978628D01*
X110261905Y-89454819D02*
X110261905Y-88454819D01*
X110261905Y-88454819D02*
X110642857Y-88454819D01*
X110642857Y-88454819D02*
X110738095Y-88502438D01*
X110738095Y-88502438D02*
X110785714Y-88550057D01*
X110785714Y-88550057D02*
X110833333Y-88645295D01*
X110833333Y-88645295D02*
X110833333Y-88788152D01*
X110833333Y-88788152D02*
X110785714Y-88883390D01*
X110785714Y-88883390D02*
X110738095Y-88931009D01*
X110738095Y-88931009D02*
X110642857Y-88978628D01*
X110642857Y-88978628D02*
X110261905Y-88978628D01*
X111166667Y-88454819D02*
X111785714Y-88454819D01*
X111785714Y-88454819D02*
X111452381Y-88835771D01*
X111452381Y-88835771D02*
X111595238Y-88835771D01*
X111595238Y-88835771D02*
X111690476Y-88883390D01*
X111690476Y-88883390D02*
X111738095Y-88931009D01*
X111738095Y-88931009D02*
X111785714Y-89026247D01*
X111785714Y-89026247D02*
X111785714Y-89264342D01*
X111785714Y-89264342D02*
X111738095Y-89359580D01*
X111738095Y-89359580D02*
X111690476Y-89407200D01*
X111690476Y-89407200D02*
X111595238Y-89454819D01*
X111595238Y-89454819D02*
X111309524Y-89454819D01*
X111309524Y-89454819D02*
X111214286Y-89407200D01*
X111214286Y-89407200D02*
X111166667Y-89359580D01*
X104299405Y-93954819D02*
X104299405Y-92954819D01*
X104299405Y-92954819D02*
X104537500Y-92954819D01*
X104537500Y-92954819D02*
X104680357Y-93002438D01*
X104680357Y-93002438D02*
X104775595Y-93097676D01*
X104775595Y-93097676D02*
X104823214Y-93192914D01*
X104823214Y-93192914D02*
X104870833Y-93383390D01*
X104870833Y-93383390D02*
X104870833Y-93526247D01*
X104870833Y-93526247D02*
X104823214Y-93716723D01*
X104823214Y-93716723D02*
X104775595Y-93811961D01*
X104775595Y-93811961D02*
X104680357Y-93907200D01*
X104680357Y-93907200D02*
X104537500Y-93954819D01*
X104537500Y-93954819D02*
X104299405Y-93954819D01*
X105775595Y-92954819D02*
X105299405Y-92954819D01*
X105299405Y-92954819D02*
X105251786Y-93431009D01*
X105251786Y-93431009D02*
X105299405Y-93383390D01*
X105299405Y-93383390D02*
X105394643Y-93335771D01*
X105394643Y-93335771D02*
X105632738Y-93335771D01*
X105632738Y-93335771D02*
X105727976Y-93383390D01*
X105727976Y-93383390D02*
X105775595Y-93431009D01*
X105775595Y-93431009D02*
X105823214Y-93526247D01*
X105823214Y-93526247D02*
X105823214Y-93764342D01*
X105823214Y-93764342D02*
X105775595Y-93859580D01*
X105775595Y-93859580D02*
X105727976Y-93907200D01*
X105727976Y-93907200D02*
X105632738Y-93954819D01*
X105632738Y-93954819D02*
X105394643Y-93954819D01*
X105394643Y-93954819D02*
X105299405Y-93907200D01*
X105299405Y-93907200D02*
X105251786Y-93859580D01*
X135583333Y-81359580D02*
X135535714Y-81407200D01*
X135535714Y-81407200D02*
X135392857Y-81454819D01*
X135392857Y-81454819D02*
X135297619Y-81454819D01*
X135297619Y-81454819D02*
X135154762Y-81407200D01*
X135154762Y-81407200D02*
X135059524Y-81311961D01*
X135059524Y-81311961D02*
X135011905Y-81216723D01*
X135011905Y-81216723D02*
X134964286Y-81026247D01*
X134964286Y-81026247D02*
X134964286Y-80883390D01*
X134964286Y-80883390D02*
X135011905Y-80692914D01*
X135011905Y-80692914D02*
X135059524Y-80597676D01*
X135059524Y-80597676D02*
X135154762Y-80502438D01*
X135154762Y-80502438D02*
X135297619Y-80454819D01*
X135297619Y-80454819D02*
X135392857Y-80454819D01*
X135392857Y-80454819D02*
X135535714Y-80502438D01*
X135535714Y-80502438D02*
X135583333Y-80550057D01*
X136154762Y-80883390D02*
X136059524Y-80835771D01*
X136059524Y-80835771D02*
X136011905Y-80788152D01*
X136011905Y-80788152D02*
X135964286Y-80692914D01*
X135964286Y-80692914D02*
X135964286Y-80645295D01*
X135964286Y-80645295D02*
X136011905Y-80550057D01*
X136011905Y-80550057D02*
X136059524Y-80502438D01*
X136059524Y-80502438D02*
X136154762Y-80454819D01*
X136154762Y-80454819D02*
X136345238Y-80454819D01*
X136345238Y-80454819D02*
X136440476Y-80502438D01*
X136440476Y-80502438D02*
X136488095Y-80550057D01*
X136488095Y-80550057D02*
X136535714Y-80645295D01*
X136535714Y-80645295D02*
X136535714Y-80692914D01*
X136535714Y-80692914D02*
X136488095Y-80788152D01*
X136488095Y-80788152D02*
X136440476Y-80835771D01*
X136440476Y-80835771D02*
X136345238Y-80883390D01*
X136345238Y-80883390D02*
X136154762Y-80883390D01*
X136154762Y-80883390D02*
X136059524Y-80931009D01*
X136059524Y-80931009D02*
X136011905Y-80978628D01*
X136011905Y-80978628D02*
X135964286Y-81073866D01*
X135964286Y-81073866D02*
X135964286Y-81264342D01*
X135964286Y-81264342D02*
X136011905Y-81359580D01*
X136011905Y-81359580D02*
X136059524Y-81407200D01*
X136059524Y-81407200D02*
X136154762Y-81454819D01*
X136154762Y-81454819D02*
X136345238Y-81454819D01*
X136345238Y-81454819D02*
X136440476Y-81407200D01*
X136440476Y-81407200D02*
X136488095Y-81359580D01*
X136488095Y-81359580D02*
X136535714Y-81264342D01*
X136535714Y-81264342D02*
X136535714Y-81073866D01*
X136535714Y-81073866D02*
X136488095Y-80978628D01*
X136488095Y-80978628D02*
X136440476Y-80931009D01*
X136440476Y-80931009D02*
X136345238Y-80883390D01*
X115583333Y-78609580D02*
X115535714Y-78657200D01*
X115535714Y-78657200D02*
X115392857Y-78704819D01*
X115392857Y-78704819D02*
X115297619Y-78704819D01*
X115297619Y-78704819D02*
X115154762Y-78657200D01*
X115154762Y-78657200D02*
X115059524Y-78561961D01*
X115059524Y-78561961D02*
X115011905Y-78466723D01*
X115011905Y-78466723D02*
X114964286Y-78276247D01*
X114964286Y-78276247D02*
X114964286Y-78133390D01*
X114964286Y-78133390D02*
X115011905Y-77942914D01*
X115011905Y-77942914D02*
X115059524Y-77847676D01*
X115059524Y-77847676D02*
X115154762Y-77752438D01*
X115154762Y-77752438D02*
X115297619Y-77704819D01*
X115297619Y-77704819D02*
X115392857Y-77704819D01*
X115392857Y-77704819D02*
X115535714Y-77752438D01*
X115535714Y-77752438D02*
X115583333Y-77800057D01*
X116440476Y-77704819D02*
X116250000Y-77704819D01*
X116250000Y-77704819D02*
X116154762Y-77752438D01*
X116154762Y-77752438D02*
X116107143Y-77800057D01*
X116107143Y-77800057D02*
X116011905Y-77942914D01*
X116011905Y-77942914D02*
X115964286Y-78133390D01*
X115964286Y-78133390D02*
X115964286Y-78514342D01*
X115964286Y-78514342D02*
X116011905Y-78609580D01*
X116011905Y-78609580D02*
X116059524Y-78657200D01*
X116059524Y-78657200D02*
X116154762Y-78704819D01*
X116154762Y-78704819D02*
X116345238Y-78704819D01*
X116345238Y-78704819D02*
X116440476Y-78657200D01*
X116440476Y-78657200D02*
X116488095Y-78609580D01*
X116488095Y-78609580D02*
X116535714Y-78514342D01*
X116535714Y-78514342D02*
X116535714Y-78276247D01*
X116535714Y-78276247D02*
X116488095Y-78181009D01*
X116488095Y-78181009D02*
X116440476Y-78133390D01*
X116440476Y-78133390D02*
X116345238Y-78085771D01*
X116345238Y-78085771D02*
X116154762Y-78085771D01*
X116154762Y-78085771D02*
X116059524Y-78133390D01*
X116059524Y-78133390D02*
X116011905Y-78181009D01*
X116011905Y-78181009D02*
X115964286Y-78276247D01*
X111833333Y-91609580D02*
X111785714Y-91657200D01*
X111785714Y-91657200D02*
X111642857Y-91704819D01*
X111642857Y-91704819D02*
X111547619Y-91704819D01*
X111547619Y-91704819D02*
X111404762Y-91657200D01*
X111404762Y-91657200D02*
X111309524Y-91561961D01*
X111309524Y-91561961D02*
X111261905Y-91466723D01*
X111261905Y-91466723D02*
X111214286Y-91276247D01*
X111214286Y-91276247D02*
X111214286Y-91133390D01*
X111214286Y-91133390D02*
X111261905Y-90942914D01*
X111261905Y-90942914D02*
X111309524Y-90847676D01*
X111309524Y-90847676D02*
X111404762Y-90752438D01*
X111404762Y-90752438D02*
X111547619Y-90704819D01*
X111547619Y-90704819D02*
X111642857Y-90704819D01*
X111642857Y-90704819D02*
X111785714Y-90752438D01*
X111785714Y-90752438D02*
X111833333Y-90800057D01*
X112690476Y-91038152D02*
X112690476Y-91704819D01*
X112452381Y-90657200D02*
X112214286Y-91371485D01*
X112214286Y-91371485D02*
X112833333Y-91371485D01*
X137916666Y-88431009D02*
X137583333Y-88431009D01*
X137583333Y-88954819D02*
X137583333Y-87954819D01*
X137583333Y-87954819D02*
X138059523Y-87954819D01*
X138773809Y-88431009D02*
X138916666Y-88478628D01*
X138916666Y-88478628D02*
X138964285Y-88526247D01*
X138964285Y-88526247D02*
X139011904Y-88621485D01*
X139011904Y-88621485D02*
X139011904Y-88764342D01*
X139011904Y-88764342D02*
X138964285Y-88859580D01*
X138964285Y-88859580D02*
X138916666Y-88907200D01*
X138916666Y-88907200D02*
X138821428Y-88954819D01*
X138821428Y-88954819D02*
X138440476Y-88954819D01*
X138440476Y-88954819D02*
X138440476Y-87954819D01*
X138440476Y-87954819D02*
X138773809Y-87954819D01*
X138773809Y-87954819D02*
X138869047Y-88002438D01*
X138869047Y-88002438D02*
X138916666Y-88050057D01*
X138916666Y-88050057D02*
X138964285Y-88145295D01*
X138964285Y-88145295D02*
X138964285Y-88240533D01*
X138964285Y-88240533D02*
X138916666Y-88335771D01*
X138916666Y-88335771D02*
X138869047Y-88383390D01*
X138869047Y-88383390D02*
X138773809Y-88431009D01*
X138773809Y-88431009D02*
X138440476Y-88431009D01*
X139392857Y-88050057D02*
X139440476Y-88002438D01*
X139440476Y-88002438D02*
X139535714Y-87954819D01*
X139535714Y-87954819D02*
X139773809Y-87954819D01*
X139773809Y-87954819D02*
X139869047Y-88002438D01*
X139869047Y-88002438D02*
X139916666Y-88050057D01*
X139916666Y-88050057D02*
X139964285Y-88145295D01*
X139964285Y-88145295D02*
X139964285Y-88240533D01*
X139964285Y-88240533D02*
X139916666Y-88383390D01*
X139916666Y-88383390D02*
X139345238Y-88954819D01*
X139345238Y-88954819D02*
X139964285Y-88954819D01*
X117857142Y-104109580D02*
X117809523Y-104157200D01*
X117809523Y-104157200D02*
X117666666Y-104204819D01*
X117666666Y-104204819D02*
X117571428Y-104204819D01*
X117571428Y-104204819D02*
X117428571Y-104157200D01*
X117428571Y-104157200D02*
X117333333Y-104061961D01*
X117333333Y-104061961D02*
X117285714Y-103966723D01*
X117285714Y-103966723D02*
X117238095Y-103776247D01*
X117238095Y-103776247D02*
X117238095Y-103633390D01*
X117238095Y-103633390D02*
X117285714Y-103442914D01*
X117285714Y-103442914D02*
X117333333Y-103347676D01*
X117333333Y-103347676D02*
X117428571Y-103252438D01*
X117428571Y-103252438D02*
X117571428Y-103204819D01*
X117571428Y-103204819D02*
X117666666Y-103204819D01*
X117666666Y-103204819D02*
X117809523Y-103252438D01*
X117809523Y-103252438D02*
X117857142Y-103300057D01*
X118809523Y-104204819D02*
X118238095Y-104204819D01*
X118523809Y-104204819D02*
X118523809Y-103204819D01*
X118523809Y-103204819D02*
X118428571Y-103347676D01*
X118428571Y-103347676D02*
X118333333Y-103442914D01*
X118333333Y-103442914D02*
X118238095Y-103490533D01*
X119142857Y-103204819D02*
X119809523Y-103204819D01*
X119809523Y-103204819D02*
X119380952Y-104204819D01*
X122761905Y-100204819D02*
X122761905Y-99204819D01*
X122761905Y-99204819D02*
X123000000Y-99204819D01*
X123000000Y-99204819D02*
X123142857Y-99252438D01*
X123142857Y-99252438D02*
X123238095Y-99347676D01*
X123238095Y-99347676D02*
X123285714Y-99442914D01*
X123285714Y-99442914D02*
X123333333Y-99633390D01*
X123333333Y-99633390D02*
X123333333Y-99776247D01*
X123333333Y-99776247D02*
X123285714Y-99966723D01*
X123285714Y-99966723D02*
X123238095Y-100061961D01*
X123238095Y-100061961D02*
X123142857Y-100157200D01*
X123142857Y-100157200D02*
X123000000Y-100204819D01*
X123000000Y-100204819D02*
X122761905Y-100204819D01*
X124285714Y-100204819D02*
X123714286Y-100204819D01*
X124000000Y-100204819D02*
X124000000Y-99204819D01*
X124000000Y-99204819D02*
X123904762Y-99347676D01*
X123904762Y-99347676D02*
X123809524Y-99442914D01*
X123809524Y-99442914D02*
X123714286Y-99490533D01*
X109857142Y-99359580D02*
X109809523Y-99407200D01*
X109809523Y-99407200D02*
X109666666Y-99454819D01*
X109666666Y-99454819D02*
X109571428Y-99454819D01*
X109571428Y-99454819D02*
X109428571Y-99407200D01*
X109428571Y-99407200D02*
X109333333Y-99311961D01*
X109333333Y-99311961D02*
X109285714Y-99216723D01*
X109285714Y-99216723D02*
X109238095Y-99026247D01*
X109238095Y-99026247D02*
X109238095Y-98883390D01*
X109238095Y-98883390D02*
X109285714Y-98692914D01*
X109285714Y-98692914D02*
X109333333Y-98597676D01*
X109333333Y-98597676D02*
X109428571Y-98502438D01*
X109428571Y-98502438D02*
X109571428Y-98454819D01*
X109571428Y-98454819D02*
X109666666Y-98454819D01*
X109666666Y-98454819D02*
X109809523Y-98502438D01*
X109809523Y-98502438D02*
X109857142Y-98550057D01*
X110809523Y-99454819D02*
X110238095Y-99454819D01*
X110523809Y-99454819D02*
X110523809Y-98454819D01*
X110523809Y-98454819D02*
X110428571Y-98597676D01*
X110428571Y-98597676D02*
X110333333Y-98692914D01*
X110333333Y-98692914D02*
X110238095Y-98740533D01*
X111666666Y-98788152D02*
X111666666Y-99454819D01*
X111428571Y-98407200D02*
X111190476Y-99121485D01*
X111190476Y-99121485D02*
X111809523Y-99121485D01*
X136357142Y-96609580D02*
X136309523Y-96657200D01*
X136309523Y-96657200D02*
X136166666Y-96704819D01*
X136166666Y-96704819D02*
X136071428Y-96704819D01*
X136071428Y-96704819D02*
X135928571Y-96657200D01*
X135928571Y-96657200D02*
X135833333Y-96561961D01*
X135833333Y-96561961D02*
X135785714Y-96466723D01*
X135785714Y-96466723D02*
X135738095Y-96276247D01*
X135738095Y-96276247D02*
X135738095Y-96133390D01*
X135738095Y-96133390D02*
X135785714Y-95942914D01*
X135785714Y-95942914D02*
X135833333Y-95847676D01*
X135833333Y-95847676D02*
X135928571Y-95752438D01*
X135928571Y-95752438D02*
X136071428Y-95704819D01*
X136071428Y-95704819D02*
X136166666Y-95704819D01*
X136166666Y-95704819D02*
X136309523Y-95752438D01*
X136309523Y-95752438D02*
X136357142Y-95800057D01*
X136738095Y-95800057D02*
X136785714Y-95752438D01*
X136785714Y-95752438D02*
X136880952Y-95704819D01*
X136880952Y-95704819D02*
X137119047Y-95704819D01*
X137119047Y-95704819D02*
X137214285Y-95752438D01*
X137214285Y-95752438D02*
X137261904Y-95800057D01*
X137261904Y-95800057D02*
X137309523Y-95895295D01*
X137309523Y-95895295D02*
X137309523Y-95990533D01*
X137309523Y-95990533D02*
X137261904Y-96133390D01*
X137261904Y-96133390D02*
X136690476Y-96704819D01*
X136690476Y-96704819D02*
X137309523Y-96704819D01*
X137928571Y-95704819D02*
X138023809Y-95704819D01*
X138023809Y-95704819D02*
X138119047Y-95752438D01*
X138119047Y-95752438D02*
X138166666Y-95800057D01*
X138166666Y-95800057D02*
X138214285Y-95895295D01*
X138214285Y-95895295D02*
X138261904Y-96085771D01*
X138261904Y-96085771D02*
X138261904Y-96323866D01*
X138261904Y-96323866D02*
X138214285Y-96514342D01*
X138214285Y-96514342D02*
X138166666Y-96609580D01*
X138166666Y-96609580D02*
X138119047Y-96657200D01*
X138119047Y-96657200D02*
X138023809Y-96704819D01*
X138023809Y-96704819D02*
X137928571Y-96704819D01*
X137928571Y-96704819D02*
X137833333Y-96657200D01*
X137833333Y-96657200D02*
X137785714Y-96609580D01*
X137785714Y-96609580D02*
X137738095Y-96514342D01*
X137738095Y-96514342D02*
X137690476Y-96323866D01*
X137690476Y-96323866D02*
X137690476Y-96085771D01*
X137690476Y-96085771D02*
X137738095Y-95895295D01*
X137738095Y-95895295D02*
X137785714Y-95800057D01*
X137785714Y-95800057D02*
X137833333Y-95752438D01*
X137833333Y-95752438D02*
X137928571Y-95704819D01*
X114333333Y-100704819D02*
X114000000Y-100228628D01*
X113761905Y-100704819D02*
X113761905Y-99704819D01*
X113761905Y-99704819D02*
X114142857Y-99704819D01*
X114142857Y-99704819D02*
X114238095Y-99752438D01*
X114238095Y-99752438D02*
X114285714Y-99800057D01*
X114285714Y-99800057D02*
X114333333Y-99895295D01*
X114333333Y-99895295D02*
X114333333Y-100038152D01*
X114333333Y-100038152D02*
X114285714Y-100133390D01*
X114285714Y-100133390D02*
X114238095Y-100181009D01*
X114238095Y-100181009D02*
X114142857Y-100228628D01*
X114142857Y-100228628D02*
X113761905Y-100228628D01*
X114714286Y-99800057D02*
X114761905Y-99752438D01*
X114761905Y-99752438D02*
X114857143Y-99704819D01*
X114857143Y-99704819D02*
X115095238Y-99704819D01*
X115095238Y-99704819D02*
X115190476Y-99752438D01*
X115190476Y-99752438D02*
X115238095Y-99800057D01*
X115238095Y-99800057D02*
X115285714Y-99895295D01*
X115285714Y-99895295D02*
X115285714Y-99990533D01*
X115285714Y-99990533D02*
X115238095Y-100133390D01*
X115238095Y-100133390D02*
X114666667Y-100704819D01*
X114666667Y-100704819D02*
X115285714Y-100704819D01*
X112833333Y-86859580D02*
X112785714Y-86907200D01*
X112785714Y-86907200D02*
X112642857Y-86954819D01*
X112642857Y-86954819D02*
X112547619Y-86954819D01*
X112547619Y-86954819D02*
X112404762Y-86907200D01*
X112404762Y-86907200D02*
X112309524Y-86811961D01*
X112309524Y-86811961D02*
X112261905Y-86716723D01*
X112261905Y-86716723D02*
X112214286Y-86526247D01*
X112214286Y-86526247D02*
X112214286Y-86383390D01*
X112214286Y-86383390D02*
X112261905Y-86192914D01*
X112261905Y-86192914D02*
X112309524Y-86097676D01*
X112309524Y-86097676D02*
X112404762Y-86002438D01*
X112404762Y-86002438D02*
X112547619Y-85954819D01*
X112547619Y-85954819D02*
X112642857Y-85954819D01*
X112642857Y-85954819D02*
X112785714Y-86002438D01*
X112785714Y-86002438D02*
X112833333Y-86050057D01*
X113166667Y-85954819D02*
X113785714Y-85954819D01*
X113785714Y-85954819D02*
X113452381Y-86335771D01*
X113452381Y-86335771D02*
X113595238Y-86335771D01*
X113595238Y-86335771D02*
X113690476Y-86383390D01*
X113690476Y-86383390D02*
X113738095Y-86431009D01*
X113738095Y-86431009D02*
X113785714Y-86526247D01*
X113785714Y-86526247D02*
X113785714Y-86764342D01*
X113785714Y-86764342D02*
X113738095Y-86859580D01*
X113738095Y-86859580D02*
X113690476Y-86907200D01*
X113690476Y-86907200D02*
X113595238Y-86954819D01*
X113595238Y-86954819D02*
X113309524Y-86954819D01*
X113309524Y-86954819D02*
X113214286Y-86907200D01*
X113214286Y-86907200D02*
X113166667Y-86859580D01*
X153659580Y-99392857D02*
X153707200Y-99440476D01*
X153707200Y-99440476D02*
X153754819Y-99583333D01*
X153754819Y-99583333D02*
X153754819Y-99678571D01*
X153754819Y-99678571D02*
X153707200Y-99821428D01*
X153707200Y-99821428D02*
X153611961Y-99916666D01*
X153611961Y-99916666D02*
X153516723Y-99964285D01*
X153516723Y-99964285D02*
X153326247Y-100011904D01*
X153326247Y-100011904D02*
X153183390Y-100011904D01*
X153183390Y-100011904D02*
X152992914Y-99964285D01*
X152992914Y-99964285D02*
X152897676Y-99916666D01*
X152897676Y-99916666D02*
X152802438Y-99821428D01*
X152802438Y-99821428D02*
X152754819Y-99678571D01*
X152754819Y-99678571D02*
X152754819Y-99583333D01*
X152754819Y-99583333D02*
X152802438Y-99440476D01*
X152802438Y-99440476D02*
X152850057Y-99392857D01*
X152850057Y-99011904D02*
X152802438Y-98964285D01*
X152802438Y-98964285D02*
X152754819Y-98869047D01*
X152754819Y-98869047D02*
X152754819Y-98630952D01*
X152754819Y-98630952D02*
X152802438Y-98535714D01*
X152802438Y-98535714D02*
X152850057Y-98488095D01*
X152850057Y-98488095D02*
X152945295Y-98440476D01*
X152945295Y-98440476D02*
X153040533Y-98440476D01*
X153040533Y-98440476D02*
X153183390Y-98488095D01*
X153183390Y-98488095D02*
X153754819Y-99059523D01*
X153754819Y-99059523D02*
X153754819Y-98440476D01*
X153088152Y-97583333D02*
X153754819Y-97583333D01*
X152707200Y-97821428D02*
X153421485Y-98059523D01*
X153421485Y-98059523D02*
X153421485Y-97440476D01*
X95083333Y-97454819D02*
X94750000Y-96978628D01*
X94511905Y-97454819D02*
X94511905Y-96454819D01*
X94511905Y-96454819D02*
X94892857Y-96454819D01*
X94892857Y-96454819D02*
X94988095Y-96502438D01*
X94988095Y-96502438D02*
X95035714Y-96550057D01*
X95035714Y-96550057D02*
X95083333Y-96645295D01*
X95083333Y-96645295D02*
X95083333Y-96788152D01*
X95083333Y-96788152D02*
X95035714Y-96883390D01*
X95035714Y-96883390D02*
X94988095Y-96931009D01*
X94988095Y-96931009D02*
X94892857Y-96978628D01*
X94892857Y-96978628D02*
X94511905Y-96978628D01*
X95654762Y-96883390D02*
X95559524Y-96835771D01*
X95559524Y-96835771D02*
X95511905Y-96788152D01*
X95511905Y-96788152D02*
X95464286Y-96692914D01*
X95464286Y-96692914D02*
X95464286Y-96645295D01*
X95464286Y-96645295D02*
X95511905Y-96550057D01*
X95511905Y-96550057D02*
X95559524Y-96502438D01*
X95559524Y-96502438D02*
X95654762Y-96454819D01*
X95654762Y-96454819D02*
X95845238Y-96454819D01*
X95845238Y-96454819D02*
X95940476Y-96502438D01*
X95940476Y-96502438D02*
X95988095Y-96550057D01*
X95988095Y-96550057D02*
X96035714Y-96645295D01*
X96035714Y-96645295D02*
X96035714Y-96692914D01*
X96035714Y-96692914D02*
X95988095Y-96788152D01*
X95988095Y-96788152D02*
X95940476Y-96835771D01*
X95940476Y-96835771D02*
X95845238Y-96883390D01*
X95845238Y-96883390D02*
X95654762Y-96883390D01*
X95654762Y-96883390D02*
X95559524Y-96931009D01*
X95559524Y-96931009D02*
X95511905Y-96978628D01*
X95511905Y-96978628D02*
X95464286Y-97073866D01*
X95464286Y-97073866D02*
X95464286Y-97264342D01*
X95464286Y-97264342D02*
X95511905Y-97359580D01*
X95511905Y-97359580D02*
X95559524Y-97407200D01*
X95559524Y-97407200D02*
X95654762Y-97454819D01*
X95654762Y-97454819D02*
X95845238Y-97454819D01*
X95845238Y-97454819D02*
X95940476Y-97407200D01*
X95940476Y-97407200D02*
X95988095Y-97359580D01*
X95988095Y-97359580D02*
X96035714Y-97264342D01*
X96035714Y-97264342D02*
X96035714Y-97073866D01*
X96035714Y-97073866D02*
X95988095Y-96978628D01*
X95988095Y-96978628D02*
X95940476Y-96931009D01*
X95940476Y-96931009D02*
X95845238Y-96883390D01*
X114083333Y-83109580D02*
X114035714Y-83157200D01*
X114035714Y-83157200D02*
X113892857Y-83204819D01*
X113892857Y-83204819D02*
X113797619Y-83204819D01*
X113797619Y-83204819D02*
X113654762Y-83157200D01*
X113654762Y-83157200D02*
X113559524Y-83061961D01*
X113559524Y-83061961D02*
X113511905Y-82966723D01*
X113511905Y-82966723D02*
X113464286Y-82776247D01*
X113464286Y-82776247D02*
X113464286Y-82633390D01*
X113464286Y-82633390D02*
X113511905Y-82442914D01*
X113511905Y-82442914D02*
X113559524Y-82347676D01*
X113559524Y-82347676D02*
X113654762Y-82252438D01*
X113654762Y-82252438D02*
X113797619Y-82204819D01*
X113797619Y-82204819D02*
X113892857Y-82204819D01*
X113892857Y-82204819D02*
X114035714Y-82252438D01*
X114035714Y-82252438D02*
X114083333Y-82300057D01*
X114464286Y-82300057D02*
X114511905Y-82252438D01*
X114511905Y-82252438D02*
X114607143Y-82204819D01*
X114607143Y-82204819D02*
X114845238Y-82204819D01*
X114845238Y-82204819D02*
X114940476Y-82252438D01*
X114940476Y-82252438D02*
X114988095Y-82300057D01*
X114988095Y-82300057D02*
X115035714Y-82395295D01*
X115035714Y-82395295D02*
X115035714Y-82490533D01*
X115035714Y-82490533D02*
X114988095Y-82633390D01*
X114988095Y-82633390D02*
X114416667Y-83204819D01*
X114416667Y-83204819D02*
X115035714Y-83204819D01*
X145107142Y-94954819D02*
X144773809Y-94478628D01*
X144535714Y-94954819D02*
X144535714Y-93954819D01*
X144535714Y-93954819D02*
X144916666Y-93954819D01*
X144916666Y-93954819D02*
X145011904Y-94002438D01*
X145011904Y-94002438D02*
X145059523Y-94050057D01*
X145059523Y-94050057D02*
X145107142Y-94145295D01*
X145107142Y-94145295D02*
X145107142Y-94288152D01*
X145107142Y-94288152D02*
X145059523Y-94383390D01*
X145059523Y-94383390D02*
X145011904Y-94431009D01*
X145011904Y-94431009D02*
X144916666Y-94478628D01*
X144916666Y-94478628D02*
X144535714Y-94478628D01*
X146059523Y-94954819D02*
X145488095Y-94954819D01*
X145773809Y-94954819D02*
X145773809Y-93954819D01*
X145773809Y-93954819D02*
X145678571Y-94097676D01*
X145678571Y-94097676D02*
X145583333Y-94192914D01*
X145583333Y-94192914D02*
X145488095Y-94240533D01*
X146392857Y-93954819D02*
X147011904Y-93954819D01*
X147011904Y-93954819D02*
X146678571Y-94335771D01*
X146678571Y-94335771D02*
X146821428Y-94335771D01*
X146821428Y-94335771D02*
X146916666Y-94383390D01*
X146916666Y-94383390D02*
X146964285Y-94431009D01*
X146964285Y-94431009D02*
X147011904Y-94526247D01*
X147011904Y-94526247D02*
X147011904Y-94764342D01*
X147011904Y-94764342D02*
X146964285Y-94859580D01*
X146964285Y-94859580D02*
X146916666Y-94907200D01*
X146916666Y-94907200D02*
X146821428Y-94954819D01*
X146821428Y-94954819D02*
X146535714Y-94954819D01*
X146535714Y-94954819D02*
X146440476Y-94907200D01*
X146440476Y-94907200D02*
X146392857Y-94859580D01*
X134857142Y-94109580D02*
X134809523Y-94157200D01*
X134809523Y-94157200D02*
X134666666Y-94204819D01*
X134666666Y-94204819D02*
X134571428Y-94204819D01*
X134571428Y-94204819D02*
X134428571Y-94157200D01*
X134428571Y-94157200D02*
X134333333Y-94061961D01*
X134333333Y-94061961D02*
X134285714Y-93966723D01*
X134285714Y-93966723D02*
X134238095Y-93776247D01*
X134238095Y-93776247D02*
X134238095Y-93633390D01*
X134238095Y-93633390D02*
X134285714Y-93442914D01*
X134285714Y-93442914D02*
X134333333Y-93347676D01*
X134333333Y-93347676D02*
X134428571Y-93252438D01*
X134428571Y-93252438D02*
X134571428Y-93204819D01*
X134571428Y-93204819D02*
X134666666Y-93204819D01*
X134666666Y-93204819D02*
X134809523Y-93252438D01*
X134809523Y-93252438D02*
X134857142Y-93300057D01*
X135809523Y-94204819D02*
X135238095Y-94204819D01*
X135523809Y-94204819D02*
X135523809Y-93204819D01*
X135523809Y-93204819D02*
X135428571Y-93347676D01*
X135428571Y-93347676D02*
X135333333Y-93442914D01*
X135333333Y-93442914D02*
X135238095Y-93490533D01*
X136285714Y-94204819D02*
X136476190Y-94204819D01*
X136476190Y-94204819D02*
X136571428Y-94157200D01*
X136571428Y-94157200D02*
X136619047Y-94109580D01*
X136619047Y-94109580D02*
X136714285Y-93966723D01*
X136714285Y-93966723D02*
X136761904Y-93776247D01*
X136761904Y-93776247D02*
X136761904Y-93395295D01*
X136761904Y-93395295D02*
X136714285Y-93300057D01*
X136714285Y-93300057D02*
X136666666Y-93252438D01*
X136666666Y-93252438D02*
X136571428Y-93204819D01*
X136571428Y-93204819D02*
X136380952Y-93204819D01*
X136380952Y-93204819D02*
X136285714Y-93252438D01*
X136285714Y-93252438D02*
X136238095Y-93300057D01*
X136238095Y-93300057D02*
X136190476Y-93395295D01*
X136190476Y-93395295D02*
X136190476Y-93633390D01*
X136190476Y-93633390D02*
X136238095Y-93728628D01*
X136238095Y-93728628D02*
X136285714Y-93776247D01*
X136285714Y-93776247D02*
X136380952Y-93823866D01*
X136380952Y-93823866D02*
X136571428Y-93823866D01*
X136571428Y-93823866D02*
X136666666Y-93776247D01*
X136666666Y-93776247D02*
X136714285Y-93728628D01*
X136714285Y-93728628D02*
X136761904Y-93633390D01*
X109666666Y-97431009D02*
X109333333Y-97431009D01*
X109333333Y-97954819D02*
X109333333Y-96954819D01*
X109333333Y-96954819D02*
X109809523Y-96954819D01*
X110523809Y-97431009D02*
X110666666Y-97478628D01*
X110666666Y-97478628D02*
X110714285Y-97526247D01*
X110714285Y-97526247D02*
X110761904Y-97621485D01*
X110761904Y-97621485D02*
X110761904Y-97764342D01*
X110761904Y-97764342D02*
X110714285Y-97859580D01*
X110714285Y-97859580D02*
X110666666Y-97907200D01*
X110666666Y-97907200D02*
X110571428Y-97954819D01*
X110571428Y-97954819D02*
X110190476Y-97954819D01*
X110190476Y-97954819D02*
X110190476Y-96954819D01*
X110190476Y-96954819D02*
X110523809Y-96954819D01*
X110523809Y-96954819D02*
X110619047Y-97002438D01*
X110619047Y-97002438D02*
X110666666Y-97050057D01*
X110666666Y-97050057D02*
X110714285Y-97145295D01*
X110714285Y-97145295D02*
X110714285Y-97240533D01*
X110714285Y-97240533D02*
X110666666Y-97335771D01*
X110666666Y-97335771D02*
X110619047Y-97383390D01*
X110619047Y-97383390D02*
X110523809Y-97431009D01*
X110523809Y-97431009D02*
X110190476Y-97431009D01*
X111714285Y-97954819D02*
X111142857Y-97954819D01*
X111428571Y-97954819D02*
X111428571Y-96954819D01*
X111428571Y-96954819D02*
X111333333Y-97097676D01*
X111333333Y-97097676D02*
X111238095Y-97192914D01*
X111238095Y-97192914D02*
X111142857Y-97240533D01*
X149107142Y-92704819D02*
X148773809Y-92228628D01*
X148535714Y-92704819D02*
X148535714Y-91704819D01*
X148535714Y-91704819D02*
X148916666Y-91704819D01*
X148916666Y-91704819D02*
X149011904Y-91752438D01*
X149011904Y-91752438D02*
X149059523Y-91800057D01*
X149059523Y-91800057D02*
X149107142Y-91895295D01*
X149107142Y-91895295D02*
X149107142Y-92038152D01*
X149107142Y-92038152D02*
X149059523Y-92133390D01*
X149059523Y-92133390D02*
X149011904Y-92181009D01*
X149011904Y-92181009D02*
X148916666Y-92228628D01*
X148916666Y-92228628D02*
X148535714Y-92228628D01*
X150059523Y-92704819D02*
X149488095Y-92704819D01*
X149773809Y-92704819D02*
X149773809Y-91704819D01*
X149773809Y-91704819D02*
X149678571Y-91847676D01*
X149678571Y-91847676D02*
X149583333Y-91942914D01*
X149583333Y-91942914D02*
X149488095Y-91990533D01*
X150440476Y-91800057D02*
X150488095Y-91752438D01*
X150488095Y-91752438D02*
X150583333Y-91704819D01*
X150583333Y-91704819D02*
X150821428Y-91704819D01*
X150821428Y-91704819D02*
X150916666Y-91752438D01*
X150916666Y-91752438D02*
X150964285Y-91800057D01*
X150964285Y-91800057D02*
X151011904Y-91895295D01*
X151011904Y-91895295D02*
X151011904Y-91990533D01*
X151011904Y-91990533D02*
X150964285Y-92133390D01*
X150964285Y-92133390D02*
X150392857Y-92704819D01*
X150392857Y-92704819D02*
X151011904Y-92704819D01*
X149357142Y-78454819D02*
X149023809Y-77978628D01*
X148785714Y-78454819D02*
X148785714Y-77454819D01*
X148785714Y-77454819D02*
X149166666Y-77454819D01*
X149166666Y-77454819D02*
X149261904Y-77502438D01*
X149261904Y-77502438D02*
X149309523Y-77550057D01*
X149309523Y-77550057D02*
X149357142Y-77645295D01*
X149357142Y-77645295D02*
X149357142Y-77788152D01*
X149357142Y-77788152D02*
X149309523Y-77883390D01*
X149309523Y-77883390D02*
X149261904Y-77931009D01*
X149261904Y-77931009D02*
X149166666Y-77978628D01*
X149166666Y-77978628D02*
X148785714Y-77978628D01*
X150309523Y-78454819D02*
X149738095Y-78454819D01*
X150023809Y-78454819D02*
X150023809Y-77454819D01*
X150023809Y-77454819D02*
X149928571Y-77597676D01*
X149928571Y-77597676D02*
X149833333Y-77692914D01*
X149833333Y-77692914D02*
X149738095Y-77740533D01*
X151261904Y-78454819D02*
X150690476Y-78454819D01*
X150976190Y-78454819D02*
X150976190Y-77454819D01*
X150976190Y-77454819D02*
X150880952Y-77597676D01*
X150880952Y-77597676D02*
X150785714Y-77692914D01*
X150785714Y-77692914D02*
X150690476Y-77740533D01*
X95083333Y-95704819D02*
X94750000Y-95228628D01*
X94511905Y-95704819D02*
X94511905Y-94704819D01*
X94511905Y-94704819D02*
X94892857Y-94704819D01*
X94892857Y-94704819D02*
X94988095Y-94752438D01*
X94988095Y-94752438D02*
X95035714Y-94800057D01*
X95035714Y-94800057D02*
X95083333Y-94895295D01*
X95083333Y-94895295D02*
X95083333Y-95038152D01*
X95083333Y-95038152D02*
X95035714Y-95133390D01*
X95035714Y-95133390D02*
X94988095Y-95181009D01*
X94988095Y-95181009D02*
X94892857Y-95228628D01*
X94892857Y-95228628D02*
X94511905Y-95228628D01*
X95988095Y-94704819D02*
X95511905Y-94704819D01*
X95511905Y-94704819D02*
X95464286Y-95181009D01*
X95464286Y-95181009D02*
X95511905Y-95133390D01*
X95511905Y-95133390D02*
X95607143Y-95085771D01*
X95607143Y-95085771D02*
X95845238Y-95085771D01*
X95845238Y-95085771D02*
X95940476Y-95133390D01*
X95940476Y-95133390D02*
X95988095Y-95181009D01*
X95988095Y-95181009D02*
X96035714Y-95276247D01*
X96035714Y-95276247D02*
X96035714Y-95514342D01*
X96035714Y-95514342D02*
X95988095Y-95609580D01*
X95988095Y-95609580D02*
X95940476Y-95657200D01*
X95940476Y-95657200D02*
X95845238Y-95704819D01*
X95845238Y-95704819D02*
X95607143Y-95704819D01*
X95607143Y-95704819D02*
X95511905Y-95657200D01*
X95511905Y-95657200D02*
X95464286Y-95609580D01*
X95083333Y-93954819D02*
X94750000Y-93478628D01*
X94511905Y-93954819D02*
X94511905Y-92954819D01*
X94511905Y-92954819D02*
X94892857Y-92954819D01*
X94892857Y-92954819D02*
X94988095Y-93002438D01*
X94988095Y-93002438D02*
X95035714Y-93050057D01*
X95035714Y-93050057D02*
X95083333Y-93145295D01*
X95083333Y-93145295D02*
X95083333Y-93288152D01*
X95083333Y-93288152D02*
X95035714Y-93383390D01*
X95035714Y-93383390D02*
X94988095Y-93431009D01*
X94988095Y-93431009D02*
X94892857Y-93478628D01*
X94892857Y-93478628D02*
X94511905Y-93478628D01*
X95559524Y-93954819D02*
X95750000Y-93954819D01*
X95750000Y-93954819D02*
X95845238Y-93907200D01*
X95845238Y-93907200D02*
X95892857Y-93859580D01*
X95892857Y-93859580D02*
X95988095Y-93716723D01*
X95988095Y-93716723D02*
X96035714Y-93526247D01*
X96035714Y-93526247D02*
X96035714Y-93145295D01*
X96035714Y-93145295D02*
X95988095Y-93050057D01*
X95988095Y-93050057D02*
X95940476Y-93002438D01*
X95940476Y-93002438D02*
X95845238Y-92954819D01*
X95845238Y-92954819D02*
X95654762Y-92954819D01*
X95654762Y-92954819D02*
X95559524Y-93002438D01*
X95559524Y-93002438D02*
X95511905Y-93050057D01*
X95511905Y-93050057D02*
X95464286Y-93145295D01*
X95464286Y-93145295D02*
X95464286Y-93383390D01*
X95464286Y-93383390D02*
X95511905Y-93478628D01*
X95511905Y-93478628D02*
X95559524Y-93526247D01*
X95559524Y-93526247D02*
X95654762Y-93573866D01*
X95654762Y-93573866D02*
X95845238Y-93573866D01*
X95845238Y-93573866D02*
X95940476Y-93526247D01*
X95940476Y-93526247D02*
X95988095Y-93478628D01*
X95988095Y-93478628D02*
X96035714Y-93383390D01*
X123238095Y-77704819D02*
X123238095Y-78514342D01*
X123238095Y-78514342D02*
X123285714Y-78609580D01*
X123285714Y-78609580D02*
X123333333Y-78657200D01*
X123333333Y-78657200D02*
X123428571Y-78704819D01*
X123428571Y-78704819D02*
X123619047Y-78704819D01*
X123619047Y-78704819D02*
X123714285Y-78657200D01*
X123714285Y-78657200D02*
X123761904Y-78609580D01*
X123761904Y-78609580D02*
X123809523Y-78514342D01*
X123809523Y-78514342D02*
X123809523Y-77704819D01*
X124809523Y-78704819D02*
X124238095Y-78704819D01*
X124523809Y-78704819D02*
X124523809Y-77704819D01*
X124523809Y-77704819D02*
X124428571Y-77847676D01*
X124428571Y-77847676D02*
X124333333Y-77942914D01*
X124333333Y-77942914D02*
X124238095Y-77990533D01*
X133857142Y-78029819D02*
X133523809Y-77553628D01*
X133285714Y-78029819D02*
X133285714Y-77029819D01*
X133285714Y-77029819D02*
X133666666Y-77029819D01*
X133666666Y-77029819D02*
X133761904Y-77077438D01*
X133761904Y-77077438D02*
X133809523Y-77125057D01*
X133809523Y-77125057D02*
X133857142Y-77220295D01*
X133857142Y-77220295D02*
X133857142Y-77363152D01*
X133857142Y-77363152D02*
X133809523Y-77458390D01*
X133809523Y-77458390D02*
X133761904Y-77506009D01*
X133761904Y-77506009D02*
X133666666Y-77553628D01*
X133666666Y-77553628D02*
X133285714Y-77553628D01*
X134809523Y-78029819D02*
X134238095Y-78029819D01*
X134523809Y-78029819D02*
X134523809Y-77029819D01*
X134523809Y-77029819D02*
X134428571Y-77172676D01*
X134428571Y-77172676D02*
X134333333Y-77267914D01*
X134333333Y-77267914D02*
X134238095Y-77315533D01*
X135428571Y-77029819D02*
X135523809Y-77029819D01*
X135523809Y-77029819D02*
X135619047Y-77077438D01*
X135619047Y-77077438D02*
X135666666Y-77125057D01*
X135666666Y-77125057D02*
X135714285Y-77220295D01*
X135714285Y-77220295D02*
X135761904Y-77410771D01*
X135761904Y-77410771D02*
X135761904Y-77648866D01*
X135761904Y-77648866D02*
X135714285Y-77839342D01*
X135714285Y-77839342D02*
X135666666Y-77934580D01*
X135666666Y-77934580D02*
X135619047Y-77982200D01*
X135619047Y-77982200D02*
X135523809Y-78029819D01*
X135523809Y-78029819D02*
X135428571Y-78029819D01*
X135428571Y-78029819D02*
X135333333Y-77982200D01*
X135333333Y-77982200D02*
X135285714Y-77934580D01*
X135285714Y-77934580D02*
X135238095Y-77839342D01*
X135238095Y-77839342D02*
X135190476Y-77648866D01*
X135190476Y-77648866D02*
X135190476Y-77410771D01*
X135190476Y-77410771D02*
X135238095Y-77220295D01*
X135238095Y-77220295D02*
X135285714Y-77125057D01*
X135285714Y-77125057D02*
X135333333Y-77077438D01*
X135333333Y-77077438D02*
X135428571Y-77029819D01*
X153609580Y-102392857D02*
X153657200Y-102440476D01*
X153657200Y-102440476D02*
X153704819Y-102583333D01*
X153704819Y-102583333D02*
X153704819Y-102678571D01*
X153704819Y-102678571D02*
X153657200Y-102821428D01*
X153657200Y-102821428D02*
X153561961Y-102916666D01*
X153561961Y-102916666D02*
X153466723Y-102964285D01*
X153466723Y-102964285D02*
X153276247Y-103011904D01*
X153276247Y-103011904D02*
X153133390Y-103011904D01*
X153133390Y-103011904D02*
X152942914Y-102964285D01*
X152942914Y-102964285D02*
X152847676Y-102916666D01*
X152847676Y-102916666D02*
X152752438Y-102821428D01*
X152752438Y-102821428D02*
X152704819Y-102678571D01*
X152704819Y-102678571D02*
X152704819Y-102583333D01*
X152704819Y-102583333D02*
X152752438Y-102440476D01*
X152752438Y-102440476D02*
X152800057Y-102392857D01*
X152800057Y-102011904D02*
X152752438Y-101964285D01*
X152752438Y-101964285D02*
X152704819Y-101869047D01*
X152704819Y-101869047D02*
X152704819Y-101630952D01*
X152704819Y-101630952D02*
X152752438Y-101535714D01*
X152752438Y-101535714D02*
X152800057Y-101488095D01*
X152800057Y-101488095D02*
X152895295Y-101440476D01*
X152895295Y-101440476D02*
X152990533Y-101440476D01*
X152990533Y-101440476D02*
X153133390Y-101488095D01*
X153133390Y-101488095D02*
X153704819Y-102059523D01*
X153704819Y-102059523D02*
X153704819Y-101440476D01*
X152704819Y-100535714D02*
X152704819Y-101011904D01*
X152704819Y-101011904D02*
X153181009Y-101059523D01*
X153181009Y-101059523D02*
X153133390Y-101011904D01*
X153133390Y-101011904D02*
X153085771Y-100916666D01*
X153085771Y-100916666D02*
X153085771Y-100678571D01*
X153085771Y-100678571D02*
X153133390Y-100583333D01*
X153133390Y-100583333D02*
X153181009Y-100535714D01*
X153181009Y-100535714D02*
X153276247Y-100488095D01*
X153276247Y-100488095D02*
X153514342Y-100488095D01*
X153514342Y-100488095D02*
X153609580Y-100535714D01*
X153609580Y-100535714D02*
X153657200Y-100583333D01*
X153657200Y-100583333D02*
X153704819Y-100678571D01*
X153704819Y-100678571D02*
X153704819Y-100916666D01*
X153704819Y-100916666D02*
X153657200Y-101011904D01*
X153657200Y-101011904D02*
X153609580Y-101059523D01*
X128083333Y-98609580D02*
X128035714Y-98657200D01*
X128035714Y-98657200D02*
X127892857Y-98704819D01*
X127892857Y-98704819D02*
X127797619Y-98704819D01*
X127797619Y-98704819D02*
X127654762Y-98657200D01*
X127654762Y-98657200D02*
X127559524Y-98561961D01*
X127559524Y-98561961D02*
X127511905Y-98466723D01*
X127511905Y-98466723D02*
X127464286Y-98276247D01*
X127464286Y-98276247D02*
X127464286Y-98133390D01*
X127464286Y-98133390D02*
X127511905Y-97942914D01*
X127511905Y-97942914D02*
X127559524Y-97847676D01*
X127559524Y-97847676D02*
X127654762Y-97752438D01*
X127654762Y-97752438D02*
X127797619Y-97704819D01*
X127797619Y-97704819D02*
X127892857Y-97704819D01*
X127892857Y-97704819D02*
X128035714Y-97752438D01*
X128035714Y-97752438D02*
X128083333Y-97800057D01*
X128416667Y-97704819D02*
X129083333Y-97704819D01*
X129083333Y-97704819D02*
X128654762Y-98704819D01*
X104299405Y-97454819D02*
X104299405Y-96454819D01*
X104299405Y-96454819D02*
X104537500Y-96454819D01*
X104537500Y-96454819D02*
X104680357Y-96502438D01*
X104680357Y-96502438D02*
X104775595Y-96597676D01*
X104775595Y-96597676D02*
X104823214Y-96692914D01*
X104823214Y-96692914D02*
X104870833Y-96883390D01*
X104870833Y-96883390D02*
X104870833Y-97026247D01*
X104870833Y-97026247D02*
X104823214Y-97216723D01*
X104823214Y-97216723D02*
X104775595Y-97311961D01*
X104775595Y-97311961D02*
X104680357Y-97407200D01*
X104680357Y-97407200D02*
X104537500Y-97454819D01*
X104537500Y-97454819D02*
X104299405Y-97454819D01*
X105727976Y-96788152D02*
X105727976Y-97454819D01*
X105489881Y-96407200D02*
X105251786Y-97121485D01*
X105251786Y-97121485D02*
X105870833Y-97121485D01*
X123333333Y-103454819D02*
X123000000Y-102978628D01*
X122761905Y-103454819D02*
X122761905Y-102454819D01*
X122761905Y-102454819D02*
X123142857Y-102454819D01*
X123142857Y-102454819D02*
X123238095Y-102502438D01*
X123238095Y-102502438D02*
X123285714Y-102550057D01*
X123285714Y-102550057D02*
X123333333Y-102645295D01*
X123333333Y-102645295D02*
X123333333Y-102788152D01*
X123333333Y-102788152D02*
X123285714Y-102883390D01*
X123285714Y-102883390D02*
X123238095Y-102931009D01*
X123238095Y-102931009D02*
X123142857Y-102978628D01*
X123142857Y-102978628D02*
X122761905Y-102978628D01*
X124190476Y-102788152D02*
X124190476Y-103454819D01*
X123952381Y-102407200D02*
X123714286Y-103121485D01*
X123714286Y-103121485D02*
X124333333Y-103121485D01*
X110357142Y-102359580D02*
X110309523Y-102407200D01*
X110309523Y-102407200D02*
X110166666Y-102454819D01*
X110166666Y-102454819D02*
X110071428Y-102454819D01*
X110071428Y-102454819D02*
X109928571Y-102407200D01*
X109928571Y-102407200D02*
X109833333Y-102311961D01*
X109833333Y-102311961D02*
X109785714Y-102216723D01*
X109785714Y-102216723D02*
X109738095Y-102026247D01*
X109738095Y-102026247D02*
X109738095Y-101883390D01*
X109738095Y-101883390D02*
X109785714Y-101692914D01*
X109785714Y-101692914D02*
X109833333Y-101597676D01*
X109833333Y-101597676D02*
X109928571Y-101502438D01*
X109928571Y-101502438D02*
X110071428Y-101454819D01*
X110071428Y-101454819D02*
X110166666Y-101454819D01*
X110166666Y-101454819D02*
X110309523Y-101502438D01*
X110309523Y-101502438D02*
X110357142Y-101550057D01*
X111309523Y-102454819D02*
X110738095Y-102454819D01*
X111023809Y-102454819D02*
X111023809Y-101454819D01*
X111023809Y-101454819D02*
X110928571Y-101597676D01*
X110928571Y-101597676D02*
X110833333Y-101692914D01*
X110833333Y-101692914D02*
X110738095Y-101740533D01*
X112214285Y-101454819D02*
X111738095Y-101454819D01*
X111738095Y-101454819D02*
X111690476Y-101931009D01*
X111690476Y-101931009D02*
X111738095Y-101883390D01*
X111738095Y-101883390D02*
X111833333Y-101835771D01*
X111833333Y-101835771D02*
X112071428Y-101835771D01*
X112071428Y-101835771D02*
X112166666Y-101883390D01*
X112166666Y-101883390D02*
X112214285Y-101931009D01*
X112214285Y-101931009D02*
X112261904Y-102026247D01*
X112261904Y-102026247D02*
X112261904Y-102264342D01*
X112261904Y-102264342D02*
X112214285Y-102359580D01*
X112214285Y-102359580D02*
X112166666Y-102407200D01*
X112166666Y-102407200D02*
X112071428Y-102454819D01*
X112071428Y-102454819D02*
X111833333Y-102454819D01*
X111833333Y-102454819D02*
X111738095Y-102407200D01*
X111738095Y-102407200D02*
X111690476Y-102359580D01*
X105857142Y-90609580D02*
X105809523Y-90657200D01*
X105809523Y-90657200D02*
X105666666Y-90704819D01*
X105666666Y-90704819D02*
X105571428Y-90704819D01*
X105571428Y-90704819D02*
X105428571Y-90657200D01*
X105428571Y-90657200D02*
X105333333Y-90561961D01*
X105333333Y-90561961D02*
X105285714Y-90466723D01*
X105285714Y-90466723D02*
X105238095Y-90276247D01*
X105238095Y-90276247D02*
X105238095Y-90133390D01*
X105238095Y-90133390D02*
X105285714Y-89942914D01*
X105285714Y-89942914D02*
X105333333Y-89847676D01*
X105333333Y-89847676D02*
X105428571Y-89752438D01*
X105428571Y-89752438D02*
X105571428Y-89704819D01*
X105571428Y-89704819D02*
X105666666Y-89704819D01*
X105666666Y-89704819D02*
X105809523Y-89752438D01*
X105809523Y-89752438D02*
X105857142Y-89800057D01*
X106809523Y-90704819D02*
X106238095Y-90704819D01*
X106523809Y-90704819D02*
X106523809Y-89704819D01*
X106523809Y-89704819D02*
X106428571Y-89847676D01*
X106428571Y-89847676D02*
X106333333Y-89942914D01*
X106333333Y-89942914D02*
X106238095Y-89990533D01*
X107380952Y-90133390D02*
X107285714Y-90085771D01*
X107285714Y-90085771D02*
X107238095Y-90038152D01*
X107238095Y-90038152D02*
X107190476Y-89942914D01*
X107190476Y-89942914D02*
X107190476Y-89895295D01*
X107190476Y-89895295D02*
X107238095Y-89800057D01*
X107238095Y-89800057D02*
X107285714Y-89752438D01*
X107285714Y-89752438D02*
X107380952Y-89704819D01*
X107380952Y-89704819D02*
X107571428Y-89704819D01*
X107571428Y-89704819D02*
X107666666Y-89752438D01*
X107666666Y-89752438D02*
X107714285Y-89800057D01*
X107714285Y-89800057D02*
X107761904Y-89895295D01*
X107761904Y-89895295D02*
X107761904Y-89942914D01*
X107761904Y-89942914D02*
X107714285Y-90038152D01*
X107714285Y-90038152D02*
X107666666Y-90085771D01*
X107666666Y-90085771D02*
X107571428Y-90133390D01*
X107571428Y-90133390D02*
X107380952Y-90133390D01*
X107380952Y-90133390D02*
X107285714Y-90181009D01*
X107285714Y-90181009D02*
X107238095Y-90228628D01*
X107238095Y-90228628D02*
X107190476Y-90323866D01*
X107190476Y-90323866D02*
X107190476Y-90514342D01*
X107190476Y-90514342D02*
X107238095Y-90609580D01*
X107238095Y-90609580D02*
X107285714Y-90657200D01*
X107285714Y-90657200D02*
X107380952Y-90704819D01*
X107380952Y-90704819D02*
X107571428Y-90704819D01*
X107571428Y-90704819D02*
X107666666Y-90657200D01*
X107666666Y-90657200D02*
X107714285Y-90609580D01*
X107714285Y-90609580D02*
X107761904Y-90514342D01*
X107761904Y-90514342D02*
X107761904Y-90323866D01*
X107761904Y-90323866D02*
X107714285Y-90228628D01*
X107714285Y-90228628D02*
X107666666Y-90181009D01*
X107666666Y-90181009D02*
X107571428Y-90133390D01*
X95083333Y-92204819D02*
X94750000Y-91728628D01*
X94511905Y-92204819D02*
X94511905Y-91204819D01*
X94511905Y-91204819D02*
X94892857Y-91204819D01*
X94892857Y-91204819D02*
X94988095Y-91252438D01*
X94988095Y-91252438D02*
X95035714Y-91300057D01*
X95035714Y-91300057D02*
X95083333Y-91395295D01*
X95083333Y-91395295D02*
X95083333Y-91538152D01*
X95083333Y-91538152D02*
X95035714Y-91633390D01*
X95035714Y-91633390D02*
X94988095Y-91681009D01*
X94988095Y-91681009D02*
X94892857Y-91728628D01*
X94892857Y-91728628D02*
X94511905Y-91728628D01*
X95940476Y-91204819D02*
X95750000Y-91204819D01*
X95750000Y-91204819D02*
X95654762Y-91252438D01*
X95654762Y-91252438D02*
X95607143Y-91300057D01*
X95607143Y-91300057D02*
X95511905Y-91442914D01*
X95511905Y-91442914D02*
X95464286Y-91633390D01*
X95464286Y-91633390D02*
X95464286Y-92014342D01*
X95464286Y-92014342D02*
X95511905Y-92109580D01*
X95511905Y-92109580D02*
X95559524Y-92157200D01*
X95559524Y-92157200D02*
X95654762Y-92204819D01*
X95654762Y-92204819D02*
X95845238Y-92204819D01*
X95845238Y-92204819D02*
X95940476Y-92157200D01*
X95940476Y-92157200D02*
X95988095Y-92109580D01*
X95988095Y-92109580D02*
X96035714Y-92014342D01*
X96035714Y-92014342D02*
X96035714Y-91776247D01*
X96035714Y-91776247D02*
X95988095Y-91681009D01*
X95988095Y-91681009D02*
X95940476Y-91633390D01*
X95940476Y-91633390D02*
X95845238Y-91585771D01*
X95845238Y-91585771D02*
X95654762Y-91585771D01*
X95654762Y-91585771D02*
X95559524Y-91633390D01*
X95559524Y-91633390D02*
X95511905Y-91681009D01*
X95511905Y-91681009D02*
X95464286Y-91776247D01*
X111333333Y-104454819D02*
X111000000Y-103978628D01*
X110761905Y-104454819D02*
X110761905Y-103454819D01*
X110761905Y-103454819D02*
X111142857Y-103454819D01*
X111142857Y-103454819D02*
X111238095Y-103502438D01*
X111238095Y-103502438D02*
X111285714Y-103550057D01*
X111285714Y-103550057D02*
X111333333Y-103645295D01*
X111333333Y-103645295D02*
X111333333Y-103788152D01*
X111333333Y-103788152D02*
X111285714Y-103883390D01*
X111285714Y-103883390D02*
X111238095Y-103931009D01*
X111238095Y-103931009D02*
X111142857Y-103978628D01*
X111142857Y-103978628D02*
X110761905Y-103978628D01*
X112285714Y-104454819D02*
X111714286Y-104454819D01*
X112000000Y-104454819D02*
X112000000Y-103454819D01*
X112000000Y-103454819D02*
X111904762Y-103597676D01*
X111904762Y-103597676D02*
X111809524Y-103692914D01*
X111809524Y-103692914D02*
X111714286Y-103740533D01*
X118357142Y-99609580D02*
X118309523Y-99657200D01*
X118309523Y-99657200D02*
X118166666Y-99704819D01*
X118166666Y-99704819D02*
X118071428Y-99704819D01*
X118071428Y-99704819D02*
X117928571Y-99657200D01*
X117928571Y-99657200D02*
X117833333Y-99561961D01*
X117833333Y-99561961D02*
X117785714Y-99466723D01*
X117785714Y-99466723D02*
X117738095Y-99276247D01*
X117738095Y-99276247D02*
X117738095Y-99133390D01*
X117738095Y-99133390D02*
X117785714Y-98942914D01*
X117785714Y-98942914D02*
X117833333Y-98847676D01*
X117833333Y-98847676D02*
X117928571Y-98752438D01*
X117928571Y-98752438D02*
X118071428Y-98704819D01*
X118071428Y-98704819D02*
X118166666Y-98704819D01*
X118166666Y-98704819D02*
X118309523Y-98752438D01*
X118309523Y-98752438D02*
X118357142Y-98800057D01*
X119309523Y-99704819D02*
X118738095Y-99704819D01*
X119023809Y-99704819D02*
X119023809Y-98704819D01*
X119023809Y-98704819D02*
X118928571Y-98847676D01*
X118928571Y-98847676D02*
X118833333Y-98942914D01*
X118833333Y-98942914D02*
X118738095Y-98990533D01*
X120261904Y-99704819D02*
X119690476Y-99704819D01*
X119976190Y-99704819D02*
X119976190Y-98704819D01*
X119976190Y-98704819D02*
X119880952Y-98847676D01*
X119880952Y-98847676D02*
X119785714Y-98942914D01*
X119785714Y-98942914D02*
X119690476Y-98990533D01*
X148357142Y-94954819D02*
X148023809Y-94478628D01*
X147785714Y-94954819D02*
X147785714Y-93954819D01*
X147785714Y-93954819D02*
X148166666Y-93954819D01*
X148166666Y-93954819D02*
X148261904Y-94002438D01*
X148261904Y-94002438D02*
X148309523Y-94050057D01*
X148309523Y-94050057D02*
X148357142Y-94145295D01*
X148357142Y-94145295D02*
X148357142Y-94288152D01*
X148357142Y-94288152D02*
X148309523Y-94383390D01*
X148309523Y-94383390D02*
X148261904Y-94431009D01*
X148261904Y-94431009D02*
X148166666Y-94478628D01*
X148166666Y-94478628D02*
X147785714Y-94478628D01*
X149309523Y-94954819D02*
X148738095Y-94954819D01*
X149023809Y-94954819D02*
X149023809Y-93954819D01*
X149023809Y-93954819D02*
X148928571Y-94097676D01*
X148928571Y-94097676D02*
X148833333Y-94192914D01*
X148833333Y-94192914D02*
X148738095Y-94240533D01*
X150166666Y-94288152D02*
X150166666Y-94954819D01*
X149928571Y-93907200D02*
X149690476Y-94621485D01*
X149690476Y-94621485D02*
X150309523Y-94621485D01*
X110107142Y-83609580D02*
X110059523Y-83657200D01*
X110059523Y-83657200D02*
X109916666Y-83704819D01*
X109916666Y-83704819D02*
X109821428Y-83704819D01*
X109821428Y-83704819D02*
X109678571Y-83657200D01*
X109678571Y-83657200D02*
X109583333Y-83561961D01*
X109583333Y-83561961D02*
X109535714Y-83466723D01*
X109535714Y-83466723D02*
X109488095Y-83276247D01*
X109488095Y-83276247D02*
X109488095Y-83133390D01*
X109488095Y-83133390D02*
X109535714Y-82942914D01*
X109535714Y-82942914D02*
X109583333Y-82847676D01*
X109583333Y-82847676D02*
X109678571Y-82752438D01*
X109678571Y-82752438D02*
X109821428Y-82704819D01*
X109821428Y-82704819D02*
X109916666Y-82704819D01*
X109916666Y-82704819D02*
X110059523Y-82752438D01*
X110059523Y-82752438D02*
X110107142Y-82800057D01*
X111059523Y-83704819D02*
X110488095Y-83704819D01*
X110773809Y-83704819D02*
X110773809Y-82704819D01*
X110773809Y-82704819D02*
X110678571Y-82847676D01*
X110678571Y-82847676D02*
X110583333Y-82942914D01*
X110583333Y-82942914D02*
X110488095Y-82990533D01*
X111916666Y-82704819D02*
X111726190Y-82704819D01*
X111726190Y-82704819D02*
X111630952Y-82752438D01*
X111630952Y-82752438D02*
X111583333Y-82800057D01*
X111583333Y-82800057D02*
X111488095Y-82942914D01*
X111488095Y-82942914D02*
X111440476Y-83133390D01*
X111440476Y-83133390D02*
X111440476Y-83514342D01*
X111440476Y-83514342D02*
X111488095Y-83609580D01*
X111488095Y-83609580D02*
X111535714Y-83657200D01*
X111535714Y-83657200D02*
X111630952Y-83704819D01*
X111630952Y-83704819D02*
X111821428Y-83704819D01*
X111821428Y-83704819D02*
X111916666Y-83657200D01*
X111916666Y-83657200D02*
X111964285Y-83609580D01*
X111964285Y-83609580D02*
X112011904Y-83514342D01*
X112011904Y-83514342D02*
X112011904Y-83276247D01*
X112011904Y-83276247D02*
X111964285Y-83181009D01*
X111964285Y-83181009D02*
X111916666Y-83133390D01*
X111916666Y-83133390D02*
X111821428Y-83085771D01*
X111821428Y-83085771D02*
X111630952Y-83085771D01*
X111630952Y-83085771D02*
X111535714Y-83133390D01*
X111535714Y-83133390D02*
X111488095Y-83181009D01*
X111488095Y-83181009D02*
X111440476Y-83276247D01*
X138100595Y-82704819D02*
X138100595Y-83514342D01*
X138100595Y-83514342D02*
X138148214Y-83609580D01*
X138148214Y-83609580D02*
X138195833Y-83657200D01*
X138195833Y-83657200D02*
X138291071Y-83704819D01*
X138291071Y-83704819D02*
X138481547Y-83704819D01*
X138481547Y-83704819D02*
X138576785Y-83657200D01*
X138576785Y-83657200D02*
X138624404Y-83609580D01*
X138624404Y-83609580D02*
X138672023Y-83514342D01*
X138672023Y-83514342D02*
X138672023Y-82704819D01*
X139052976Y-82704819D02*
X139672023Y-82704819D01*
X139672023Y-82704819D02*
X139338690Y-83085771D01*
X139338690Y-83085771D02*
X139481547Y-83085771D01*
X139481547Y-83085771D02*
X139576785Y-83133390D01*
X139576785Y-83133390D02*
X139624404Y-83181009D01*
X139624404Y-83181009D02*
X139672023Y-83276247D01*
X139672023Y-83276247D02*
X139672023Y-83514342D01*
X139672023Y-83514342D02*
X139624404Y-83609580D01*
X139624404Y-83609580D02*
X139576785Y-83657200D01*
X139576785Y-83657200D02*
X139481547Y-83704819D01*
X139481547Y-83704819D02*
X139195833Y-83704819D01*
X139195833Y-83704819D02*
X139100595Y-83657200D01*
X139100595Y-83657200D02*
X139052976Y-83609580D01*
X110583333Y-93609580D02*
X110535714Y-93657200D01*
X110535714Y-93657200D02*
X110392857Y-93704819D01*
X110392857Y-93704819D02*
X110297619Y-93704819D01*
X110297619Y-93704819D02*
X110154762Y-93657200D01*
X110154762Y-93657200D02*
X110059524Y-93561961D01*
X110059524Y-93561961D02*
X110011905Y-93466723D01*
X110011905Y-93466723D02*
X109964286Y-93276247D01*
X109964286Y-93276247D02*
X109964286Y-93133390D01*
X109964286Y-93133390D02*
X110011905Y-92942914D01*
X110011905Y-92942914D02*
X110059524Y-92847676D01*
X110059524Y-92847676D02*
X110154762Y-92752438D01*
X110154762Y-92752438D02*
X110297619Y-92704819D01*
X110297619Y-92704819D02*
X110392857Y-92704819D01*
X110392857Y-92704819D02*
X110535714Y-92752438D01*
X110535714Y-92752438D02*
X110583333Y-92800057D01*
X111488095Y-92704819D02*
X111011905Y-92704819D01*
X111011905Y-92704819D02*
X110964286Y-93181009D01*
X110964286Y-93181009D02*
X111011905Y-93133390D01*
X111011905Y-93133390D02*
X111107143Y-93085771D01*
X111107143Y-93085771D02*
X111345238Y-93085771D01*
X111345238Y-93085771D02*
X111440476Y-93133390D01*
X111440476Y-93133390D02*
X111488095Y-93181009D01*
X111488095Y-93181009D02*
X111535714Y-93276247D01*
X111535714Y-93276247D02*
X111535714Y-93514342D01*
X111535714Y-93514342D02*
X111488095Y-93609580D01*
X111488095Y-93609580D02*
X111440476Y-93657200D01*
X111440476Y-93657200D02*
X111345238Y-93704819D01*
X111345238Y-93704819D02*
X111107143Y-93704819D01*
X111107143Y-93704819D02*
X111011905Y-93657200D01*
X111011905Y-93657200D02*
X110964286Y-93609580D01*
X120833333Y-76454819D02*
X120500000Y-75978628D01*
X120261905Y-76454819D02*
X120261905Y-75454819D01*
X120261905Y-75454819D02*
X120642857Y-75454819D01*
X120642857Y-75454819D02*
X120738095Y-75502438D01*
X120738095Y-75502438D02*
X120785714Y-75550057D01*
X120785714Y-75550057D02*
X120833333Y-75645295D01*
X120833333Y-75645295D02*
X120833333Y-75788152D01*
X120833333Y-75788152D02*
X120785714Y-75883390D01*
X120785714Y-75883390D02*
X120738095Y-75931009D01*
X120738095Y-75931009D02*
X120642857Y-75978628D01*
X120642857Y-75978628D02*
X120261905Y-75978628D01*
X121166667Y-75454819D02*
X121833333Y-75454819D01*
X121833333Y-75454819D02*
X121404762Y-76454819D01*
X115333333Y-77109580D02*
X115285714Y-77157200D01*
X115285714Y-77157200D02*
X115142857Y-77204819D01*
X115142857Y-77204819D02*
X115047619Y-77204819D01*
X115047619Y-77204819D02*
X114904762Y-77157200D01*
X114904762Y-77157200D02*
X114809524Y-77061961D01*
X114809524Y-77061961D02*
X114761905Y-76966723D01*
X114761905Y-76966723D02*
X114714286Y-76776247D01*
X114714286Y-76776247D02*
X114714286Y-76633390D01*
X114714286Y-76633390D02*
X114761905Y-76442914D01*
X114761905Y-76442914D02*
X114809524Y-76347676D01*
X114809524Y-76347676D02*
X114904762Y-76252438D01*
X114904762Y-76252438D02*
X115047619Y-76204819D01*
X115047619Y-76204819D02*
X115142857Y-76204819D01*
X115142857Y-76204819D02*
X115285714Y-76252438D01*
X115285714Y-76252438D02*
X115333333Y-76300057D01*
X116285714Y-77204819D02*
X115714286Y-77204819D01*
X116000000Y-77204819D02*
X116000000Y-76204819D01*
X116000000Y-76204819D02*
X115904762Y-76347676D01*
X115904762Y-76347676D02*
X115809524Y-76442914D01*
X115809524Y-76442914D02*
X115714286Y-76490533D01*
X139488095Y-94704819D02*
X139488095Y-95514342D01*
X139488095Y-95514342D02*
X139535714Y-95609580D01*
X139535714Y-95609580D02*
X139583333Y-95657200D01*
X139583333Y-95657200D02*
X139678571Y-95704819D01*
X139678571Y-95704819D02*
X139869047Y-95704819D01*
X139869047Y-95704819D02*
X139964285Y-95657200D01*
X139964285Y-95657200D02*
X140011904Y-95609580D01*
X140011904Y-95609580D02*
X140059523Y-95514342D01*
X140059523Y-95514342D02*
X140059523Y-94704819D01*
X140488095Y-94800057D02*
X140535714Y-94752438D01*
X140535714Y-94752438D02*
X140630952Y-94704819D01*
X140630952Y-94704819D02*
X140869047Y-94704819D01*
X140869047Y-94704819D02*
X140964285Y-94752438D01*
X140964285Y-94752438D02*
X141011904Y-94800057D01*
X141011904Y-94800057D02*
X141059523Y-94895295D01*
X141059523Y-94895295D02*
X141059523Y-94990533D01*
X141059523Y-94990533D02*
X141011904Y-95133390D01*
X141011904Y-95133390D02*
X140440476Y-95704819D01*
X140440476Y-95704819D02*
X141059523Y-95704819D01*
X134583333Y-84609580D02*
X134535714Y-84657200D01*
X134535714Y-84657200D02*
X134392857Y-84704819D01*
X134392857Y-84704819D02*
X134297619Y-84704819D01*
X134297619Y-84704819D02*
X134154762Y-84657200D01*
X134154762Y-84657200D02*
X134059524Y-84561961D01*
X134059524Y-84561961D02*
X134011905Y-84466723D01*
X134011905Y-84466723D02*
X133964286Y-84276247D01*
X133964286Y-84276247D02*
X133964286Y-84133390D01*
X133964286Y-84133390D02*
X134011905Y-83942914D01*
X134011905Y-83942914D02*
X134059524Y-83847676D01*
X134059524Y-83847676D02*
X134154762Y-83752438D01*
X134154762Y-83752438D02*
X134297619Y-83704819D01*
X134297619Y-83704819D02*
X134392857Y-83704819D01*
X134392857Y-83704819D02*
X134535714Y-83752438D01*
X134535714Y-83752438D02*
X134583333Y-83800057D01*
X135059524Y-84704819D02*
X135250000Y-84704819D01*
X135250000Y-84704819D02*
X135345238Y-84657200D01*
X135345238Y-84657200D02*
X135392857Y-84609580D01*
X135392857Y-84609580D02*
X135488095Y-84466723D01*
X135488095Y-84466723D02*
X135535714Y-84276247D01*
X135535714Y-84276247D02*
X135535714Y-83895295D01*
X135535714Y-83895295D02*
X135488095Y-83800057D01*
X135488095Y-83800057D02*
X135440476Y-83752438D01*
X135440476Y-83752438D02*
X135345238Y-83704819D01*
X135345238Y-83704819D02*
X135154762Y-83704819D01*
X135154762Y-83704819D02*
X135059524Y-83752438D01*
X135059524Y-83752438D02*
X135011905Y-83800057D01*
X135011905Y-83800057D02*
X134964286Y-83895295D01*
X134964286Y-83895295D02*
X134964286Y-84133390D01*
X134964286Y-84133390D02*
X135011905Y-84228628D01*
X135011905Y-84228628D02*
X135059524Y-84276247D01*
X135059524Y-84276247D02*
X135154762Y-84323866D01*
X135154762Y-84323866D02*
X135345238Y-84323866D01*
X135345238Y-84323866D02*
X135440476Y-84276247D01*
X135440476Y-84276247D02*
X135488095Y-84228628D01*
X135488095Y-84228628D02*
X135535714Y-84133390D01*
X132357142Y-98609580D02*
X132309523Y-98657200D01*
X132309523Y-98657200D02*
X132166666Y-98704819D01*
X132166666Y-98704819D02*
X132071428Y-98704819D01*
X132071428Y-98704819D02*
X131928571Y-98657200D01*
X131928571Y-98657200D02*
X131833333Y-98561961D01*
X131833333Y-98561961D02*
X131785714Y-98466723D01*
X131785714Y-98466723D02*
X131738095Y-98276247D01*
X131738095Y-98276247D02*
X131738095Y-98133390D01*
X131738095Y-98133390D02*
X131785714Y-97942914D01*
X131785714Y-97942914D02*
X131833333Y-97847676D01*
X131833333Y-97847676D02*
X131928571Y-97752438D01*
X131928571Y-97752438D02*
X132071428Y-97704819D01*
X132071428Y-97704819D02*
X132166666Y-97704819D01*
X132166666Y-97704819D02*
X132309523Y-97752438D01*
X132309523Y-97752438D02*
X132357142Y-97800057D01*
X133309523Y-98704819D02*
X132738095Y-98704819D01*
X133023809Y-98704819D02*
X133023809Y-97704819D01*
X133023809Y-97704819D02*
X132928571Y-97847676D01*
X132928571Y-97847676D02*
X132833333Y-97942914D01*
X132833333Y-97942914D02*
X132738095Y-97990533D01*
X133928571Y-97704819D02*
X134023809Y-97704819D01*
X134023809Y-97704819D02*
X134119047Y-97752438D01*
X134119047Y-97752438D02*
X134166666Y-97800057D01*
X134166666Y-97800057D02*
X134214285Y-97895295D01*
X134214285Y-97895295D02*
X134261904Y-98085771D01*
X134261904Y-98085771D02*
X134261904Y-98323866D01*
X134261904Y-98323866D02*
X134214285Y-98514342D01*
X134214285Y-98514342D02*
X134166666Y-98609580D01*
X134166666Y-98609580D02*
X134119047Y-98657200D01*
X134119047Y-98657200D02*
X134023809Y-98704819D01*
X134023809Y-98704819D02*
X133928571Y-98704819D01*
X133928571Y-98704819D02*
X133833333Y-98657200D01*
X133833333Y-98657200D02*
X133785714Y-98609580D01*
X133785714Y-98609580D02*
X133738095Y-98514342D01*
X133738095Y-98514342D02*
X133690476Y-98323866D01*
X133690476Y-98323866D02*
X133690476Y-98085771D01*
X133690476Y-98085771D02*
X133738095Y-97895295D01*
X133738095Y-97895295D02*
X133785714Y-97800057D01*
X133785714Y-97800057D02*
X133833333Y-97752438D01*
X133833333Y-97752438D02*
X133928571Y-97704819D01*
X141357142Y-89109580D02*
X141309523Y-89157200D01*
X141309523Y-89157200D02*
X141166666Y-89204819D01*
X141166666Y-89204819D02*
X141071428Y-89204819D01*
X141071428Y-89204819D02*
X140928571Y-89157200D01*
X140928571Y-89157200D02*
X140833333Y-89061961D01*
X140833333Y-89061961D02*
X140785714Y-88966723D01*
X140785714Y-88966723D02*
X140738095Y-88776247D01*
X140738095Y-88776247D02*
X140738095Y-88633390D01*
X140738095Y-88633390D02*
X140785714Y-88442914D01*
X140785714Y-88442914D02*
X140833333Y-88347676D01*
X140833333Y-88347676D02*
X140928571Y-88252438D01*
X140928571Y-88252438D02*
X141071428Y-88204819D01*
X141071428Y-88204819D02*
X141166666Y-88204819D01*
X141166666Y-88204819D02*
X141309523Y-88252438D01*
X141309523Y-88252438D02*
X141357142Y-88300057D01*
X141738095Y-88300057D02*
X141785714Y-88252438D01*
X141785714Y-88252438D02*
X141880952Y-88204819D01*
X141880952Y-88204819D02*
X142119047Y-88204819D01*
X142119047Y-88204819D02*
X142214285Y-88252438D01*
X142214285Y-88252438D02*
X142261904Y-88300057D01*
X142261904Y-88300057D02*
X142309523Y-88395295D01*
X142309523Y-88395295D02*
X142309523Y-88490533D01*
X142309523Y-88490533D02*
X142261904Y-88633390D01*
X142261904Y-88633390D02*
X141690476Y-89204819D01*
X141690476Y-89204819D02*
X142309523Y-89204819D01*
X142690476Y-88300057D02*
X142738095Y-88252438D01*
X142738095Y-88252438D02*
X142833333Y-88204819D01*
X142833333Y-88204819D02*
X143071428Y-88204819D01*
X143071428Y-88204819D02*
X143166666Y-88252438D01*
X143166666Y-88252438D02*
X143214285Y-88300057D01*
X143214285Y-88300057D02*
X143261904Y-88395295D01*
X143261904Y-88395295D02*
X143261904Y-88490533D01*
X143261904Y-88490533D02*
X143214285Y-88633390D01*
X143214285Y-88633390D02*
X142642857Y-89204819D01*
X142642857Y-89204819D02*
X143261904Y-89204819D01*
X109857142Y-95109580D02*
X109809523Y-95157200D01*
X109809523Y-95157200D02*
X109666666Y-95204819D01*
X109666666Y-95204819D02*
X109571428Y-95204819D01*
X109571428Y-95204819D02*
X109428571Y-95157200D01*
X109428571Y-95157200D02*
X109333333Y-95061961D01*
X109333333Y-95061961D02*
X109285714Y-94966723D01*
X109285714Y-94966723D02*
X109238095Y-94776247D01*
X109238095Y-94776247D02*
X109238095Y-94633390D01*
X109238095Y-94633390D02*
X109285714Y-94442914D01*
X109285714Y-94442914D02*
X109333333Y-94347676D01*
X109333333Y-94347676D02*
X109428571Y-94252438D01*
X109428571Y-94252438D02*
X109571428Y-94204819D01*
X109571428Y-94204819D02*
X109666666Y-94204819D01*
X109666666Y-94204819D02*
X109809523Y-94252438D01*
X109809523Y-94252438D02*
X109857142Y-94300057D01*
X110809523Y-95204819D02*
X110238095Y-95204819D01*
X110523809Y-95204819D02*
X110523809Y-94204819D01*
X110523809Y-94204819D02*
X110428571Y-94347676D01*
X110428571Y-94347676D02*
X110333333Y-94442914D01*
X110333333Y-94442914D02*
X110238095Y-94490533D01*
X111190476Y-94300057D02*
X111238095Y-94252438D01*
X111238095Y-94252438D02*
X111333333Y-94204819D01*
X111333333Y-94204819D02*
X111571428Y-94204819D01*
X111571428Y-94204819D02*
X111666666Y-94252438D01*
X111666666Y-94252438D02*
X111714285Y-94300057D01*
X111714285Y-94300057D02*
X111761904Y-94395295D01*
X111761904Y-94395295D02*
X111761904Y-94490533D01*
X111761904Y-94490533D02*
X111714285Y-94633390D01*
X111714285Y-94633390D02*
X111142857Y-95204819D01*
X111142857Y-95204819D02*
X111761904Y-95204819D01*
X139833333Y-102704819D02*
X139357143Y-102704819D01*
X139357143Y-102704819D02*
X139357143Y-101704819D01*
X140690476Y-102704819D02*
X140119048Y-102704819D01*
X140404762Y-102704819D02*
X140404762Y-101704819D01*
X140404762Y-101704819D02*
X140309524Y-101847676D01*
X140309524Y-101847676D02*
X140214286Y-101942914D01*
X140214286Y-101942914D02*
X140119048Y-101990533D01*
X104299405Y-95704819D02*
X104299405Y-94704819D01*
X104299405Y-94704819D02*
X104537500Y-94704819D01*
X104537500Y-94704819D02*
X104680357Y-94752438D01*
X104680357Y-94752438D02*
X104775595Y-94847676D01*
X104775595Y-94847676D02*
X104823214Y-94942914D01*
X104823214Y-94942914D02*
X104870833Y-95133390D01*
X104870833Y-95133390D02*
X104870833Y-95276247D01*
X104870833Y-95276247D02*
X104823214Y-95466723D01*
X104823214Y-95466723D02*
X104775595Y-95561961D01*
X104775595Y-95561961D02*
X104680357Y-95657200D01*
X104680357Y-95657200D02*
X104537500Y-95704819D01*
X104537500Y-95704819D02*
X104299405Y-95704819D01*
X105251786Y-94800057D02*
X105299405Y-94752438D01*
X105299405Y-94752438D02*
X105394643Y-94704819D01*
X105394643Y-94704819D02*
X105632738Y-94704819D01*
X105632738Y-94704819D02*
X105727976Y-94752438D01*
X105727976Y-94752438D02*
X105775595Y-94800057D01*
X105775595Y-94800057D02*
X105823214Y-94895295D01*
X105823214Y-94895295D02*
X105823214Y-94990533D01*
X105823214Y-94990533D02*
X105775595Y-95133390D01*
X105775595Y-95133390D02*
X105204167Y-95704819D01*
X105204167Y-95704819D02*
X105823214Y-95704819D01*
X104273809Y-87228628D02*
X104273809Y-87704819D01*
X103940476Y-86704819D02*
X104273809Y-87228628D01*
X104273809Y-87228628D02*
X104607142Y-86704819D01*
X105464285Y-87704819D02*
X104892857Y-87704819D01*
X105178571Y-87704819D02*
X105178571Y-86704819D01*
X105178571Y-86704819D02*
X105083333Y-86847676D01*
X105083333Y-86847676D02*
X104988095Y-86942914D01*
X104988095Y-86942914D02*
X104892857Y-86990533D01*
X109857142Y-96359580D02*
X109809523Y-96407200D01*
X109809523Y-96407200D02*
X109666666Y-96454819D01*
X109666666Y-96454819D02*
X109571428Y-96454819D01*
X109571428Y-96454819D02*
X109428571Y-96407200D01*
X109428571Y-96407200D02*
X109333333Y-96311961D01*
X109333333Y-96311961D02*
X109285714Y-96216723D01*
X109285714Y-96216723D02*
X109238095Y-96026247D01*
X109238095Y-96026247D02*
X109238095Y-95883390D01*
X109238095Y-95883390D02*
X109285714Y-95692914D01*
X109285714Y-95692914D02*
X109333333Y-95597676D01*
X109333333Y-95597676D02*
X109428571Y-95502438D01*
X109428571Y-95502438D02*
X109571428Y-95454819D01*
X109571428Y-95454819D02*
X109666666Y-95454819D01*
X109666666Y-95454819D02*
X109809523Y-95502438D01*
X109809523Y-95502438D02*
X109857142Y-95550057D01*
X110809523Y-96454819D02*
X110238095Y-96454819D01*
X110523809Y-96454819D02*
X110523809Y-95454819D01*
X110523809Y-95454819D02*
X110428571Y-95597676D01*
X110428571Y-95597676D02*
X110333333Y-95692914D01*
X110333333Y-95692914D02*
X110238095Y-95740533D01*
X111142857Y-95454819D02*
X111761904Y-95454819D01*
X111761904Y-95454819D02*
X111428571Y-95835771D01*
X111428571Y-95835771D02*
X111571428Y-95835771D01*
X111571428Y-95835771D02*
X111666666Y-95883390D01*
X111666666Y-95883390D02*
X111714285Y-95931009D01*
X111714285Y-95931009D02*
X111761904Y-96026247D01*
X111761904Y-96026247D02*
X111761904Y-96264342D01*
X111761904Y-96264342D02*
X111714285Y-96359580D01*
X111714285Y-96359580D02*
X111666666Y-96407200D01*
X111666666Y-96407200D02*
X111571428Y-96454819D01*
X111571428Y-96454819D02*
X111285714Y-96454819D01*
X111285714Y-96454819D02*
X111190476Y-96407200D01*
X111190476Y-96407200D02*
X111142857Y-96359580D01*
X149511905Y-104454819D02*
X149511905Y-103454819D01*
X149511905Y-103454819D02*
X149750000Y-103454819D01*
X149750000Y-103454819D02*
X149892857Y-103502438D01*
X149892857Y-103502438D02*
X149988095Y-103597676D01*
X149988095Y-103597676D02*
X150035714Y-103692914D01*
X150035714Y-103692914D02*
X150083333Y-103883390D01*
X150083333Y-103883390D02*
X150083333Y-104026247D01*
X150083333Y-104026247D02*
X150035714Y-104216723D01*
X150035714Y-104216723D02*
X149988095Y-104311961D01*
X149988095Y-104311961D02*
X149892857Y-104407200D01*
X149892857Y-104407200D02*
X149750000Y-104454819D01*
X149750000Y-104454819D02*
X149511905Y-104454819D01*
X150940476Y-103454819D02*
X150750000Y-103454819D01*
X150750000Y-103454819D02*
X150654762Y-103502438D01*
X150654762Y-103502438D02*
X150607143Y-103550057D01*
X150607143Y-103550057D02*
X150511905Y-103692914D01*
X150511905Y-103692914D02*
X150464286Y-103883390D01*
X150464286Y-103883390D02*
X150464286Y-104264342D01*
X150464286Y-104264342D02*
X150511905Y-104359580D01*
X150511905Y-104359580D02*
X150559524Y-104407200D01*
X150559524Y-104407200D02*
X150654762Y-104454819D01*
X150654762Y-104454819D02*
X150845238Y-104454819D01*
X150845238Y-104454819D02*
X150940476Y-104407200D01*
X150940476Y-104407200D02*
X150988095Y-104359580D01*
X150988095Y-104359580D02*
X151035714Y-104264342D01*
X151035714Y-104264342D02*
X151035714Y-104026247D01*
X151035714Y-104026247D02*
X150988095Y-103931009D01*
X150988095Y-103931009D02*
X150940476Y-103883390D01*
X150940476Y-103883390D02*
X150845238Y-103835771D01*
X150845238Y-103835771D02*
X150654762Y-103835771D01*
X150654762Y-103835771D02*
X150559524Y-103883390D01*
X150559524Y-103883390D02*
X150511905Y-103931009D01*
X150511905Y-103931009D02*
X150464286Y-104026247D01*
X104299405Y-92204819D02*
X104299405Y-91204819D01*
X104299405Y-91204819D02*
X104537500Y-91204819D01*
X104537500Y-91204819D02*
X104680357Y-91252438D01*
X104680357Y-91252438D02*
X104775595Y-91347676D01*
X104775595Y-91347676D02*
X104823214Y-91442914D01*
X104823214Y-91442914D02*
X104870833Y-91633390D01*
X104870833Y-91633390D02*
X104870833Y-91776247D01*
X104870833Y-91776247D02*
X104823214Y-91966723D01*
X104823214Y-91966723D02*
X104775595Y-92061961D01*
X104775595Y-92061961D02*
X104680357Y-92157200D01*
X104680357Y-92157200D02*
X104537500Y-92204819D01*
X104537500Y-92204819D02*
X104299405Y-92204819D01*
X105204167Y-91204819D02*
X105823214Y-91204819D01*
X105823214Y-91204819D02*
X105489881Y-91585771D01*
X105489881Y-91585771D02*
X105632738Y-91585771D01*
X105632738Y-91585771D02*
X105727976Y-91633390D01*
X105727976Y-91633390D02*
X105775595Y-91681009D01*
X105775595Y-91681009D02*
X105823214Y-91776247D01*
X105823214Y-91776247D02*
X105823214Y-92014342D01*
X105823214Y-92014342D02*
X105775595Y-92109580D01*
X105775595Y-92109580D02*
X105727976Y-92157200D01*
X105727976Y-92157200D02*
X105632738Y-92204819D01*
X105632738Y-92204819D02*
X105347024Y-92204819D01*
X105347024Y-92204819D02*
X105251786Y-92157200D01*
X105251786Y-92157200D02*
X105204167Y-92109580D01*
X151607142Y-109954819D02*
X151273809Y-109478628D01*
X151035714Y-109954819D02*
X151035714Y-108954819D01*
X151035714Y-108954819D02*
X151416666Y-108954819D01*
X151416666Y-108954819D02*
X151511904Y-109002438D01*
X151511904Y-109002438D02*
X151559523Y-109050057D01*
X151559523Y-109050057D02*
X151607142Y-109145295D01*
X151607142Y-109145295D02*
X151607142Y-109288152D01*
X151607142Y-109288152D02*
X151559523Y-109383390D01*
X151559523Y-109383390D02*
X151511904Y-109431009D01*
X151511904Y-109431009D02*
X151416666Y-109478628D01*
X151416666Y-109478628D02*
X151035714Y-109478628D01*
X152559523Y-109954819D02*
X151988095Y-109954819D01*
X152273809Y-109954819D02*
X152273809Y-108954819D01*
X152273809Y-108954819D02*
X152178571Y-109097676D01*
X152178571Y-109097676D02*
X152083333Y-109192914D01*
X152083333Y-109192914D02*
X151988095Y-109240533D01*
X153464285Y-108954819D02*
X152988095Y-108954819D01*
X152988095Y-108954819D02*
X152940476Y-109431009D01*
X152940476Y-109431009D02*
X152988095Y-109383390D01*
X152988095Y-109383390D02*
X153083333Y-109335771D01*
X153083333Y-109335771D02*
X153321428Y-109335771D01*
X153321428Y-109335771D02*
X153416666Y-109383390D01*
X153416666Y-109383390D02*
X153464285Y-109431009D01*
X153464285Y-109431009D02*
X153511904Y-109526247D01*
X153511904Y-109526247D02*
X153511904Y-109764342D01*
X153511904Y-109764342D02*
X153464285Y-109859580D01*
X153464285Y-109859580D02*
X153416666Y-109907200D01*
X153416666Y-109907200D02*
X153321428Y-109954819D01*
X153321428Y-109954819D02*
X153083333Y-109954819D01*
X153083333Y-109954819D02*
X152988095Y-109907200D01*
X152988095Y-109907200D02*
X152940476Y-109859580D01*
X99166667Y-100157200D02*
X99309524Y-100204819D01*
X99309524Y-100204819D02*
X99547619Y-100204819D01*
X99547619Y-100204819D02*
X99642857Y-100157200D01*
X99642857Y-100157200D02*
X99690476Y-100109580D01*
X99690476Y-100109580D02*
X99738095Y-100014342D01*
X99738095Y-100014342D02*
X99738095Y-99919104D01*
X99738095Y-99919104D02*
X99690476Y-99823866D01*
X99690476Y-99823866D02*
X99642857Y-99776247D01*
X99642857Y-99776247D02*
X99547619Y-99728628D01*
X99547619Y-99728628D02*
X99357143Y-99681009D01*
X99357143Y-99681009D02*
X99261905Y-99633390D01*
X99261905Y-99633390D02*
X99214286Y-99585771D01*
X99214286Y-99585771D02*
X99166667Y-99490533D01*
X99166667Y-99490533D02*
X99166667Y-99395295D01*
X99166667Y-99395295D02*
X99214286Y-99300057D01*
X99214286Y-99300057D02*
X99261905Y-99252438D01*
X99261905Y-99252438D02*
X99357143Y-99204819D01*
X99357143Y-99204819D02*
X99595238Y-99204819D01*
X99595238Y-99204819D02*
X99738095Y-99252438D01*
X100071429Y-99204819D02*
X100309524Y-100204819D01*
X100309524Y-100204819D02*
X100500000Y-99490533D01*
X100500000Y-99490533D02*
X100690476Y-100204819D01*
X100690476Y-100204819D02*
X100928572Y-99204819D01*
X101833333Y-100204819D02*
X101261905Y-100204819D01*
X101547619Y-100204819D02*
X101547619Y-99204819D01*
X101547619Y-99204819D02*
X101452381Y-99347676D01*
X101452381Y-99347676D02*
X101357143Y-99442914D01*
X101357143Y-99442914D02*
X101261905Y-99490533D01*
X142607142Y-96359580D02*
X142559523Y-96407200D01*
X142559523Y-96407200D02*
X142416666Y-96454819D01*
X142416666Y-96454819D02*
X142321428Y-96454819D01*
X142321428Y-96454819D02*
X142178571Y-96407200D01*
X142178571Y-96407200D02*
X142083333Y-96311961D01*
X142083333Y-96311961D02*
X142035714Y-96216723D01*
X142035714Y-96216723D02*
X141988095Y-96026247D01*
X141988095Y-96026247D02*
X141988095Y-95883390D01*
X141988095Y-95883390D02*
X142035714Y-95692914D01*
X142035714Y-95692914D02*
X142083333Y-95597676D01*
X142083333Y-95597676D02*
X142178571Y-95502438D01*
X142178571Y-95502438D02*
X142321428Y-95454819D01*
X142321428Y-95454819D02*
X142416666Y-95454819D01*
X142416666Y-95454819D02*
X142559523Y-95502438D01*
X142559523Y-95502438D02*
X142607142Y-95550057D01*
X142988095Y-95550057D02*
X143035714Y-95502438D01*
X143035714Y-95502438D02*
X143130952Y-95454819D01*
X143130952Y-95454819D02*
X143369047Y-95454819D01*
X143369047Y-95454819D02*
X143464285Y-95502438D01*
X143464285Y-95502438D02*
X143511904Y-95550057D01*
X143511904Y-95550057D02*
X143559523Y-95645295D01*
X143559523Y-95645295D02*
X143559523Y-95740533D01*
X143559523Y-95740533D02*
X143511904Y-95883390D01*
X143511904Y-95883390D02*
X142940476Y-96454819D01*
X142940476Y-96454819D02*
X143559523Y-96454819D01*
X144511904Y-96454819D02*
X143940476Y-96454819D01*
X144226190Y-96454819D02*
X144226190Y-95454819D01*
X144226190Y-95454819D02*
X144130952Y-95597676D01*
X144130952Y-95597676D02*
X144035714Y-95692914D01*
X144035714Y-95692914D02*
X143940476Y-95740533D01*
D11*
%TO.C,J2*%
X150575000Y-90490000D02*
X148875000Y-90490000D01*
X150575000Y-81150000D02*
X148875000Y-81150000D01*
%TO.C,SW2*%
X95500000Y-64700000D02*
X94710000Y-64700000D01*
X93700000Y-65300000D02*
X93700000Y-71000000D01*
X96550000Y-66550000D02*
X96550000Y-68250000D01*
X96550000Y-69550000D02*
X96550000Y-69750000D01*
X94710000Y-71600000D02*
X95500000Y-71600000D01*
%TO.C,J3*%
X152750000Y-114870000D02*
X152750000Y-116250000D01*
X151370000Y-114870000D02*
X152750000Y-114870000D01*
X150100000Y-114870000D02*
X104270000Y-114870000D01*
X150100000Y-114870000D02*
X150100000Y-117630000D01*
X104270000Y-114870000D02*
X104270000Y-117630000D01*
X150100000Y-117630000D02*
X104270000Y-117630000D01*
%TO.C,J4*%
X96630000Y-86960000D02*
X95250000Y-86960000D01*
X96630000Y-85580000D02*
X96630000Y-86960000D01*
X96630000Y-84310000D02*
X96630000Y-74040000D01*
X96630000Y-84310000D02*
X93870000Y-84310000D01*
X96630000Y-74040000D02*
X93870000Y-74040000D01*
X93870000Y-84310000D02*
X93870000Y-74040000D01*
%TO.C,J1*%
X104710000Y-67130000D02*
X104710000Y-65750000D01*
X106090000Y-67130000D02*
X104710000Y-67130000D01*
X107360000Y-67130000D02*
X140490000Y-67130000D01*
X107360000Y-67130000D02*
X107360000Y-64370000D01*
X140490000Y-67130000D02*
X140490000Y-64370000D01*
X107360000Y-64370000D02*
X140490000Y-64370000D01*
%TO.C,C23*%
X137860000Y-91377836D02*
X137860000Y-91162164D01*
X137140000Y-91377836D02*
X137140000Y-91162164D01*
%TO.C,R3*%
X108846359Y-89380000D02*
X109153641Y-89380000D01*
X108846359Y-88620000D02*
X109153641Y-88620000D01*
%TO.C,D5*%
X103087500Y-92765000D02*
X100802500Y-92765000D01*
X100802500Y-94235000D02*
X103087500Y-94235000D01*
X100802500Y-92765000D02*
X100802500Y-94235000D01*
%TO.C,C8*%
X133890000Y-81372164D02*
X133890000Y-81587836D01*
X134610000Y-81372164D02*
X134610000Y-81587836D01*
%TO.C,C6*%
X117892164Y-78610000D02*
X118107836Y-78610000D01*
X117892164Y-77890000D02*
X118107836Y-77890000D01*
%TO.C,C4*%
X113390000Y-91622164D02*
X113390000Y-91837836D01*
X114110000Y-91622164D02*
X114110000Y-91837836D01*
%TO.C,FB2*%
X139760000Y-90587221D02*
X139760000Y-90912779D01*
X138740000Y-90587221D02*
X138740000Y-90912779D01*
%TO.C,C17*%
X117890000Y-101142164D02*
X117890000Y-101357836D01*
X118610000Y-101142164D02*
X118610000Y-101357836D01*
%TO.C,D1*%
X120765000Y-100272500D02*
X122235000Y-100272500D01*
X122235000Y-100272500D02*
X122235000Y-97987500D01*
X120765000Y-97987500D02*
X120765000Y-100272500D01*
%TO.C,C14*%
X112892164Y-98640000D02*
X113107836Y-98640000D01*
X112892164Y-99360000D02*
X113107836Y-99360000D01*
%TO.C,C20*%
X138060000Y-97924664D02*
X138060000Y-98140336D01*
X137340000Y-97924664D02*
X137340000Y-98140336D01*
%TO.C,R2*%
X115727500Y-101312258D02*
X115727500Y-100837742D01*
X116772500Y-101312258D02*
X116772500Y-100837742D01*
%TO.C,C3*%
X114140000Y-86337836D02*
X114140000Y-86122164D01*
X114860000Y-86337836D02*
X114860000Y-86122164D01*
%TO.C,C24*%
X150538748Y-98265000D02*
X151061252Y-98265000D01*
X150538748Y-99735000D02*
X151061252Y-99735000D01*
%TO.C,R8*%
X99024758Y-97522500D02*
X98550242Y-97522500D01*
X99024758Y-96477500D02*
X98550242Y-96477500D01*
%TO.C,C2*%
X114357836Y-84340000D02*
X114142164Y-84340000D01*
X114357836Y-83620000D02*
X114142164Y-83620000D01*
%TO.C,R13*%
X145015000Y-97139564D02*
X145015000Y-96685436D01*
X146485000Y-97139564D02*
X146485000Y-96685436D01*
%TO.C,C19*%
X138640580Y-93240000D02*
X138359420Y-93240000D01*
X138640580Y-94260000D02*
X138359420Y-94260000D01*
%TO.C,FB1*%
X113450279Y-98010000D02*
X113124721Y-98010000D01*
X113450279Y-96990000D02*
X113124721Y-96990000D01*
%TO.C,R12*%
X146987258Y-92772500D02*
X146512742Y-92772500D01*
X146987258Y-91727500D02*
X146512742Y-91727500D01*
%TO.C,R11*%
X147227500Y-78812258D02*
X147227500Y-78337742D01*
X148272500Y-78812258D02*
X148272500Y-78337742D01*
%TO.C,R5*%
X98987258Y-95772500D02*
X98512742Y-95772500D01*
X98987258Y-94727500D02*
X98512742Y-94727500D01*
%TO.C,R9*%
X98987258Y-94022500D02*
X98512742Y-94022500D01*
X98987258Y-92977500D02*
X98512742Y-92977500D01*
%TO.C,U1*%
X117215000Y-80930000D02*
X117915000Y-80930000D01*
X117215000Y-81630000D02*
X117215000Y-80930000D01*
X117215000Y-95150000D02*
X117215000Y-94450000D01*
X117915000Y-95150000D02*
X117215000Y-95150000D01*
X130735000Y-80930000D02*
X131435000Y-80930000D01*
X131435000Y-80930000D02*
X131435000Y-81630000D01*
X131435000Y-94450000D02*
X131435000Y-95150000D01*
X131435000Y-95150000D02*
X130735000Y-95150000D01*
X116575000Y-81630000D02*
X116235000Y-81160000D01*
X116915000Y-81160000D01*
X116575000Y-81630000D01*
G36*
X116575000Y-81630000D02*
G01*
X116235000Y-81160000D01*
X116915000Y-81160000D01*
X116575000Y-81630000D01*
G37*
%TO.C,R10*%
X132772500Y-77337742D02*
X132772500Y-77812258D01*
X131727500Y-77337742D02*
X131727500Y-77812258D01*
%TO.C,C25*%
X150488748Y-101015000D02*
X151011252Y-101015000D01*
X150488748Y-102485000D02*
X151011252Y-102485000D01*
%TO.C,C7*%
X130110000Y-98122164D02*
X130110000Y-98337836D01*
X129390000Y-98122164D02*
X129390000Y-98337836D01*
%TO.C,D4*%
X100840000Y-96265000D02*
X100840000Y-97735000D01*
X100840000Y-97735000D02*
X103125000Y-97735000D01*
X103125000Y-96265000D02*
X100840000Y-96265000D01*
%TO.C,R4*%
X122022500Y-101837742D02*
X122022500Y-102312258D01*
X120977500Y-101837742D02*
X120977500Y-102312258D01*
%TO.C,C15*%
X114357836Y-102360000D02*
X114142164Y-102360000D01*
X114357836Y-101640000D02*
X114142164Y-101640000D01*
%TO.C,C18*%
X106877836Y-89360000D02*
X106662164Y-89360000D01*
X106877836Y-88640000D02*
X106662164Y-88640000D01*
%TO.C,R6*%
X98949758Y-92272500D02*
X98475242Y-92272500D01*
X98949758Y-91227500D02*
X98475242Y-91227500D01*
%TO.C,R1*%
X115564564Y-104735000D02*
X115110436Y-104735000D01*
X115564564Y-103265000D02*
X115110436Y-103265000D01*
%TO.C,C11*%
X119127836Y-98360000D02*
X118912164Y-98360000D01*
X119127836Y-97640000D02*
X118912164Y-97640000D01*
%TO.C,R14*%
X148860436Y-95515000D02*
X149314564Y-95515000D01*
X148860436Y-96985000D02*
X149314564Y-96985000D01*
%TO.C,C16*%
X110390000Y-85107836D02*
X110390000Y-84892164D01*
X111110000Y-85107836D02*
X111110000Y-84892164D01*
%TO.C,U3*%
X139772500Y-87510000D02*
X137952500Y-87510000D01*
X139772500Y-87460000D02*
X139772500Y-87510000D01*
X139772500Y-84390000D02*
X139772500Y-84440000D01*
X137952500Y-87510000D02*
X137952500Y-87460000D01*
X137952500Y-84440000D02*
X137952500Y-84390000D01*
X137952500Y-84390000D02*
X139772500Y-84390000D01*
X140552500Y-87790000D02*
X140072500Y-87790000D01*
X140312500Y-87460000D01*
X140552500Y-87790000D01*
G36*
X140552500Y-87790000D02*
G01*
X140072500Y-87790000D01*
X140312500Y-87460000D01*
X140552500Y-87790000D01*
G37*
%TO.C,C5*%
X113877836Y-93610000D02*
X113662164Y-93610000D01*
X113877836Y-92890000D02*
X113662164Y-92890000D01*
%TO.C,R7*%
X121380000Y-77606359D02*
X121380000Y-77913641D01*
X120620000Y-77606359D02*
X120620000Y-77913641D01*
%TO.C,C1*%
X117834420Y-77260000D02*
X118115580Y-77260000D01*
X117834420Y-76240000D02*
X118115580Y-76240000D01*
%TO.C,U2*%
X138690000Y-98810000D02*
X138690000Y-96990000D01*
X138740000Y-98810000D02*
X138690000Y-98810000D01*
X141810000Y-98810000D02*
X141760000Y-98810000D01*
X138690000Y-96990000D02*
X138740000Y-96990000D01*
X141760000Y-96990000D02*
X141810000Y-96990000D01*
X141810000Y-96990000D02*
X141810000Y-98810000D01*
X138740000Y-99350000D02*
X138410000Y-99590000D01*
X138410000Y-99110000D01*
X138740000Y-99350000D01*
G36*
X138740000Y-99350000D02*
G01*
X138410000Y-99590000D01*
X138410000Y-99110000D01*
X138740000Y-99350000D01*
G37*
%TO.C,C9*%
X134662164Y-82640000D02*
X134877836Y-82640000D01*
X134662164Y-83360000D02*
X134877836Y-83360000D01*
%TO.C,C10*%
X131360000Y-98142164D02*
X131360000Y-98357836D01*
X130640000Y-98142164D02*
X130640000Y-98357836D01*
%TO.C,C22*%
X141860000Y-90392164D02*
X141860000Y-90607836D01*
X141140000Y-90392164D02*
X141140000Y-90607836D01*
%TO.C,C12*%
X113877836Y-95110000D02*
X113662164Y-95110000D01*
X113877836Y-94390000D02*
X113662164Y-94390000D01*
%TO.C,L1*%
X141050000Y-107800000D02*
X141050000Y-101200000D01*
X142750000Y-107800000D02*
X141050000Y-107800000D01*
X147450000Y-107800000D02*
X145750000Y-107800000D01*
X141050000Y-101200000D02*
X142750000Y-101200000D01*
X145750000Y-101200000D02*
X147450000Y-101200000D01*
X147450000Y-101200000D02*
X147450000Y-107800000D01*
%TO.C,D2*%
X100802500Y-94515000D02*
X100802500Y-95985000D01*
X100802500Y-95985000D02*
X103087500Y-95985000D01*
X103087500Y-94515000D02*
X100802500Y-94515000D01*
%TO.C,Y1*%
X109960000Y-88060000D02*
X109960000Y-84640000D01*
X109960000Y-84640000D02*
X105840000Y-84640000D01*
%TO.C,C13*%
X113877836Y-96360000D02*
X113662164Y-96360000D01*
X113877836Y-95640000D02*
X113662164Y-95640000D01*
%TO.C,D6*%
X152272500Y-106235000D02*
X152272500Y-104765000D01*
X152272500Y-104765000D02*
X149987500Y-104765000D01*
X149987500Y-106235000D02*
X152272500Y-106235000D01*
%TO.C,D3*%
X100765000Y-91015000D02*
X100765000Y-92485000D01*
X100765000Y-92485000D02*
X103050000Y-92485000D01*
X103050000Y-91015000D02*
X100765000Y-91015000D01*
%TO.C,R15*%
X150987258Y-108272500D02*
X150512742Y-108272500D01*
X150987258Y-107227500D02*
X150512742Y-107227500D01*
%TO.C,SW1*%
X104250000Y-105000000D02*
X104250000Y-103500000D01*
X103000000Y-101000000D02*
X98500000Y-101000000D01*
X98500000Y-107500000D02*
X103000000Y-107500000D01*
X97250000Y-103500000D02*
X97250000Y-105000000D01*
%TO.C,C21*%
X142890000Y-97837836D02*
X142890000Y-97622164D01*
X143610000Y-97837836D02*
X143610000Y-97622164D01*
%TD*%
M02*
