%TF.GenerationSoftware,KiCad,Pcbnew,9.0.6-9.0.6~ubuntu24.04.1*%
%TF.CreationDate,2026-01-01T13:47:20-07:00*%
%TF.ProjectId,ARviewer,41527669-6577-4657-922e-6b696361645f,rev?*%
%TF.SameCoordinates,Original*%
%TF.FileFunction,Soldermask,Bot*%
%TF.FilePolarity,Negative*%
%FSLAX46Y46*%
G04 Gerber Fmt 4.6, Leading zero omitted, Abs format (unit mm)*
G04 Created by KiCad (PCBNEW 9.0.6-9.0.6~ubuntu24.04.1) date 2026-01-01 13:47:20*
%MOMM*%
%LPD*%
G01*
G04 APERTURE LIST*
%ADD10C,0.650000*%
%ADD11O,2.100000X1.000000*%
%ADD12O,1.800000X1.000000*%
%ADD13C,0.900000*%
%ADD14C,8.600000*%
%ADD15R,1.700000X1.700000*%
%ADD16C,1.700000*%
%ADD17C,2.000000*%
G04 APERTURE END LIST*
D10*
%TO.C,J2*%
X148070000Y-88710000D03*
X148070000Y-82930000D03*
D11*
X147570000Y-90140000D03*
D12*
X151750000Y-90140000D03*
D11*
X147570000Y-81500000D03*
D12*
X151750000Y-81500000D03*
%TD*%
D13*
%TO.C,SW2*%
X95100000Y-66650000D03*
X95100000Y-69650000D03*
%TD*%
%TO.C,H2*%
X148969581Y-64305419D03*
X151250000Y-65250000D03*
X146689162Y-65250000D03*
X152194581Y-67530419D03*
D14*
X148969581Y-67530419D03*
D13*
X145744581Y-67530419D03*
X151250000Y-69810838D03*
X146689162Y-69810838D03*
X148969581Y-70755419D03*
%TD*%
D15*
%TO.C,J3*%
X151370000Y-116250000D03*
D16*
X148830000Y-116250000D03*
X146290000Y-116250000D03*
X143750000Y-116250000D03*
X141210000Y-116250000D03*
X138670000Y-116250000D03*
X136130000Y-116250000D03*
X133590000Y-116250000D03*
X131050000Y-116250000D03*
X128510000Y-116250000D03*
X125970000Y-116250000D03*
X123430000Y-116250000D03*
X120890000Y-116250000D03*
X118350000Y-116250000D03*
X115810000Y-116250000D03*
X113270000Y-116250000D03*
X110730000Y-116250000D03*
X108190000Y-116250000D03*
X105650000Y-116250000D03*
%TD*%
D15*
%TO.C,J4*%
X95250000Y-85580000D03*
D16*
X95250000Y-83040000D03*
X95250000Y-80500000D03*
X95250000Y-77960000D03*
X95250000Y-75420000D03*
%TD*%
D15*
%TO.C,J1*%
X106090000Y-65750000D03*
D16*
X108630000Y-65750000D03*
X111170000Y-65750000D03*
X113710000Y-65750000D03*
X116250000Y-65750000D03*
X118790000Y-65750000D03*
X121330000Y-65750000D03*
X123870000Y-65750000D03*
X126410000Y-65750000D03*
X128950000Y-65750000D03*
X131490000Y-65750000D03*
X134030000Y-65750000D03*
X136570000Y-65750000D03*
X139110000Y-65750000D03*
%TD*%
D13*
%TO.C,H1*%
X97780419Y-117505419D03*
X95500000Y-116560838D03*
X100060838Y-116560838D03*
X94555419Y-114280419D03*
D14*
X97780419Y-114280419D03*
D13*
X101005419Y-114280419D03*
X95500000Y-112000000D03*
X100060838Y-112000000D03*
X97780419Y-111055419D03*
%TD*%
D17*
%TO.C,SW1*%
X104000000Y-106500000D03*
X97500000Y-106500000D03*
X104000000Y-102000000D03*
X97500000Y-102000000D03*
%TD*%
M02*
