%TF.GenerationSoftware,KiCad,Pcbnew,9.0.6-9.0.6~ubuntu24.04.1*%
%TF.CreationDate,2026-01-01T13:47:20-07:00*%
%TF.ProjectId,ARviewer,41527669-6577-4657-922e-6b696361645f,rev?*%
%TF.SameCoordinates,Original*%
%TF.FileFunction,Copper,L1,Top*%
%TF.FilePolarity,Positive*%
%FSLAX46Y46*%
G04 Gerber Fmt 4.6, Leading zero omitted, Abs format (unit mm)*
G04 Created by KiCad (PCBNEW 9.0.6-9.0.6~ubuntu24.04.1) date 2026-01-01 13:47:20*
%MOMM*%
%LPD*%
G01*
G04 APERTURE LIST*
G04 Aperture macros list*
%AMRoundRect*
0 Rectangle with rounded corners*
0 $1 Rounding radius*
0 $2 $3 $4 $5 $6 $7 $8 $9 X,Y pos of 4 corners*
0 Add a 4 corners polygon primitive as box body*
4,1,4,$2,$3,$4,$5,$6,$7,$8,$9,$2,$3,0*
0 Add four circle primitives for the rounded corners*
1,1,$1+$1,$2,$3*
1,1,$1+$1,$4,$5*
1,1,$1+$1,$6,$7*
1,1,$1+$1,$8,$9*
0 Add four rect primitives between the rounded corners*
20,1,$1+$1,$2,$3,$4,$5,0*
20,1,$1+$1,$4,$5,$6,$7,0*
20,1,$1+$1,$6,$7,$8,$9,0*
20,1,$1+$1,$8,$9,$2,$3,0*%
G04 Aperture macros list end*
%TA.AperFunction,SMDPad,CuDef*%
%ADD10RoundRect,0.150000X0.425000X-0.150000X0.425000X0.150000X-0.425000X0.150000X-0.425000X-0.150000X0*%
%TD*%
%TA.AperFunction,SMDPad,CuDef*%
%ADD11RoundRect,0.075000X0.500000X-0.075000X0.500000X0.075000X-0.500000X0.075000X-0.500000X-0.075000X0*%
%TD*%
%TA.AperFunction,HeatsinkPad*%
%ADD12O,2.100000X1.000000*%
%TD*%
%TA.AperFunction,HeatsinkPad*%
%ADD13O,1.800000X1.000000*%
%TD*%
%TA.AperFunction,SMDPad,CuDef*%
%ADD14R,0.800000X1.000000*%
%TD*%
%TA.AperFunction,SMDPad,CuDef*%
%ADD15R,1.500000X0.700000*%
%TD*%
%TA.AperFunction,ComponentPad*%
%ADD16C,0.900000*%
%TD*%
%TA.AperFunction,ComponentPad*%
%ADD17C,8.600000*%
%TD*%
%TA.AperFunction,ComponentPad*%
%ADD18R,1.700000X1.700000*%
%TD*%
%TA.AperFunction,ComponentPad*%
%ADD19C,1.700000*%
%TD*%
%TA.AperFunction,SMDPad,CuDef*%
%ADD20RoundRect,0.140000X0.170000X-0.140000X0.170000X0.140000X-0.170000X0.140000X-0.170000X-0.140000X0*%
%TD*%
%TA.AperFunction,SMDPad,CuDef*%
%ADD21RoundRect,0.135000X-0.135000X-0.185000X0.135000X-0.185000X0.135000X0.185000X-0.135000X0.185000X0*%
%TD*%
%TA.AperFunction,SMDPad,CuDef*%
%ADD22RoundRect,0.218750X-0.218750X-0.256250X0.218750X-0.256250X0.218750X0.256250X-0.218750X0.256250X0*%
%TD*%
%TA.AperFunction,SMDPad,CuDef*%
%ADD23RoundRect,0.140000X-0.170000X0.140000X-0.170000X-0.140000X0.170000X-0.140000X0.170000X0.140000X0*%
%TD*%
%TA.AperFunction,SMDPad,CuDef*%
%ADD24RoundRect,0.140000X-0.140000X-0.170000X0.140000X-0.170000X0.140000X0.170000X-0.140000X0.170000X0*%
%TD*%
%TA.AperFunction,SMDPad,CuDef*%
%ADD25RoundRect,0.218750X-0.256250X0.218750X-0.256250X-0.218750X0.256250X-0.218750X0.256250X0.218750X0*%
%TD*%
%TA.AperFunction,SMDPad,CuDef*%
%ADD26RoundRect,0.218750X0.256250X-0.218750X0.256250X0.218750X-0.256250X0.218750X-0.256250X-0.218750X0*%
%TD*%
%TA.AperFunction,SMDPad,CuDef*%
%ADD27RoundRect,0.200000X0.275000X-0.200000X0.275000X0.200000X-0.275000X0.200000X-0.275000X-0.200000X0*%
%TD*%
%TA.AperFunction,SMDPad,CuDef*%
%ADD28RoundRect,0.250000X-0.250000X-0.475000X0.250000X-0.475000X0.250000X0.475000X-0.250000X0.475000X0*%
%TD*%
%TA.AperFunction,SMDPad,CuDef*%
%ADD29RoundRect,0.200000X0.200000X0.275000X-0.200000X0.275000X-0.200000X-0.275000X0.200000X-0.275000X0*%
%TD*%
%TA.AperFunction,SMDPad,CuDef*%
%ADD30RoundRect,0.140000X0.140000X0.170000X-0.140000X0.170000X-0.140000X-0.170000X0.140000X-0.170000X0*%
%TD*%
%TA.AperFunction,SMDPad,CuDef*%
%ADD31RoundRect,0.250000X0.450000X-0.262500X0.450000X0.262500X-0.450000X0.262500X-0.450000X-0.262500X0*%
%TD*%
%TA.AperFunction,SMDPad,CuDef*%
%ADD32RoundRect,0.225000X0.225000X0.250000X-0.225000X0.250000X-0.225000X-0.250000X0.225000X-0.250000X0*%
%TD*%
%TA.AperFunction,SMDPad,CuDef*%
%ADD33RoundRect,0.218750X0.218750X0.256250X-0.218750X0.256250X-0.218750X-0.256250X0.218750X-0.256250X0*%
%TD*%
%TA.AperFunction,SMDPad,CuDef*%
%ADD34RoundRect,0.075000X-0.725000X-0.075000X0.725000X-0.075000X0.725000X0.075000X-0.725000X0.075000X0*%
%TD*%
%TA.AperFunction,SMDPad,CuDef*%
%ADD35RoundRect,0.075000X-0.075000X-0.725000X0.075000X-0.725000X0.075000X0.725000X-0.075000X0.725000X0*%
%TD*%
%TA.AperFunction,SMDPad,CuDef*%
%ADD36RoundRect,0.200000X-0.275000X0.200000X-0.275000X-0.200000X0.275000X-0.200000X0.275000X0.200000X0*%
%TD*%
%TA.AperFunction,SMDPad,CuDef*%
%ADD37RoundRect,0.250000X0.262500X0.450000X-0.262500X0.450000X-0.262500X-0.450000X0.262500X-0.450000X0*%
%TD*%
%TA.AperFunction,SMDPad,CuDef*%
%ADD38RoundRect,0.250000X-0.262500X-0.450000X0.262500X-0.450000X0.262500X0.450000X-0.262500X0.450000X0*%
%TD*%
%TA.AperFunction,SMDPad,CuDef*%
%ADD39RoundRect,0.150000X0.512500X0.150000X-0.512500X0.150000X-0.512500X-0.150000X0.512500X-0.150000X0*%
%TD*%
%TA.AperFunction,SMDPad,CuDef*%
%ADD40RoundRect,0.135000X-0.185000X0.135000X-0.185000X-0.135000X0.185000X-0.135000X0.185000X0.135000X0*%
%TD*%
%TA.AperFunction,SMDPad,CuDef*%
%ADD41RoundRect,0.225000X-0.225000X-0.250000X0.225000X-0.250000X0.225000X0.250000X-0.225000X0.250000X0*%
%TD*%
%TA.AperFunction,SMDPad,CuDef*%
%ADD42RoundRect,0.150000X0.150000X-0.512500X0.150000X0.512500X-0.150000X0.512500X-0.150000X-0.512500X0*%
%TD*%
%TA.AperFunction,SMDPad,CuDef*%
%ADD43R,2.400000X1.500000*%
%TD*%
%TA.AperFunction,SMDPad,CuDef*%
%ADD44RoundRect,0.250000X0.450000X0.350000X-0.450000X0.350000X-0.450000X-0.350000X0.450000X-0.350000X0*%
%TD*%
%TA.AperFunction,ComponentPad*%
%ADD45C,2.000000*%
%TD*%
%TA.AperFunction,ViaPad*%
%ADD46C,0.600000*%
%TD*%
%TA.AperFunction,Conductor*%
%ADD47C,0.300000*%
%TD*%
%TA.AperFunction,Conductor*%
%ADD48C,0.500000*%
%TD*%
%TA.AperFunction,Conductor*%
%ADD49C,0.200000*%
%TD*%
G04 APERTURE END LIST*
D10*
%TO.P,J2,A1,GND*%
%TO.N,GND*%
X146995000Y-89020000D03*
%TO.P,J2,A4,VBUS*%
%TO.N,+VBUS*%
X146995000Y-88220000D03*
D11*
%TO.P,J2,A5,CC1*%
%TO.N,Net-(J2-CC1)*%
X146995000Y-87070000D03*
%TO.P,J2,A6,D+*%
%TO.N,Net-(J2-D+-PadA6)*%
X146995000Y-86070000D03*
%TO.P,J2,A7,D-*%
%TO.N,Net-(J2-D--PadA7)*%
X146995000Y-85570000D03*
%TO.P,J2,A8,SBU1*%
%TO.N,unconnected-(J2-SBU1-PadA8)*%
X146995000Y-84570000D03*
D10*
%TO.P,J2,A9,VBUS*%
%TO.N,+VBUS*%
X146995000Y-83420000D03*
%TO.P,J2,A12,GND*%
%TO.N,GND*%
X146995000Y-82620000D03*
%TO.P,J2,B1,GND*%
X146995000Y-82620000D03*
%TO.P,J2,B4,VBUS*%
%TO.N,+VBUS*%
X146995000Y-83420000D03*
D11*
%TO.P,J2,B5,CC2*%
%TO.N,Net-(J2-CC2)*%
X146995000Y-84070000D03*
%TO.P,J2,B6,D+*%
%TO.N,Net-(J2-D+-PadA6)*%
X146995000Y-85070000D03*
%TO.P,J2,B7,D-*%
%TO.N,Net-(J2-D--PadA7)*%
X146995000Y-86570000D03*
%TO.P,J2,B8,SBU2*%
%TO.N,unconnected-(J2-SBU2-PadB8)*%
X146995000Y-87570000D03*
D10*
%TO.P,J2,B9,VBUS*%
%TO.N,+VBUS*%
X146995000Y-88220000D03*
%TO.P,J2,B12,GND*%
%TO.N,GND*%
X146995000Y-89020000D03*
D12*
%TO.P,J2,S1,SHIELD*%
X147570000Y-90140000D03*
D13*
X151750000Y-90140000D03*
D12*
X147570000Y-81500000D03*
D13*
X151750000Y-81500000D03*
%TD*%
D14*
%TO.P,SW2,*%
%TO.N,*%
X96210000Y-64500000D03*
X94000000Y-64500000D03*
X96210000Y-71800000D03*
X94000000Y-71800000D03*
D15*
%TO.P,SW2,1,A*%
%TO.N,GND*%
X96860000Y-65900000D03*
%TO.P,SW2,2,B*%
%TO.N,Net-(SW2-B)*%
X96860000Y-68900000D03*
%TO.P,SW2,3,C*%
%TO.N,+3.3V*%
X96860000Y-70400000D03*
%TD*%
D16*
%TO.P,H2,1,1*%
%TO.N,GND*%
X148969581Y-64305419D03*
X151250000Y-65250000D03*
X146689162Y-65250000D03*
X152194581Y-67530419D03*
D17*
X148969581Y-67530419D03*
D16*
X145744581Y-67530419D03*
X151250000Y-69810838D03*
X146689162Y-69810838D03*
X148969581Y-70755419D03*
%TD*%
D18*
%TO.P,J3,1,Pin_1*%
%TO.N,GND*%
X151370000Y-116250000D03*
D19*
%TO.P,J3,2,Pin_2*%
X148830000Y-116250000D03*
%TO.P,J3,3,Pin_3*%
%TO.N,FMC_D1*%
X146290000Y-116250000D03*
%TO.P,J3,4,Pin_4*%
%TO.N,FMC_D0*%
X143750000Y-116250000D03*
%TO.P,J3,5,Pin_5*%
%TO.N,FMC_A16*%
X141210000Y-116250000D03*
%TO.P,J3,6,Pin_6*%
%TO.N,FMC_D15*%
X138670000Y-116250000D03*
%TO.P,J3,7,Pin_7*%
%TO.N,FMC_D14*%
X136130000Y-116250000D03*
%TO.P,J3,8,Pin_8*%
%TO.N,FMC_D13*%
X133590000Y-116250000D03*
%TO.P,J3,9,Pin_9*%
%TO.N,FMC_D12*%
X131050000Y-116250000D03*
%TO.P,J3,10,Pin_10*%
%TO.N,FMC_D11*%
X128510000Y-116250000D03*
%TO.P,J3,11,Pin_11*%
%TO.N,FMC_D10*%
X125970000Y-116250000D03*
%TO.P,J3,12,Pin_12*%
%TO.N,FMC_D9*%
X123430000Y-116250000D03*
%TO.P,J3,13,Pin_13*%
%TO.N,FMC_D8*%
X120890000Y-116250000D03*
%TO.P,J3,14,Pin_14*%
%TO.N,FMC_D7*%
X118350000Y-116250000D03*
%TO.P,J3,15,Pin_15*%
%TO.N,FMC_D6*%
X115810000Y-116250000D03*
%TO.P,J3,16,Pin_16*%
%TO.N,FMC_D5*%
X113270000Y-116250000D03*
%TO.P,J3,17,Pin_17*%
%TO.N,FMC_D4*%
X110730000Y-116250000D03*
%TO.P,J3,18,Pin_18*%
%TO.N,+5V*%
X108190000Y-116250000D03*
%TO.P,J3,19,Pin_19*%
X105650000Y-116250000D03*
%TD*%
D18*
%TO.P,J4,1,Pin_1*%
%TO.N,NRST*%
X95250000Y-85580000D03*
D19*
%TO.P,J4,2,Pin_2*%
%TO.N,LSM6DSR_INT2*%
X95250000Y-83040000D03*
%TO.P,J4,3,Pin_3*%
%TO.N,LSM6DSR_INT1*%
X95250000Y-80500000D03*
%TO.P,J4,4,Pin_4*%
%TO.N,LIS3MDLTR_DRDY*%
X95250000Y-77960000D03*
%TO.P,J4,5,Pin_5*%
%TO.N,LIS3MDLTR_INT*%
X95250000Y-75420000D03*
%TD*%
D18*
%TO.P,J1,1,Pin_1*%
%TO.N,GND*%
X106090000Y-65750000D03*
D19*
%TO.P,J1,2,Pin_2*%
X108630000Y-65750000D03*
%TO.P,J1,3,Pin_3*%
%TO.N,I2C1_SDA*%
X111170000Y-65750000D03*
%TO.P,J1,4,Pin_4*%
%TO.N,I2C1_SCL*%
X113710000Y-65750000D03*
%TO.P,J1,5,Pin_5*%
%TO.N,SYS_JTCK_SWO*%
X116250000Y-65750000D03*
%TO.P,J1,6,Pin_6*%
%TO.N,FMC_NE1*%
X118790000Y-65750000D03*
%TO.P,J1,7,Pin_7*%
%TO.N,FMC_NWE*%
X121330000Y-65750000D03*
%TO.P,J1,8,Pin_8*%
%TO.N,FMC_RST*%
X123870000Y-65750000D03*
%TO.P,J1,9,Pin_9*%
%TO.N,FMC_D3*%
X126410000Y-65750000D03*
%TO.P,J1,10,Pin_10*%
%TO.N,FMC_D2*%
X128950000Y-65750000D03*
%TO.P,J1,11,Pin_11*%
%TO.N,SYS_JTCK_SWCLK*%
X131490000Y-65750000D03*
%TO.P,J1,12,Pin_12*%
%TO.N,Net-(J1-Pin_12)*%
X134030000Y-65750000D03*
%TO.P,J1,13,Pin_13*%
%TO.N,+3.3V*%
X136570000Y-65750000D03*
%TO.P,J1,14,Pin_14*%
X139110000Y-65750000D03*
%TD*%
D20*
%TO.P,C23,2*%
%TO.N,GND*%
X137500000Y-90790000D03*
%TO.P,C23,1*%
%TO.N,+5V*%
X137500000Y-91750000D03*
%TD*%
D21*
%TO.P,R3,2*%
%TO.N,RCC_OSC_OUT*%
X109510000Y-89000000D03*
%TO.P,R3,1*%
%TO.N,Net-(C18-Pad1)*%
X108490000Y-89000000D03*
%TD*%
D22*
%TO.P,D5,2,A*%
%TO.N,LED3*%
X103075000Y-93500000D03*
%TO.P,D5,1,K*%
%TO.N,Net-(D5-K)*%
X101500000Y-93500000D03*
%TD*%
D23*
%TO.P,C8,2*%
%TO.N,GND*%
X134250000Y-81960000D03*
%TO.P,C8,1*%
%TO.N,+3.3V*%
X134250000Y-81000000D03*
%TD*%
D24*
%TO.P,C6,2*%
%TO.N,GND*%
X118480000Y-78250000D03*
%TO.P,C6,1*%
%TO.N,+3.3V*%
X117520000Y-78250000D03*
%TD*%
D23*
%TO.P,C4,2*%
%TO.N,GND*%
X113750000Y-92210000D03*
%TO.P,C4,1*%
%TO.N,+3.3V*%
X113750000Y-91250000D03*
%TD*%
D25*
%TO.P,FB2,1*%
%TO.N,+VBUS*%
X139250000Y-89962500D03*
%TO.P,FB2,2*%
%TO.N,+5V*%
X139250000Y-91537500D03*
%TD*%
D23*
%TO.P,C17,2*%
%TO.N,GND*%
X118250000Y-101730000D03*
%TO.P,C17,1*%
%TO.N,BUTTON*%
X118250000Y-100770000D03*
%TD*%
D26*
%TO.P,D1,1,K*%
%TO.N,Net-(D1-K)*%
X121500000Y-99575000D03*
%TO.P,D1,2,A*%
%TO.N,LED1*%
X121500000Y-98000000D03*
%TD*%
D24*
%TO.P,C14,1*%
%TO.N,+3.3V*%
X112520000Y-99000000D03*
%TO.P,C14,2*%
%TO.N,GND*%
X113480000Y-99000000D03*
%TD*%
D23*
%TO.P,C20,1*%
%TO.N,Net-(U2-BST)*%
X137700000Y-97552500D03*
%TO.P,C20,2*%
%TO.N,Net-(U2-SW)*%
X137700000Y-98512500D03*
%TD*%
D27*
%TO.P,R2,1*%
%TO.N,Net-(C15-Pad1)*%
X116250000Y-101900000D03*
%TO.P,R2,2*%
%TO.N,BUTTON*%
X116250000Y-100250000D03*
%TD*%
D20*
%TO.P,C3,1*%
%TO.N,+3.3V*%
X114500000Y-86710000D03*
%TO.P,C3,2*%
%TO.N,GND*%
X114500000Y-85750000D03*
%TD*%
D28*
%TO.P,C24,1*%
%TO.N,+3.3V*%
X149850000Y-99000000D03*
%TO.P,C24,2*%
%TO.N,GND*%
X151750000Y-99000000D03*
%TD*%
D29*
%TO.P,R8,1*%
%TO.N,Net-(D4-K)*%
X99612500Y-97000000D03*
%TO.P,R8,2*%
%TO.N,GND*%
X97962500Y-97000000D03*
%TD*%
D30*
%TO.P,C2,1*%
%TO.N,+3.3V*%
X114730000Y-83980000D03*
%TO.P,C2,2*%
%TO.N,GND*%
X113770000Y-83980000D03*
%TD*%
D31*
%TO.P,R13,1*%
%TO.N,+3.3V*%
X145750000Y-97825000D03*
%TO.P,R13,2*%
%TO.N,Net-(U2-FB)*%
X145750000Y-96000000D03*
%TD*%
D32*
%TO.P,C19,2*%
%TO.N,GND*%
X137725000Y-93750000D03*
%TO.P,C19,1*%
%TO.N,+5V*%
X139275000Y-93750000D03*
%TD*%
D33*
%TO.P,FB1,1*%
%TO.N,+3.3VA*%
X114075000Y-97500000D03*
%TO.P,FB1,2*%
%TO.N,+3.3V*%
X112500000Y-97500000D03*
%TD*%
D29*
%TO.P,R12,1*%
%TO.N,Net-(J2-CC1)*%
X147575000Y-92250000D03*
%TO.P,R12,2*%
%TO.N,GND*%
X145925000Y-92250000D03*
%TD*%
D27*
%TO.P,R11,1*%
%TO.N,Net-(J2-CC2)*%
X147750000Y-79400000D03*
%TO.P,R11,2*%
%TO.N,GND*%
X147750000Y-77750000D03*
%TD*%
D29*
%TO.P,R5,1*%
%TO.N,Net-(D2-K)*%
X99575000Y-95250000D03*
%TO.P,R5,2*%
%TO.N,GND*%
X97925000Y-95250000D03*
%TD*%
%TO.P,R9,1*%
%TO.N,Net-(D5-K)*%
X99575000Y-93500000D03*
%TO.P,R9,2*%
%TO.N,GND*%
X97925000Y-93500000D03*
%TD*%
D16*
%TO.P,H1,1,1*%
%TO.N,GND*%
X97780419Y-117505419D03*
X95500000Y-116560838D03*
X100060838Y-116560838D03*
X94555419Y-114280419D03*
D17*
X97780419Y-114280419D03*
D16*
X101005419Y-114280419D03*
X95500000Y-112000000D03*
X100060838Y-112000000D03*
X97780419Y-111055419D03*
%TD*%
D34*
%TO.P,U1,1,PE2*%
%TO.N,LSM6DSR_INT1*%
X116650000Y-82040000D03*
%TO.P,U1,2,PE3*%
%TO.N,LSM6DSR_INT2*%
X116650000Y-82540000D03*
%TO.P,U1,3,PE4*%
%TO.N,unconnected-(U1-PE4-Pad3)*%
X116650000Y-83040000D03*
%TO.P,U1,4,PE5*%
%TO.N,unconnected-(U1-PE5-Pad4)*%
X116650000Y-83540000D03*
%TO.P,U1,5,PE6*%
%TO.N,unconnected-(U1-PE6-Pad5)*%
X116650000Y-84040000D03*
%TO.P,U1,6,VBAT*%
%TO.N,+3.3V*%
X116650000Y-84540000D03*
%TO.P,U1,7,PC13*%
%TO.N,unconnected-(U1-PC13-Pad7)*%
X116650000Y-85040000D03*
%TO.P,U1,8,PC14*%
%TO.N,unconnected-(U1-PC14-Pad8)*%
X116650000Y-85540000D03*
%TO.P,U1,9,PC15*%
%TO.N,unconnected-(U1-PC15-Pad9)*%
X116650000Y-86040000D03*
%TO.P,U1,10,VSS*%
%TO.N,GND*%
X116650000Y-86540000D03*
%TO.P,U1,11,VDD*%
%TO.N,+3.3V*%
X116650000Y-87040000D03*
%TO.P,U1,12,PH0*%
%TO.N,RCC_OSC_IN*%
X116650000Y-87540000D03*
%TO.P,U1,13,PH1*%
%TO.N,RCC_OSC_OUT*%
X116650000Y-88040000D03*
%TO.P,U1,14,NRST*%
%TO.N,NRST*%
X116650000Y-88540000D03*
%TO.P,U1,15,PC0*%
%TO.N,LED2*%
X116650000Y-89040000D03*
%TO.P,U1,16,PC1*%
%TO.N,LED3*%
X116650000Y-89540000D03*
%TO.P,U1,17,PC2*%
%TO.N,LED4*%
X116650000Y-90040000D03*
%TO.P,U1,18,PC3*%
%TO.N,LED5*%
X116650000Y-90540000D03*
%TO.P,U1,19,VDD*%
%TO.N,+3.3V*%
X116650000Y-91040000D03*
%TO.P,U1,20,VSSA*%
%TO.N,GND*%
X116650000Y-91540000D03*
%TO.P,U1,21,VREF+*%
%TO.N,+3.3V*%
X116650000Y-92040000D03*
%TO.P,U1,22,VDDA*%
%TO.N,+3.3VA*%
X116650000Y-92540000D03*
%TO.P,U1,23,PA0*%
%TO.N,BUTTON*%
X116650000Y-93040000D03*
%TO.P,U1,24,PA1*%
%TO.N,unconnected-(U1-PA1-Pad24)*%
X116650000Y-93540000D03*
%TO.P,U1,25,PA2*%
%TO.N,unconnected-(U1-PA2-Pad25)*%
X116650000Y-94040000D03*
D35*
%TO.P,U1,26,PA3*%
%TO.N,unconnected-(U1-PA3-Pad26)*%
X118325000Y-95715000D03*
%TO.P,U1,27,VSS*%
%TO.N,GND*%
X118825000Y-95715000D03*
%TO.P,U1,28,VDD*%
%TO.N,+3.3V*%
X119325000Y-95715000D03*
%TO.P,U1,29,PA4*%
%TO.N,unconnected-(U1-PA4-Pad29)*%
X119825000Y-95715000D03*
%TO.P,U1,30,PA5*%
%TO.N,unconnected-(U1-PA5-Pad30)*%
X120325000Y-95715000D03*
%TO.P,U1,31,PA6*%
%TO.N,unconnected-(U1-PA6-Pad31)*%
X120825000Y-95715000D03*
%TO.P,U1,32,PA7*%
%TO.N,LED1*%
X121325000Y-95715000D03*
%TO.P,U1,33,PC4*%
%TO.N,unconnected-(U1-PC4-Pad33)*%
X121825000Y-95715000D03*
%TO.P,U1,34,PC5*%
%TO.N,unconnected-(U1-PC5-Pad34)*%
X122325000Y-95715000D03*
%TO.P,U1,35,PB0*%
%TO.N,unconnected-(U1-PB0-Pad35)*%
X122825000Y-95715000D03*
%TO.P,U1,36,PB1*%
%TO.N,unconnected-(U1-PB1-Pad36)*%
X123325000Y-95715000D03*
%TO.P,U1,37,PB2*%
%TO.N,unconnected-(U1-PB2-Pad37)*%
X123825000Y-95715000D03*
%TO.P,U1,38,PE7*%
%TO.N,FMC_D4*%
X124325000Y-95715000D03*
%TO.P,U1,39,PE8*%
%TO.N,FMC_D5*%
X124825000Y-95715000D03*
%TO.P,U1,40,PE9*%
%TO.N,FMC_D6*%
X125325000Y-95715000D03*
%TO.P,U1,41,PE10*%
%TO.N,FMC_D7*%
X125825000Y-95715000D03*
%TO.P,U1,42,PE11*%
%TO.N,FMC_D8*%
X126325000Y-95715000D03*
%TO.P,U1,43,PE12*%
%TO.N,FMC_D9*%
X126825000Y-95715000D03*
%TO.P,U1,44,PE13*%
%TO.N,FMC_D10*%
X127325000Y-95715000D03*
%TO.P,U1,45,PE14*%
%TO.N,FMC_D11*%
X127825000Y-95715000D03*
%TO.P,U1,46,PE15*%
%TO.N,FMC_D12*%
X128325000Y-95715000D03*
%TO.P,U1,47,PB10*%
%TO.N,unconnected-(U1-PB10-Pad47)*%
X128825000Y-95715000D03*
%TO.P,U1,48,PB11*%
%TO.N,unconnected-(U1-PB11-Pad48)*%
X129325000Y-95715000D03*
%TO.P,U1,49,VCAP_1*%
%TO.N,Net-(U1-VCAP_1)*%
X129825000Y-95715000D03*
%TO.P,U1,50,VDD*%
%TO.N,+3.3V*%
X130325000Y-95715000D03*
D34*
%TO.P,U1,51,PB12*%
%TO.N,unconnected-(U1-PB12-Pad51)*%
X132000000Y-94040000D03*
%TO.P,U1,52,PB13*%
%TO.N,unconnected-(U1-PB13-Pad52)*%
X132000000Y-93540000D03*
%TO.P,U1,53,PB14*%
%TO.N,unconnected-(U1-PB14-Pad53)*%
X132000000Y-93040000D03*
%TO.P,U1,54,PB15*%
%TO.N,unconnected-(U1-PB15-Pad54)*%
X132000000Y-92540000D03*
%TO.P,U1,55,PD8*%
%TO.N,FMC_D13*%
X132000000Y-92040000D03*
%TO.P,U1,56,PD9*%
%TO.N,FMC_D14*%
X132000000Y-91540000D03*
%TO.P,U1,57,PD10*%
%TO.N,FMC_D15*%
X132000000Y-91040000D03*
%TO.P,U1,58,PD11*%
%TO.N,FMC_A16*%
X132000000Y-90540000D03*
%TO.P,U1,59,PD12*%
%TO.N,unconnected-(U1-PD12-Pad59)*%
X132000000Y-90040000D03*
%TO.P,U1,60,PD13*%
%TO.N,unconnected-(U1-PD13-Pad60)*%
X132000000Y-89540000D03*
%TO.P,U1,61,PD14*%
%TO.N,FMC_D0*%
X132000000Y-89040000D03*
%TO.P,U1,62,PD15*%
%TO.N,FMC_D1*%
X132000000Y-88540000D03*
%TO.P,U1,63,PC6*%
%TO.N,unconnected-(U1-PC6-Pad63)*%
X132000000Y-88040000D03*
%TO.P,U1,64,PC7*%
%TO.N,unconnected-(U1-PC7-Pad64)*%
X132000000Y-87540000D03*
%TO.P,U1,65,PC8*%
%TO.N,unconnected-(U1-PC8-Pad65)*%
X132000000Y-87040000D03*
%TO.P,U1,66,PC9*%
%TO.N,unconnected-(U1-PC9-Pad66)*%
X132000000Y-86540000D03*
%TO.P,U1,67,PA8*%
%TO.N,unconnected-(U1-PA8-Pad67)*%
X132000000Y-86040000D03*
%TO.P,U1,68,PA9*%
%TO.N,unconnected-(U1-PA9-Pad68)*%
X132000000Y-85540000D03*
%TO.P,U1,69,PA10*%
%TO.N,unconnected-(U1-PA10-Pad69)*%
X132000000Y-85040000D03*
%TO.P,U1,70,PA11*%
%TO.N,USB_OTG_FS_D-*%
X132000000Y-84540000D03*
%TO.P,U1,71,PA12*%
%TO.N,USB_OTG_FS_D+*%
X132000000Y-84040000D03*
%TO.P,U1,72,PA13*%
%TO.N,SYS_JTMS_SWDIO*%
X132000000Y-83540000D03*
%TO.P,U1,73,VCAP_2*%
%TO.N,Net-(U1-VCAP_2)*%
X132000000Y-83040000D03*
%TO.P,U1,74,VSS*%
%TO.N,GND*%
X132000000Y-82540000D03*
%TO.P,U1,75,VDD*%
%TO.N,+3.3V*%
X132000000Y-82040000D03*
D35*
%TO.P,U1,76,PA14*%
%TO.N,SYS_JTCK_SWCLK*%
X130325000Y-80365000D03*
%TO.P,U1,77,PA15*%
%TO.N,unconnected-(U1-PA15-Pad77)*%
X129825000Y-80365000D03*
%TO.P,U1,78,PC10*%
%TO.N,unconnected-(U1-PC10-Pad78)*%
X129325000Y-80365000D03*
%TO.P,U1,79,PC11*%
%TO.N,unconnected-(U1-PC11-Pad79)*%
X128825000Y-80365000D03*
%TO.P,U1,80,PC12*%
%TO.N,unconnected-(U1-PC12-Pad80)*%
X128325000Y-80365000D03*
%TO.P,U1,81,PD0*%
%TO.N,FMC_D2*%
X127825000Y-80365000D03*
%TO.P,U1,82,PD1*%
%TO.N,FMC_D3*%
X127325000Y-80365000D03*
%TO.P,U1,83,PD2*%
%TO.N,unconnected-(U1-PD2-Pad83)*%
X126825000Y-80365000D03*
%TO.P,U1,84,PD3*%
%TO.N,FMC_RST*%
X126325000Y-80365000D03*
%TO.P,U1,85,PD4*%
%TO.N,unconnected-(U1-PD4-Pad85)*%
X125825000Y-80365000D03*
%TO.P,U1,86,PD5*%
%TO.N,FMC_NWE*%
X125325000Y-80365000D03*
%TO.P,U1,87,PD6*%
%TO.N,unconnected-(U1-PD6-Pad87)*%
X124825000Y-80365000D03*
%TO.P,U1,88,PD7*%
%TO.N,FMC_NE1*%
X124325000Y-80365000D03*
%TO.P,U1,89,PB3*%
%TO.N,SYS_JTCK_SWO*%
X123825000Y-80365000D03*
%TO.P,U1,90,PB4*%
%TO.N,unconnected-(U1-PB4-Pad90)*%
X123325000Y-80365000D03*
%TO.P,U1,91,PB5*%
%TO.N,unconnected-(U1-PB5-Pad91)*%
X122825000Y-80365000D03*
%TO.P,U1,92,PB6*%
%TO.N,I2C1_SCL*%
X122325000Y-80365000D03*
%TO.P,U1,93,PB7*%
%TO.N,I2C1_SDA*%
X121825000Y-80365000D03*
%TO.P,U1,94,BOOT0*%
%TO.N,BOOT0*%
X121325000Y-80365000D03*
%TO.P,U1,95,PB8*%
%TO.N,unconnected-(U1-PB8-Pad95)*%
X120825000Y-80365000D03*
%TO.P,U1,96,PB9*%
%TO.N,unconnected-(U1-PB9-Pad96)*%
X120325000Y-80365000D03*
%TO.P,U1,97,PE0*%
%TO.N,LIS3MDLTR_INT*%
X119825000Y-80365000D03*
%TO.P,U1,98,PE1*%
%TO.N,LIS3MDLTR_DRDY*%
X119325000Y-80365000D03*
%TO.P,U1,99,VSS*%
%TO.N,GND*%
X118825000Y-80365000D03*
%TO.P,U1,100,VDD*%
%TO.N,+3.3V*%
X118325000Y-80365000D03*
%TD*%
D36*
%TO.P,R10,1*%
%TO.N,Net-(J1-Pin_12)*%
X132250000Y-76750000D03*
%TO.P,R10,2*%
%TO.N,SYS_JTMS_SWDIO*%
X132250000Y-78400000D03*
%TD*%
D28*
%TO.P,C25,1*%
%TO.N,+3.3V*%
X149800000Y-101750000D03*
%TO.P,C25,2*%
%TO.N,GND*%
X151700000Y-101750000D03*
%TD*%
D23*
%TO.P,C7,1*%
%TO.N,Net-(U1-VCAP_1)*%
X129750000Y-97750000D03*
%TO.P,C7,2*%
%TO.N,GND*%
X129750000Y-98710000D03*
%TD*%
D22*
%TO.P,D4,1,K*%
%TO.N,Net-(D4-K)*%
X101537500Y-97000000D03*
%TO.P,D4,2,A*%
%TO.N,LED5*%
X103112500Y-97000000D03*
%TD*%
D36*
%TO.P,R4,1*%
%TO.N,Net-(D1-K)*%
X121500000Y-101250000D03*
%TO.P,R4,2*%
%TO.N,GND*%
X121500000Y-102900000D03*
%TD*%
D30*
%TO.P,C15,1*%
%TO.N,Net-(C15-Pad1)*%
X114730000Y-102000000D03*
%TO.P,C15,2*%
%TO.N,GND*%
X113770000Y-102000000D03*
%TD*%
%TO.P,C18,1*%
%TO.N,Net-(C18-Pad1)*%
X107250000Y-89000000D03*
%TO.P,C18,2*%
%TO.N,GND*%
X106290000Y-89000000D03*
%TD*%
D29*
%TO.P,R6,1*%
%TO.N,Net-(D3-K)*%
X99537500Y-91750000D03*
%TO.P,R6,2*%
%TO.N,GND*%
X97887500Y-91750000D03*
%TD*%
D37*
%TO.P,R1,1*%
%TO.N,Net-(C15-Pad1)*%
X116250000Y-104000000D03*
%TO.P,R1,2*%
%TO.N,GND*%
X114425000Y-104000000D03*
%TD*%
D30*
%TO.P,C11,1*%
%TO.N,+3.3V*%
X119500000Y-98000000D03*
%TO.P,C11,2*%
%TO.N,GND*%
X118540000Y-98000000D03*
%TD*%
D38*
%TO.P,R14,1*%
%TO.N,Net-(U2-FB)*%
X148175000Y-96250000D03*
%TO.P,R14,2*%
%TO.N,GND*%
X150000000Y-96250000D03*
%TD*%
D20*
%TO.P,C16,1*%
%TO.N,RCC_OSC_IN*%
X110750000Y-85480000D03*
%TO.P,C16,2*%
%TO.N,GND*%
X110750000Y-84520000D03*
%TD*%
D39*
%TO.P,U3,1,I/O1*%
%TO.N,Net-(J2-D--PadA7)*%
X140000000Y-86900000D03*
%TO.P,U3,2,GND*%
%TO.N,GND*%
X140000000Y-85950000D03*
%TO.P,U3,3,I/O2*%
%TO.N,Net-(J2-D+-PadA6)*%
X140000000Y-85000000D03*
%TO.P,U3,4,I/O2*%
%TO.N,USB_OTG_FS_D+*%
X137725000Y-85000000D03*
%TO.P,U3,5,VBUS*%
%TO.N,+VBUS*%
X137725000Y-85950000D03*
%TO.P,U3,6,I/O1*%
%TO.N,USB_OTG_FS_D-*%
X137725000Y-86900000D03*
%TD*%
D30*
%TO.P,C5,1*%
%TO.N,+3.3V*%
X114250000Y-93250000D03*
%TO.P,C5,2*%
%TO.N,GND*%
X113290000Y-93250000D03*
%TD*%
D40*
%TO.P,R7,1*%
%TO.N,Net-(SW2-B)*%
X121000000Y-77250000D03*
%TO.P,R7,2*%
%TO.N,BOOT0*%
X121000000Y-78270000D03*
%TD*%
D41*
%TO.P,C1,2*%
%TO.N,GND*%
X118750000Y-76750000D03*
%TO.P,C1,1*%
%TO.N,+3.3V*%
X117200000Y-76750000D03*
%TD*%
D42*
%TO.P,U2,1,GND*%
%TO.N,GND*%
X139300000Y-99037500D03*
%TO.P,U2,2,SW*%
%TO.N,Net-(U2-SW)*%
X140250000Y-99037500D03*
%TO.P,U2,3,IN*%
%TO.N,+5V*%
X141200000Y-99037500D03*
%TO.P,U2,4,FB*%
%TO.N,Net-(U2-FB)*%
X141200000Y-96762500D03*
%TO.P,U2,5,EN*%
%TO.N,+5V*%
X140250000Y-96762500D03*
%TO.P,U2,6,BST*%
%TO.N,Net-(U2-BST)*%
X139300000Y-96762500D03*
%TD*%
D24*
%TO.P,C9,1*%
%TO.N,Net-(U1-VCAP_2)*%
X134290000Y-83000000D03*
%TO.P,C9,2*%
%TO.N,GND*%
X135250000Y-83000000D03*
%TD*%
D23*
%TO.P,C10,1*%
%TO.N,+3.3V*%
X131000000Y-97770000D03*
%TO.P,C10,2*%
%TO.N,GND*%
X131000000Y-98730000D03*
%TD*%
%TO.P,C22,1*%
%TO.N,+VBUS*%
X141500000Y-90020000D03*
%TO.P,C22,2*%
%TO.N,GND*%
X141500000Y-90980000D03*
%TD*%
D30*
%TO.P,C12,1*%
%TO.N,+3.3VA*%
X114250000Y-94750000D03*
%TO.P,C12,2*%
%TO.N,GND*%
X113290000Y-94750000D03*
%TD*%
D43*
%TO.P,L1,1,1*%
%TO.N,Net-(U2-SW)*%
X144250000Y-107250000D03*
%TO.P,L1,2,2*%
%TO.N,+3.3V*%
X144250000Y-101750000D03*
%TD*%
D22*
%TO.P,D2,1,K*%
%TO.N,Net-(D2-K)*%
X101500000Y-95250000D03*
%TO.P,D2,2,A*%
%TO.N,LED4*%
X103075000Y-95250000D03*
%TD*%
D44*
%TO.P,Y1,1,1*%
%TO.N,RCC_OSC_IN*%
X109000000Y-85500000D03*
%TO.P,Y1,2,2*%
%TO.N,GND*%
X106800000Y-85500000D03*
%TO.P,Y1,3,3*%
%TO.N,Net-(C18-Pad1)*%
X106800000Y-87200000D03*
%TO.P,Y1,4,4*%
%TO.N,GND*%
X109000000Y-87200000D03*
%TD*%
D30*
%TO.P,C13,1*%
%TO.N,+3.3VA*%
X114250000Y-96000000D03*
%TO.P,C13,2*%
%TO.N,GND*%
X113290000Y-96000000D03*
%TD*%
D33*
%TO.P,D6,1,K*%
%TO.N,Net-(D6-K)*%
X151575000Y-105500000D03*
%TO.P,D6,2,A*%
%TO.N,+3.3V*%
X150000000Y-105500000D03*
%TD*%
D22*
%TO.P,D3,1,K*%
%TO.N,Net-(D3-K)*%
X101462500Y-91750000D03*
%TO.P,D3,2,A*%
%TO.N,LED2*%
X103037500Y-91750000D03*
%TD*%
D29*
%TO.P,R15,1*%
%TO.N,Net-(D6-K)*%
X151575000Y-107750000D03*
%TO.P,R15,2*%
%TO.N,GND*%
X149925000Y-107750000D03*
%TD*%
D45*
%TO.P,SW1,1,1*%
%TO.N,Net-(C15-Pad1)*%
X104000000Y-106500000D03*
X97500000Y-106500000D03*
%TO.P,SW1,2,2*%
%TO.N,+3.3V*%
X104000000Y-102000000D03*
X97500000Y-102000000D03*
%TD*%
D20*
%TO.P,C21,1*%
%TO.N,+3.3V*%
X143250000Y-98210000D03*
%TO.P,C21,2*%
%TO.N,Net-(U2-FB)*%
X143250000Y-97250000D03*
%TD*%
D46*
%TO.N,GND*%
X137500000Y-95000000D03*
%TO.N,+3.3V*%
X101500000Y-70000000D03*
X101500000Y-72250000D03*
X101500000Y-75750000D03*
X101500000Y-74000000D03*
%TO.N,GND*%
X118500000Y-75650000D03*
%TO.N,+3.3V*%
X129000000Y-104250000D03*
X123500000Y-104250000D03*
X137250000Y-104250000D03*
X132750000Y-104250000D03*
%TO.N,GND*%
X150000000Y-109250000D03*
X152000000Y-103500000D03*
X151750000Y-97500000D03*
X151250000Y-96250000D03*
X139200000Y-100287500D03*
X144750000Y-92250000D03*
X137500000Y-89750000D03*
X142500000Y-91000000D03*
X147750000Y-76500000D03*
X151750000Y-91750000D03*
X145250000Y-89000000D03*
X145250000Y-90250000D03*
X145250000Y-81500000D03*
X151750000Y-80000000D03*
X145250000Y-82500000D03*
X141500000Y-86000000D03*
X143500000Y-68250000D03*
X101500000Y-110250000D03*
X136250000Y-83000000D03*
X135250000Y-82000000D03*
X131000000Y-99750000D03*
X129750000Y-99750000D03*
X117750000Y-98000000D03*
X121500000Y-104250000D03*
X118250000Y-102500000D03*
X112750000Y-102000000D03*
X113000000Y-104000000D03*
X103250000Y-65750000D03*
X98500000Y-66000000D03*
X114250000Y-99000000D03*
X112500000Y-96000000D03*
X112500000Y-94750000D03*
X112500000Y-92250000D03*
X112250000Y-93250000D03*
X96750000Y-97000000D03*
X96750000Y-95250000D03*
X96750000Y-93500000D03*
X96750000Y-91750000D03*
X113750000Y-85250000D03*
X113000000Y-84000000D03*
X111500000Y-84500000D03*
X105250000Y-89000000D03*
X105250000Y-85500000D03*
X110500000Y-87500000D03*
%TD*%
D47*
%TO.N,Net-(J2-CC2)*%
X146995000Y-84070000D02*
X148430000Y-84070000D01*
X148430000Y-84070000D02*
X149500000Y-83000000D01*
X149500000Y-83000000D02*
X149500000Y-81150000D01*
X149500000Y-81150000D02*
X147750000Y-79400000D01*
%TO.N,Net-(D4-K)*%
X99612500Y-97000000D02*
X101537500Y-97000000D01*
%TO.N,Net-(D2-K)*%
X99575000Y-95250000D02*
X101500000Y-95250000D01*
%TO.N,Net-(D5-K)*%
X99575000Y-93500000D02*
X101500000Y-93500000D01*
%TO.N,Net-(D3-K)*%
X99537500Y-91750000D02*
X101462500Y-91750000D01*
D48*
%TO.N,GND*%
X137725000Y-94775000D02*
X137500000Y-95000000D01*
X137725000Y-93750000D02*
X137725000Y-94775000D01*
X108630000Y-65750000D02*
X106090000Y-65750000D01*
%TO.N,+3.3V*%
X136570000Y-65750000D02*
X136570000Y-78680000D01*
X136570000Y-78680000D02*
X134250000Y-81000000D01*
X101500000Y-70000000D02*
X101500000Y-65250000D01*
X101500000Y-65250000D02*
X103500000Y-63250000D01*
X103500000Y-63250000D02*
X134070000Y-63250000D01*
X134070000Y-63250000D02*
X136570000Y-65750000D01*
X101500000Y-74000000D02*
X101500000Y-72250000D01*
X102500000Y-76750000D02*
X117200000Y-76750000D01*
X98750000Y-73000000D02*
X100500000Y-73000000D01*
X100500000Y-73000000D02*
X101500000Y-74000000D01*
X101500000Y-75750000D02*
X102500000Y-76750000D01*
%TO.N,GND*%
X118750000Y-75900000D02*
X118500000Y-75650000D01*
X118750000Y-76750000D02*
X118750000Y-75900000D01*
D47*
%TO.N,+3.3V*%
X117790000Y-84540000D02*
X118250000Y-85000000D01*
X116650000Y-84540000D02*
X117790000Y-84540000D01*
X118250000Y-85000000D02*
X118250000Y-87500000D01*
X116650000Y-87040000D02*
X117790000Y-87040000D01*
X117790000Y-87040000D02*
X118250000Y-87500000D01*
X118250000Y-87500000D02*
X118250000Y-90750000D01*
X118250000Y-90750000D02*
X117960000Y-91040000D01*
X116650000Y-91040000D02*
X117960000Y-91040000D01*
X117960000Y-91040000D02*
X118540000Y-91620000D01*
X118540000Y-91620000D02*
X118540000Y-92040000D01*
X119325000Y-95715000D02*
X119325000Y-92825000D01*
X119325000Y-92825000D02*
X118540000Y-92040000D01*
X118540000Y-92040000D02*
X116650000Y-92040000D01*
D48*
X139110000Y-65750000D02*
X136570000Y-65750000D01*
X94500000Y-103000000D02*
X93750000Y-102250000D01*
X98750000Y-73000000D02*
X99500000Y-72250000D01*
X99500000Y-70750000D02*
X99150000Y-70400000D01*
X93750000Y-102250000D02*
X93750000Y-74000000D01*
X93750000Y-74000000D02*
X94750000Y-73000000D01*
X94750000Y-73000000D02*
X98750000Y-73000000D01*
X99500000Y-72250000D02*
X99500000Y-70750000D01*
X99150000Y-70400000D02*
X96860000Y-70400000D01*
X104000000Y-102000000D02*
X108500000Y-97500000D01*
X108500000Y-97500000D02*
X112500000Y-97500000D01*
X97500000Y-102000000D02*
X95500000Y-102000000D01*
X95500000Y-102000000D02*
X94500000Y-103000000D01*
X94500000Y-103000000D02*
X94500000Y-108000000D01*
X119000000Y-107250000D02*
X120750000Y-105500000D01*
X94500000Y-108000000D02*
X95750000Y-109250000D01*
X95750000Y-109250000D02*
X112000000Y-109250000D01*
X112000000Y-109250000D02*
X114000000Y-107250000D01*
X114000000Y-107250000D02*
X119000000Y-107250000D01*
X123500000Y-104250000D02*
X122250000Y-105500000D01*
X132750000Y-104250000D02*
X129000000Y-104250000D01*
X122250000Y-105500000D02*
X120750000Y-105500000D01*
X120750000Y-105500000D02*
X119500000Y-104250000D01*
X119500000Y-104250000D02*
X119500000Y-98000000D01*
X138000000Y-105000000D02*
X137250000Y-104250000D01*
X138000000Y-105500000D02*
X138000000Y-105000000D01*
X132250000Y-98710001D02*
X131309999Y-97770000D01*
X147250000Y-111000000D02*
X140500000Y-111000000D01*
X140500000Y-111000000D02*
X138000000Y-108500000D01*
X131309999Y-97770000D02*
X131000000Y-97770000D01*
X138000000Y-108500000D02*
X138000000Y-105500000D01*
X148250000Y-104500000D02*
X148250000Y-110000000D01*
X148250000Y-110000000D02*
X147250000Y-111000000D01*
X132750000Y-104250000D02*
X132250000Y-103750000D01*
X132250000Y-103750000D02*
X132250000Y-98710001D01*
%TO.N,GND*%
X149925000Y-109175000D02*
X150000000Y-109250000D01*
X149925000Y-107750000D02*
X149925000Y-109175000D01*
%TO.N,Net-(D6-K)*%
X151575000Y-105500000D02*
X151575000Y-107750000D01*
%TO.N,+3.3V*%
X148250000Y-104500000D02*
X148250000Y-99250000D01*
X148250000Y-99250000D02*
X148000000Y-99000000D01*
X149250000Y-105500000D02*
X148250000Y-104500000D01*
X150000000Y-105500000D02*
X149250000Y-105500000D01*
X146825000Y-97825000D02*
X148000000Y-99000000D01*
X145750000Y-97825000D02*
X146825000Y-97825000D01*
X148000000Y-99000000D02*
X149850000Y-99000000D01*
%TO.N,GND*%
X151700000Y-103200000D02*
X152000000Y-103500000D01*
X151700000Y-101750000D02*
X151700000Y-103200000D01*
X151750000Y-99000000D02*
X151750000Y-97500000D01*
%TO.N,+3.3V*%
X149800000Y-101750000D02*
X149800000Y-99050000D01*
X149800000Y-99050000D02*
X149850000Y-99000000D01*
X143250000Y-98210000D02*
X145365000Y-98210000D01*
X145365000Y-98210000D02*
X145750000Y-97825000D01*
%TO.N,GND*%
X150000000Y-96250000D02*
X151250000Y-96250000D01*
%TO.N,Net-(U2-FB)*%
X148175000Y-96250000D02*
X146000000Y-96250000D01*
X146000000Y-96250000D02*
X145750000Y-96000000D01*
X143250000Y-97250000D02*
X144500000Y-97250000D01*
X144500000Y-97250000D02*
X145750000Y-96000000D01*
X141200000Y-96762500D02*
X142762500Y-96762500D01*
X142762500Y-96762500D02*
X143250000Y-97250000D01*
%TO.N,+3.3V*%
X144250000Y-101750000D02*
X144250000Y-100500000D01*
X144250000Y-100500000D02*
X143250000Y-99500000D01*
X143250000Y-99500000D02*
X143250000Y-98210000D01*
%TO.N,Net-(U2-SW)*%
X144250000Y-107250000D02*
X142250000Y-109250000D01*
X142250000Y-109250000D02*
X141000000Y-109250000D01*
X141000000Y-109250000D02*
X139674000Y-107924000D01*
X139674000Y-107924000D02*
X139674000Y-101038500D01*
D47*
%TO.N,FMC_D1*%
X132000000Y-88540000D02*
X133290000Y-88540000D01*
X146290000Y-114540000D02*
X146290000Y-116250000D01*
X133290000Y-88540000D02*
X136500000Y-91750000D01*
X136500000Y-91750000D02*
X136500000Y-108500000D01*
X136500000Y-108500000D02*
X142000000Y-114000000D01*
X145750000Y-114000000D02*
X146290000Y-114540000D01*
X142000000Y-114000000D02*
X145750000Y-114000000D01*
%TO.N,FMC_D0*%
X132000000Y-89040000D02*
X133040000Y-89040000D01*
X133040000Y-89040000D02*
X135750000Y-91750000D01*
X135750000Y-91750000D02*
X135750000Y-108750000D01*
X135750000Y-108750000D02*
X143250000Y-116250000D01*
X143250000Y-116250000D02*
X143750000Y-116250000D01*
%TO.N,FMC_A16*%
X132000000Y-90540000D02*
X133705040Y-90540000D01*
X135250000Y-110250000D02*
X141210000Y-116210000D01*
X133705040Y-90540000D02*
X135250000Y-92084960D01*
X135250000Y-92084960D02*
X135250000Y-110250000D01*
X141210000Y-116210000D02*
X141210000Y-116250000D01*
D48*
%TO.N,+5V*%
X140250000Y-96762500D02*
X140250000Y-97520900D01*
X140250000Y-97520900D02*
X141200000Y-98470900D01*
X141200000Y-98470900D02*
X141200000Y-99037500D01*
X139275000Y-93750000D02*
X140250000Y-94725000D01*
X140250000Y-94725000D02*
X140250000Y-96762500D01*
%TO.N,Net-(U2-BST)*%
X139300000Y-96762500D02*
X138490000Y-96762500D01*
X138490000Y-96762500D02*
X137700000Y-97552500D01*
%TO.N,Net-(U2-SW)*%
X137700000Y-98512500D02*
X137700000Y-100512500D01*
X137700000Y-100512500D02*
X138226000Y-101038500D01*
X138226000Y-101038500D02*
X139674000Y-101038500D01*
X139674000Y-101038500D02*
X140250000Y-100462500D01*
X140250000Y-100462500D02*
X140250000Y-99037500D01*
%TO.N,GND*%
X139300000Y-100187500D02*
X139200000Y-100287500D01*
X139300000Y-99037500D02*
X139300000Y-100187500D01*
%TO.N,+5V*%
X139275000Y-93750000D02*
X139275000Y-91562500D01*
X139275000Y-91562500D02*
X139250000Y-91537500D01*
%TO.N,GND*%
X141500000Y-90980000D02*
X142480000Y-90980000D01*
X142480000Y-90980000D02*
X142500000Y-91000000D01*
X145925000Y-92250000D02*
X144750000Y-92250000D01*
%TO.N,+5V*%
X108190000Y-116250000D02*
X108190000Y-117690000D01*
X108190000Y-117690000D02*
X109000000Y-118500000D01*
X109000000Y-118500000D02*
X153250000Y-118500000D01*
X153250000Y-118500000D02*
X154000000Y-117750000D01*
X140037500Y-91537500D02*
X139250000Y-91537500D01*
X154000000Y-117750000D02*
X154000000Y-95000000D01*
X154000000Y-95000000D02*
X152500000Y-93500000D01*
X152500000Y-93500000D02*
X142000000Y-93500000D01*
X142000000Y-93500000D02*
X140037500Y-91537500D01*
%TO.N,+VBUS*%
X141500000Y-90020000D02*
X143300000Y-88220000D01*
X143300000Y-88220000D02*
X146995000Y-88220000D01*
D47*
%TO.N,Net-(J2-D--PadA7)*%
X140000000Y-86900000D02*
X144850000Y-86900000D01*
X144850000Y-86900000D02*
X145180000Y-86570000D01*
%TO.N,Net-(J2-D+-PadA6)*%
X146995000Y-85070000D02*
X146320000Y-85070000D01*
X146320000Y-85070000D02*
X146250000Y-85000000D01*
X146250000Y-85000000D02*
X140000000Y-85000000D01*
%TO.N,Net-(J2-CC1)*%
X146995000Y-87070000D02*
X148070000Y-87070000D01*
X148070000Y-87070000D02*
X149250000Y-88250000D01*
X149250000Y-88250000D02*
X149250000Y-91500000D01*
X149250000Y-91500000D02*
X148500000Y-92250000D01*
X148500000Y-92250000D02*
X147575000Y-92250000D01*
D48*
%TO.N,+5V*%
X105650000Y-116250000D02*
X108190000Y-116250000D01*
X139200000Y-91587500D02*
X139250000Y-91537500D01*
%TO.N,+VBUS*%
X137725000Y-85950000D02*
X138387499Y-85950000D01*
X138838500Y-86401001D02*
X138838500Y-89551000D01*
X138387499Y-85950000D02*
X138838500Y-86401001D01*
X138838500Y-89551000D02*
X139250000Y-89962500D01*
D47*
%TO.N,Net-(SW2-B)*%
X121000000Y-77250000D02*
X121000000Y-74750000D01*
X119500000Y-73250000D02*
X103500000Y-73250000D01*
X121000000Y-74750000D02*
X119500000Y-73250000D01*
X103500000Y-73250000D02*
X99150000Y-68900000D01*
X99150000Y-68900000D02*
X96860000Y-68900000D01*
D48*
%TO.N,GND*%
X137500000Y-90790000D02*
X137500000Y-89750000D01*
%TO.N,+5V*%
X137500000Y-91750000D02*
X139037500Y-91750000D01*
X139037500Y-91750000D02*
X139250000Y-91537500D01*
%TO.N,+VBUS*%
X139250000Y-89962500D02*
X141442500Y-89962500D01*
X141442500Y-89962500D02*
X141500000Y-90020000D01*
D49*
%TO.N,USB_OTG_FS_D-*%
X134196802Y-84515000D02*
X135856802Y-86175000D01*
X133225001Y-84515000D02*
X134196802Y-84515000D01*
X133200001Y-84540000D02*
X133225001Y-84515000D01*
X132000000Y-84540000D02*
X133200001Y-84540000D01*
X136637500Y-86175000D02*
X137362500Y-86900000D01*
X137362500Y-86900000D02*
X137725000Y-86900000D01*
%TO.N,USB_OTG_FS_D+*%
X136637500Y-85725000D02*
X137362500Y-85000000D01*
%TO.N,USB_OTG_FS_D-*%
X135856802Y-86175000D02*
X136637500Y-86175000D01*
%TO.N,USB_OTG_FS_D+*%
X134383198Y-84065000D02*
X136043198Y-85725000D01*
X137362500Y-85000000D02*
X137725000Y-85000000D01*
X133225001Y-84065000D02*
X134383198Y-84065000D01*
X133200001Y-84040000D02*
X133225001Y-84065000D01*
X132000000Y-84040000D02*
X133200001Y-84040000D01*
X136043198Y-85725000D02*
X136637500Y-85725000D01*
D47*
%TO.N,Net-(J2-D--PadA7)*%
X146995000Y-85570000D02*
X145680000Y-85570000D01*
X145680000Y-85570000D02*
X145180000Y-86070000D01*
X145180000Y-86070000D02*
X145180000Y-86570000D01*
%TO.N,Net-(J2-D+-PadA6)*%
X146995000Y-86070000D02*
X148430000Y-86070000D01*
X148430000Y-86070000D02*
X148500000Y-86000000D01*
X148500000Y-85500000D02*
X148500000Y-86000000D01*
X146995000Y-85070000D02*
X148070000Y-85070000D01*
X148070000Y-85070000D02*
X148500000Y-85500000D01*
%TO.N,Net-(J2-D--PadA7)*%
X146995000Y-86570000D02*
X145180000Y-86570000D01*
D48*
%TO.N,GND*%
X147750000Y-77750000D02*
X147750000Y-76500000D01*
X151750000Y-90140000D02*
X151750000Y-91750000D01*
X145270000Y-89020000D02*
X145250000Y-89000000D01*
X146995000Y-89020000D02*
X145270000Y-89020000D01*
X145360000Y-90140000D02*
X145250000Y-90250000D01*
X147570000Y-90140000D02*
X145360000Y-90140000D01*
X147570000Y-81500000D02*
X145250000Y-81500000D01*
X151750000Y-81500000D02*
X151750000Y-80000000D01*
X145370000Y-82620000D02*
X145250000Y-82500000D01*
X146995000Y-82620000D02*
X145370000Y-82620000D01*
X141450000Y-85950000D02*
X141500000Y-86000000D01*
X140000000Y-85950000D02*
X141450000Y-85950000D01*
%TO.N,+VBUS*%
X146495000Y-83420000D02*
X140063400Y-83420000D01*
X140063400Y-83420000D02*
X138838500Y-84644900D01*
X138838500Y-84644900D02*
X138838500Y-85498999D01*
X138838500Y-85498999D02*
X138387499Y-85950000D01*
%TO.N,GND*%
X144219581Y-67530419D02*
X143500000Y-68250000D01*
X145744581Y-67530419D02*
X144219581Y-67530419D01*
X100060838Y-111689162D02*
X101500000Y-110250000D01*
X100060838Y-112000000D02*
X100060838Y-111689162D01*
D47*
%TO.N,FMC_D15*%
X132000000Y-91040000D02*
X133498520Y-91040000D01*
X133498520Y-91040000D02*
X134750000Y-92291480D01*
X134750000Y-92291480D02*
X134750000Y-110750000D01*
X134750000Y-110750000D02*
X138670000Y-114670000D01*
X138670000Y-114670000D02*
X138670000Y-116250000D01*
%TO.N,FMC_D14*%
X132000000Y-91540000D02*
X133290000Y-91540000D01*
X133290000Y-91540000D02*
X134250000Y-92500000D01*
X136130000Y-114380000D02*
X136130000Y-116250000D01*
X134250000Y-92500000D02*
X134250000Y-112500000D01*
X134250000Y-112500000D02*
X136130000Y-114380000D01*
%TO.N,FMC_D13*%
X132000000Y-92040000D02*
X133040000Y-92040000D01*
X133040000Y-92040000D02*
X133590000Y-92590000D01*
X133590000Y-92590000D02*
X133590000Y-116250000D01*
%TO.N,FMC_D7*%
X125825000Y-95715000D02*
X125825000Y-109425000D01*
X125825000Y-109425000D02*
X122750000Y-112500000D01*
X122750000Y-112500000D02*
X119250000Y-112500000D01*
X119250000Y-112500000D02*
X118350000Y-113400000D01*
X118350000Y-113400000D02*
X118350000Y-116250000D01*
%TO.N,FMC_D8*%
X122750000Y-113750000D02*
X121500000Y-113750000D01*
X126325000Y-110175000D02*
X122750000Y-113750000D01*
X121500000Y-113750000D02*
X120890000Y-114360000D01*
X120890000Y-114360000D02*
X120890000Y-116250000D01*
%TO.N,FMC_D9*%
X126825000Y-110675000D02*
X123430000Y-114070000D01*
X123430000Y-114070000D02*
X123430000Y-116250000D01*
%TO.N,FMC_D10*%
X125970000Y-116250000D02*
X125970000Y-112530000D01*
X125970000Y-112530000D02*
X127325000Y-111175000D01*
X127325000Y-111175000D02*
X127325000Y-95715000D01*
%TO.N,FMC_D11*%
X128510000Y-116250000D02*
X128510000Y-113010000D01*
X128510000Y-113010000D02*
X127825000Y-112325000D01*
X127825000Y-112325000D02*
X127825000Y-95715000D01*
%TO.N,FMC_D6*%
X115810000Y-111190000D02*
X116250000Y-110750000D01*
X115810000Y-116250000D02*
X115810000Y-111190000D01*
X116250000Y-110750000D02*
X123000000Y-110750000D01*
X123000000Y-110750000D02*
X125325000Y-108425000D01*
%TO.N,FMC_D5*%
X124825000Y-95715000D02*
X124825000Y-106925000D01*
X124825000Y-106925000D02*
X123000000Y-108750000D01*
X123000000Y-108750000D02*
X115500000Y-108750000D01*
X115500000Y-108750000D02*
X113270000Y-110980000D01*
X113270000Y-110980000D02*
X113270000Y-116250000D01*
%TO.N,FMC_D12*%
X128325000Y-95715000D02*
X128325000Y-110075000D01*
X128325000Y-110075000D02*
X131050000Y-112800000D01*
%TO.N,FMC_D9*%
X126825000Y-95715000D02*
X126825000Y-110675000D01*
%TO.N,FMC_D8*%
X126325000Y-95715000D02*
X126325000Y-110175000D01*
%TO.N,FMC_D6*%
X125325000Y-95715000D02*
X125325000Y-108425000D01*
%TO.N,FMC_D4*%
X124325000Y-95715000D02*
X124325000Y-105925000D01*
X124325000Y-105925000D02*
X122250000Y-108000000D01*
D48*
%TO.N,GND*%
X135250000Y-83000000D02*
X136250000Y-83000000D01*
D47*
X135210000Y-81960000D02*
X135250000Y-82000000D01*
X134250000Y-81960000D02*
X135210000Y-81960000D01*
%TO.N,Net-(U1-VCAP_2)*%
X132000000Y-83040000D02*
X134250000Y-83040000D01*
X134250000Y-83040000D02*
X134290000Y-83000000D01*
%TO.N,GND*%
X132000000Y-82540000D02*
X132960000Y-82540000D01*
X132960000Y-82540000D02*
X133540000Y-81960000D01*
X133540000Y-81960000D02*
X134250000Y-81960000D01*
%TO.N,+3.3V*%
X132000000Y-82040000D02*
X133040000Y-81000000D01*
X133040000Y-81000000D02*
X134250000Y-81000000D01*
%TO.N,FMC_D12*%
X131050000Y-112800000D02*
X131050000Y-116250000D01*
D48*
%TO.N,GND*%
X131000000Y-98730000D02*
X131000000Y-99750000D01*
X129750000Y-98710000D02*
X129750000Y-99750000D01*
D47*
%TO.N,+3.3V*%
X130325000Y-95715000D02*
X131000000Y-96390000D01*
X131000000Y-96390000D02*
X131000000Y-97770000D01*
%TO.N,Net-(U1-VCAP_1)*%
X129825000Y-95715000D02*
X129825000Y-97675000D01*
X129825000Y-97675000D02*
X129750000Y-97750000D01*
%TO.N,FMC_D4*%
X110730000Y-116250000D02*
X110730000Y-112270000D01*
X110730000Y-112270000D02*
X115000000Y-108000000D01*
X115000000Y-108000000D02*
X122250000Y-108000000D01*
%TO.N,Net-(J1-Pin_12)*%
X132250000Y-76750000D02*
X132250000Y-70250000D01*
X132250000Y-70250000D02*
X134030000Y-68470000D01*
X134030000Y-68470000D02*
X134030000Y-65750000D01*
%TO.N,SYS_JTMS_SWDIO*%
X130500000Y-83000000D02*
X130500000Y-82000000D01*
X132000000Y-83540000D02*
X131040000Y-83540000D01*
X131040000Y-83540000D02*
X130500000Y-83000000D01*
X130500000Y-82000000D02*
X132250000Y-80250000D01*
X132250000Y-80250000D02*
X132250000Y-78400000D01*
%TO.N,SYS_JTCK_SWCLK*%
X130325000Y-80365000D02*
X130325000Y-69175000D01*
X130325000Y-69175000D02*
X131490000Y-68010000D01*
X131490000Y-68010000D02*
X131490000Y-65750000D01*
%TO.N,FMC_D2*%
X127825000Y-80365000D02*
X127825000Y-69925000D01*
X127825000Y-69925000D02*
X128950000Y-68800000D01*
X128950000Y-68800000D02*
X128950000Y-65750000D01*
%TO.N,FMC_D3*%
X127325000Y-80365000D02*
X127325000Y-69825000D01*
X127325000Y-69825000D02*
X126410000Y-68910000D01*
X126410000Y-68910000D02*
X126410000Y-65750000D01*
%TO.N,FMC_RST*%
X126325000Y-80365000D02*
X126325000Y-71825000D01*
X126325000Y-71825000D02*
X123870000Y-69370000D01*
X123870000Y-69370000D02*
X123870000Y-65750000D01*
%TO.N,FMC_NWE*%
X125325000Y-80365000D02*
X125325000Y-72825000D01*
X125325000Y-72825000D02*
X121330000Y-68830000D01*
X121330000Y-68830000D02*
X121330000Y-65750000D01*
%TO.N,FMC_NE1*%
X124325000Y-80365000D02*
X124325000Y-73325000D01*
X124325000Y-73325000D02*
X118790000Y-67790000D01*
X118790000Y-67790000D02*
X118790000Y-65750000D01*
%TO.N,SYS_JTCK_SWO*%
X116250000Y-65750000D02*
X116250000Y-68000000D01*
X116250000Y-68000000D02*
X117749000Y-69499000D01*
X117749000Y-69499000D02*
X119666041Y-69499000D01*
X119666041Y-69499000D02*
X123825000Y-73657959D01*
X123825000Y-73657959D02*
X123825000Y-80365000D01*
%TO.N,I2C1_SCL*%
X113710000Y-65750000D02*
X113710000Y-68710000D01*
X119458520Y-70000000D02*
X122325000Y-72866480D01*
X113710000Y-68710000D02*
X115000000Y-70000000D01*
X115000000Y-70000000D02*
X119458520Y-70000000D01*
X122325000Y-72866480D02*
X122325000Y-80365000D01*
%TO.N,I2C1_SDA*%
X121825000Y-80365000D02*
X121825000Y-73075000D01*
X121825000Y-73075000D02*
X119250000Y-70500000D01*
X112000000Y-70500000D02*
X111170000Y-69670000D01*
X119250000Y-70500000D02*
X112000000Y-70500000D01*
X111170000Y-69670000D02*
X111170000Y-65750000D01*
%TO.N,GND*%
X118540000Y-98000000D02*
X117750000Y-98000000D01*
%TO.N,+3.3V*%
X119325000Y-96825000D02*
X119500000Y-97000000D01*
X119325000Y-95715000D02*
X119325000Y-96825000D01*
X119500000Y-97000000D02*
X119500000Y-98000000D01*
%TO.N,GND*%
X118540000Y-98000000D02*
X118540000Y-97210000D01*
X118540000Y-97210000D02*
X118825000Y-96925000D01*
X118825000Y-96925000D02*
X118825000Y-95715000D01*
D48*
X121500000Y-102900000D02*
X121500000Y-104250000D01*
D47*
%TO.N,Net-(D1-K)*%
X121500000Y-99575000D02*
X121500000Y-101250000D01*
%TO.N,LED1*%
X121325000Y-95715000D02*
X121325000Y-97825000D01*
X121325000Y-97825000D02*
X121500000Y-98000000D01*
D48*
%TO.N,GND*%
X118250000Y-101730000D02*
X118250000Y-102500000D01*
D47*
%TO.N,BUTTON*%
X116250000Y-100250000D02*
X117730000Y-100250000D01*
X117730000Y-100250000D02*
X118250000Y-100770000D01*
D48*
%TO.N,GND*%
X113770000Y-102000000D02*
X112750000Y-102000000D01*
X114425000Y-104000000D02*
X113000000Y-104000000D01*
%TO.N,Net-(C15-Pad1)*%
X116250000Y-101900000D02*
X114830000Y-101900000D01*
X114830000Y-101900000D02*
X114730000Y-102000000D01*
X116250000Y-104000000D02*
X116250000Y-101900000D01*
X104000000Y-106500000D02*
X115500000Y-106500000D01*
X115500000Y-106500000D02*
X116250000Y-105750000D01*
X116250000Y-105750000D02*
X116250000Y-104000000D01*
X97500000Y-106500000D02*
X104000000Y-106500000D01*
%TO.N,+3.3V*%
X97500000Y-102000000D02*
X104000000Y-102000000D01*
%TO.N,GND*%
X106090000Y-65750000D02*
X103250000Y-65750000D01*
X98400000Y-65900000D02*
X98500000Y-66000000D01*
X96860000Y-65900000D02*
X98400000Y-65900000D01*
D47*
%TO.N,LIS3MDLTR_INT*%
X119825000Y-80365000D02*
X119825000Y-75825000D01*
X119825000Y-75825000D02*
X119000000Y-75000000D01*
X119000000Y-75000000D02*
X95670000Y-75000000D01*
X95670000Y-75000000D02*
X95250000Y-75420000D01*
%TO.N,LIS3MDLTR_DRDY*%
X119325000Y-80365000D02*
X119325000Y-81425000D01*
X119325000Y-81425000D02*
X119000000Y-81750000D01*
X119000000Y-81750000D02*
X118250000Y-81750000D01*
X118250000Y-81750000D02*
X116750000Y-80250000D01*
X116750000Y-80250000D02*
X100250000Y-80250000D01*
X100250000Y-80250000D02*
X98000000Y-78000000D01*
X98000000Y-78000000D02*
X95290000Y-78000000D01*
X95290000Y-78000000D02*
X95250000Y-77960000D01*
%TO.N,LSM6DSR_INT1*%
X116650000Y-82040000D02*
X99290000Y-82040000D01*
X99290000Y-82040000D02*
X97750000Y-80500000D01*
X97750000Y-80500000D02*
X95250000Y-80500000D01*
%TO.N,LSM6DSR_INT2*%
X116650000Y-82540000D02*
X98210000Y-82540000D01*
X98210000Y-82540000D02*
X97710000Y-83040000D01*
X97710000Y-83040000D02*
X95250000Y-83040000D01*
%TO.N,BUTTON*%
X116650000Y-93040000D02*
X117790000Y-93040000D01*
X117790000Y-93040000D02*
X118000000Y-93250000D01*
X118000000Y-93250000D02*
X118000000Y-94250000D01*
X118000000Y-94250000D02*
X116250000Y-96000000D01*
X116250000Y-96000000D02*
X116250000Y-100250000D01*
D48*
%TO.N,GND*%
X113480000Y-99000000D02*
X114250000Y-99000000D01*
%TO.N,+3.3VA*%
X114250000Y-96000000D02*
X114250000Y-94750000D01*
%TO.N,+3.3V*%
X112500000Y-97500000D02*
X112500000Y-99040000D01*
%TO.N,+3.3VA*%
X114075000Y-97175000D02*
X114250000Y-97000000D01*
X114075000Y-97500000D02*
X114075000Y-97175000D01*
X114250000Y-97000000D02*
X114250000Y-96000000D01*
%TO.N,GND*%
X113290000Y-96000000D02*
X112500000Y-96000000D01*
X113290000Y-94750000D02*
X112500000Y-94750000D01*
D47*
X112540000Y-92210000D02*
X112500000Y-92250000D01*
X113750000Y-92210000D02*
X112540000Y-92210000D01*
D48*
X113290000Y-93250000D02*
X112250000Y-93250000D01*
D47*
%TO.N,+3.3VA*%
X115710000Y-92540000D02*
X115250000Y-93000000D01*
X116650000Y-92540000D02*
X115710000Y-92540000D01*
X115250000Y-93000000D02*
X115250000Y-93750000D01*
X115250000Y-93750000D02*
X114250000Y-94750000D01*
%TO.N,+3.3V*%
X116650000Y-92040000D02*
X115460000Y-92040000D01*
X115460000Y-92040000D02*
X114250000Y-93250000D01*
%TO.N,GND*%
X116650000Y-91540000D02*
X114960000Y-91540000D01*
X114960000Y-91540000D02*
X114290000Y-92210000D01*
X114290000Y-92210000D02*
X113750000Y-92210000D01*
%TO.N,+3.3V*%
X116650000Y-91040000D02*
X113960000Y-91040000D01*
X113960000Y-91040000D02*
X113750000Y-91250000D01*
D48*
%TO.N,GND*%
X97962500Y-97000000D02*
X96750000Y-97000000D01*
X97925000Y-95250000D02*
X96750000Y-95250000D01*
X97925000Y-93500000D02*
X96750000Y-93500000D01*
X97887500Y-91750000D02*
X96750000Y-91750000D01*
D47*
%TO.N,LED5*%
X113210000Y-90540000D02*
X106750000Y-97000000D01*
X116650000Y-90540000D02*
X113210000Y-90540000D01*
X106750000Y-97000000D02*
X103112500Y-97000000D01*
%TO.N,LED4*%
X103075000Y-95250000D02*
X107708521Y-95250000D01*
X107708521Y-95250000D02*
X112918521Y-90040000D01*
X112918521Y-90040000D02*
X116650000Y-90040000D01*
%TO.N,LED3*%
X116650000Y-89540000D02*
X112710000Y-89540000D01*
X112710000Y-89540000D02*
X108750000Y-93500000D01*
X108750000Y-93500000D02*
X103075000Y-93500000D01*
%TO.N,LED2*%
X116650000Y-89040000D02*
X112460000Y-89040000D01*
X112460000Y-89040000D02*
X109750000Y-91750000D01*
X109750000Y-91750000D02*
X103037500Y-91750000D01*
%TO.N,NRST*%
X112210000Y-88540000D02*
X110750000Y-90000000D01*
X116650000Y-88540000D02*
X112210000Y-88540000D01*
X110750000Y-90000000D02*
X99670000Y-90000000D01*
X99670000Y-90000000D02*
X95250000Y-85580000D01*
%TO.N,GND*%
X114250000Y-85750000D02*
X113750000Y-85250000D01*
X114500000Y-85750000D02*
X114250000Y-85750000D01*
D48*
X113020000Y-83980000D02*
X113000000Y-84000000D01*
X113770000Y-83980000D02*
X113020000Y-83980000D01*
X111480000Y-84520000D02*
X111500000Y-84500000D01*
X110750000Y-84520000D02*
X111480000Y-84520000D01*
X106290000Y-89000000D02*
X105250000Y-89000000D01*
X106800000Y-85500000D02*
X105250000Y-85500000D01*
X110200000Y-87200000D02*
X110500000Y-87500000D01*
X109000000Y-87200000D02*
X110200000Y-87200000D01*
D47*
%TO.N,Net-(C18-Pad1)*%
X106800000Y-87200000D02*
X107250000Y-87650000D01*
X107250000Y-87650000D02*
X107250000Y-89000000D01*
X108490000Y-89000000D02*
X107250000Y-89000000D01*
%TO.N,RCC_OSC_OUT*%
X116650000Y-88040000D02*
X111710000Y-88040000D01*
X111710000Y-88040000D02*
X110750000Y-89000000D01*
X110750000Y-89000000D02*
X109510000Y-89000000D01*
%TO.N,RCC_OSC_IN*%
X110750000Y-85480000D02*
X109020000Y-85480000D01*
X109020000Y-85480000D02*
X109000000Y-85500000D01*
X116650000Y-87540000D02*
X111790000Y-87540000D01*
X111790000Y-87540000D02*
X110750000Y-86500000D01*
X110750000Y-86500000D02*
X110750000Y-85480000D01*
%TO.N,GND*%
X114500000Y-85750000D02*
X114750000Y-85750000D01*
X114750000Y-85750000D02*
X115540000Y-86540000D01*
X115540000Y-86540000D02*
X116650000Y-86540000D01*
%TO.N,+3.3V*%
X116650000Y-87040000D02*
X114830000Y-87040000D01*
X114830000Y-87040000D02*
X114500000Y-86710000D01*
X116650000Y-84540000D02*
X115290000Y-84540000D01*
X115290000Y-84540000D02*
X114730000Y-83980000D01*
%TO.N,BOOT0*%
X121325000Y-80365000D02*
X121325000Y-78595000D01*
X121325000Y-78595000D02*
X121000000Y-78270000D01*
D48*
%TO.N,GND*%
X118750000Y-76750000D02*
X118750000Y-77980000D01*
X118750000Y-77980000D02*
X118480000Y-78250000D01*
%TO.N,+3.3V*%
X117200000Y-76750000D02*
X117200000Y-77930000D01*
X117200000Y-77930000D02*
X117520000Y-78250000D01*
D47*
%TO.N,GND*%
X118825000Y-80365000D02*
X118825000Y-78595000D01*
X118825000Y-78595000D02*
X118480000Y-78250000D01*
%TO.N,+3.3V*%
X118325000Y-80365000D02*
X117520000Y-79560000D01*
X117520000Y-79560000D02*
X117520000Y-78250000D01*
%TD*%
M02*
