M48
; DRILL file {KiCad 9.0.6-9.0.6~ubuntu24.04.1} date 2026-01-01T18:51:23-0700
; FORMAT={-:-/ absolute / metric / decimal}
; #@! TF.CreationDate,2026-01-01T18:51:23-07:00
; #@! TF.GenerationSoftware,Kicad,Pcbnew,9.0.6-9.0.6~ubuntu24.04.1
; #@! TF.FileFunction,MixedPlating,1,2
FMAT,2
METRIC
; #@! TA.AperFunction,Plated,PTH,ViaDrill
T1C0.300
; #@! TA.AperFunction,Plated,PTH,ComponentDrill
T2C0.600
; #@! TA.AperFunction,Plated,PTH,ComponentDrill
T3C1.000
; #@! TA.AperFunction,Plated,PTH,ComponentDrill
T4C4.300
%
G90
G05
T1
X113.0Y-114.5
X113.0Y-122.5
X118.75Y-118.0
X120.0Y-124.5
X123.0Y-118.0
X123.75Y-124.5
X125.0Y-106.75
X126.75Y-127.65
X128.0Y-124.5
X128.17Y-125.47
X128.42Y-128.97
X128.5Y-113.25
X129.0Y-130.25
X129.75Y-107.0
X129.75Y-108.5
X129.9Y-125.0
X130.75Y-110.25
X131.5Y-113.75
X133.75Y-128.5
X134.0Y-127.0
X134.75Y-117.5
T2
X110.775Y-108.75
X110.775Y-127.97
X111.72Y-106.47
X111.72Y-111.03
X111.72Y-125.689
X111.72Y-130.25
X114.0Y-105.525
X114.0Y-111.975
X114.0Y-124.745
X114.0Y-131.195
X116.28Y-106.47
X116.28Y-111.03
X116.28Y-125.689
X116.28Y-130.25
X117.225Y-108.75
X117.225Y-127.97
T3
X116.97Y-120.25
X119.51Y-120.25
X122.05Y-120.25
X124.59Y-120.25
X127.13Y-120.25
X129.67Y-120.25
X132.21Y-120.25
X134.75Y-120.25
T4
X114.0Y-108.75
X114.0Y-127.97
M30
