%TF.GenerationSoftware,KiCad,Pcbnew,9.0.6-9.0.6~ubuntu24.04.1*%
%TF.CreationDate,2026-01-01T18:51:29-07:00*%
%TF.ProjectId,ARSensors,41525365-6e73-46f7-9273-2e6b69636164,rev?*%
%TF.SameCoordinates,Original*%
%TF.FileFunction,Soldermask,Top*%
%TF.FilePolarity,Negative*%
%FSLAX46Y46*%
G04 Gerber Fmt 4.6, Leading zero omitted, Abs format (unit mm)*
G04 Created by KiCad (PCBNEW 9.0.6-9.0.6~ubuntu24.04.1) date 2026-01-01 18:51:29*
%MOMM*%
%LPD*%
G01*
G04 APERTURE LIST*
G04 Aperture macros list*
%AMRoundRect*
0 Rectangle with rounded corners*
0 $1 Rounding radius*
0 $2 $3 $4 $5 $6 $7 $8 $9 X,Y pos of 4 corners*
0 Add a 4 corners polygon primitive as box body*
4,1,4,$2,$3,$4,$5,$6,$7,$8,$9,$2,$3,0*
0 Add four circle primitives for the rounded corners*
1,1,$1+$1,$2,$3*
1,1,$1+$1,$4,$5*
1,1,$1+$1,$6,$7*
1,1,$1+$1,$8,$9*
0 Add four rect primitives between the rounded corners*
20,1,$1+$1,$2,$3,$4,$5,0*
20,1,$1+$1,$4,$5,$6,$7,0*
20,1,$1+$1,$6,$7,$8,$9,0*
20,1,$1+$1,$8,$9,$2,$3,0*%
G04 Aperture macros list end*
%ADD10R,0.376682X0.351536*%
%ADD11R,0.351536X0.376682*%
%ADD12RoundRect,0.200000X0.200000X0.275000X-0.200000X0.275000X-0.200000X-0.275000X0.200000X-0.275000X0*%
%ADD13RoundRect,0.140000X-0.140000X-0.170000X0.140000X-0.170000X0.140000X0.170000X-0.140000X0.170000X0*%
%ADD14RoundRect,0.140000X-0.170000X0.140000X-0.170000X-0.140000X0.170000X-0.140000X0.170000X0.140000X0*%
%ADD15R,0.351536X0.576580*%
%ADD16R,0.576580X0.351536*%
%ADD17RoundRect,0.200000X-0.200000X-0.275000X0.200000X-0.275000X0.200000X0.275000X-0.200000X0.275000X0*%
%ADD18R,1.700000X1.700000*%
%ADD19C,1.700000*%
%ADD20RoundRect,0.140000X0.140000X0.170000X-0.140000X0.170000X-0.140000X-0.170000X0.140000X-0.170000X0*%
%ADD21C,0.900000*%
%ADD22C,8.600000*%
G04 APERTURE END LIST*
D10*
%TO.C,U2*%
X127749999Y-127500000D03*
X127749999Y-127000000D03*
D11*
X127749999Y-126499999D03*
X128250000Y-126499999D03*
X128750000Y-126499999D03*
X129250001Y-126499999D03*
D10*
X129250001Y-127000000D03*
X129250001Y-127500000D03*
D11*
X129250001Y-128000001D03*
X128750000Y-128000001D03*
X128250000Y-128000001D03*
X127749999Y-128000001D03*
%TD*%
D12*
%TO.C,R2*%
X121750000Y-116750000D03*
X123400000Y-116750000D03*
%TD*%
D13*
%TO.C,C3*%
X132000000Y-126999999D03*
X132960000Y-126999999D03*
%TD*%
D14*
%TO.C,C1*%
X130000000Y-130249999D03*
X130000000Y-129289999D03*
%TD*%
D13*
%TO.C,C4*%
X132960000Y-128499999D03*
X132000000Y-128499999D03*
%TD*%
D15*
%TO.C,U3*%
X128000000Y-112170600D03*
X128500001Y-112170600D03*
X129000001Y-112170600D03*
X129500002Y-112170600D03*
D16*
X129706301Y-111460299D03*
X129706301Y-110960300D03*
X129706301Y-110460301D03*
D15*
X129500002Y-109750000D03*
X129000001Y-109750000D03*
X128500001Y-109750000D03*
X128000000Y-109750000D03*
D16*
X127793701Y-110460301D03*
X127793701Y-110960300D03*
X127793701Y-111460299D03*
%TD*%
D17*
%TO.C,R1*%
X117675000Y-116750000D03*
X119325000Y-116750000D03*
%TD*%
D18*
%TO.C,J1*%
X116970000Y-120250000D03*
D19*
X119510000Y-120250000D03*
X122050000Y-120250000D03*
X124590000Y-120250000D03*
X127130000Y-120250000D03*
X129670000Y-120250000D03*
X132210000Y-120250000D03*
X134750000Y-120250000D03*
%TD*%
D20*
%TO.C,C5*%
X126960000Y-106750000D03*
X126000000Y-106750000D03*
%TD*%
D14*
%TO.C,C2*%
X131500000Y-111770000D03*
X131500000Y-112730000D03*
%TD*%
D21*
%TO.C,H1*%
X117225000Y-127969581D03*
X116280419Y-130250000D03*
X116280419Y-125689162D03*
X114000000Y-131194581D03*
D22*
X114000000Y-127969581D03*
D21*
X114000000Y-124744581D03*
X111719581Y-130250000D03*
X111719581Y-125689162D03*
X110775000Y-127969581D03*
%TD*%
%TO.C,H2*%
X117225000Y-108750000D03*
X116280419Y-111030419D03*
X116280419Y-106469581D03*
X114000000Y-111975000D03*
D22*
X114000000Y-108750000D03*
D21*
X114000000Y-105525000D03*
X111719581Y-111030419D03*
X111719581Y-106469581D03*
X110775000Y-108750000D03*
%TD*%
M02*
