%TF.GenerationSoftware,KiCad,Pcbnew,9.0.6-9.0.6~ubuntu24.04.1*%
%TF.CreationDate,2026-01-01T18:51:29-07:00*%
%TF.ProjectId,ARSensors,41525365-6e73-46f7-9273-2e6b69636164,rev?*%
%TF.SameCoordinates,Original*%
%TF.FileFunction,Legend,Bot*%
%TF.FilePolarity,Positive*%
%FSLAX46Y46*%
G04 Gerber Fmt 4.6, Leading zero omitted, Abs format (unit mm)*
G04 Created by KiCad (PCBNEW 9.0.6-9.0.6~ubuntu24.04.1) date 2026-01-01 18:51:29*
%MOMM*%
%LPD*%
G01*
G04 APERTURE LIST*
%ADD10C,0.100000*%
G04 APERTURE END LIST*
D10*
X116372419Y-115208646D02*
X116372419Y-115827693D01*
X116372419Y-115827693D02*
X116753371Y-115494360D01*
X116753371Y-115494360D02*
X116753371Y-115637217D01*
X116753371Y-115637217D02*
X116800990Y-115732455D01*
X116800990Y-115732455D02*
X116848609Y-115780074D01*
X116848609Y-115780074D02*
X116943847Y-115827693D01*
X116943847Y-115827693D02*
X117181942Y-115827693D01*
X117181942Y-115827693D02*
X117277180Y-115780074D01*
X117277180Y-115780074D02*
X117324800Y-115732455D01*
X117324800Y-115732455D02*
X117372419Y-115637217D01*
X117372419Y-115637217D02*
X117372419Y-115351503D01*
X117372419Y-115351503D02*
X117324800Y-115256265D01*
X117324800Y-115256265D02*
X117277180Y-115208646D01*
X117277180Y-116256265D02*
X117324800Y-116303884D01*
X117324800Y-116303884D02*
X117372419Y-116256265D01*
X117372419Y-116256265D02*
X117324800Y-116208646D01*
X117324800Y-116208646D02*
X117277180Y-116256265D01*
X117277180Y-116256265D02*
X117372419Y-116256265D01*
X116372419Y-116637217D02*
X116372419Y-117256264D01*
X116372419Y-117256264D02*
X116753371Y-116922931D01*
X116753371Y-116922931D02*
X116753371Y-117065788D01*
X116753371Y-117065788D02*
X116800990Y-117161026D01*
X116800990Y-117161026D02*
X116848609Y-117208645D01*
X116848609Y-117208645D02*
X116943847Y-117256264D01*
X116943847Y-117256264D02*
X117181942Y-117256264D01*
X117181942Y-117256264D02*
X117277180Y-117208645D01*
X117277180Y-117208645D02*
X117324800Y-117161026D01*
X117324800Y-117161026D02*
X117372419Y-117065788D01*
X117372419Y-117065788D02*
X117372419Y-116780074D01*
X117372419Y-116780074D02*
X117324800Y-116684836D01*
X117324800Y-116684836D02*
X117277180Y-116637217D01*
X116372419Y-117541979D02*
X117372419Y-117875312D01*
X117372419Y-117875312D02*
X116372419Y-118208645D01*
X119872419Y-111553884D02*
X118872419Y-111553884D01*
X118967657Y-111982455D02*
X118920038Y-112030074D01*
X118920038Y-112030074D02*
X118872419Y-112125312D01*
X118872419Y-112125312D02*
X118872419Y-112363407D01*
X118872419Y-112363407D02*
X118920038Y-112458645D01*
X118920038Y-112458645D02*
X118967657Y-112506264D01*
X118967657Y-112506264D02*
X119062895Y-112553883D01*
X119062895Y-112553883D02*
X119158133Y-112553883D01*
X119158133Y-112553883D02*
X119300990Y-112506264D01*
X119300990Y-112506264D02*
X119872419Y-111934836D01*
X119872419Y-111934836D02*
X119872419Y-112553883D01*
X119777180Y-113553883D02*
X119824800Y-113506264D01*
X119824800Y-113506264D02*
X119872419Y-113363407D01*
X119872419Y-113363407D02*
X119872419Y-113268169D01*
X119872419Y-113268169D02*
X119824800Y-113125312D01*
X119824800Y-113125312D02*
X119729561Y-113030074D01*
X119729561Y-113030074D02*
X119634323Y-112982455D01*
X119634323Y-112982455D02*
X119443847Y-112934836D01*
X119443847Y-112934836D02*
X119300990Y-112934836D01*
X119300990Y-112934836D02*
X119110514Y-112982455D01*
X119110514Y-112982455D02*
X119015276Y-113030074D01*
X119015276Y-113030074D02*
X118920038Y-113125312D01*
X118920038Y-113125312D02*
X118872419Y-113268169D01*
X118872419Y-113268169D02*
X118872419Y-113363407D01*
X118872419Y-113363407D02*
X118920038Y-113506264D01*
X118920038Y-113506264D02*
X118967657Y-113553883D01*
X119872419Y-114506264D02*
X119872419Y-113934836D01*
X119872419Y-114220550D02*
X118872419Y-114220550D01*
X118872419Y-114220550D02*
X119015276Y-114125312D01*
X119015276Y-114125312D02*
X119110514Y-114030074D01*
X119110514Y-114030074D02*
X119158133Y-113934836D01*
X119967657Y-114696741D02*
X119967657Y-115458645D01*
X119824800Y-115649122D02*
X119872419Y-115791979D01*
X119872419Y-115791979D02*
X119872419Y-116030074D01*
X119872419Y-116030074D02*
X119824800Y-116125312D01*
X119824800Y-116125312D02*
X119777180Y-116172931D01*
X119777180Y-116172931D02*
X119681942Y-116220550D01*
X119681942Y-116220550D02*
X119586704Y-116220550D01*
X119586704Y-116220550D02*
X119491466Y-116172931D01*
X119491466Y-116172931D02*
X119443847Y-116125312D01*
X119443847Y-116125312D02*
X119396228Y-116030074D01*
X119396228Y-116030074D02*
X119348609Y-115839598D01*
X119348609Y-115839598D02*
X119300990Y-115744360D01*
X119300990Y-115744360D02*
X119253371Y-115696741D01*
X119253371Y-115696741D02*
X119158133Y-115649122D01*
X119158133Y-115649122D02*
X119062895Y-115649122D01*
X119062895Y-115649122D02*
X118967657Y-115696741D01*
X118967657Y-115696741D02*
X118920038Y-115744360D01*
X118920038Y-115744360D02*
X118872419Y-115839598D01*
X118872419Y-115839598D02*
X118872419Y-116077693D01*
X118872419Y-116077693D02*
X118920038Y-116220550D01*
X119777180Y-117220550D02*
X119824800Y-117172931D01*
X119824800Y-117172931D02*
X119872419Y-117030074D01*
X119872419Y-117030074D02*
X119872419Y-116934836D01*
X119872419Y-116934836D02*
X119824800Y-116791979D01*
X119824800Y-116791979D02*
X119729561Y-116696741D01*
X119729561Y-116696741D02*
X119634323Y-116649122D01*
X119634323Y-116649122D02*
X119443847Y-116601503D01*
X119443847Y-116601503D02*
X119300990Y-116601503D01*
X119300990Y-116601503D02*
X119110514Y-116649122D01*
X119110514Y-116649122D02*
X119015276Y-116696741D01*
X119015276Y-116696741D02*
X118920038Y-116791979D01*
X118920038Y-116791979D02*
X118872419Y-116934836D01*
X118872419Y-116934836D02*
X118872419Y-117030074D01*
X118872419Y-117030074D02*
X118920038Y-117172931D01*
X118920038Y-117172931D02*
X118967657Y-117220550D01*
X119872419Y-118125312D02*
X119872419Y-117649122D01*
X119872419Y-117649122D02*
X118872419Y-117649122D01*
X122372419Y-111803884D02*
X121372419Y-111803884D01*
X121467657Y-112232455D02*
X121420038Y-112280074D01*
X121420038Y-112280074D02*
X121372419Y-112375312D01*
X121372419Y-112375312D02*
X121372419Y-112613407D01*
X121372419Y-112613407D02*
X121420038Y-112708645D01*
X121420038Y-112708645D02*
X121467657Y-112756264D01*
X121467657Y-112756264D02*
X121562895Y-112803883D01*
X121562895Y-112803883D02*
X121658133Y-112803883D01*
X121658133Y-112803883D02*
X121800990Y-112756264D01*
X121800990Y-112756264D02*
X122372419Y-112184836D01*
X122372419Y-112184836D02*
X122372419Y-112803883D01*
X122277180Y-113803883D02*
X122324800Y-113756264D01*
X122324800Y-113756264D02*
X122372419Y-113613407D01*
X122372419Y-113613407D02*
X122372419Y-113518169D01*
X122372419Y-113518169D02*
X122324800Y-113375312D01*
X122324800Y-113375312D02*
X122229561Y-113280074D01*
X122229561Y-113280074D02*
X122134323Y-113232455D01*
X122134323Y-113232455D02*
X121943847Y-113184836D01*
X121943847Y-113184836D02*
X121800990Y-113184836D01*
X121800990Y-113184836D02*
X121610514Y-113232455D01*
X121610514Y-113232455D02*
X121515276Y-113280074D01*
X121515276Y-113280074D02*
X121420038Y-113375312D01*
X121420038Y-113375312D02*
X121372419Y-113518169D01*
X121372419Y-113518169D02*
X121372419Y-113613407D01*
X121372419Y-113613407D02*
X121420038Y-113756264D01*
X121420038Y-113756264D02*
X121467657Y-113803883D01*
X122372419Y-114756264D02*
X122372419Y-114184836D01*
X122372419Y-114470550D02*
X121372419Y-114470550D01*
X121372419Y-114470550D02*
X121515276Y-114375312D01*
X121515276Y-114375312D02*
X121610514Y-114280074D01*
X121610514Y-114280074D02*
X121658133Y-114184836D01*
X122467657Y-114946741D02*
X122467657Y-115708645D01*
X122324800Y-115899122D02*
X122372419Y-116041979D01*
X122372419Y-116041979D02*
X122372419Y-116280074D01*
X122372419Y-116280074D02*
X122324800Y-116375312D01*
X122324800Y-116375312D02*
X122277180Y-116422931D01*
X122277180Y-116422931D02*
X122181942Y-116470550D01*
X122181942Y-116470550D02*
X122086704Y-116470550D01*
X122086704Y-116470550D02*
X121991466Y-116422931D01*
X121991466Y-116422931D02*
X121943847Y-116375312D01*
X121943847Y-116375312D02*
X121896228Y-116280074D01*
X121896228Y-116280074D02*
X121848609Y-116089598D01*
X121848609Y-116089598D02*
X121800990Y-115994360D01*
X121800990Y-115994360D02*
X121753371Y-115946741D01*
X121753371Y-115946741D02*
X121658133Y-115899122D01*
X121658133Y-115899122D02*
X121562895Y-115899122D01*
X121562895Y-115899122D02*
X121467657Y-115946741D01*
X121467657Y-115946741D02*
X121420038Y-115994360D01*
X121420038Y-115994360D02*
X121372419Y-116089598D01*
X121372419Y-116089598D02*
X121372419Y-116327693D01*
X121372419Y-116327693D02*
X121420038Y-116470550D01*
X122372419Y-116899122D02*
X121372419Y-116899122D01*
X121372419Y-116899122D02*
X121372419Y-117137217D01*
X121372419Y-117137217D02*
X121420038Y-117280074D01*
X121420038Y-117280074D02*
X121515276Y-117375312D01*
X121515276Y-117375312D02*
X121610514Y-117422931D01*
X121610514Y-117422931D02*
X121800990Y-117470550D01*
X121800990Y-117470550D02*
X121943847Y-117470550D01*
X121943847Y-117470550D02*
X122134323Y-117422931D01*
X122134323Y-117422931D02*
X122229561Y-117375312D01*
X122229561Y-117375312D02*
X122324800Y-117280074D01*
X122324800Y-117280074D02*
X122372419Y-117137217D01*
X122372419Y-117137217D02*
X122372419Y-116899122D01*
X122086704Y-117851503D02*
X122086704Y-118327693D01*
X122372419Y-117756265D02*
X121372419Y-118089598D01*
X121372419Y-118089598D02*
X122372419Y-118422931D01*
X124872419Y-108530074D02*
X124872419Y-108053884D01*
X124872419Y-108053884D02*
X123872419Y-108053884D01*
X124872419Y-108863408D02*
X123872419Y-108863408D01*
X124824800Y-109291979D02*
X124872419Y-109434836D01*
X124872419Y-109434836D02*
X124872419Y-109672931D01*
X124872419Y-109672931D02*
X124824800Y-109768169D01*
X124824800Y-109768169D02*
X124777180Y-109815788D01*
X124777180Y-109815788D02*
X124681942Y-109863407D01*
X124681942Y-109863407D02*
X124586704Y-109863407D01*
X124586704Y-109863407D02*
X124491466Y-109815788D01*
X124491466Y-109815788D02*
X124443847Y-109768169D01*
X124443847Y-109768169D02*
X124396228Y-109672931D01*
X124396228Y-109672931D02*
X124348609Y-109482455D01*
X124348609Y-109482455D02*
X124300990Y-109387217D01*
X124300990Y-109387217D02*
X124253371Y-109339598D01*
X124253371Y-109339598D02*
X124158133Y-109291979D01*
X124158133Y-109291979D02*
X124062895Y-109291979D01*
X124062895Y-109291979D02*
X123967657Y-109339598D01*
X123967657Y-109339598D02*
X123920038Y-109387217D01*
X123920038Y-109387217D02*
X123872419Y-109482455D01*
X123872419Y-109482455D02*
X123872419Y-109720550D01*
X123872419Y-109720550D02*
X123920038Y-109863407D01*
X123872419Y-110196741D02*
X123872419Y-110815788D01*
X123872419Y-110815788D02*
X124253371Y-110482455D01*
X124253371Y-110482455D02*
X124253371Y-110625312D01*
X124253371Y-110625312D02*
X124300990Y-110720550D01*
X124300990Y-110720550D02*
X124348609Y-110768169D01*
X124348609Y-110768169D02*
X124443847Y-110815788D01*
X124443847Y-110815788D02*
X124681942Y-110815788D01*
X124681942Y-110815788D02*
X124777180Y-110768169D01*
X124777180Y-110768169D02*
X124824800Y-110720550D01*
X124824800Y-110720550D02*
X124872419Y-110625312D01*
X124872419Y-110625312D02*
X124872419Y-110339598D01*
X124872419Y-110339598D02*
X124824800Y-110244360D01*
X124824800Y-110244360D02*
X124777180Y-110196741D01*
X124872419Y-111244360D02*
X123872419Y-111244360D01*
X123872419Y-111244360D02*
X124586704Y-111577693D01*
X124586704Y-111577693D02*
X123872419Y-111911026D01*
X123872419Y-111911026D02*
X124872419Y-111911026D01*
X124872419Y-112387217D02*
X123872419Y-112387217D01*
X123872419Y-112387217D02*
X123872419Y-112625312D01*
X123872419Y-112625312D02*
X123920038Y-112768169D01*
X123920038Y-112768169D02*
X124015276Y-112863407D01*
X124015276Y-112863407D02*
X124110514Y-112911026D01*
X124110514Y-112911026D02*
X124300990Y-112958645D01*
X124300990Y-112958645D02*
X124443847Y-112958645D01*
X124443847Y-112958645D02*
X124634323Y-112911026D01*
X124634323Y-112911026D02*
X124729561Y-112863407D01*
X124729561Y-112863407D02*
X124824800Y-112768169D01*
X124824800Y-112768169D02*
X124872419Y-112625312D01*
X124872419Y-112625312D02*
X124872419Y-112387217D01*
X124872419Y-113863407D02*
X124872419Y-113387217D01*
X124872419Y-113387217D02*
X123872419Y-113387217D01*
X123872419Y-114053884D02*
X123872419Y-114625312D01*
X124872419Y-114339598D02*
X123872419Y-114339598D01*
X124872419Y-115530074D02*
X124396228Y-115196741D01*
X124872419Y-114958646D02*
X123872419Y-114958646D01*
X123872419Y-114958646D02*
X123872419Y-115339598D01*
X123872419Y-115339598D02*
X123920038Y-115434836D01*
X123920038Y-115434836D02*
X123967657Y-115482455D01*
X123967657Y-115482455D02*
X124062895Y-115530074D01*
X124062895Y-115530074D02*
X124205752Y-115530074D01*
X124205752Y-115530074D02*
X124300990Y-115482455D01*
X124300990Y-115482455D02*
X124348609Y-115434836D01*
X124348609Y-115434836D02*
X124396228Y-115339598D01*
X124396228Y-115339598D02*
X124396228Y-114958646D01*
X124967657Y-115720551D02*
X124967657Y-116482455D01*
X124872419Y-116720551D02*
X123872419Y-116720551D01*
X124872419Y-117196741D02*
X123872419Y-117196741D01*
X123872419Y-117196741D02*
X124872419Y-117768169D01*
X124872419Y-117768169D02*
X123872419Y-117768169D01*
X123872419Y-118101503D02*
X123872419Y-118672931D01*
X124872419Y-118387217D02*
X123872419Y-118387217D01*
X127372419Y-106530074D02*
X127372419Y-106053884D01*
X127372419Y-106053884D02*
X126372419Y-106053884D01*
X127372419Y-106863408D02*
X126372419Y-106863408D01*
X127324800Y-107291979D02*
X127372419Y-107434836D01*
X127372419Y-107434836D02*
X127372419Y-107672931D01*
X127372419Y-107672931D02*
X127324800Y-107768169D01*
X127324800Y-107768169D02*
X127277180Y-107815788D01*
X127277180Y-107815788D02*
X127181942Y-107863407D01*
X127181942Y-107863407D02*
X127086704Y-107863407D01*
X127086704Y-107863407D02*
X126991466Y-107815788D01*
X126991466Y-107815788D02*
X126943847Y-107768169D01*
X126943847Y-107768169D02*
X126896228Y-107672931D01*
X126896228Y-107672931D02*
X126848609Y-107482455D01*
X126848609Y-107482455D02*
X126800990Y-107387217D01*
X126800990Y-107387217D02*
X126753371Y-107339598D01*
X126753371Y-107339598D02*
X126658133Y-107291979D01*
X126658133Y-107291979D02*
X126562895Y-107291979D01*
X126562895Y-107291979D02*
X126467657Y-107339598D01*
X126467657Y-107339598D02*
X126420038Y-107387217D01*
X126420038Y-107387217D02*
X126372419Y-107482455D01*
X126372419Y-107482455D02*
X126372419Y-107720550D01*
X126372419Y-107720550D02*
X126420038Y-107863407D01*
X126372419Y-108196741D02*
X126372419Y-108815788D01*
X126372419Y-108815788D02*
X126753371Y-108482455D01*
X126753371Y-108482455D02*
X126753371Y-108625312D01*
X126753371Y-108625312D02*
X126800990Y-108720550D01*
X126800990Y-108720550D02*
X126848609Y-108768169D01*
X126848609Y-108768169D02*
X126943847Y-108815788D01*
X126943847Y-108815788D02*
X127181942Y-108815788D01*
X127181942Y-108815788D02*
X127277180Y-108768169D01*
X127277180Y-108768169D02*
X127324800Y-108720550D01*
X127324800Y-108720550D02*
X127372419Y-108625312D01*
X127372419Y-108625312D02*
X127372419Y-108339598D01*
X127372419Y-108339598D02*
X127324800Y-108244360D01*
X127324800Y-108244360D02*
X127277180Y-108196741D01*
X127372419Y-109244360D02*
X126372419Y-109244360D01*
X126372419Y-109244360D02*
X127086704Y-109577693D01*
X127086704Y-109577693D02*
X126372419Y-109911026D01*
X126372419Y-109911026D02*
X127372419Y-109911026D01*
X127372419Y-110387217D02*
X126372419Y-110387217D01*
X126372419Y-110387217D02*
X126372419Y-110625312D01*
X126372419Y-110625312D02*
X126420038Y-110768169D01*
X126420038Y-110768169D02*
X126515276Y-110863407D01*
X126515276Y-110863407D02*
X126610514Y-110911026D01*
X126610514Y-110911026D02*
X126800990Y-110958645D01*
X126800990Y-110958645D02*
X126943847Y-110958645D01*
X126943847Y-110958645D02*
X127134323Y-110911026D01*
X127134323Y-110911026D02*
X127229561Y-110863407D01*
X127229561Y-110863407D02*
X127324800Y-110768169D01*
X127324800Y-110768169D02*
X127372419Y-110625312D01*
X127372419Y-110625312D02*
X127372419Y-110387217D01*
X127372419Y-111863407D02*
X127372419Y-111387217D01*
X127372419Y-111387217D02*
X126372419Y-111387217D01*
X126372419Y-112053884D02*
X126372419Y-112625312D01*
X127372419Y-112339598D02*
X126372419Y-112339598D01*
X127372419Y-113530074D02*
X126896228Y-113196741D01*
X127372419Y-112958646D02*
X126372419Y-112958646D01*
X126372419Y-112958646D02*
X126372419Y-113339598D01*
X126372419Y-113339598D02*
X126420038Y-113434836D01*
X126420038Y-113434836D02*
X126467657Y-113482455D01*
X126467657Y-113482455D02*
X126562895Y-113530074D01*
X126562895Y-113530074D02*
X126705752Y-113530074D01*
X126705752Y-113530074D02*
X126800990Y-113482455D01*
X126800990Y-113482455D02*
X126848609Y-113434836D01*
X126848609Y-113434836D02*
X126896228Y-113339598D01*
X126896228Y-113339598D02*
X126896228Y-112958646D01*
X127467657Y-113720551D02*
X127467657Y-114482455D01*
X127372419Y-114720551D02*
X126372419Y-114720551D01*
X126372419Y-114720551D02*
X126372419Y-114958646D01*
X126372419Y-114958646D02*
X126420038Y-115101503D01*
X126420038Y-115101503D02*
X126515276Y-115196741D01*
X126515276Y-115196741D02*
X126610514Y-115244360D01*
X126610514Y-115244360D02*
X126800990Y-115291979D01*
X126800990Y-115291979D02*
X126943847Y-115291979D01*
X126943847Y-115291979D02*
X127134323Y-115244360D01*
X127134323Y-115244360D02*
X127229561Y-115196741D01*
X127229561Y-115196741D02*
X127324800Y-115101503D01*
X127324800Y-115101503D02*
X127372419Y-114958646D01*
X127372419Y-114958646D02*
X127372419Y-114720551D01*
X127372419Y-116291979D02*
X126896228Y-115958646D01*
X127372419Y-115720551D02*
X126372419Y-115720551D01*
X126372419Y-115720551D02*
X126372419Y-116101503D01*
X126372419Y-116101503D02*
X126420038Y-116196741D01*
X126420038Y-116196741D02*
X126467657Y-116244360D01*
X126467657Y-116244360D02*
X126562895Y-116291979D01*
X126562895Y-116291979D02*
X126705752Y-116291979D01*
X126705752Y-116291979D02*
X126800990Y-116244360D01*
X126800990Y-116244360D02*
X126848609Y-116196741D01*
X126848609Y-116196741D02*
X126896228Y-116101503D01*
X126896228Y-116101503D02*
X126896228Y-115720551D01*
X127372419Y-116720551D02*
X126372419Y-116720551D01*
X126372419Y-116720551D02*
X126372419Y-116958646D01*
X126372419Y-116958646D02*
X126420038Y-117101503D01*
X126420038Y-117101503D02*
X126515276Y-117196741D01*
X126515276Y-117196741D02*
X126610514Y-117244360D01*
X126610514Y-117244360D02*
X126800990Y-117291979D01*
X126800990Y-117291979D02*
X126943847Y-117291979D01*
X126943847Y-117291979D02*
X127134323Y-117244360D01*
X127134323Y-117244360D02*
X127229561Y-117196741D01*
X127229561Y-117196741D02*
X127324800Y-117101503D01*
X127324800Y-117101503D02*
X127372419Y-116958646D01*
X127372419Y-116958646D02*
X127372419Y-116720551D01*
X126896228Y-117911027D02*
X127372419Y-117911027D01*
X126372419Y-117577694D02*
X126896228Y-117911027D01*
X126896228Y-117911027D02*
X126372419Y-118244360D01*
X130622419Y-122780074D02*
X130622419Y-122303884D01*
X130622419Y-122303884D02*
X129622419Y-122303884D01*
X130574800Y-123065789D02*
X130622419Y-123208646D01*
X130622419Y-123208646D02*
X130622419Y-123446741D01*
X130622419Y-123446741D02*
X130574800Y-123541979D01*
X130574800Y-123541979D02*
X130527180Y-123589598D01*
X130527180Y-123589598D02*
X130431942Y-123637217D01*
X130431942Y-123637217D02*
X130336704Y-123637217D01*
X130336704Y-123637217D02*
X130241466Y-123589598D01*
X130241466Y-123589598D02*
X130193847Y-123541979D01*
X130193847Y-123541979D02*
X130146228Y-123446741D01*
X130146228Y-123446741D02*
X130098609Y-123256265D01*
X130098609Y-123256265D02*
X130050990Y-123161027D01*
X130050990Y-123161027D02*
X130003371Y-123113408D01*
X130003371Y-123113408D02*
X129908133Y-123065789D01*
X129908133Y-123065789D02*
X129812895Y-123065789D01*
X129812895Y-123065789D02*
X129717657Y-123113408D01*
X129717657Y-123113408D02*
X129670038Y-123161027D01*
X129670038Y-123161027D02*
X129622419Y-123256265D01*
X129622419Y-123256265D02*
X129622419Y-123494360D01*
X129622419Y-123494360D02*
X129670038Y-123637217D01*
X130622419Y-124065789D02*
X129622419Y-124065789D01*
X129622419Y-124065789D02*
X130336704Y-124399122D01*
X130336704Y-124399122D02*
X129622419Y-124732455D01*
X129622419Y-124732455D02*
X130622419Y-124732455D01*
X129622419Y-125637217D02*
X129622419Y-125446741D01*
X129622419Y-125446741D02*
X129670038Y-125351503D01*
X129670038Y-125351503D02*
X129717657Y-125303884D01*
X129717657Y-125303884D02*
X129860514Y-125208646D01*
X129860514Y-125208646D02*
X130050990Y-125161027D01*
X130050990Y-125161027D02*
X130431942Y-125161027D01*
X130431942Y-125161027D02*
X130527180Y-125208646D01*
X130527180Y-125208646D02*
X130574800Y-125256265D01*
X130574800Y-125256265D02*
X130622419Y-125351503D01*
X130622419Y-125351503D02*
X130622419Y-125541979D01*
X130622419Y-125541979D02*
X130574800Y-125637217D01*
X130574800Y-125637217D02*
X130527180Y-125684836D01*
X130527180Y-125684836D02*
X130431942Y-125732455D01*
X130431942Y-125732455D02*
X130193847Y-125732455D01*
X130193847Y-125732455D02*
X130098609Y-125684836D01*
X130098609Y-125684836D02*
X130050990Y-125637217D01*
X130050990Y-125637217D02*
X130003371Y-125541979D01*
X130003371Y-125541979D02*
X130003371Y-125351503D01*
X130003371Y-125351503D02*
X130050990Y-125256265D01*
X130050990Y-125256265D02*
X130098609Y-125208646D01*
X130098609Y-125208646D02*
X130193847Y-125161027D01*
X130622419Y-126161027D02*
X129622419Y-126161027D01*
X129622419Y-126161027D02*
X129622419Y-126399122D01*
X129622419Y-126399122D02*
X129670038Y-126541979D01*
X129670038Y-126541979D02*
X129765276Y-126637217D01*
X129765276Y-126637217D02*
X129860514Y-126684836D01*
X129860514Y-126684836D02*
X130050990Y-126732455D01*
X130050990Y-126732455D02*
X130193847Y-126732455D01*
X130193847Y-126732455D02*
X130384323Y-126684836D01*
X130384323Y-126684836D02*
X130479561Y-126637217D01*
X130479561Y-126637217D02*
X130574800Y-126541979D01*
X130574800Y-126541979D02*
X130622419Y-126399122D01*
X130622419Y-126399122D02*
X130622419Y-126161027D01*
X130574800Y-127113408D02*
X130622419Y-127256265D01*
X130622419Y-127256265D02*
X130622419Y-127494360D01*
X130622419Y-127494360D02*
X130574800Y-127589598D01*
X130574800Y-127589598D02*
X130527180Y-127637217D01*
X130527180Y-127637217D02*
X130431942Y-127684836D01*
X130431942Y-127684836D02*
X130336704Y-127684836D01*
X130336704Y-127684836D02*
X130241466Y-127637217D01*
X130241466Y-127637217D02*
X130193847Y-127589598D01*
X130193847Y-127589598D02*
X130146228Y-127494360D01*
X130146228Y-127494360D02*
X130098609Y-127303884D01*
X130098609Y-127303884D02*
X130050990Y-127208646D01*
X130050990Y-127208646D02*
X130003371Y-127161027D01*
X130003371Y-127161027D02*
X129908133Y-127113408D01*
X129908133Y-127113408D02*
X129812895Y-127113408D01*
X129812895Y-127113408D02*
X129717657Y-127161027D01*
X129717657Y-127161027D02*
X129670038Y-127208646D01*
X129670038Y-127208646D02*
X129622419Y-127303884D01*
X129622419Y-127303884D02*
X129622419Y-127541979D01*
X129622419Y-127541979D02*
X129670038Y-127684836D01*
X130622419Y-128684836D02*
X130146228Y-128351503D01*
X130622419Y-128113408D02*
X129622419Y-128113408D01*
X129622419Y-128113408D02*
X129622419Y-128494360D01*
X129622419Y-128494360D02*
X129670038Y-128589598D01*
X129670038Y-128589598D02*
X129717657Y-128637217D01*
X129717657Y-128637217D02*
X129812895Y-128684836D01*
X129812895Y-128684836D02*
X129955752Y-128684836D01*
X129955752Y-128684836D02*
X130050990Y-128637217D01*
X130050990Y-128637217D02*
X130098609Y-128589598D01*
X130098609Y-128589598D02*
X130146228Y-128494360D01*
X130146228Y-128494360D02*
X130146228Y-128113408D01*
X130717657Y-128875313D02*
X130717657Y-129637217D01*
X130622419Y-129875313D02*
X129622419Y-129875313D01*
X130622419Y-130351503D02*
X129622419Y-130351503D01*
X129622419Y-130351503D02*
X130622419Y-130922931D01*
X130622419Y-130922931D02*
X129622419Y-130922931D01*
X129622419Y-131256265D02*
X129622419Y-131827693D01*
X130622419Y-131541979D02*
X129622419Y-131541979D01*
X130622419Y-132684836D02*
X130622419Y-132113408D01*
X130622419Y-132399122D02*
X129622419Y-132399122D01*
X129622419Y-132399122D02*
X129765276Y-132303884D01*
X129765276Y-132303884D02*
X129860514Y-132208646D01*
X129860514Y-132208646D02*
X129908133Y-132113408D01*
X132622419Y-122780074D02*
X132622419Y-122303884D01*
X132622419Y-122303884D02*
X131622419Y-122303884D01*
X132574800Y-123065789D02*
X132622419Y-123208646D01*
X132622419Y-123208646D02*
X132622419Y-123446741D01*
X132622419Y-123446741D02*
X132574800Y-123541979D01*
X132574800Y-123541979D02*
X132527180Y-123589598D01*
X132527180Y-123589598D02*
X132431942Y-123637217D01*
X132431942Y-123637217D02*
X132336704Y-123637217D01*
X132336704Y-123637217D02*
X132241466Y-123589598D01*
X132241466Y-123589598D02*
X132193847Y-123541979D01*
X132193847Y-123541979D02*
X132146228Y-123446741D01*
X132146228Y-123446741D02*
X132098609Y-123256265D01*
X132098609Y-123256265D02*
X132050990Y-123161027D01*
X132050990Y-123161027D02*
X132003371Y-123113408D01*
X132003371Y-123113408D02*
X131908133Y-123065789D01*
X131908133Y-123065789D02*
X131812895Y-123065789D01*
X131812895Y-123065789D02*
X131717657Y-123113408D01*
X131717657Y-123113408D02*
X131670038Y-123161027D01*
X131670038Y-123161027D02*
X131622419Y-123256265D01*
X131622419Y-123256265D02*
X131622419Y-123494360D01*
X131622419Y-123494360D02*
X131670038Y-123637217D01*
X132622419Y-124065789D02*
X131622419Y-124065789D01*
X131622419Y-124065789D02*
X132336704Y-124399122D01*
X132336704Y-124399122D02*
X131622419Y-124732455D01*
X131622419Y-124732455D02*
X132622419Y-124732455D01*
X131622419Y-125637217D02*
X131622419Y-125446741D01*
X131622419Y-125446741D02*
X131670038Y-125351503D01*
X131670038Y-125351503D02*
X131717657Y-125303884D01*
X131717657Y-125303884D02*
X131860514Y-125208646D01*
X131860514Y-125208646D02*
X132050990Y-125161027D01*
X132050990Y-125161027D02*
X132431942Y-125161027D01*
X132431942Y-125161027D02*
X132527180Y-125208646D01*
X132527180Y-125208646D02*
X132574800Y-125256265D01*
X132574800Y-125256265D02*
X132622419Y-125351503D01*
X132622419Y-125351503D02*
X132622419Y-125541979D01*
X132622419Y-125541979D02*
X132574800Y-125637217D01*
X132574800Y-125637217D02*
X132527180Y-125684836D01*
X132527180Y-125684836D02*
X132431942Y-125732455D01*
X132431942Y-125732455D02*
X132193847Y-125732455D01*
X132193847Y-125732455D02*
X132098609Y-125684836D01*
X132098609Y-125684836D02*
X132050990Y-125637217D01*
X132050990Y-125637217D02*
X132003371Y-125541979D01*
X132003371Y-125541979D02*
X132003371Y-125351503D01*
X132003371Y-125351503D02*
X132050990Y-125256265D01*
X132050990Y-125256265D02*
X132098609Y-125208646D01*
X132098609Y-125208646D02*
X132193847Y-125161027D01*
X132622419Y-126161027D02*
X131622419Y-126161027D01*
X131622419Y-126161027D02*
X131622419Y-126399122D01*
X131622419Y-126399122D02*
X131670038Y-126541979D01*
X131670038Y-126541979D02*
X131765276Y-126637217D01*
X131765276Y-126637217D02*
X131860514Y-126684836D01*
X131860514Y-126684836D02*
X132050990Y-126732455D01*
X132050990Y-126732455D02*
X132193847Y-126732455D01*
X132193847Y-126732455D02*
X132384323Y-126684836D01*
X132384323Y-126684836D02*
X132479561Y-126637217D01*
X132479561Y-126637217D02*
X132574800Y-126541979D01*
X132574800Y-126541979D02*
X132622419Y-126399122D01*
X132622419Y-126399122D02*
X132622419Y-126161027D01*
X132574800Y-127113408D02*
X132622419Y-127256265D01*
X132622419Y-127256265D02*
X132622419Y-127494360D01*
X132622419Y-127494360D02*
X132574800Y-127589598D01*
X132574800Y-127589598D02*
X132527180Y-127637217D01*
X132527180Y-127637217D02*
X132431942Y-127684836D01*
X132431942Y-127684836D02*
X132336704Y-127684836D01*
X132336704Y-127684836D02*
X132241466Y-127637217D01*
X132241466Y-127637217D02*
X132193847Y-127589598D01*
X132193847Y-127589598D02*
X132146228Y-127494360D01*
X132146228Y-127494360D02*
X132098609Y-127303884D01*
X132098609Y-127303884D02*
X132050990Y-127208646D01*
X132050990Y-127208646D02*
X132003371Y-127161027D01*
X132003371Y-127161027D02*
X131908133Y-127113408D01*
X131908133Y-127113408D02*
X131812895Y-127113408D01*
X131812895Y-127113408D02*
X131717657Y-127161027D01*
X131717657Y-127161027D02*
X131670038Y-127208646D01*
X131670038Y-127208646D02*
X131622419Y-127303884D01*
X131622419Y-127303884D02*
X131622419Y-127541979D01*
X131622419Y-127541979D02*
X131670038Y-127684836D01*
X132622419Y-128684836D02*
X132146228Y-128351503D01*
X132622419Y-128113408D02*
X131622419Y-128113408D01*
X131622419Y-128113408D02*
X131622419Y-128494360D01*
X131622419Y-128494360D02*
X131670038Y-128589598D01*
X131670038Y-128589598D02*
X131717657Y-128637217D01*
X131717657Y-128637217D02*
X131812895Y-128684836D01*
X131812895Y-128684836D02*
X131955752Y-128684836D01*
X131955752Y-128684836D02*
X132050990Y-128637217D01*
X132050990Y-128637217D02*
X132098609Y-128589598D01*
X132098609Y-128589598D02*
X132146228Y-128494360D01*
X132146228Y-128494360D02*
X132146228Y-128113408D01*
X132717657Y-128875313D02*
X132717657Y-129637217D01*
X132622419Y-129875313D02*
X131622419Y-129875313D01*
X132622419Y-130351503D02*
X131622419Y-130351503D01*
X131622419Y-130351503D02*
X132622419Y-130922931D01*
X132622419Y-130922931D02*
X131622419Y-130922931D01*
X131622419Y-131256265D02*
X131622419Y-131827693D01*
X132622419Y-131541979D02*
X131622419Y-131541979D01*
X131717657Y-132113408D02*
X131670038Y-132161027D01*
X131670038Y-132161027D02*
X131622419Y-132256265D01*
X131622419Y-132256265D02*
X131622419Y-132494360D01*
X131622419Y-132494360D02*
X131670038Y-132589598D01*
X131670038Y-132589598D02*
X131717657Y-132637217D01*
X131717657Y-132637217D02*
X131812895Y-132684836D01*
X131812895Y-132684836D02*
X131908133Y-132684836D01*
X131908133Y-132684836D02*
X132050990Y-132637217D01*
X132050990Y-132637217D02*
X132622419Y-132065789D01*
X132622419Y-132065789D02*
X132622419Y-132684836D01*
X134420038Y-122827693D02*
X134372419Y-122732455D01*
X134372419Y-122732455D02*
X134372419Y-122589598D01*
X134372419Y-122589598D02*
X134420038Y-122446741D01*
X134420038Y-122446741D02*
X134515276Y-122351503D01*
X134515276Y-122351503D02*
X134610514Y-122303884D01*
X134610514Y-122303884D02*
X134800990Y-122256265D01*
X134800990Y-122256265D02*
X134943847Y-122256265D01*
X134943847Y-122256265D02*
X135134323Y-122303884D01*
X135134323Y-122303884D02*
X135229561Y-122351503D01*
X135229561Y-122351503D02*
X135324800Y-122446741D01*
X135324800Y-122446741D02*
X135372419Y-122589598D01*
X135372419Y-122589598D02*
X135372419Y-122684836D01*
X135372419Y-122684836D02*
X135324800Y-122827693D01*
X135324800Y-122827693D02*
X135277180Y-122875312D01*
X135277180Y-122875312D02*
X134943847Y-122875312D01*
X134943847Y-122875312D02*
X134943847Y-122684836D01*
X135372419Y-123303884D02*
X134372419Y-123303884D01*
X134372419Y-123303884D02*
X135372419Y-123875312D01*
X135372419Y-123875312D02*
X134372419Y-123875312D01*
X135372419Y-124351503D02*
X134372419Y-124351503D01*
X134372419Y-124351503D02*
X134372419Y-124589598D01*
X134372419Y-124589598D02*
X134420038Y-124732455D01*
X134420038Y-124732455D02*
X134515276Y-124827693D01*
X134515276Y-124827693D02*
X134610514Y-124875312D01*
X134610514Y-124875312D02*
X134800990Y-124922931D01*
X134800990Y-124922931D02*
X134943847Y-124922931D01*
X134943847Y-124922931D02*
X135134323Y-124875312D01*
X135134323Y-124875312D02*
X135229561Y-124827693D01*
X135229561Y-124827693D02*
X135324800Y-124732455D01*
X135324800Y-124732455D02*
X135372419Y-124589598D01*
X135372419Y-124589598D02*
X135372419Y-124351503D01*
X135172306Y-105622419D02*
X135743734Y-105622419D01*
X135458020Y-105622419D02*
X135458020Y-104622419D01*
X135458020Y-104622419D02*
X135553258Y-104765276D01*
X135553258Y-104765276D02*
X135648496Y-104860514D01*
X135648496Y-104860514D02*
X135743734Y-104908133D01*
X134029449Y-104574800D02*
X134886591Y-105860514D01*
X133172306Y-105622419D02*
X133743734Y-105622419D01*
X133458020Y-105622419D02*
X133458020Y-104622419D01*
X133458020Y-104622419D02*
X133553258Y-104765276D01*
X133553258Y-104765276D02*
X133648496Y-104860514D01*
X133648496Y-104860514D02*
X133743734Y-104908133D01*
X132029449Y-104574800D02*
X132886591Y-105860514D01*
X131743734Y-104717657D02*
X131696115Y-104670038D01*
X131696115Y-104670038D02*
X131600877Y-104622419D01*
X131600877Y-104622419D02*
X131362782Y-104622419D01*
X131362782Y-104622419D02*
X131267544Y-104670038D01*
X131267544Y-104670038D02*
X131219925Y-104717657D01*
X131219925Y-104717657D02*
X131172306Y-104812895D01*
X131172306Y-104812895D02*
X131172306Y-104908133D01*
X131172306Y-104908133D02*
X131219925Y-105050990D01*
X131219925Y-105050990D02*
X131791353Y-105622419D01*
X131791353Y-105622419D02*
X131172306Y-105622419D01*
X130553258Y-104622419D02*
X130458020Y-104622419D01*
X130458020Y-104622419D02*
X130362782Y-104670038D01*
X130362782Y-104670038D02*
X130315163Y-104717657D01*
X130315163Y-104717657D02*
X130267544Y-104812895D01*
X130267544Y-104812895D02*
X130219925Y-105003371D01*
X130219925Y-105003371D02*
X130219925Y-105241466D01*
X130219925Y-105241466D02*
X130267544Y-105431942D01*
X130267544Y-105431942D02*
X130315163Y-105527180D01*
X130315163Y-105527180D02*
X130362782Y-105574800D01*
X130362782Y-105574800D02*
X130458020Y-105622419D01*
X130458020Y-105622419D02*
X130553258Y-105622419D01*
X130553258Y-105622419D02*
X130648496Y-105574800D01*
X130648496Y-105574800D02*
X130696115Y-105527180D01*
X130696115Y-105527180D02*
X130743734Y-105431942D01*
X130743734Y-105431942D02*
X130791353Y-105241466D01*
X130791353Y-105241466D02*
X130791353Y-105003371D01*
X130791353Y-105003371D02*
X130743734Y-104812895D01*
X130743734Y-104812895D02*
X130696115Y-104717657D01*
X130696115Y-104717657D02*
X130648496Y-104670038D01*
X130648496Y-104670038D02*
X130553258Y-104622419D01*
X129838972Y-104717657D02*
X129791353Y-104670038D01*
X129791353Y-104670038D02*
X129696115Y-104622419D01*
X129696115Y-104622419D02*
X129458020Y-104622419D01*
X129458020Y-104622419D02*
X129362782Y-104670038D01*
X129362782Y-104670038D02*
X129315163Y-104717657D01*
X129315163Y-104717657D02*
X129267544Y-104812895D01*
X129267544Y-104812895D02*
X129267544Y-104908133D01*
X129267544Y-104908133D02*
X129315163Y-105050990D01*
X129315163Y-105050990D02*
X129886591Y-105622419D01*
X129886591Y-105622419D02*
X129267544Y-105622419D01*
X128410401Y-104622419D02*
X128600877Y-104622419D01*
X128600877Y-104622419D02*
X128696115Y-104670038D01*
X128696115Y-104670038D02*
X128743734Y-104717657D01*
X128743734Y-104717657D02*
X128838972Y-104860514D01*
X128838972Y-104860514D02*
X128886591Y-105050990D01*
X128886591Y-105050990D02*
X128886591Y-105431942D01*
X128886591Y-105431942D02*
X128838972Y-105527180D01*
X128838972Y-105527180D02*
X128791353Y-105574800D01*
X128791353Y-105574800D02*
X128696115Y-105622419D01*
X128696115Y-105622419D02*
X128505639Y-105622419D01*
X128505639Y-105622419D02*
X128410401Y-105574800D01*
X128410401Y-105574800D02*
X128362782Y-105527180D01*
X128362782Y-105527180D02*
X128315163Y-105431942D01*
X128315163Y-105431942D02*
X128315163Y-105193847D01*
X128315163Y-105193847D02*
X128362782Y-105098609D01*
X128362782Y-105098609D02*
X128410401Y-105050990D01*
X128410401Y-105050990D02*
X128505639Y-105003371D01*
X128505639Y-105003371D02*
X128696115Y-105003371D01*
X128696115Y-105003371D02*
X128791353Y-105050990D01*
X128791353Y-105050990D02*
X128838972Y-105098609D01*
X128838972Y-105098609D02*
X128886591Y-105193847D01*
M02*
