%TF.GenerationSoftware,KiCad,Pcbnew,9.0.6-9.0.6~ubuntu24.04.1*%
%TF.CreationDate,2026-01-01T18:51:28-07:00*%
%TF.ProjectId,ARSensors,41525365-6e73-46f7-9273-2e6b69636164,rev?*%
%TF.SameCoordinates,Original*%
%TF.FileFunction,Copper,L2,Bot*%
%TF.FilePolarity,Positive*%
%FSLAX46Y46*%
G04 Gerber Fmt 4.6, Leading zero omitted, Abs format (unit mm)*
G04 Created by KiCad (PCBNEW 9.0.6-9.0.6~ubuntu24.04.1) date 2026-01-01 18:51:28*
%MOMM*%
%LPD*%
G01*
G04 APERTURE LIST*
%TA.AperFunction,ComponentPad*%
%ADD10R,1.700000X1.700000*%
%TD*%
%TA.AperFunction,ComponentPad*%
%ADD11C,1.700000*%
%TD*%
%TA.AperFunction,ComponentPad*%
%ADD12C,0.900000*%
%TD*%
%TA.AperFunction,ComponentPad*%
%ADD13C,8.600000*%
%TD*%
%TA.AperFunction,ViaPad*%
%ADD14C,0.700000*%
%TD*%
%TA.AperFunction,Conductor*%
%ADD15C,0.300000*%
%TD*%
%TA.AperFunction,Conductor*%
%ADD16C,0.500000*%
%TD*%
%TA.AperFunction,Conductor*%
%ADD17C,0.200000*%
%TD*%
G04 APERTURE END LIST*
D10*
%TO.P,J1,1,Pin_1*%
%TO.N,+3.3V*%
X116970000Y-120250000D03*
D11*
%TO.P,J1,2,Pin_2*%
%TO.N,I2C1_SCL*%
X119510000Y-120250000D03*
%TO.P,J1,3,Pin_3*%
%TO.N,I2C1_SDA*%
X122050000Y-120250000D03*
%TO.P,J1,4,Pin_4*%
%TO.N,LIS3MDLTR_INT*%
X124590000Y-120250000D03*
%TO.P,J1,5,Pin_5*%
%TO.N,LIS3MDLTR_DRDY*%
X127130000Y-120250000D03*
%TO.P,J1,6,Pin_6*%
%TO.N,LSM6DSR_INT1*%
X129670000Y-120250000D03*
%TO.P,J1,7,Pin_7*%
%TO.N,LSM6DSR_INT2*%
X132210000Y-120250000D03*
%TO.P,J1,8,Pin_8*%
%TO.N,GND*%
X134750000Y-120250000D03*
%TD*%
D12*
%TO.P,H1,1,1*%
%TO.N,GND*%
X117225000Y-127969581D03*
X116280419Y-130250000D03*
X116280419Y-125689162D03*
X114000000Y-131194581D03*
D13*
X114000000Y-127969581D03*
D12*
X114000000Y-124744581D03*
X111719581Y-130250000D03*
X111719581Y-125689162D03*
X110775000Y-127969581D03*
%TD*%
%TO.P,H2,1,1*%
%TO.N,GND*%
X117225000Y-108750000D03*
X116280419Y-111030419D03*
X116280419Y-106469581D03*
X114000000Y-111975000D03*
D13*
X114000000Y-108750000D03*
D12*
X114000000Y-105525000D03*
X111719581Y-111030419D03*
X111719581Y-106469581D03*
X110775000Y-108750000D03*
%TD*%
D14*
%TO.N,+3.3V*%
X128000000Y-124500000D03*
X129900001Y-125000000D03*
X123000000Y-118000000D03*
X118750000Y-118000000D03*
%TO.N,GND*%
X134000000Y-127000000D03*
X113000000Y-122500000D03*
X113000000Y-114500000D03*
X125000000Y-106750000D03*
%TO.N,+3.3V*%
X129750000Y-107000000D03*
X129750000Y-108500000D03*
%TO.N,GND*%
X131500000Y-113750000D03*
X128500000Y-113250000D03*
X130750000Y-110250000D03*
%TO.N,+3.3V*%
X123750000Y-124500000D03*
X120000000Y-124500000D03*
%TO.N,GND*%
X134750000Y-117500000D03*
X126750000Y-127650000D03*
X128170000Y-125469999D03*
X128420000Y-128969999D03*
X129000000Y-130249999D03*
X133750000Y-128499999D03*
%TD*%
D15*
%TO.N,+3.3V*%
X129400001Y-124500000D02*
X128000000Y-124500000D01*
X129900001Y-125000000D02*
X129400001Y-124500000D01*
D16*
X118750000Y-118000000D02*
X123000000Y-118000000D01*
D17*
X129750000Y-108500000D02*
X129750000Y-107000000D01*
D16*
X120000000Y-124500000D02*
X123750000Y-124500000D01*
%TD*%
%TA.AperFunction,Conductor*%
%TO.N,GND*%
G36*
X137242539Y-103470185D02*
G01*
X137288294Y-103522989D01*
X137299500Y-103574500D01*
X137299500Y-133675500D01*
X137279815Y-133742539D01*
X137227011Y-133788294D01*
X137175500Y-133799500D01*
X108824500Y-133799500D01*
X108757461Y-133779815D01*
X108711706Y-133727011D01*
X108700500Y-133675500D01*
X108700500Y-124416228D01*
X119149500Y-124416228D01*
X119149500Y-124583771D01*
X119182182Y-124748074D01*
X119182184Y-124748082D01*
X119246295Y-124902860D01*
X119339373Y-125042162D01*
X119457837Y-125160626D01*
X119473959Y-125171398D01*
X119597137Y-125253703D01*
X119751918Y-125317816D01*
X119916228Y-125350499D01*
X119916232Y-125350500D01*
X119916233Y-125350500D01*
X120083768Y-125350500D01*
X120083769Y-125350499D01*
X120248082Y-125317816D01*
X120387808Y-125259938D01*
X120435261Y-125250500D01*
X123314739Y-125250500D01*
X123362191Y-125259938D01*
X123501918Y-125317816D01*
X123666228Y-125350499D01*
X123666232Y-125350500D01*
X123666233Y-125350500D01*
X123833768Y-125350500D01*
X123833769Y-125350499D01*
X123998082Y-125317816D01*
X124152863Y-125253703D01*
X124292162Y-125160626D01*
X124410626Y-125042162D01*
X124503703Y-124902863D01*
X124567816Y-124748082D01*
X124600500Y-124583767D01*
X124600500Y-124416233D01*
X124600499Y-124416228D01*
X127149500Y-124416228D01*
X127149500Y-124583771D01*
X127182182Y-124748074D01*
X127182184Y-124748082D01*
X127246295Y-124902860D01*
X127339373Y-125042162D01*
X127457837Y-125160626D01*
X127473959Y-125171398D01*
X127597137Y-125253703D01*
X127751918Y-125317816D01*
X127916228Y-125350499D01*
X127916232Y-125350500D01*
X127916233Y-125350500D01*
X128083768Y-125350500D01*
X128083769Y-125350499D01*
X128248082Y-125317816D01*
X128402863Y-125253703D01*
X128526041Y-125171398D01*
X128592719Y-125150520D01*
X128594932Y-125150500D01*
X128961011Y-125150500D01*
X129028050Y-125170185D01*
X129073805Y-125222989D01*
X129080059Y-125242358D01*
X129080416Y-125242250D01*
X129082185Y-125248082D01*
X129146296Y-125402860D01*
X129239374Y-125542162D01*
X129357838Y-125660626D01*
X129450495Y-125722537D01*
X129497138Y-125753703D01*
X129651919Y-125817816D01*
X129816229Y-125850499D01*
X129816233Y-125850500D01*
X129816234Y-125850500D01*
X129983769Y-125850500D01*
X129983770Y-125850499D01*
X130148083Y-125817816D01*
X130302864Y-125753703D01*
X130442163Y-125660626D01*
X130560627Y-125542162D01*
X130653704Y-125402863D01*
X130717817Y-125248082D01*
X130750501Y-125083767D01*
X130750501Y-124916233D01*
X130717817Y-124751918D01*
X130653704Y-124597137D01*
X130622538Y-124550494D01*
X130560627Y-124457837D01*
X130442163Y-124339373D01*
X130302861Y-124246295D01*
X130148083Y-124182184D01*
X130148075Y-124182182D01*
X130002782Y-124153281D01*
X129940871Y-124120896D01*
X129939345Y-124119398D01*
X129814670Y-123994723D01*
X129708128Y-123923535D01*
X129589745Y-123874499D01*
X129589739Y-123874497D01*
X129464072Y-123849500D01*
X129464070Y-123849500D01*
X128594932Y-123849500D01*
X128527893Y-123829815D01*
X128526041Y-123828602D01*
X128402860Y-123746295D01*
X128248082Y-123682184D01*
X128248074Y-123682182D01*
X128083771Y-123649500D01*
X128083767Y-123649500D01*
X127916233Y-123649500D01*
X127916228Y-123649500D01*
X127751925Y-123682182D01*
X127751917Y-123682184D01*
X127597139Y-123746295D01*
X127457837Y-123839373D01*
X127339373Y-123957837D01*
X127246295Y-124097139D01*
X127182184Y-124251917D01*
X127182182Y-124251925D01*
X127149500Y-124416228D01*
X124600499Y-124416228D01*
X124567816Y-124251918D01*
X124503703Y-124097137D01*
X124472537Y-124050494D01*
X124410626Y-123957837D01*
X124292162Y-123839373D01*
X124152860Y-123746295D01*
X123998082Y-123682184D01*
X123998074Y-123682182D01*
X123833771Y-123649500D01*
X123833767Y-123649500D01*
X123666233Y-123649500D01*
X123666228Y-123649500D01*
X123501925Y-123682182D01*
X123501917Y-123682184D01*
X123362192Y-123740061D01*
X123314739Y-123749500D01*
X120435261Y-123749500D01*
X120387808Y-123740061D01*
X120248082Y-123682184D01*
X120248074Y-123682182D01*
X120083771Y-123649500D01*
X120083767Y-123649500D01*
X119916233Y-123649500D01*
X119916228Y-123649500D01*
X119751925Y-123682182D01*
X119751917Y-123682184D01*
X119597139Y-123746295D01*
X119457837Y-123839373D01*
X119339373Y-123957837D01*
X119246295Y-124097139D01*
X119182184Y-124251917D01*
X119182182Y-124251925D01*
X119149500Y-124416228D01*
X108700500Y-124416228D01*
X108700500Y-119352135D01*
X115619500Y-119352135D01*
X115619500Y-121147870D01*
X115619501Y-121147876D01*
X115625908Y-121207483D01*
X115676202Y-121342328D01*
X115676206Y-121342335D01*
X115762452Y-121457544D01*
X115762455Y-121457547D01*
X115877664Y-121543793D01*
X115877671Y-121543797D01*
X116012517Y-121594091D01*
X116012516Y-121594091D01*
X116019444Y-121594835D01*
X116072127Y-121600500D01*
X117867872Y-121600499D01*
X117927483Y-121594091D01*
X118062331Y-121543796D01*
X118177546Y-121457546D01*
X118263796Y-121342331D01*
X118312810Y-121210916D01*
X118354681Y-121154984D01*
X118420145Y-121130566D01*
X118488418Y-121145417D01*
X118516673Y-121166569D01*
X118630213Y-121280109D01*
X118802179Y-121405048D01*
X118802181Y-121405049D01*
X118802184Y-121405051D01*
X118991588Y-121501557D01*
X119193757Y-121567246D01*
X119403713Y-121600500D01*
X119403714Y-121600500D01*
X119616286Y-121600500D01*
X119616287Y-121600500D01*
X119826243Y-121567246D01*
X120028412Y-121501557D01*
X120217816Y-121405051D01*
X120304138Y-121342335D01*
X120389786Y-121280109D01*
X120389788Y-121280106D01*
X120389792Y-121280104D01*
X120540104Y-121129792D01*
X120540106Y-121129788D01*
X120540109Y-121129786D01*
X120665048Y-120957820D01*
X120665047Y-120957820D01*
X120665051Y-120957816D01*
X120669514Y-120949054D01*
X120717488Y-120898259D01*
X120785308Y-120881463D01*
X120851444Y-120903999D01*
X120890486Y-120949056D01*
X120894951Y-120957820D01*
X121019890Y-121129786D01*
X121170213Y-121280109D01*
X121342179Y-121405048D01*
X121342181Y-121405049D01*
X121342184Y-121405051D01*
X121531588Y-121501557D01*
X121733757Y-121567246D01*
X121943713Y-121600500D01*
X121943714Y-121600500D01*
X122156286Y-121600500D01*
X122156287Y-121600500D01*
X122366243Y-121567246D01*
X122568412Y-121501557D01*
X122757816Y-121405051D01*
X122844138Y-121342335D01*
X122929786Y-121280109D01*
X122929788Y-121280106D01*
X122929792Y-121280104D01*
X123080104Y-121129792D01*
X123080106Y-121129788D01*
X123080109Y-121129786D01*
X123205048Y-120957820D01*
X123205047Y-120957820D01*
X123205051Y-120957816D01*
X123209514Y-120949054D01*
X123257488Y-120898259D01*
X123325308Y-120881463D01*
X123391444Y-120903999D01*
X123430486Y-120949056D01*
X123434951Y-120957820D01*
X123559890Y-121129786D01*
X123710213Y-121280109D01*
X123882179Y-121405048D01*
X123882181Y-121405049D01*
X123882184Y-121405051D01*
X124071588Y-121501557D01*
X124273757Y-121567246D01*
X124483713Y-121600500D01*
X124483714Y-121600500D01*
X124696286Y-121600500D01*
X124696287Y-121600500D01*
X124906243Y-121567246D01*
X125108412Y-121501557D01*
X125297816Y-121405051D01*
X125384138Y-121342335D01*
X125469786Y-121280109D01*
X125469788Y-121280106D01*
X125469792Y-121280104D01*
X125620104Y-121129792D01*
X125620106Y-121129788D01*
X125620109Y-121129786D01*
X125745048Y-120957820D01*
X125745047Y-120957820D01*
X125745051Y-120957816D01*
X125749514Y-120949054D01*
X125797488Y-120898259D01*
X125865308Y-120881463D01*
X125931444Y-120903999D01*
X125970486Y-120949056D01*
X125974951Y-120957820D01*
X126099890Y-121129786D01*
X126250213Y-121280109D01*
X126422179Y-121405048D01*
X126422181Y-121405049D01*
X126422184Y-121405051D01*
X126611588Y-121501557D01*
X126813757Y-121567246D01*
X127023713Y-121600500D01*
X127023714Y-121600500D01*
X127236286Y-121600500D01*
X127236287Y-121600500D01*
X127446243Y-121567246D01*
X127648412Y-121501557D01*
X127837816Y-121405051D01*
X127924138Y-121342335D01*
X128009786Y-121280109D01*
X128009788Y-121280106D01*
X128009792Y-121280104D01*
X128160104Y-121129792D01*
X128160106Y-121129788D01*
X128160109Y-121129786D01*
X128285048Y-120957820D01*
X128285047Y-120957820D01*
X128285051Y-120957816D01*
X128289514Y-120949054D01*
X128337488Y-120898259D01*
X128405308Y-120881463D01*
X128471444Y-120903999D01*
X128510486Y-120949056D01*
X128514951Y-120957820D01*
X128639890Y-121129786D01*
X128790213Y-121280109D01*
X128962179Y-121405048D01*
X128962181Y-121405049D01*
X128962184Y-121405051D01*
X129151588Y-121501557D01*
X129353757Y-121567246D01*
X129563713Y-121600500D01*
X129563714Y-121600500D01*
X129776286Y-121600500D01*
X129776287Y-121600500D01*
X129986243Y-121567246D01*
X130188412Y-121501557D01*
X130377816Y-121405051D01*
X130464138Y-121342335D01*
X130549786Y-121280109D01*
X130549788Y-121280106D01*
X130549792Y-121280104D01*
X130700104Y-121129792D01*
X130700106Y-121129788D01*
X130700109Y-121129786D01*
X130825048Y-120957820D01*
X130825047Y-120957820D01*
X130825051Y-120957816D01*
X130829514Y-120949054D01*
X130877488Y-120898259D01*
X130945308Y-120881463D01*
X131011444Y-120903999D01*
X131050486Y-120949056D01*
X131054951Y-120957820D01*
X131179890Y-121129786D01*
X131330213Y-121280109D01*
X131502179Y-121405048D01*
X131502181Y-121405049D01*
X131502184Y-121405051D01*
X131691588Y-121501557D01*
X131893757Y-121567246D01*
X132103713Y-121600500D01*
X132103714Y-121600500D01*
X132316286Y-121600500D01*
X132316287Y-121600500D01*
X132526243Y-121567246D01*
X132728412Y-121501557D01*
X132917816Y-121405051D01*
X133004138Y-121342335D01*
X133089786Y-121280109D01*
X133089788Y-121280106D01*
X133089792Y-121280104D01*
X133240104Y-121129792D01*
X133240106Y-121129788D01*
X133240109Y-121129786D01*
X133325890Y-121011717D01*
X133365051Y-120957816D01*
X133369793Y-120948508D01*
X133417763Y-120897711D01*
X133485583Y-120880911D01*
X133551719Y-120903445D01*
X133590763Y-120948500D01*
X133595373Y-120957547D01*
X133634728Y-121011716D01*
X134267037Y-120379408D01*
X134284075Y-120442993D01*
X134349901Y-120557007D01*
X134442993Y-120650099D01*
X134557007Y-120715925D01*
X134620590Y-120732962D01*
X133988282Y-121365269D01*
X133988282Y-121365270D01*
X134042449Y-121404624D01*
X134231782Y-121501095D01*
X134433870Y-121566757D01*
X134643754Y-121600000D01*
X134856246Y-121600000D01*
X135066127Y-121566757D01*
X135066130Y-121566757D01*
X135268217Y-121501095D01*
X135457554Y-121404622D01*
X135511716Y-121365270D01*
X135511717Y-121365270D01*
X134879408Y-120732962D01*
X134942993Y-120715925D01*
X135057007Y-120650099D01*
X135150099Y-120557007D01*
X135215925Y-120442993D01*
X135232962Y-120379409D01*
X135865270Y-121011717D01*
X135865270Y-121011716D01*
X135904622Y-120957554D01*
X136001095Y-120768217D01*
X136066757Y-120566130D01*
X136066757Y-120566127D01*
X136100000Y-120356246D01*
X136100000Y-120143753D01*
X136066757Y-119933872D01*
X136066757Y-119933869D01*
X136001095Y-119731782D01*
X135904624Y-119542449D01*
X135865270Y-119488282D01*
X135865269Y-119488282D01*
X135232962Y-120120590D01*
X135215925Y-120057007D01*
X135150099Y-119942993D01*
X135057007Y-119849901D01*
X134942993Y-119784075D01*
X134879409Y-119767037D01*
X135511716Y-119134728D01*
X135457550Y-119095375D01*
X135268217Y-118998904D01*
X135066129Y-118933242D01*
X134856246Y-118900000D01*
X134643754Y-118900000D01*
X134433872Y-118933242D01*
X134433869Y-118933242D01*
X134231782Y-118998904D01*
X134042439Y-119095380D01*
X133988282Y-119134727D01*
X133988282Y-119134728D01*
X134620591Y-119767037D01*
X134557007Y-119784075D01*
X134442993Y-119849901D01*
X134349901Y-119942993D01*
X134284075Y-120057007D01*
X134267037Y-120120591D01*
X133634728Y-119488282D01*
X133634727Y-119488282D01*
X133595380Y-119542440D01*
X133595376Y-119542446D01*
X133590760Y-119551505D01*
X133542781Y-119602297D01*
X133474959Y-119619087D01*
X133408826Y-119596543D01*
X133369794Y-119551493D01*
X133365051Y-119542184D01*
X133365049Y-119542181D01*
X133365048Y-119542179D01*
X133240109Y-119370213D01*
X133089786Y-119219890D01*
X132917820Y-119094951D01*
X132728414Y-118998444D01*
X132728413Y-118998443D01*
X132728412Y-118998443D01*
X132526243Y-118932754D01*
X132526241Y-118932753D01*
X132526240Y-118932753D01*
X132364957Y-118907208D01*
X132316287Y-118899500D01*
X132103713Y-118899500D01*
X132055042Y-118907208D01*
X131893760Y-118932753D01*
X131691585Y-118998444D01*
X131502179Y-119094951D01*
X131330213Y-119219890D01*
X131179890Y-119370213D01*
X131054949Y-119542182D01*
X131050484Y-119550946D01*
X131002509Y-119601742D01*
X130934688Y-119618536D01*
X130868553Y-119595998D01*
X130829516Y-119550946D01*
X130825050Y-119542182D01*
X130700109Y-119370213D01*
X130549786Y-119219890D01*
X130377820Y-119094951D01*
X130188414Y-118998444D01*
X130188413Y-118998443D01*
X130188412Y-118998443D01*
X129986243Y-118932754D01*
X129986241Y-118932753D01*
X129986240Y-118932753D01*
X129824957Y-118907208D01*
X129776287Y-118899500D01*
X129563713Y-118899500D01*
X129515042Y-118907208D01*
X129353760Y-118932753D01*
X129151585Y-118998444D01*
X128962179Y-119094951D01*
X128790213Y-119219890D01*
X128639890Y-119370213D01*
X128514949Y-119542182D01*
X128510484Y-119550946D01*
X128462509Y-119601742D01*
X128394688Y-119618536D01*
X128328553Y-119595998D01*
X128289516Y-119550946D01*
X128285050Y-119542182D01*
X128160109Y-119370213D01*
X128009786Y-119219890D01*
X127837820Y-119094951D01*
X127648414Y-118998444D01*
X127648413Y-118998443D01*
X127648412Y-118998443D01*
X127446243Y-118932754D01*
X127446241Y-118932753D01*
X127446240Y-118932753D01*
X127284957Y-118907208D01*
X127236287Y-118899500D01*
X127023713Y-118899500D01*
X126975042Y-118907208D01*
X126813760Y-118932753D01*
X126611585Y-118998444D01*
X126422179Y-119094951D01*
X126250213Y-119219890D01*
X126099890Y-119370213D01*
X125974949Y-119542182D01*
X125970484Y-119550946D01*
X125922509Y-119601742D01*
X125854688Y-119618536D01*
X125788553Y-119595998D01*
X125749516Y-119550946D01*
X125745050Y-119542182D01*
X125620109Y-119370213D01*
X125469786Y-119219890D01*
X125297820Y-119094951D01*
X125108414Y-118998444D01*
X125108413Y-118998443D01*
X125108412Y-118998443D01*
X124906243Y-118932754D01*
X124906241Y-118932753D01*
X124906240Y-118932753D01*
X124744957Y-118907208D01*
X124696287Y-118899500D01*
X124483713Y-118899500D01*
X124435042Y-118907208D01*
X124273760Y-118932753D01*
X124071585Y-118998444D01*
X123882179Y-119094951D01*
X123710213Y-119219890D01*
X123559890Y-119370213D01*
X123434949Y-119542182D01*
X123430484Y-119550946D01*
X123382509Y-119601742D01*
X123314688Y-119618536D01*
X123248553Y-119595998D01*
X123209516Y-119550946D01*
X123205050Y-119542182D01*
X123080109Y-119370213D01*
X122929786Y-119219890D01*
X122757817Y-119094949D01*
X122668162Y-119049268D01*
X122617365Y-119001294D01*
X122600570Y-118933473D01*
X122623107Y-118867338D01*
X122677822Y-118823886D01*
X122747343Y-118816913D01*
X122748647Y-118817166D01*
X122916228Y-118850499D01*
X122916232Y-118850500D01*
X122916233Y-118850500D01*
X123083768Y-118850500D01*
X123083769Y-118850499D01*
X123248082Y-118817816D01*
X123402863Y-118753703D01*
X123542162Y-118660626D01*
X123660626Y-118542162D01*
X123753703Y-118402863D01*
X123817816Y-118248082D01*
X123850500Y-118083767D01*
X123850500Y-117916233D01*
X123817816Y-117751918D01*
X123753703Y-117597137D01*
X123722537Y-117550494D01*
X123660626Y-117457837D01*
X123542162Y-117339373D01*
X123402860Y-117246295D01*
X123248082Y-117182184D01*
X123248074Y-117182182D01*
X123083771Y-117149500D01*
X123083767Y-117149500D01*
X122916233Y-117149500D01*
X122916228Y-117149500D01*
X122751925Y-117182182D01*
X122751917Y-117182184D01*
X122612192Y-117240061D01*
X122564739Y-117249500D01*
X119185261Y-117249500D01*
X119137808Y-117240061D01*
X118998082Y-117182184D01*
X118998074Y-117182182D01*
X118833771Y-117149500D01*
X118833767Y-117149500D01*
X118666233Y-117149500D01*
X118666228Y-117149500D01*
X118501925Y-117182182D01*
X118501917Y-117182184D01*
X118347139Y-117246295D01*
X118207837Y-117339373D01*
X118089373Y-117457837D01*
X117996295Y-117597139D01*
X117932184Y-117751917D01*
X117932182Y-117751925D01*
X117899500Y-117916228D01*
X117899500Y-118083771D01*
X117932182Y-118248074D01*
X117932184Y-118248082D01*
X117996295Y-118402860D01*
X118089373Y-118542162D01*
X118207837Y-118660626D01*
X118300494Y-118722537D01*
X118347137Y-118753703D01*
X118501918Y-118817816D01*
X118666228Y-118850499D01*
X118666232Y-118850500D01*
X118765445Y-118850500D01*
X118832484Y-118870185D01*
X118878239Y-118922989D01*
X118888183Y-118992147D01*
X118859158Y-119055703D01*
X118821739Y-119084985D01*
X118802182Y-119094949D01*
X118630215Y-119219889D01*
X118516673Y-119333431D01*
X118455350Y-119366915D01*
X118385658Y-119361931D01*
X118329725Y-119320059D01*
X118312810Y-119289082D01*
X118263797Y-119157671D01*
X118263793Y-119157664D01*
X118177547Y-119042455D01*
X118177544Y-119042452D01*
X118062335Y-118956206D01*
X118062328Y-118956202D01*
X117927482Y-118905908D01*
X117927483Y-118905908D01*
X117867883Y-118899501D01*
X117867881Y-118899500D01*
X117867873Y-118899500D01*
X117867864Y-118899500D01*
X116072129Y-118899500D01*
X116072123Y-118899501D01*
X116012516Y-118905908D01*
X115877671Y-118956202D01*
X115877664Y-118956206D01*
X115762455Y-119042452D01*
X115762452Y-119042455D01*
X115676206Y-119157664D01*
X115676202Y-119157671D01*
X115625908Y-119292517D01*
X115619501Y-119352116D01*
X115619500Y-119352135D01*
X108700500Y-119352135D01*
X108700500Y-106916228D01*
X128899500Y-106916228D01*
X128899500Y-107083771D01*
X128932182Y-107248074D01*
X128932184Y-107248082D01*
X128996295Y-107402860D01*
X129089372Y-107542160D01*
X129089373Y-107542161D01*
X129089374Y-107542162D01*
X129113181Y-107565969D01*
X129127887Y-107592901D01*
X129144477Y-107618715D01*
X129145368Y-107624913D01*
X129146666Y-107627290D01*
X129149500Y-107653650D01*
X129149500Y-107846349D01*
X129129815Y-107913388D01*
X129113181Y-107934030D01*
X129089376Y-107957834D01*
X129089373Y-107957837D01*
X128996295Y-108097139D01*
X128932184Y-108251917D01*
X128932182Y-108251925D01*
X128899500Y-108416228D01*
X128899500Y-108583771D01*
X128932182Y-108748074D01*
X128932184Y-108748082D01*
X128996295Y-108902860D01*
X129089373Y-109042162D01*
X129207837Y-109160626D01*
X129300494Y-109222537D01*
X129347137Y-109253703D01*
X129501918Y-109317816D01*
X129666228Y-109350499D01*
X129666232Y-109350500D01*
X129666233Y-109350500D01*
X129833768Y-109350500D01*
X129833769Y-109350499D01*
X129998082Y-109317816D01*
X130152863Y-109253703D01*
X130292162Y-109160626D01*
X130410626Y-109042162D01*
X130503703Y-108902863D01*
X130567816Y-108748082D01*
X130600500Y-108583767D01*
X130600500Y-108416233D01*
X130567816Y-108251918D01*
X130503703Y-108097137D01*
X130472537Y-108050494D01*
X130410626Y-107957837D01*
X130386819Y-107934030D01*
X130372115Y-107907102D01*
X130355523Y-107881284D01*
X130354631Y-107875083D01*
X130353334Y-107872707D01*
X130350500Y-107846349D01*
X130350500Y-107653650D01*
X130370185Y-107586611D01*
X130386815Y-107565972D01*
X130410626Y-107542162D01*
X130503703Y-107402863D01*
X130567816Y-107248082D01*
X130600500Y-107083767D01*
X130600500Y-106916233D01*
X130567816Y-106751918D01*
X130503703Y-106597137D01*
X130472537Y-106550494D01*
X130410626Y-106457837D01*
X130292162Y-106339373D01*
X130152860Y-106246295D01*
X129998082Y-106182184D01*
X129998074Y-106182182D01*
X129833771Y-106149500D01*
X129833767Y-106149500D01*
X129666233Y-106149500D01*
X129666228Y-106149500D01*
X129501925Y-106182182D01*
X129501917Y-106182184D01*
X129347139Y-106246295D01*
X129207837Y-106339373D01*
X129089373Y-106457837D01*
X128996295Y-106597139D01*
X128932184Y-106751917D01*
X128932182Y-106751925D01*
X128899500Y-106916228D01*
X108700500Y-106916228D01*
X108700500Y-103574500D01*
X108720185Y-103507461D01*
X108772989Y-103461706D01*
X108824500Y-103450500D01*
X109460118Y-103450500D01*
X137175500Y-103450500D01*
X137242539Y-103470185D01*
G37*
%TD.AperFunction*%
%TD*%
M02*
